<?xml version="1.0" encoding="UTF-8" standalone="no"?>
<!-- Generator: Adobe Illustrator 23.0.1, SVG Export Plug-In . SVG Version: 6.00 Build 0)  -->

<svg
   xmlns:dc="http://purl.org/dc/elements/1.1/"
   xmlns:cc="http://creativecommons.org/ns#"
   xmlns:rdf="http://www.w3.org/1999/02/22-rdf-syntax-ns#"
   xmlns:svg="http://www.w3.org/2000/svg"
   xmlns="http://www.w3.org/2000/svg"
   xmlns:xlink="http://www.w3.org/1999/xlink"
   xmlns:sodipodi="http://sodipodi.sourceforge.net/DTD/sodipodi-0.dtd"
   xmlns:inkscape="http://www.inkscape.org/namespaces/inkscape"
   version="1.1"
   id="Layer_1"
   x="0px"
   y="0px"
   viewBox="0 0 283.82 345.52583"
   xml:space="preserve"
   inkscape:version="0.91 r13725"
   sodipodi:docname="ambassador_indicators.svg"
   width="283.82001"
   height="345.52582"><metadata
     id="metadata259"><rdf:RDF><cc:Work
         rdf:about=""><dc:format>image/svg+xml</dc:format><dc:type
           rdf:resource="http://purl.org/dc/dcmitype/StillImage" /><dc:title></dc:title></cc:Work></rdf:RDF></metadata><defs
     id="defs257" /><sodipodi:namedview
     pagecolor="#ffffff"
     bordercolor="#666666"
     borderopacity="1"
     objecttolerance="10"
     gridtolerance="10"
     guidetolerance="10"
     inkscape:pageopacity="0"
     inkscape:pageshadow="2"
     inkscape:window-width="1396"
     inkscape:window-height="742"
     id="namedview255"
     showgrid="false"
     inkscape:zoom="0.61043431"
     inkscape:cx="-76.442656"
     inkscape:cy="178.30327"
     inkscape:window-x="0"
     inkscape:window-y="0"
     inkscape:window-maximized="0"
     inkscape:current-layer="Layer_1"
     fit-margin-top="0"
     fit-margin-left="0"
     fit-margin-right="0"
     fit-margin-bottom="0" />

<defs>
<style
     type="text/css"
     id="style3">
	.st0{clip-path:url(#SVGID_2_);fill:#00A4E0;}
	.st1{clip-path:url(#SVGID_2_);fill:#F89A38;}
	.st2{clip-path:url(#SVGID_2_);fill:#009E8A;}
	.st3{fill:#00A4E0;}
	.st4{font-family:'Avenir-Roman';}
	.st5{font-size:25px;}
	.st6{clip-path:url(#SVGID_4_);fill:none;stroke:#FFFFFF;stroke-width:0.864;stroke-miterlimit:10;}
	.st7{clip-path:url(#SVGID_4_);fill:#CDD560;}
	.st8{fill:none;stroke:#FFFFFF;stroke-width:0.864;stroke-miterlimit:10;}
	.st9{fill:#FFFFFF;}
	.st10{fill:#009E8A;}
	.st11{font-family:'Avenir-Medium';}
	.st12{font-size:45px;}
	.st13{letter-spacing:-2;}
	.st14{fill:#4D4D4F;}
	.st15{font-family:'Avenir-Book';}
	.st16{font-size:8.5px;}
	.st17{fill:#BFC759;}
	.st18{font-family:'Avenir-Heavy';}
	.st19{font-size:15px;}
	.st20{fill:#414042;}
	.st21{font-size:8px;}
	.st22{fill:#F89A38;}
	.st23{fill:none;stroke:#939598;stroke-width:0.25;}
	.st24{clip-path:url(#SVGID_6_);fill:#009E8A;}
	.st25{font-size:12px;}
	.st26{clip-path:url(#SVGID_8_);fill:#00A4E0;}
</style>
</defs>


<g
     id="g5"
     transform="translate(-25.709999,-26.082459)"><defs
       id="defs7"><rect
         id="SVGID_1_"
         x="13"
         y="13.08"
         width="305.89999"
         height="361.20001" /></defs><clipPath
       id="SVGID_2_"><use
         xlink:href="#SVGID_1_"
         style="overflow:visible"
         id="use11"
         x="0"
         y="0"
         width="100%"
         height="100%" /></clipPath><path
       class="st0"
       d="m 56.72,234.97 c 8.15,0 14.75,-6.6 14.75,-14.75 0,-8.15 -6.6,-14.75 -14.75,-14.75 -8.15,0 -14.75,6.6 -14.75,14.75 0,8.15 6.61,14.75 14.75,14.75"
       id="path13"
       clip-path="url(#SVGID_2_)"
       inkscape:connector-curvature="0"
       style="fill:#00a4e0" /><path
       class="st1"
       d="m 129.71,234.97 c 8.15,0 14.75,-6.6 14.75,-14.75 0,-8.15 -6.6,-14.75 -14.75,-14.75 -8.15,0 -14.75,6.6 -14.75,14.75 0,8.15 6.6,14.75 14.75,14.75"
       id="path15"
       clip-path="url(#SVGID_2_)"
       inkscape:connector-curvature="0"
       style="fill:#f89a38" /><path
       class="st2"
       d="m 129.71,325.19 c 8.15,0 14.75,-6.6 14.75,-14.75 0,-8.15 -6.6,-14.75 -14.75,-14.75 -8.15,0 -14.75,6.61 -14.75,14.75 0,8.14 6.6,14.75 14.75,14.75"
       id="path17"
       clip-path="url(#SVGID_2_)"
       inkscape:connector-curvature="0"
       style="fill:#009e8a" /></g><text
     id="text19"
     x="34.697201"
     y="18.994141"><tspan
       x="34.697201"
       y="18.994141"
       class="st3 st4 st5"
       id="tspan21"
       style="font-size:25px;font-family:'Avenir-Roman';fill:#00a4e0">Downtown Detroit</tspan></text>
<text
     class="st3 st4 st5"
     id="text27"
     style="font-size:25px;font-family:Avenir-Roman;fill:#00a4e0"
     x="26.622002"
     y="46.994141">Ambassador Impact</text>
<g
     id="g29"
     transform="translate(-25.709999,-26.082459)"><defs
       id="defs31"><rect
         id="SVGID_3_"
         x="13"
         y="13.08"
         width="305.89999"
         height="361.20001" /></defs><clipPath
       id="SVGID_4_"><use
         xlink:href="#SVGID_3_"
         style="overflow:visible"
         id="use35"
         x="0"
         y="0"
         width="100%"
         height="100%" /></clipPath><path
       class="st6"
       d="m 128.42,217.73 0.35,2.23 m -5.7,0.05 1.32,-2.28 m -4.54,2.23 14.99,0 m 2.73,4.89 c 0,0 1.86,0.23 2.37,-0.3 0.51,-0.53 0.2,-2.57 0.07,-2.99 -0.13,-0.42 -3.72,-1.08 -3.72,-1.08 0,0 -1.38,-0.35 -2.91,-1.23 -1.54,-0.88 -1.76,-1.52 -3.04,-1.52 l -7.75,0 c 0,0 -1.03,-0.09 -1.92,1.04 -0.9,1.14 -1.23,1.81 -1.41,2.99 -0.18,1.17 -0.02,1.7 0.2,2.09 0.22,0.38 0.77,1 1.46,1 l 1.04,0 m 3.05,0 9.21,0 m -0.13,-0.84 c 0,-0.96 0.78,-1.74 1.74,-1.74 0.96,0 1.74,0.78 1.74,1.74 0,0.96 -0.78,1.74 -1.74,1.74 -0.96,0 -1.74,-0.78 -1.74,-1.74 z m -12.34,0 c 0,-0.96 0.78,-1.74 1.74,-1.74 0.96,0 1.74,0.78 1.74,1.74 0,0.96 -0.78,1.74 -1.74,1.74 -0.96,0 -1.74,-0.78 -1.74,-1.74 z"
       id="path37"
       clip-path="url(#SVGID_4_)"
       inkscape:connector-curvature="0"
       style="fill:none;stroke:#ffffff;stroke-width:0.86400002;stroke-miterlimit:10" /><path
       class="st6"
       d="m 58.7,217.03 0,7.63 m -1.97,-7.63 0,7.63 m -1.98,-7.63 0,7.63 m 0,-11.37 0,-0.69 c 0,-0.38 0.33,-0.69 0.74,-0.69 l 2.48,0 c 0.41,0 0.74,0.31 0.74,0.69 l 0,0.69 m -7.24,1.98 -0.71,0 c -0.2,0 -0.34,-0.16 -0.32,-0.36 l 0.13,-1.26 c 0.02,-0.2 0.2,-0.36 0.4,-0.36 l 11.51,0 c 0.2,0 0.38,0.16 0.4,0.36 l 0.13,1.26 c 0.02,0.2 -0.13,0.36 -0.32,0.36 l -11.22,0 z m 0,0 1.37,10.87 c 0.02,0.16 0.17,0.29 0.33,0.29 l 3.21,0 0.34,0 0.34,0 3.21,0 c 0.16,0 0.31,-0.13 0.33,-0.29 l 1.29,-10.87"
       id="path39"
       clip-path="url(#SVGID_4_)"
       inkscape:connector-curvature="0"
       style="fill:none;stroke:#ffffff;stroke-width:0.86400002;stroke-miterlimit:10" /><path
       class="st6"
       d="m 134.62,309.92 c 0,0 0.35,0.36 0.93,0.67 0.58,0.31 1.13,0.5 1.13,1.33 l 0,3.12 c 0,0 0.12,0.92 -0.89,0.92 l -1.19,0 m -5,-12.14 c 0.52,-0.38 1.17,-0.6 1.87,-0.6 1.77,0 3.21,1.44 3.21,3.21 0,1.44 -0.95,2.65 -2.25,3.06 m -1.32,2.13 c 0,0 0.35,0.36 0.93,0.67 0.58,0.31 1.13,0.5 1.13,1.33 l 0,3.12 c 0,0 0.12,0.91 -0.89,0.91 l -4.33,0 -4.33,0 c -1.01,0 -0.89,-0.91 -0.89,-0.91 l 0,-3.12 c 0,-0.82 0.56,-1.01 1.14,-1.33 0.58,-0.32 0.93,-0.67 0.93,-0.67 m -0.06,-3.49 c 0,-1.77 1.44,-3.21 3.21,-3.21 1.77,0 3.21,1.43 3.21,3.21 0,1.77 -1.43,3.2 -3.21,3.2 -1.77,0 -3.21,-1.43 -3.21,-3.2 z"
       id="path41"
       clip-path="url(#SVGID_4_)"
       inkscape:connector-curvature="0"
       style="fill:none;stroke:#ffffff;stroke-width:0.86400002;stroke-miterlimit:10" /><path
       class="st7"
       d="m 56.72,325.19 c 8.15,0 14.75,-6.6 14.75,-14.75 0,-8.15 -6.6,-14.75 -14.75,-14.75 -8.15,0 -14.75,6.61 -14.75,14.75 0,8.14 6.61,14.75 14.75,14.75"
       id="path43"
       clip-path="url(#SVGID_4_)"
       inkscape:connector-curvature="0"
       style="fill:#cdd560" /></g><path
     class="st8"
     d="m 37.990001,291.54754 -5.11,0 0,-11.09 5.11,0 0,11.09 z m -5.12,0 -6.73,0 0,-14.38 6.73,0 0,14.38 z"
     id="path45"
     inkscape:connector-curvature="0"
     style="fill:none;stroke:#ffffff;stroke-width:0.86400002;stroke-miterlimit:10" /><rect
     x="27.68"
     y="278.74753"
     class="st9"
     width="1.3200001"
     height="1.3200001"
     id="rect47"
     style="fill:#ffffff" /><rect
     x="29.970001"
     y="278.74753"
     class="st9"
     width="1.3200001"
     height="1.3200001"
     id="rect49"
     style="fill:#ffffff" /><rect
     x="27.68"
     y="281.24753"
     class="st9"
     width="1.3200001"
     height="1.3200001"
     id="rect51"
     style="fill:#ffffff" /><rect
     x="29.970001"
     y="281.24753"
     class="st9"
     width="1.3200001"
     height="1.3200001"
     id="rect53"
     style="fill:#ffffff" /><rect
     x="27.68"
     y="283.74753"
     class="st9"
     width="1.3200001"
     height="1.3200001"
     id="rect55"
     style="fill:#ffffff" /><rect
     x="29.970001"
     y="283.74753"
     class="st9"
     width="1.3200001"
     height="1.3200001"
     id="rect57"
     style="fill:#ffffff" /><rect
     x="27.68"
     y="286.23755"
     class="st9"
     width="1.3200001"
     height="1.3200001"
     id="rect59"
     style="fill:#ffffff" /><rect
     x="29.970001"
     y="286.23755"
     class="st9"
     width="1.3200001"
     height="1.3200001"
     id="rect61"
     style="fill:#ffffff" /><rect
     x="27.68"
     y="288.73755"
     class="st9"
     width="1.3200001"
     height="1.3200001"
     id="rect63"
     style="fill:#ffffff" /><rect
     x="29.970001"
     y="288.73755"
     class="st9"
     width="1.3200001"
     height="1.3200001"
     id="rect65"
     style="fill:#ffffff" /><path
     class="st8"
     d="m 34.240001,289.57754 2.38,0 m -2.38,-1.76 2.38,0 m -2.38,-1.75 2.38,0 m -2.38,-1.75 2.38,0 m -2.38,-1.75 2.38,0"
     id="path67"
     inkscape:connector-curvature="0"
     style="fill:none;stroke:#ffffff;stroke-width:0.86400002;stroke-miterlimit:10" /><text
     id="text69"
     x="26.4326"
     y="116.37594"><tspan
       x="26.4326"
       y="116.37594"
       class="st10 st11 st12 st13"
       id="tspan71"
       style="font-size:45px;font-family:Avenir-Medium;letter-spacing:-2;fill:#009e8a">9</tspan><tspan
       x="48.752602"
       y="116.37594"
       class="st10 st11 st12"
       id="tspan73"
       style="font-size:45px;font-family:Avenir-Medium;fill:#009e8a">1%</tspan></text>
<text
     class="st14 st15 st16"
     id="text75"
     style="font-size:8.5px;font-family:Avenir-Book;fill:#4d4d4f"
     x="38.808601"
     y="132.87595">of Ambassadors</text>
<text
     class="st14 st15 st16"
     id="text77"
     style="font-size:8.5px;font-family:Avenir-Book;fill:#4d4d4f"
     x="99.736298"
     y="132.87595" />
<text
     id="text79"
     x="43.390102"
     y="144.87784"><tspan
       x="43.390102"
       y="144.87784"
       class="st14 st15 st16"
       id="tspan81"
       style="font-size:8.5px;font-family:Avenir-Book;fill:#4d4d4f">a</tspan><tspan
       x="47.800102"
       y="144.87784"
       class="st14 st15 st16"
       id="tspan83"
       style="font-size:8.5px;font-family:Avenir-Book;fill:#4d4d4f">r</tspan><tspan
       x="50.480103"
       y="144.87784"
       class="st14 st15 st16"
       id="tspan85"
       style="font-size:8.5px;font-family:Avenir-Book;fill:#4d4d4f">e Det</tspan><tspan
       x="71.410103"
       y="144.87784"
       class="st14 st15 st16"
       id="tspan87"
       style="font-size:8.5px;font-family:Avenir-Book;fill:#4d4d4f">r</tspan><tspan
       x="74.090103"
       y="144.87784"
       class="st14 st15 st16"
       id="tspan89"
       style="font-size:8.5px;font-family:Avenir-Book;fill:#4d4d4f">oiters</tspan></text>
<text
     class="st17 st11 st12"
     id="text91"
     style="font-size:45px;font-family:Avenir-Medium;fill:#bfc759"
     x="180.3671"
     y="267.24796">33%</text>
<text
     class="st14 st15 st16"
     id="text93"
     style="font-size:8.5px;font-family:Avenir-Book;fill:#4d4d4f"
     x="188.5854"
     y="283.74796">of the Ambassador </text>
<text
     id="text95"
     x="173.79539"
     y="295.74994"><tspan
       x="173.79539"
       y="295.74994"
       class="st14 st15 st16"
       id="tspan97"
       style="font-size:8.5px;font-family:Avenir-Book;fill:#4d4d4f">workfo</tspan><tspan
       x="199.4454"
       y="295.74994"
       class="st14 st15 st16"
       id="tspan99"
       style="font-size:8.5px;font-family:Avenir-Book;fill:#4d4d4f">r</tspan><tspan
       x="202.1254"
       y="295.74994"
       class="st14 st15 st16"
       id="tspan101"
       style="font-size:8.5px;font-family:Avenir-Book;fill:#4d4d4f">ce </tspan><tspan
       x="213.3154"
       y="295.74994"
       class="st14 st15 st16"
       id="tspan103"
       style="font-size:8.5px;font-family:Avenir-Book;fill:#4d4d4f">r</tspan><tspan
       x="215.9854"
       y="295.74994"
       class="st14 st15 st16"
       id="tspan105"
       style="font-size:8.5px;font-family:Avenir-Book;fill:#4d4d4f">ep</tspan><tspan
       x="225.9054"
       y="295.74994"
       class="st14 st15 st16"
       id="tspan107"
       style="font-size:8.5px;font-family:Avenir-Book;fill:#4d4d4f">r</tspan><tspan
       x="228.5854"
       y="295.74994"
       class="st14 st15 st16"
       id="tspan109"
       style="font-size:8.5px;font-family:Avenir-Book;fill:#4d4d4f">esent youth, </tspan></text>
<text
     class="st14 st15 st16"
     id="text111"
     style="font-size:8.5px;font-family:Avenir-Book;fill:#4d4d4f"
     x="184.5732"
     y="307.75195">seniors, veterans and </text>
<text
     class="st14 st15 st16"
     id="text113"
     style="font-size:8.5px;font-family:Avenir-Book;fill:#4d4d4f"
     x="179.7963"
     y="319.75385">people with disabilities, </text>
<text
     id="text115"
     x="175.8354"
     y="331.75583"><tspan
       x="175.8354"
       y="331.75583"
       class="st14 st15 st16"
       id="tspan117"
       style="font-size:8.5px;font-family:Avenir-Book;fill:#4d4d4f">criminal backg</tspan><tspan
       x="230.60541"
       y="331.75583"
       class="st14 st15 st16"
       id="tspan119"
       style="font-size:8.5px;font-family:Avenir-Book;fill:#4d4d4f">r</tspan><tspan
       x="233.2854"
       y="331.75583"
       class="st14 st15 st16"
       id="tspan121"
       style="font-size:8.5px;font-family:Avenir-Book;fill:#4d4d4f">ounds and </tspan></text>
<text
     class="st14 st15 st16"
     id="text123"
     style="font-size:8.5px;font-family:Avenir-Book;fill:#4d4d4f"
     x="193.1499"
     y="343.75775">other challenges</text>
<text
     class="st3 st18 st19"
     id="text125"
     style="font-size:15px;font-family:Avenir-Heavy;fill:#00a4e0"
     x="17.694801"
     y="226.99895">569</text>
<text
     id="text127"
     x="8.422801"
     y="239.65913"><tspan
       x="8.422801"
       y="239.65913"
       class="st20 st15 st21"
       id="tspan129"
       style="font-size:8px;font-family:Avenir-Book;fill:#414042">T</tspan><tspan
       x="12.132801"
       y="239.65913"
       class="st20 st15 st21"
       id="tspan131"
       style="font-size:8px;font-family:Avenir-Book;fill:#414042">ons of trash </tspan></text>
<text
     id="text133"
     x="15.159101"
     y="250.15424"><tspan
       x="15.159101"
       y="250.15424"
       class="st20 st15 st21"
       id="tspan135"
       style="font-size:8px;font-family:Avenir-Book;fill:#414042">r</tspan><tspan
       x="17.6791"
       y="250.15424"
       class="st20 st15 st21"
       id="tspan137"
       style="font-size:8px;font-family:Avenir-Book;fill:#414042">emoved </tspan></text>
<text
     class="st22 st18 st19"
     id="text139"
     style="font-size:15px;font-family:Avenir-Heavy;fill:#f89a38"
     x="84.017097"
     y="226.99895">4,499</text>
<text
     class="st20 st15 st21"
     id="text141"
     style="font-size:8px;font-family:Avenir-Book;fill:#414042"
     x="87.341301"
     y="239.65913">Motorists</text>
<text
     class="st20 st15 st21"
     id="text143"
     style="font-size:8px;font-family:Avenir-Book;fill:#414042"
     x="120.6533"
     y="239.65913" />
<text
     class="st20 st15 st21"
     id="text145"
     style="font-size:8px;font-family:Avenir-Book;fill:#414042"
     x="89.853004"
     y="250.15424">assisted</text>
<text
     class="st10 st18 st19"
     id="text147"
     style="font-size:15px;font-family:Avenir-Heavy;fill:#009e8a"
     x="79.577103"
     y="319.21475">48,570</text>
<text
     class="st20 st15 st21"
     id="text149"
     style="font-size:8px;font-family:Avenir-Book;fill:#414042"
     x="83.484802"
     y="331.87494">Pedestrians </text>
<text
     class="st20 st15 st21"
     id="text151"
     style="font-size:8px;font-family:Avenir-Book;fill:#414042"
     x="89.853004"
     y="342.37003">assisted</text>
<text
     class="st17 st18 st19"
     id="text153"
     style="font-size:15px;font-family:Avenir-Heavy;fill:#bfc759"
     x="11.034601"
     y="316.82224">2,914</text>
<text
     class="st20 st15 st21"
     id="text155"
     style="font-size:8px;font-family:Avenir-Book;fill:#414042"
     x="50.994102"
     y="316.82224" />
<path
     class="st20"
     d="m 15.170001,324.86754 c -0.19,-0.2 -0.42,-0.36 -0.69,-0.48 -0.27,-0.12 -0.58,-0.18 -0.93,-0.18 -0.36,0 -0.69,0.07 -0.98,0.2 -0.29,0.13 -0.53,0.31 -0.73,0.54 -0.2,0.22 -0.35,0.48 -0.46,0.78 -0.11,0.3 -0.16,0.61 -0.16,0.93 0,0.33 0.05,0.64 0.16,0.93 0.11,0.3 0.26,0.56 0.46,0.78 0.2,0.22 0.44,0.4 0.73,0.54 0.29,0.13 0.61,0.2 0.98,0.2 0.29,0 0.57,-0.04 0.84,-0.11 0.27,-0.07 0.51,-0.17 0.72,-0.29 l 0,-1.9 -1.35,0 0,-0.53 1.93,0 0,2.78 c -0.32,0.19 -0.67,0.33 -1.05,0.43 -0.38,0.1 -0.75,0.15 -1.09,0.15 -0.42,0 -0.81,-0.07 -1.17,-0.22 -0.36,-0.15 -0.67,-0.36 -0.94,-0.62 -0.26,-0.26 -0.47,-0.58 -0.62,-0.94 -0.15,-0.36 -0.22,-0.76 -0.22,-1.19 0,-0.43 0.07,-0.83 0.22,-1.19 0.15,-0.36 0.36,-0.68 0.62,-0.94 0.26,-0.26 0.58,-0.47 0.94,-0.62 0.36,-0.15 0.75,-0.22 1.17,-0.22 0.45,0 0.84,0.06 1.17,0.19 0.33,0.13 0.62,0.32 0.88,0.57 l -0.43,0.41 z m 1.9,2.04 c 0,-0.17 0,-0.33 -0.01,-0.5 -0.01,-0.17 -0.01,-0.39 -0.02,-0.66 l 0.52,0 0,0.7 0.02,0 c 0.04,-0.1 0.09,-0.2 0.16,-0.29 0.07,-0.09 0.15,-0.18 0.25,-0.25 0.1,-0.07 0.21,-0.13 0.34,-0.18 0.13,-0.05 0.28,-0.07 0.44,-0.07 0.15,0 0.28,0.02 0.39,0.05 l -0.1,0.52 c -0.07,-0.03 -0.17,-0.04 -0.3,-0.04 -0.2,0 -0.38,0.04 -0.52,0.12 -0.14,0.08 -0.26,0.18 -0.36,0.3 -0.1,0.12 -0.17,0.25 -0.21,0.39 -0.05,0.14 -0.07,0.27 -0.07,0.4 l 0,2.11 -0.53,0 0,-2.6 z m 5,0.28 0,-0.1 c 0,-0.65 -0.32,-0.97 -0.96,-0.97 -0.44,0 -0.82,0.15 -1.14,0.44 l -0.32,-0.38 c 0.35,-0.36 0.88,-0.54 1.58,-0.54 0.18,0 0.36,0.03 0.52,0.08 0.17,0.05 0.31,0.13 0.44,0.24 0.12,0.11 0.22,0.25 0.3,0.41 0.07,0.17 0.11,0.36 0.11,0.59 l 0,1.67 c 0,0.14 0.01,0.29 0.02,0.45 0.01,0.16 0.03,0.29 0.04,0.39 l -0.51,0 c -0.02,-0.09 -0.03,-0.19 -0.04,-0.3 -0.01,-0.11 -0.01,-0.21 -0.01,-0.31 l -0.01,0 c -0.15,0.25 -0.34,0.43 -0.55,0.54 -0.21,0.11 -0.47,0.16 -0.77,0.16 -0.17,0 -0.33,-0.02 -0.48,-0.07 -0.15,-0.05 -0.29,-0.11 -0.41,-0.21 -0.12,-0.09 -0.22,-0.21 -0.29,-0.34 -0.07,-0.14 -0.11,-0.29 -0.11,-0.48 0,-0.3 0.08,-0.54 0.24,-0.72 0.16,-0.17 0.35,-0.3 0.59,-0.39 0.24,-0.09 0.49,-0.14 0.76,-0.16 0.27,-0.02 0.52,-0.03 0.74,-0.03 l 0.26,0 z m -0.27,0.44 c -0.13,0 -0.3,0.01 -0.5,0.02 -0.2,0.01 -0.39,0.05 -0.58,0.1 -0.18,0.05 -0.34,0.13 -0.47,0.24 -0.13,0.11 -0.2,0.25 -0.2,0.44 0,0.12 0.03,0.23 0.08,0.32 0.05,0.09 0.12,0.16 0.2,0.22 0.09,0.06 0.18,0.1 0.28,0.12 0.1,0.02 0.21,0.04 0.32,0.04 0.19,0 0.36,-0.03 0.5,-0.1 0.14,-0.06 0.26,-0.15 0.36,-0.26 0.1,-0.11 0.17,-0.24 0.21,-0.38 0.05,-0.15 0.07,-0.3 0.07,-0.47 l 0,-0.27 -0.27,0 z m 3.77,-1.41 -0.89,0 0,3.26 -0.53,0 0,-3.26 -0.79,0 0,-0.48 0.79,0 0,-1.02 c 0,-0.5 0.11,-0.85 0.34,-1.06 0.23,-0.21 0.53,-0.32 0.91,-0.32 0.07,0 0.15,0.01 0.23,0.02 0.08,0.01 0.15,0.02 0.23,0.04 l -0.1,0.48 c -0.06,-0.02 -0.13,-0.03 -0.2,-0.04 -0.07,-0.01 -0.14,-0.02 -0.21,-0.02 -0.14,0 -0.26,0.02 -0.35,0.07 -0.09,0.05 -0.16,0.12 -0.21,0.2 -0.05,0.09 -0.08,0.19 -0.1,0.31 -0.02,0.12 -0.02,0.24 -0.02,0.38 l 0,0.96 0.89,0 0,0.48 z m 2.37,0 -0.89,0 0,3.26 -0.53,0 0,-3.26 -0.79,0 0,-0.48 0.79,0 0,-1.02 c 0,-0.5 0.11,-0.85 0.34,-1.06 0.23,-0.21 0.53,-0.32 0.91,-0.32 0.07,0 0.15,0.01 0.23,0.02 0.08,0.01 0.15,0.02 0.23,0.04 l -0.1,0.48 c -0.06,-0.02 -0.13,-0.03 -0.2,-0.04 -0.07,-0.01 -0.14,-0.02 -0.21,-0.02 -0.14,0 -0.26,0.02 -0.35,0.07 -0.09,0.05 -0.16,0.12 -0.21,0.2 -0.05,0.09 -0.08,0.19 -0.1,0.31 -0.02,0.12 -0.02,0.24 -0.02,0.38 l 0,0.96 0.89,0 0,0.48 z m 1.4,-1.91 c 0,0.11 -0.04,0.2 -0.12,0.28 -0.08,0.07 -0.17,0.11 -0.26,0.11 -0.1,0 -0.18,-0.04 -0.26,-0.11 -0.08,-0.07 -0.12,-0.16 -0.12,-0.28 0,-0.12 0.04,-0.2 0.12,-0.28 0.08,-0.07 0.17,-0.11 0.26,-0.11 0.1,0 0.18,0.04 0.26,0.11 0.08,0.07 0.12,0.16 0.12,0.28 z m -0.12,5.18 -0.53,0 0,-3.74 0.53,0 0,3.74 z m 3.21,-3.27 -1.08,0 0,2.21 c 0,0.14 0.01,0.25 0.04,0.34 0.03,0.09 0.06,0.16 0.11,0.2 0.05,0.04 0.11,0.08 0.17,0.1 0.07,0.02 0.14,0.03 0.22,0.03 0.09,0 0.18,-0.01 0.28,-0.04 0.1,-0.03 0.18,-0.06 0.26,-0.1 l 0.02,0.49 c -0.2,0.09 -0.43,0.14 -0.71,0.14 -0.1,0 -0.21,-0.01 -0.32,-0.04 -0.11,-0.03 -0.21,-0.08 -0.3,-0.15 -0.09,-0.07 -0.17,-0.18 -0.22,-0.3 -0.06,-0.13 -0.09,-0.3 -0.09,-0.5 l 0,-2.36 -0.79,0 0,-0.48 0.79,0 0,-1.06 0.53,0 0,1.06 1.08,0 0,0.46 z m 1.48,-1.91 c 0,0.11 -0.04,0.2 -0.12,0.28 -0.08,0.07 -0.17,0.11 -0.26,0.11 -0.09,0 -0.18,-0.04 -0.26,-0.11 -0.08,-0.07 -0.12,-0.16 -0.12,-0.28 0,-0.12 0.04,-0.2 0.12,-0.28 0.08,-0.07 0.17,-0.11 0.26,-0.11 0.09,0 0.18,0.04 0.26,0.11 0.08,0.07 0.12,0.16 0.12,0.28 z m -0.12,5.18 -0.53,0 0,-3.74 0.53,0 0,3.74 z m 5.44,-3.27 -1.08,0 0,2.21 c 0,0.14 0.01,0.25 0.04,0.34 0.03,0.09 0.06,0.16 0.11,0.2 0.05,0.05 0.11,0.08 0.17,0.1 0.07,0.02 0.14,0.03 0.22,0.03 0.09,0 0.18,-0.01 0.28,-0.04 0.1,-0.03 0.18,-0.06 0.26,-0.1 l 0.02,0.49 c -0.2,0.09 -0.43,0.14 -0.71,0.14 -0.1,0 -0.21,-0.01 -0.32,-0.04 -0.11,-0.03 -0.21,-0.08 -0.3,-0.15 -0.09,-0.07 -0.17,-0.18 -0.22,-0.3 -0.06,-0.13 -0.09,-0.3 -0.09,-0.5 l 0,-2.36 -0.79,0 0,-0.48 0.79,0 0,-1.06 0.53,0 0,1.06 1.08,0 0,0.46 z m 3.12,0.97 0,-0.1 c 0,-0.65 -0.32,-0.97 -0.96,-0.97 -0.44,0 -0.82,0.15 -1.14,0.44 l -0.32,-0.38 c 0.35,-0.36 0.88,-0.54 1.58,-0.54 0.18,0 0.36,0.03 0.52,0.08 0.17,0.05 0.31,0.13 0.44,0.24 0.12,0.11 0.22,0.25 0.3,0.41 0.07,0.17 0.11,0.36 0.11,0.59 l 0,1.67 c 0,0.14 0.01,0.29 0.02,0.45 0.01,0.16 0.03,0.29 0.04,0.39 l -0.51,0 c -0.02,-0.09 -0.03,-0.19 -0.04,-0.3 -0.01,-0.11 -0.01,-0.21 -0.01,-0.31 l -0.02,0 c -0.15,0.25 -0.34,0.43 -0.55,0.54 -0.21,0.11 -0.47,0.16 -0.77,0.16 -0.17,0 -0.33,-0.02 -0.48,-0.07 -0.15,-0.05 -0.29,-0.11 -0.41,-0.21 -0.12,-0.09 -0.22,-0.21 -0.29,-0.34 -0.07,-0.14 -0.11,-0.29 -0.11,-0.48 0,-0.3 0.08,-0.54 0.24,-0.72 0.16,-0.17 0.35,-0.3 0.59,-0.39 0.24,-0.09 0.49,-0.14 0.76,-0.16 0.27,-0.02 0.52,-0.03 0.74,-0.03 l 0.27,0 z m -0.28,0.44 c -0.13,0 -0.3,0.01 -0.5,0.02 -0.2,0.01 -0.39,0.05 -0.58,0.1 -0.18,0.05 -0.34,0.13 -0.47,0.24 -0.13,0.11 -0.2,0.25 -0.2,0.44 0,0.12 0.03,0.23 0.08,0.32 0.05,0.09 0.12,0.16 0.2,0.22 0.09,0.06 0.18,0.1 0.28,0.12 0.1,0.02 0.21,0.04 0.32,0.04 0.19,0 0.36,-0.03 0.5,-0.1 0.14,-0.06 0.26,-0.15 0.36,-0.26 0.1,-0.11 0.17,-0.24 0.21,-0.38 0.05,-0.15 0.07,-0.3 0.07,-0.47 l 0,-0.27 -0.27,0 z m 2.32,2.61 c 0.15,0.21 0.36,0.37 0.6,0.5 0.25,0.13 0.52,0.19 0.83,0.19 0.27,0 0.49,-0.04 0.68,-0.12 0.19,-0.08 0.34,-0.18 0.45,-0.32 0.11,-0.13 0.2,-0.29 0.25,-0.47 0.05,-0.18 0.08,-0.37 0.08,-0.57 l 0,-0.67 -0.02,0 c -0.17,0.26 -0.38,0.44 -0.62,0.54 -0.25,0.11 -0.5,0.16 -0.78,0.16 -0.28,0 -0.53,-0.05 -0.76,-0.14 -0.24,-0.1 -0.44,-0.23 -0.62,-0.4 -0.18,-0.17 -0.31,-0.37 -0.42,-0.6 -0.1,-0.23 -0.15,-0.49 -0.15,-0.76 0,-0.27 0.05,-0.53 0.14,-0.76 0.1,-0.23 0.23,-0.44 0.4,-0.62 0.17,-0.18 0.37,-0.31 0.6,-0.41 0.23,-0.1 0.49,-0.15 0.76,-0.15 0.11,0 0.23,0.01 0.36,0.03 0.13,0.02 0.25,0.06 0.38,0.11 0.13,0.05 0.25,0.13 0.37,0.22 0.12,0.09 0.24,0.21 0.34,0.36 l 0.02,0 0,-0.62 0.53,0 0,3.71 c 0,0.2 -0.03,0.42 -0.08,0.65 -0.05,0.23 -0.15,0.44 -0.3,0.63 -0.15,0.19 -0.35,0.35 -0.61,0.48 -0.26,0.13 -0.6,0.19 -1.02,0.19 -0.37,0 -0.71,-0.06 -1,-0.18 -0.29,-0.12 -0.56,-0.31 -0.8,-0.57 l 0.39,-0.41 z m 0.09,-2.67 c 0,0.2 0.04,0.38 0.11,0.56 0.07,0.17 0.17,0.33 0.3,0.46 0.13,0.13 0.27,0.23 0.44,0.31 0.17,0.08 0.35,0.12 0.55,0.12 0.19,0 0.37,-0.03 0.55,-0.1 0.17,-0.07 0.33,-0.17 0.46,-0.29 0.13,-0.13 0.24,-0.28 0.31,-0.45 0.07,-0.18 0.11,-0.37 0.1,-0.59 0,-0.2 -0.03,-0.38 -0.1,-0.56 -0.06,-0.17 -0.16,-0.33 -0.28,-0.46 -0.12,-0.13 -0.27,-0.23 -0.45,-0.31 -0.18,-0.08 -0.37,-0.12 -0.59,-0.12 -0.2,0 -0.38,0.04 -0.55,0.12 -0.17,0.08 -0.31,0.18 -0.44,0.31 -0.13,0.13 -0.22,0.28 -0.3,0.46 -0.07,0.16 -0.11,0.34 -0.11,0.54 z m 6.49,-0.94 c -0.08,-0.15 -0.19,-0.28 -0.32,-0.37 -0.13,-0.09 -0.3,-0.14 -0.49,-0.14 -0.09,0 -0.18,0.01 -0.28,0.03 -0.09,0.02 -0.18,0.05 -0.25,0.1 -0.07,0.05 -0.13,0.1 -0.18,0.17 -0.05,0.07 -0.07,0.15 -0.07,0.26 0,0.18 0.06,0.3 0.18,0.38 0.12,0.08 0.31,0.15 0.55,0.21 l 0.54,0.13 c 0.26,0.06 0.48,0.18 0.65,0.36 0.17,0.18 0.26,0.4 0.26,0.67 0,0.2 -0.04,0.38 -0.12,0.52 -0.08,0.15 -0.19,0.27 -0.33,0.36 -0.14,0.09 -0.29,0.16 -0.47,0.2 -0.18,0.04 -0.35,0.06 -0.54,0.06 -0.29,0 -0.56,-0.05 -0.8,-0.16 -0.25,-0.11 -0.46,-0.3 -0.64,-0.56 l 0.46,-0.31 c 0.11,0.17 0.24,0.31 0.4,0.41 0.16,0.1 0.36,0.15 0.58,0.15 0.11,0 0.21,-0.01 0.32,-0.04 0.11,-0.02 0.2,-0.06 0.28,-0.11 0.08,-0.05 0.15,-0.12 0.2,-0.2 0.05,-0.08 0.08,-0.17 0.08,-0.28 0,-0.19 -0.07,-0.32 -0.21,-0.4 -0.14,-0.08 -0.31,-0.15 -0.5,-0.2 l -0.51,-0.12 c -0.06,-0.02 -0.15,-0.04 -0.26,-0.08 -0.11,-0.04 -0.22,-0.09 -0.32,-0.17 -0.1,-0.07 -0.19,-0.17 -0.27,-0.29 -0.07,-0.12 -0.11,-0.27 -0.11,-0.44 0,-0.19 0.04,-0.36 0.12,-0.5 0.08,-0.14 0.18,-0.26 0.31,-0.35 0.13,-0.09 0.28,-0.16 0.44,-0.2 0.17,-0.05 0.34,-0.07 0.51,-0.07 0.26,0 0.5,0.05 0.73,0.15 0.22,0.1 0.4,0.27 0.52,0.52 l -0.46,0.31 z"
     id="path157"
     inkscape:connector-curvature="0"
     style="fill:#414042" /><text
     id="text159"
     x="15.162101"
     y="339.98233"><tspan
       x="15.162101"
       y="339.98233"
       class="st20 st15 st21"
       id="tspan161"
       style="font-size:8px;font-family:Avenir-Book;fill:#414042">r</tspan><tspan
       x="17.6821"
       y="339.98233"
       class="st20 st15 st21"
       id="tspan163"
       style="font-size:8px;font-family:Avenir-Book;fill:#414042">emoved </tspan></text>
<line
     class="st23"
     x1="0"
     y1="163.49754"
     x2="143.95001"
     y2="163.49754"
     id="line165"
     style="fill:none;stroke:#939598;stroke-width:0.25" /><line
     class="st23"
     x1="168.26001"
     y1="218.73755"
     x2="283.82001"
     y2="218.73755"
     id="line167"
     style="fill:none;stroke:#939598;stroke-width:0.25" /><line
     class="st23"
     x1="156.23001"
     y1="70.307541"
     x2="156.23001"
     y2="343.74753"
     id="line169"
     style="fill:none;stroke:#939598;stroke-width:0.25" /><text
     id="text171"
     x="175.77341"
     y="78.802643"><tspan
       x="175.77341"
       y="78.802643"
       class="st20 st11 st16"
       id="tspan173"
       style="font-size:8.5px;font-family:Avenir-Medium;fill:#414042">F</tspan><tspan
       x="180.6534"
       y="78.802643"
       class="st20 st11 st16"
       id="tspan175"
       style="font-size:8.5px;font-family:Avenir-Medium;fill:#414042">r</tspan><tspan
       x="183.6534"
       y="78.802643"
       class="st20 st11 st16"
       id="tspan177"
       style="font-size:8.5px;font-family:Avenir-Medium;fill:#414042">om 2017 to 2018, </tspan></text>
<text
     id="text179"
     x="175.77341"
     y="90.804642"><tspan
       x="175.77341"
       y="90.804642"
       class="st20 st11 st16"
       id="tspan181"
       style="font-size:8.5px;font-family:Avenir-Medium;fill:#414042">the</tspan><tspan
       x="188.3734"
       y="90.804642"
       class="st20 st11 st16"
       id="tspan183"
       style="font-size:8.5px;font-family:Avenir-Medium;fill:#414042">r</tspan><tspan
       x="191.3734"
       y="90.804642"
       class="st20 st11 st16"
       id="tspan185"
       style="font-size:8.5px;font-family:Avenir-Medium;fill:#414042">e was</tspan></text>
<path
     class="st20"
     d="m 176.37,189.71754 c 0.22,-0.2 0.46,-0.35 0.75,-0.45 0.28,-0.1 0.57,-0.15 0.85,-0.15 0.29,0 0.55,0.04 0.76,0.11 0.21,0.07 0.39,0.17 0.52,0.3 0.14,0.12 0.24,0.27 0.3,0.43 0.07,0.16 0.1,0.33 0.1,0.51 l 0,2.06 c 0,0.14 0,0.27 0.01,0.39 0.01,0.12 0.01,0.23 0.03,0.34 l -0.68,0 c -0.02,-0.2 -0.03,-0.41 -0.03,-0.61 l -0.02,0 c -0.17,0.26 -0.37,0.44 -0.6,0.55 -0.23,0.11 -0.5,0.16 -0.81,0.16 -0.19,0 -0.37,-0.03 -0.54,-0.08 -0.17,-0.05 -0.32,-0.13 -0.45,-0.23 -0.13,-0.1 -0.23,-0.23 -0.3,-0.38 -0.07,-0.15 -0.11,-0.32 -0.11,-0.52 0,-0.26 0.06,-0.48 0.17,-0.65 0.12,-0.18 0.27,-0.32 0.48,-0.43 0.2,-0.11 0.44,-0.19 0.71,-0.24 0.27,-0.05 0.56,-0.07 0.86,-0.07 l 0.56,0 0,-0.17 c 0,-0.1 -0.02,-0.2 -0.06,-0.31 -0.04,-0.1 -0.1,-0.19 -0.18,-0.28 -0.08,-0.08 -0.18,-0.15 -0.3,-0.2 -0.12,-0.05 -0.26,-0.07 -0.42,-0.07 -0.15,0 -0.28,0.01 -0.39,0.04 -0.11,0.03 -0.21,0.06 -0.3,0.11 -0.09,0.04 -0.17,0.09 -0.25,0.15 -0.07,0.06 -0.14,0.11 -0.21,0.16 l -0.45,-0.47 z m 2.16,1.6 c -0.18,0 -0.37,0.01 -0.56,0.03 -0.19,0.02 -0.36,0.06 -0.52,0.11 -0.16,0.06 -0.28,0.14 -0.38,0.24 -0.1,0.1 -0.15,0.23 -0.15,0.39 0,0.23 0.08,0.4 0.23,0.5 0.16,0.1 0.37,0.15 0.63,0.15 0.21,0 0.39,-0.04 0.54,-0.11 0.15,-0.07 0.27,-0.16 0.36,-0.28 0.09,-0.11 0.16,-0.24 0.2,-0.38 0.04,-0.14 0.06,-0.28 0.06,-0.41 l 0,-0.26 -0.41,0 z m 4.37,-1.08 c -0.09,-0.11 -0.2,-0.21 -0.34,-0.28 -0.13,-0.08 -0.3,-0.11 -0.49,-0.11 -0.18,0 -0.34,0.04 -0.47,0.11 -0.13,0.08 -0.2,0.19 -0.2,0.34 0,0.12 0.04,0.22 0.11,0.29 0.08,0.07 0.17,0.13 0.27,0.18 0.1,0.05 0.22,0.08 0.34,0.1 0.12,0.02 0.22,0.04 0.31,0.06 0.16,0.04 0.32,0.09 0.46,0.14 0.14,0.06 0.27,0.13 0.37,0.22 0.1,0.09 0.19,0.2 0.25,0.33 0.06,0.13 0.09,0.29 0.09,0.48 0,0.23 -0.05,0.42 -0.14,0.58 -0.1,0.16 -0.22,0.29 -0.37,0.4 -0.15,0.1 -0.33,0.18 -0.52,0.22 -0.19,0.04 -0.39,0.07 -0.59,0.07 -0.33,0 -0.63,-0.05 -0.88,-0.15 -0.25,-0.1 -0.48,-0.29 -0.68,-0.56 l 0.58,-0.48 c 0.12,0.12 0.26,0.24 0.42,0.33 0.15,0.1 0.34,0.14 0.56,0.14 0.1,0 0.19,-0.01 0.29,-0.03 0.1,-0.02 0.19,-0.05 0.26,-0.09 0.08,-0.04 0.14,-0.1 0.19,-0.16 0.05,-0.07 0.07,-0.14 0.07,-0.23 0,-0.11 -0.04,-0.21 -0.11,-0.28 -0.07,-0.07 -0.16,-0.13 -0.26,-0.17 -0.1,-0.04 -0.2,-0.08 -0.31,-0.1 -0.11,-0.03 -0.21,-0.05 -0.29,-0.06 -0.16,-0.04 -0.32,-0.09 -0.47,-0.14 -0.15,-0.05 -0.28,-0.12 -0.39,-0.2 -0.11,-0.08 -0.2,-0.19 -0.27,-0.32 -0.07,-0.13 -0.1,-0.29 -0.1,-0.48 0,-0.21 0.04,-0.39 0.13,-0.55 0.09,-0.16 0.2,-0.28 0.35,-0.39 0.14,-0.1 0.31,-0.18 0.49,-0.23 0.18,-0.05 0.37,-0.08 0.56,-0.08 0.27,0 0.53,0.05 0.78,0.15 0.25,0.1 0.45,0.27 0.6,0.51 l -0.6,0.44 z m 4.02,-0.52 c 0.22,-0.2 0.46,-0.35 0.75,-0.45 0.28,-0.1 0.57,-0.15 0.85,-0.15 0.29,0 0.55,0.04 0.76,0.11 0.21,0.07 0.39,0.17 0.52,0.3 0.14,0.12 0.24,0.27 0.3,0.43 0.07,0.16 0.1,0.33 0.1,0.51 l 0,2.06 c 0,0.14 0,0.27 0.01,0.39 0.01,0.12 0.01,0.23 0.03,0.34 l -0.68,0 c -0.02,-0.2 -0.03,-0.41 -0.03,-0.61 l -0.02,0 c -0.17,0.26 -0.37,0.44 -0.6,0.55 -0.23,0.11 -0.5,0.16 -0.81,0.16 -0.19,0 -0.37,-0.03 -0.54,-0.08 -0.17,-0.05 -0.32,-0.13 -0.45,-0.23 -0.13,-0.1 -0.23,-0.23 -0.3,-0.38 -0.07,-0.15 -0.11,-0.32 -0.11,-0.52 0,-0.26 0.06,-0.48 0.17,-0.65 0.12,-0.18 0.27,-0.32 0.48,-0.43 0.2,-0.11 0.44,-0.19 0.71,-0.24 0.27,-0.05 0.56,-0.07 0.86,-0.07 l 0.56,0 0,-0.17 c 0,-0.1 -0.02,-0.2 -0.06,-0.31 -0.04,-0.1 -0.1,-0.19 -0.18,-0.28 -0.08,-0.08 -0.18,-0.15 -0.3,-0.2 -0.12,-0.05 -0.26,-0.07 -0.42,-0.07 -0.15,0 -0.28,0.01 -0.39,0.04 -0.11,0.03 -0.21,0.06 -0.3,0.11 -0.09,0.04 -0.17,0.09 -0.25,0.15 -0.07,0.06 -0.14,0.11 -0.21,0.16 l -0.45,-0.47 z m 2.16,1.6 c -0.18,0 -0.37,0.01 -0.56,0.03 -0.19,0.02 -0.36,0.06 -0.52,0.11 -0.16,0.06 -0.28,0.14 -0.38,0.24 -0.1,0.1 -0.15,0.23 -0.15,0.39 0,0.23 0.08,0.4 0.23,0.5 0.16,0.1 0.37,0.15 0.63,0.15 0.21,0 0.39,-0.04 0.54,-0.11 0.15,-0.07 0.27,-0.16 0.36,-0.28 0.09,-0.11 0.16,-0.24 0.2,-0.38 0.04,-0.14 0.06,-0.28 0.06,-0.41 l 0,-0.26 -0.41,0 z m 4.59,-2.09 0.76,0 0,0.62 0.02,0 c 0.05,-0.11 0.12,-0.21 0.2,-0.29 0.09,-0.09 0.18,-0.16 0.28,-0.23 0.1,-0.06 0.22,-0.11 0.34,-0.15 0.12,-0.04 0.25,-0.06 0.37,-0.06 0.12,0 0.24,0.02 0.34,0.05 l -0.03,0.82 c -0.06,-0.02 -0.12,-0.03 -0.19,-0.04 -0.06,-0.01 -0.12,-0.02 -0.19,-0.02 -0.37,0 -0.66,0.1 -0.86,0.31 -0.2,0.21 -0.3,0.54 -0.3,0.98 l 0,2.02 -0.76,0 0,-4.01 z m 3.57,2.29 c 0,0.18 0.04,0.34 0.11,0.48 0.08,0.14 0.18,0.27 0.3,0.37 0.12,0.1 0.27,0.18 0.43,0.24 0.16,0.06 0.33,0.08 0.51,0.08 0.24,0 0.44,-0.06 0.62,-0.17 0.18,-0.11 0.34,-0.26 0.48,-0.44 l 0.58,0.44 c -0.43,0.55 -1.02,0.82 -1.79,0.82 -0.32,0 -0.6,-0.05 -0.86,-0.16 -0.26,-0.11 -0.48,-0.26 -0.65,-0.45 -0.18,-0.19 -0.32,-0.41 -0.41,-0.67 -0.1,-0.26 -0.14,-0.54 -0.14,-0.84 0,-0.3 0.05,-0.58 0.16,-0.84 0.1,-0.26 0.25,-0.48 0.43,-0.67 0.18,-0.19 0.4,-0.34 0.66,-0.45 0.26,-0.11 0.53,-0.16 0.83,-0.16 0.36,0 0.66,0.06 0.91,0.19 0.25,0.12 0.45,0.29 0.61,0.49 0.16,0.2 0.27,0.43 0.34,0.68 0.07,0.25 0.11,0.51 0.11,0.77 l 0,0.27 -3.23,0 z m 2.42,-0.61 c -0.01,-0.17 -0.03,-0.33 -0.08,-0.47 -0.05,-0.14 -0.12,-0.26 -0.22,-0.37 -0.1,-0.1 -0.22,-0.19 -0.36,-0.25 -0.14,-0.06 -0.31,-0.09 -0.51,-0.09 -0.19,0 -0.36,0.04 -0.51,0.11 -0.16,0.07 -0.29,0.16 -0.4,0.28 -0.11,0.11 -0.19,0.24 -0.25,0.38 -0.06,0.14 -0.09,0.28 -0.09,0.41 l 2.42,0 z m 3.87,-0.67 c -0.09,-0.11 -0.2,-0.21 -0.34,-0.28 -0.13,-0.08 -0.3,-0.11 -0.49,-0.11 -0.18,0 -0.34,0.04 -0.47,0.11 -0.13,0.08 -0.2,0.19 -0.2,0.34 0,0.12 0.04,0.22 0.11,0.29 0.08,0.07 0.17,0.13 0.27,0.18 0.1,0.05 0.22,0.08 0.34,0.1 0.12,0.02 0.22,0.04 0.31,0.06 0.16,0.04 0.32,0.09 0.46,0.14 0.14,0.06 0.27,0.13 0.37,0.22 0.1,0.09 0.19,0.2 0.25,0.33 0.06,0.13 0.09,0.29 0.09,0.48 0,0.23 -0.05,0.42 -0.14,0.58 -0.1,0.16 -0.22,0.29 -0.37,0.4 -0.15,0.1 -0.33,0.18 -0.52,0.22 -0.19,0.04 -0.39,0.07 -0.59,0.07 -0.33,0 -0.63,-0.05 -0.88,-0.15 -0.25,-0.1 -0.48,-0.29 -0.68,-0.56 l 0.58,-0.48 c 0.12,0.12 0.26,0.24 0.42,0.33 0.15,0.1 0.34,0.14 0.56,0.14 0.1,0 0.19,-0.01 0.29,-0.03 0.1,-0.02 0.19,-0.05 0.26,-0.09 0.08,-0.04 0.14,-0.1 0.19,-0.16 0.05,-0.07 0.07,-0.14 0.07,-0.23 0,-0.11 -0.04,-0.21 -0.11,-0.28 -0.07,-0.07 -0.16,-0.13 -0.26,-0.17 -0.1,-0.04 -0.2,-0.08 -0.31,-0.1 -0.11,-0.03 -0.21,-0.05 -0.29,-0.06 -0.16,-0.04 -0.32,-0.09 -0.47,-0.14 -0.15,-0.05 -0.28,-0.12 -0.39,-0.2 -0.11,-0.08 -0.2,-0.19 -0.27,-0.32 -0.07,-0.13 -0.1,-0.29 -0.1,-0.48 0,-0.21 0.04,-0.39 0.13,-0.55 0.09,-0.16 0.2,-0.28 0.35,-0.39 0.14,-0.1 0.31,-0.18 0.49,-0.23 0.18,-0.05 0.37,-0.08 0.56,-0.08 0.27,0 0.53,0.05 0.78,0.15 0.25,0.1 0.45,0.27 0.6,0.51 l -0.6,0.44 z m 5.21,3.02 -0.76,0 0,-0.62 -0.02,0 c -0.1,0.22 -0.26,0.39 -0.5,0.52 -0.24,0.13 -0.51,0.2 -0.82,0.2 -0.2,0 -0.39,-0.03 -0.56,-0.09 -0.18,-0.06 -0.33,-0.15 -0.46,-0.28 -0.13,-0.12 -0.24,-0.28 -0.32,-0.48 -0.08,-0.2 -0.12,-0.43 -0.12,-0.69 l 0,-2.59 0.76,0 0,2.38 c 0,0.19 0.03,0.35 0.08,0.48 0.05,0.13 0.12,0.24 0.2,0.32 0.08,0.08 0.18,0.14 0.29,0.18 0.11,0.04 0.23,0.06 0.34,0.06 0.16,0 0.31,-0.03 0.44,-0.08 0.14,-0.05 0.26,-0.13 0.36,-0.24 0.1,-0.11 0.18,-0.25 0.24,-0.42 0.06,-0.17 0.08,-0.37 0.08,-0.6 l 0,-2.07 0.76,0 0,4.02 z m 1.21,-6.43 0.76,0 0,6.43 -0.76,0 0,-6.43 z m 4.14,3.06 -1.1,0 0,1.83 c 0,0.11 0,0.23 0.01,0.34 0.01,0.11 0.03,0.21 0.06,0.3 0.04,0.09 0.09,0.16 0.17,0.21 0.08,0.05 0.19,0.08 0.34,0.08 0.09,0 0.18,-0.01 0.28,-0.03 0.1,-0.02 0.18,-0.05 0.26,-0.09 l 0,0.7 c -0.09,0.05 -0.21,0.09 -0.35,0.11 -0.14,0.02 -0.26,0.03 -0.34,0.03 -0.29,0 -0.52,-0.04 -0.68,-0.12 -0.16,-0.08 -0.28,-0.19 -0.36,-0.32 -0.08,-0.13 -0.12,-0.28 -0.14,-0.44 -0.01,-0.16 -0.02,-0.32 -0.02,-0.49 l 0,-2.1 -0.88,0 0,-0.66 0.88,0 0,-1.13 0.76,0 0,1.13 1.1,0 0,0.65 z m 3.15,1.35 c 0,-0.29 0.06,-0.57 0.17,-0.82 0.11,-0.25 0.26,-0.48 0.45,-0.67 0.19,-0.19 0.42,-0.34 0.68,-0.45 0.26,-0.11 0.54,-0.17 0.84,-0.17 0.3,0 0.58,0.06 0.84,0.17 0.26,0.11 0.49,0.26 0.68,0.45 0.19,0.19 0.34,0.42 0.45,0.67 0.11,0.26 0.17,0.53 0.17,0.82 0,0.29 -0.06,0.57 -0.17,0.83 -0.11,0.26 -0.26,0.48 -0.45,0.67 -0.19,0.19 -0.42,0.34 -0.68,0.45 -0.26,0.11 -0.54,0.17 -0.84,0.17 -0.3,0 -0.58,-0.06 -0.84,-0.17 -0.26,-0.11 -0.49,-0.26 -0.68,-0.45 -0.19,-0.19 -0.34,-0.41 -0.45,-0.67 -0.11,-0.26 -0.17,-0.53 -0.17,-0.83 z m 0.82,0 c 0,0.2 0.03,0.39 0.09,0.57 0.06,0.17 0.15,0.32 0.26,0.44 0.11,0.12 0.25,0.22 0.42,0.29 0.16,0.07 0.35,0.11 0.55,0.11 0.2,0 0.39,-0.04 0.55,-0.11 0.16,-0.07 0.3,-0.17 0.42,-0.29 0.11,-0.12 0.2,-0.27 0.26,-0.44 0.06,-0.17 0.09,-0.36 0.09,-0.57 0,-0.2 -0.03,-0.39 -0.09,-0.57 -0.06,-0.17 -0.15,-0.32 -0.26,-0.44 -0.11,-0.12 -0.25,-0.22 -0.42,-0.29 -0.16,-0.07 -0.35,-0.11 -0.55,-0.11 -0.2,0 -0.39,0.04 -0.55,0.11 -0.16,0.07 -0.3,0.17 -0.42,0.29 -0.11,0.12 -0.2,0.27 -0.26,0.44 -0.06,0.18 -0.09,0.37 -0.09,0.57 z m 4.73,-1.35 -0.87,0 0,-0.66 0.87,0 0,-0.9 c 0,-0.54 0.1,-0.94 0.31,-1.2 0.21,-0.26 0.56,-0.4 1.07,-0.4 0.08,0 0.17,0 0.27,0.01 0.09,0.01 0.19,0.02 0.3,0.05 l -0.09,0.68 c -0.07,-0.03 -0.14,-0.05 -0.21,-0.06 -0.07,-0.01 -0.14,-0.02 -0.22,-0.02 -0.14,0 -0.26,0.02 -0.34,0.06 -0.09,0.04 -0.15,0.1 -0.2,0.18 -0.05,0.08 -0.08,0.17 -0.09,0.28 -0.01,0.11 -0.02,0.24 -0.02,0.38 l 0,0.93 0.91,0 0,0.66 -0.92,0 0,3.37 -0.76,0 0,-3.36 z m 5.47,1.63 c 0,0.18 0.04,0.34 0.11,0.48 0.08,0.14 0.18,0.27 0.3,0.37 0.12,0.1 0.27,0.18 0.43,0.24 0.16,0.06 0.33,0.08 0.51,0.08 0.24,0 0.44,-0.06 0.62,-0.17 0.18,-0.11 0.34,-0.26 0.48,-0.44 l 0.58,0.44 c -0.42,0.55 -1.02,0.82 -1.78,0.82 -0.32,0 -0.6,-0.05 -0.86,-0.16 -0.26,-0.11 -0.48,-0.26 -0.65,-0.45 -0.18,-0.19 -0.32,-0.41 -0.41,-0.67 -0.1,-0.26 -0.14,-0.54 -0.14,-0.84 0,-0.3 0.05,-0.58 0.16,-0.84 0.1,-0.26 0.25,-0.48 0.43,-0.67 0.18,-0.19 0.4,-0.34 0.66,-0.45 0.26,-0.11 0.53,-0.16 0.83,-0.16 0.36,0 0.66,0.06 0.91,0.19 0.25,0.12 0.45,0.29 0.61,0.49 0.16,0.2 0.27,0.43 0.34,0.68 0.07,0.25 0.11,0.51 0.11,0.77 l 0,0.27 -3.24,0 z m 2.41,-0.61 c -0.01,-0.17 -0.03,-0.33 -0.08,-0.47 -0.05,-0.14 -0.12,-0.26 -0.22,-0.37 -0.1,-0.1 -0.22,-0.19 -0.36,-0.25 -0.14,-0.06 -0.31,-0.09 -0.51,-0.09 -0.19,0 -0.36,0.04 -0.51,0.11 -0.16,0.07 -0.29,0.16 -0.4,0.28 -0.11,0.11 -0.19,0.24 -0.25,0.38 -0.06,0.14 -0.09,0.28 -0.09,0.41 l 2.42,0 z m 2.04,-1.02 -0.87,0 0,-0.66 0.87,0 0,-0.9 c 0,-0.54 0.1,-0.94 0.31,-1.2 0.21,-0.26 0.56,-0.4 1.07,-0.4 0.08,0 0.17,0 0.27,0.01 0.09,0.01 0.19,0.02 0.3,0.05 l -0.08,0.68 c -0.07,-0.03 -0.14,-0.05 -0.21,-0.06 -0.07,-0.01 -0.14,-0.02 -0.22,-0.02 -0.14,0 -0.26,0.02 -0.34,0.06 -0.08,0.04 -0.15,0.1 -0.2,0.18 -0.05,0.08 -0.08,0.17 -0.09,0.28 -0.01,0.11 -0.02,0.24 -0.02,0.38 l 0,0.93 0.91,0 0,0.66 -0.92,0 0,3.37 -0.76,0 0,-3.36 z m 2.83,0 -0.87,0 0,-0.66 0.87,0 0,-0.9 c 0,-0.54 0.1,-0.94 0.31,-1.2 0.21,-0.26 0.56,-0.4 1.07,-0.4 0.08,0 0.17,0 0.27,0.01 0.09,0.01 0.19,0.02 0.3,0.05 l -0.08,0.68 c -0.07,-0.03 -0.14,-0.05 -0.21,-0.06 -0.07,-0.01 -0.14,-0.02 -0.22,-0.02 -0.14,0 -0.26,0.02 -0.34,0.06 -0.08,0.04 -0.15,0.1 -0.2,0.18 -0.05,0.08 -0.08,0.17 -0.09,0.28 -0.01,0.11 -0.02,0.24 -0.02,0.38 l 0,0.93 0.91,0 0,0.66 -0.92,0 0,3.37 -0.76,0 0,-3.36 z m 2.27,-2.1 c 0,-0.15 0.06,-0.28 0.17,-0.4 0.11,-0.11 0.24,-0.17 0.4,-0.17 0.16,0 0.28,0.06 0.4,0.17 0.12,0.11 0.17,0.24 0.17,0.4 0,0.16 -0.06,0.28 -0.17,0.4 -0.11,0.12 -0.24,0.17 -0.4,0.17 -0.16,0 -0.28,-0.06 -0.4,-0.17 -0.12,-0.11 -0.17,-0.24 -0.17,-0.4 z m 0.17,1.44 0.76,0 0,4.03 -0.76,0 0,-4.03 z m 4.87,1.07 c -0.14,-0.15 -0.29,-0.26 -0.45,-0.34 -0.16,-0.08 -0.34,-0.11 -0.56,-0.11 -0.21,0 -0.39,0.04 -0.55,0.11 -0.16,0.08 -0.29,0.18 -0.39,0.31 -0.1,0.13 -0.18,0.29 -0.24,0.46 -0.05,0.17 -0.08,0.35 -0.08,0.54 0,0.19 0.03,0.36 0.09,0.53 0.06,0.17 0.15,0.31 0.26,0.44 0.11,0.12 0.25,0.22 0.41,0.29 0.16,0.07 0.34,0.11 0.54,0.11 0.22,0 0.4,-0.04 0.55,-0.11 0.15,-0.08 0.29,-0.19 0.42,-0.34 l 0.54,0.54 c -0.2,0.22 -0.43,0.38 -0.69,0.48 -0.26,0.1 -0.54,0.14 -0.84,0.14 -0.31,0 -0.6,-0.05 -0.85,-0.15 -0.26,-0.1 -0.48,-0.25 -0.67,-0.43 -0.19,-0.18 -0.33,-0.41 -0.43,-0.66 -0.1,-0.26 -0.15,-0.54 -0.15,-0.85 0,-0.31 0.05,-0.6 0.15,-0.86 0.1,-0.26 0.24,-0.48 0.43,-0.67 0.18,-0.19 0.41,-0.33 0.66,-0.44 0.26,-0.1 0.55,-0.16 0.86,-0.16 0.29,0 0.58,0.05 0.85,0.16 0.27,0.1 0.5,0.26 0.7,0.48 l -0.56,0.53 z m 1.09,-2.52 c 0,-0.15 0.06,-0.28 0.17,-0.4 0.11,-0.12 0.24,-0.17 0.4,-0.17 0.15,0 0.28,0.06 0.4,0.17 0.12,0.11 0.17,0.24 0.17,0.4 0,0.16 -0.06,0.28 -0.17,0.4 -0.11,0.12 -0.24,0.17 -0.4,0.17 -0.15,0 -0.28,-0.06 -0.4,-0.17 -0.12,-0.11 -0.17,-0.24 -0.17,-0.4 z m 0.18,1.45 0.76,0 0,4.03 -0.76,0 0,-4.03 z m 2.56,2.29 c 0,0.18 0.04,0.34 0.11,0.48 0.07,0.14 0.18,0.27 0.3,0.37 0.12,0.1 0.27,0.18 0.43,0.24 0.16,0.06 0.33,0.08 0.51,0.08 0.24,0 0.44,-0.06 0.62,-0.17 0.18,-0.11 0.34,-0.26 0.48,-0.44 l 0.58,0.44 c -0.43,0.55 -1.02,0.82 -1.79,0.82 -0.32,0 -0.6,-0.05 -0.86,-0.16 -0.26,-0.11 -0.48,-0.26 -0.65,-0.45 -0.18,-0.19 -0.32,-0.41 -0.41,-0.67 -0.1,-0.26 -0.14,-0.54 -0.14,-0.84 0,-0.3 0.05,-0.58 0.16,-0.84 0.1,-0.26 0.25,-0.48 0.43,-0.67 0.18,-0.19 0.4,-0.34 0.66,-0.45 0.26,-0.11 0.53,-0.16 0.83,-0.16 0.36,0 0.66,0.06 0.91,0.19 0.25,0.12 0.45,0.29 0.61,0.49 0.16,0.2 0.27,0.43 0.34,0.68 0.07,0.25 0.11,0.51 0.11,0.77 l 0,0.27 -3.23,0 z m 2.41,-0.61 c -0.01,-0.17 -0.03,-0.33 -0.08,-0.47 -0.05,-0.14 -0.12,-0.26 -0.22,-0.37 -0.1,-0.1 -0.22,-0.19 -0.36,-0.25 -0.14,-0.06 -0.31,-0.09 -0.51,-0.09 -0.19,0 -0.36,0.04 -0.51,0.11 -0.16,0.07 -0.29,0.16 -0.4,0.28 -0.11,0.11 -0.19,0.24 -0.25,0.38 -0.06,0.14 -0.09,0.28 -0.09,0.41 l 2.42,0 z m 1.74,-1.68 0.76,0 0,0.62 0.02,0 c 0.1,-0.22 0.26,-0.39 0.5,-0.52 0.24,-0.13 0.51,-0.2 0.82,-0.2 0.19,0 0.38,0.03 0.56,0.09 0.18,0.06 0.33,0.15 0.47,0.28 0.13,0.12 0.24,0.28 0.32,0.48 0.08,0.2 0.12,0.43 0.12,0.69 l 0,2.59 -0.77,0 0,-2.38 c 0,-0.19 -0.03,-0.35 -0.08,-0.48 -0.05,-0.13 -0.12,-0.24 -0.2,-0.32 -0.09,-0.08 -0.18,-0.14 -0.29,-0.18 -0.11,-0.04 -0.23,-0.06 -0.34,-0.06 -0.16,0 -0.31,0.03 -0.44,0.08 -0.14,0.05 -0.26,0.13 -0.36,0.24 -0.1,0.11 -0.18,0.25 -0.24,0.42 -0.06,0.17 -0.09,0.37 -0.09,0.6 l 0,2.07 -0.76,0 0,-4.02 z m 7.61,1.07 c -0.14,-0.15 -0.29,-0.26 -0.45,-0.34 -0.16,-0.08 -0.34,-0.11 -0.56,-0.11 -0.21,0 -0.39,0.04 -0.55,0.11 -0.16,0.08 -0.29,0.18 -0.39,0.31 -0.1,0.13 -0.18,0.29 -0.24,0.46 -0.05,0.17 -0.08,0.35 -0.08,0.54 0,0.19 0.03,0.36 0.09,0.53 0.06,0.17 0.15,0.31 0.26,0.44 0.11,0.12 0.25,0.22 0.41,0.29 0.16,0.07 0.34,0.11 0.54,0.11 0.22,0 0.4,-0.04 0.55,-0.11 0.15,-0.08 0.29,-0.19 0.42,-0.34 l 0.54,0.54 c -0.2,0.22 -0.43,0.38 -0.69,0.48 -0.26,0.1 -0.54,0.14 -0.84,0.14 -0.31,0 -0.6,-0.05 -0.85,-0.15 -0.26,-0.1 -0.48,-0.25 -0.67,-0.43 -0.19,-0.18 -0.33,-0.41 -0.43,-0.66 -0.1,-0.26 -0.15,-0.54 -0.15,-0.85 0,-0.31 0.05,-0.6 0.15,-0.86 0.1,-0.26 0.25,-0.48 0.43,-0.67 0.18,-0.19 0.41,-0.33 0.66,-0.44 0.26,-0.1 0.55,-0.16 0.86,-0.16 0.29,0 0.58,0.05 0.85,0.16 0.27,0.1 0.5,0.26 0.7,0.48 l -0.56,0.53 z m 1.09,-2.52 c 0,-0.15 0.06,-0.28 0.17,-0.4 0.11,-0.12 0.24,-0.17 0.4,-0.17 0.15,0 0.28,0.06 0.4,0.17 0.12,0.11 0.17,0.24 0.17,0.4 0,0.16 -0.06,0.28 -0.17,0.4 -0.11,0.12 -0.24,0.17 -0.4,0.17 -0.15,0 -0.28,-0.06 -0.4,-0.17 -0.12,-0.11 -0.17,-0.24 -0.17,-0.4 z m 0.18,1.45 0.76,0 0,4.03 -0.76,0 0,-4.03 z m 2.56,2.29 c 0,0.18 0.04,0.34 0.11,0.48 0.07,0.14 0.18,0.27 0.3,0.37 0.12,0.1 0.27,0.18 0.43,0.24 0.16,0.06 0.33,0.08 0.51,0.08 0.24,0 0.44,-0.06 0.62,-0.17 0.18,-0.11 0.34,-0.26 0.48,-0.44 l 0.58,0.44 c -0.43,0.55 -1.02,0.82 -1.79,0.82 -0.32,0 -0.6,-0.05 -0.86,-0.16 -0.26,-0.11 -0.48,-0.26 -0.65,-0.45 -0.18,-0.19 -0.32,-0.41 -0.41,-0.67 -0.1,-0.26 -0.14,-0.54 -0.14,-0.84 0,-0.3 0.05,-0.58 0.16,-0.84 0.1,-0.26 0.25,-0.48 0.43,-0.67 0.18,-0.19 0.4,-0.34 0.66,-0.45 0.26,-0.11 0.53,-0.16 0.83,-0.16 0.36,0 0.66,0.06 0.91,0.19 0.25,0.12 0.45,0.29 0.61,0.49 0.16,0.2 0.27,0.43 0.34,0.68 0.07,0.25 0.11,0.51 0.11,0.77 l 0,0.27 -3.23,0 z m 2.41,-0.61 c -0.01,-0.17 -0.03,-0.33 -0.08,-0.47 -0.05,-0.14 -0.12,-0.26 -0.22,-0.37 -0.1,-0.1 -0.22,-0.19 -0.36,-0.25 -0.14,-0.06 -0.31,-0.09 -0.51,-0.09 -0.19,0 -0.36,0.04 -0.51,0.11 -0.16,0.07 -0.29,0.16 -0.4,0.28 -0.11,0.11 -0.19,0.24 -0.25,0.38 -0.06,0.14 -0.09,0.28 -0.09,0.41 l 2.42,0 z m 3.88,-0.67 c -0.09,-0.11 -0.2,-0.21 -0.34,-0.28 -0.13,-0.08 -0.3,-0.11 -0.49,-0.11 -0.18,0 -0.34,0.04 -0.47,0.11 -0.13,0.08 -0.2,0.19 -0.2,0.34 0,0.12 0.04,0.22 0.11,0.29 0.08,0.07 0.17,0.13 0.27,0.18 0.1,0.05 0.22,0.08 0.34,0.1 0.12,0.02 0.22,0.04 0.31,0.06 0.16,0.04 0.32,0.09 0.46,0.14 0.14,0.06 0.27,0.13 0.37,0.22 0.1,0.09 0.19,0.2 0.25,0.33 0.06,0.13 0.09,0.29 0.09,0.48 0,0.23 -0.05,0.42 -0.14,0.58 -0.1,0.16 -0.22,0.29 -0.37,0.4 -0.15,0.1 -0.33,0.18 -0.52,0.22 -0.19,0.04 -0.39,0.07 -0.59,0.07 -0.33,0 -0.63,-0.05 -0.88,-0.15 -0.25,-0.1 -0.48,-0.29 -0.68,-0.56 l 0.58,-0.48 c 0.12,0.12 0.26,0.24 0.42,0.33 0.15,0.1 0.34,0.14 0.56,0.14 0.1,0 0.19,-0.01 0.29,-0.03 0.1,-0.02 0.19,-0.05 0.26,-0.09 0.08,-0.04 0.14,-0.1 0.19,-0.16 0.05,-0.07 0.07,-0.14 0.07,-0.23 0,-0.11 -0.04,-0.21 -0.11,-0.28 -0.07,-0.07 -0.16,-0.13 -0.25,-0.17 -0.1,-0.04 -0.2,-0.08 -0.31,-0.1 -0.11,-0.03 -0.21,-0.05 -0.29,-0.06 -0.16,-0.04 -0.32,-0.09 -0.47,-0.14 -0.15,-0.05 -0.28,-0.12 -0.39,-0.2 -0.11,-0.08 -0.2,-0.19 -0.27,-0.32 -0.07,-0.13 -0.1,-0.29 -0.1,-0.48 0,-0.21 0.04,-0.39 0.13,-0.55 0.09,-0.16 0.2,-0.28 0.35,-0.39 0.14,-0.1 0.31,-0.18 0.49,-0.23 0.18,-0.05 0.37,-0.08 0.56,-0.08 0.27,0 0.53,0.05 0.78,0.15 0.25,0.1 0.45,0.27 0.6,0.51 l -0.61,0.44 z"
     id="path187"
     inkscape:connector-curvature="0"
     style="fill:#414042" /><text
     id="text189"
     x="175.77341"
     y="205.25674"><tspan
       x="175.77341"
       y="205.25674"
       class="st20 st11 st16"
       id="tspan191"
       style="font-size:8.5px;font-family:Avenir-Medium;fill:#414042">c</tspan><tspan
       x="179.8734"
       y="205.25674"
       class="st20 st11 st16"
       id="tspan193"
       style="font-size:8.5px;font-family:Avenir-Medium;fill:#414042">r</tspan><tspan
       x="182.8634"
       y="205.25674"
       class="st20 st11 st16"
       id="tspan195"
       style="font-size:8.5px;font-family:Avenir-Medium;fill:#414042">eated in operations.</tspan></text>
<g
     id="g197"
     transform="translate(-25.709999,-26.082459)"><defs
       id="defs199"><rect
         id="SVGID_5_"
         x="13"
         y="13.08"
         width="305.89999"
         height="361.20001" /></defs><clipPath
       id="SVGID_6_"><use
         xlink:href="#SVGID_5_"
         style="overflow:visible"
         id="use203"
         x="0"
         y="0"
         width="100%"
         height="100%" /></clipPath><path
       class="st24"
       d="m 210.33,187.65 c 4.89,0 8.85,-3.96 8.85,-8.85 0,-4.89 -3.96,-8.85 -8.85,-8.85 -4.89,0 -8.85,3.96 -8.85,8.85 0,4.89 3.97,8.85 8.85,8.85"
       id="path205"
       clip-path="url(#SVGID_6_)"
       inkscape:connector-curvature="0"
       style="fill:#009e8a" /></g><rect
     x="18.918295"
     y="236.94537"
     transform="matrix(0.70710678,-0.70710678,0.70710678,0.70710678,0,0)"
     class="st9"
     width="4.7699542"
     height="3.1699696"
     id="rect207"
     style="fill:#ffffff" /><polygon
     class="st9"
     points="214.03,175.1 207.44,175.26 213.87,181.69 "
     id="polygon209"
     style="fill:#ffffff"
     transform="translate(-25.709999,-26.082459)" /><text
     class="st10 st18 st25"
     id="text211"
     style="font-size:12px;font-family:Avenir-Heavy;fill:#009e8a"
     x="203.269"
     y="152.41104">7%</text>
<text
     id="text213"
     x="203.269"
     y="163.13084"><tspan
       x="203.269"
       y="163.13084"
       class="st20 st15 st21"
       id="tspan215"
       style="font-size:8px;font-family:Avenir-Book;fill:#414042">inc</tspan><tspan
       x="213.489"
       y="163.13084"
       class="st20 st15 st21"
       id="tspan217"
       style="font-size:8px;font-family:Avenir-Book;fill:#414042">r</tspan><tspan
       x="216.009"
       y="163.13084"
       class="st20 st15 st21"
       id="tspan219"
       style="font-size:8px;font-family:Avenir-Book;fill:#414042">ease in hours </tspan></text>
<text
     class="st20 st15 st21"
     id="text221"
     style="font-size:8px;font-family:Avenir-Book;fill:#414042"
     x="203.269"
     y="173.13084">worked</text>
<g
     id="g223"
     transform="translate(-25.709999,-26.082459)"><defs
       id="defs225"><rect
         id="SVGID_7_"
         x="13"
         y="13.08"
         width="305.89999"
         height="361.20001" /></defs><clipPath
       id="SVGID_8_"><use
         xlink:href="#SVGID_7_"
         style="overflow:visible"
         id="use229"
         x="0"
         y="0"
         width="100%"
         height="100%" /></clipPath><path
       class="st26"
       d="m 210.33,146.39 c 4.89,0 8.85,-3.96 8.85,-8.85 0,-4.89 -3.96,-8.85 -8.85,-8.85 -4.89,0 -8.85,3.96 -8.85,8.85 0,4.89 3.97,8.85 8.85,8.85"
       id="path231"
       clip-path="url(#SVGID_8_)"
       inkscape:connector-curvature="0"
       style="fill:#00a4e0" /></g><rect
     x="48.090622"
     y="207.77931"
     transform="matrix(0.70710678,-0.70710678,0.70710678,0.70710678,0,0)"
     class="st9"
     width="4.7699542"
     height="3.1699696"
     id="rect233"
     style="fill:#ffffff" /><polygon
     class="st9"
     points="214.03,133.85 207.44,134.01 213.87,140.44 "
     id="polygon235"
     style="fill:#ffffff"
     transform="translate(-25.709999,-26.082459)" /><text
     class="st3 st18 st25"
     id="text237"
     style="font-size:12px;font-family:Avenir-Heavy;fill:#00a4e0"
     x="203.269"
     y="110.67764">96%</text>
<text
     id="text239"
     x="203.269"
     y="121.39744"><tspan
       x="203.269"
       y="121.39744"
       class="st20 st15 st21"
       id="tspan241"
       style="font-size:8px;font-family:Avenir-Book;fill:#414042">inc</tspan><tspan
       x="213.489"
       y="121.39744"
       class="st20 st15 st21"
       id="tspan243"
       style="font-size:8px;font-family:Avenir-Book;fill:#414042">r</tspan><tspan
       x="216.009"
       y="121.39744"
       class="st20 st15 st21"
       id="tspan245"
       style="font-size:8px;font-family:Avenir-Book;fill:#414042">ease in tons of </tspan></text>
<text
     id="text247"
     x="203.269"
     y="131.39745"><tspan
       x="203.269"
       y="131.39745"
       class="st20 st15 st21"
       id="tspan249"
       style="font-size:8px;font-family:Avenir-Book;fill:#414042">trash </tspan><tspan
       x="222.80901"
       y="131.39745"
       class="st20 st15 st21"
       id="tspan251"
       style="font-size:8px;font-family:Avenir-Book;fill:#414042">r</tspan><tspan
       x="225.32899"
       y="131.39745"
       class="st20 st15 st21"
       id="tspan253"
       style="font-size:8px;font-family:Avenir-Book;fill:#414042">emoved</tspan></text>
</svg>