<?xml version="1.0" encoding="utf-8"?>
<!-- Generator: Adobe Illustrator 22.1.0, SVG Export Plug-In . SVG Version: 6.00 Build 0)  -->
<svg version="1.1" id="Layer_1" xmlns="http://www.w3.org/2000/svg" xmlns:xlink="http://www.w3.org/1999/xlink" x="0px" y="0px"
	 viewBox="0 0 431.5 475" style="enable-background:new 0 0 431.5 475;" xml:space="preserve">
<style type="text/css">
	.st0{opacity:0.22;fill:#139FDA;}
	.st1{fill:#11294B;stroke:#10294B;stroke-miterlimit:10;}
	.st2{fill:#11294B;}
	.st3{opacity:0.25;fill:#E0E061;}
	.st4{font-family:'Avenir-Black';}
	.st5{font-size:10px;}
	.st6{letter-spacing:12;}
	.st7{font-family:'Avenir-Roman';}
	.st8{font-size:9px;}
	.st9{font-size:7.6075px;}
	.st10{fill:none;stroke:#139FDA;stroke-width:3;stroke-linecap:round;stroke-miterlimit:10;}
	.st11{fill:none;stroke:#11294B;stroke-width:2;stroke-linecap:round;stroke-linejoin:round;stroke-miterlimit:10;}
	.st12{fill:#FFFFFF;}
	.st13{font-size:12px;}
	.st14{font-size:8px;}
	.st15{fill:none;}
	.st16{fill:none;stroke:#11294B;stroke-width:3;stroke-miterlimit:10;}
</style>
<g>
	<rect x="88.8" y="60.6" class="st0" width="80" height="73.7"/>
	<g>
		<path class="st1" d="M144.6,122.4h-41c-0.4,0-0.7-0.3-0.7-0.7V73.1c0-0.4,0.3-0.7,0.7-0.7h41c0.4,0,0.7,0.3,0.7,0.7
			c0,0.4-0.3,0.7-0.7,0.7h-40.2V121h39.5v-11.1c0-0.4,0.3-0.7,0.7-0.7s0.7,0.3,0.7,0.7v11.8C145.3,122.1,145,122.4,144.6,122.4z
			 M134.8,101.9 M143.1,105.5C143.1,105.5,143.1,105.6,143.1,105.5c-0.1,0.3-0.8,1.4-1,1.6l-2.5,1.8l-3.2,2.3
			c-0.1,0.1-0.3,0.1-0.4,0.1c0,0,0,0,0,0l0,0c0,0,0,0,0,0h0c0,0,0,0,0,0c-0.3,0-0.4-0.1-1.5-0.8c-1.6-1-5.2-3.3-7.2-3.7
			c0.1,0.4,0.4,0.9,0.6,1.2l0.1,0.2c0.5,1,0.8,1.7,0.6,2.2c-0.1,0.2-0.2,0.4-0.7,0.6c-1.3,0.4-2.8-0.7-4.7-1.9c-1.4-1-3-2.1-4.5-2.5
			c-1.6-0.4-2.9-0.4-3.8,0c-0.1,0.1-0.3,0.2-0.6,0.3c1.4,1.2,2.7,2.6,2.8,3.6c0,0.5-0.3,1.1-1.1,1.3c-0.2,0-0.5,0.1-0.7,0.1
			c-1.1,0-2.1-0.5-3.1-1.6c-0.8-0.8-0.8-1.6-0.7-2.2c0.1-0.4,0.3-0.8,0.5-1.1c-0.6-0.4-1.2-0.8-1.5-0.8c-0.4-0.1-0.7-0.4-0.6-0.8
			c0.1-0.4,0.4-0.7,0.8-0.6c0.5,0.1,1.3,0.5,2.3,1.2c0.6-0.4,1.1-0.7,1.2-0.7c1.2-0.6,2.8-0.6,4.8-0.1c1.8,0.4,3.5,1.6,5,2.7
			c0.9,0.7,2.2,1.5,2.9,1.7c-0.1-0.3-0.3-0.6-0.3-0.7l-0.1-0.2c-0.7-1.3-1.1-2.3-0.6-2.9c0.2-0.3,0.5-0.5,0.9-0.5
			c1.9,0,5.1,1.8,8.3,3.9 M113.1,108c-0.1,0.2-0.2,0.3-0.2,0.5c0,0.2,0,0.5,0.3,0.9c0.5,0.5,1.2,1.2,2.2,1.1
			C115.1,109.9,114.1,108.9,113.1,108z M132.2,97.1h-22.9c-0.4,0-0.7-0.3-0.7-0.7c0-0.4,0.3-0.7,0.7-0.7h22.9c0.4,0,0.7,0.3,0.7,0.7
			C133,96.8,132.7,97.1,132.2,97.1z M132.2,90.1h-22.9c-0.4,0-0.7-0.3-0.7-0.7c0-0.4,0.3-0.7,0.7-0.7h22.9c0.4,0,0.7,0.3,0.7,0.7
			C133,89.8,132.7,90.1,132.2,90.1z M132.2,83.2h-22.9c-0.4,0-0.7-0.3-0.7-0.7c0-0.4,0.3-0.7,0.7-0.7h22.9c0.4,0,0.7,0.3,0.7,0.7
			C133,82.8,132.7,83.2,132.2,83.2z"/>
		<path class="st2" d="M151.5,80.8c-2.3-1.3-5.4-0.5-6.8,1.7l-10.4,17.5c-0.1,0.2-0.3,0.6-0.2,0.9l0.2,7.4c0.1,0.6,0.3,1,0.8,1.3
			c0.4,0.2,0.8,0.3,1.3,0.2c0.1,0,0.2,0,0.4-0.1l6.7-3.3c0.3-0.2,0.5-0.3,0.7-0.6l10.3-17.6c0.6-1.1,0.9-2.5,0.6-3.7
			c-0.3-1.2-1.1-2.3-2.3-3L151.5,80.8z M137.4,101.8l3.6,2.1l-3.4,1.8L137.4,101.8z M151.6,86.6l-8.7,14.6l-4.1-2.4l8.7-14.7
			c0.4-0.7,1.5-1,2.3-0.6l1.2,0.7c0.4,0.2,0.6,0.5,0.8,1S151.8,86.2,151.6,86.6z"/>
	</g>
</g>
<rect x="234.4" y="60.6" class="st3" width="80" height="73.7"/>
<text transform="matrix(1 0 0 1 47.1227 51.2788)"><tspan x="0" y="0" class="st2 st4 st5">$0.003 X  Assessed Value</tspan><tspan x="121.8" y="0" class="st2 st4 st5 st6">	</tspan></text>
<text transform="matrix(1 0 0 1 29.881 152.7787)"><tspan x="0" y="0" class="st2 st7 st8">For every </tspan><tspan x="40.4" y="0" class="st2 st4 st8">$407</tspan><tspan x="61.7" y="0" class="st2 st7 st8"> of assessed value, </tspan><tspan x="17" y="10.8" class="st2 st7 st8">the BIZ receives </tspan><tspan x="83.7" y="10.8" class="st2 st4 st8">$1</tspan><tspan x="94.4" y="10.8" class="st2 st7 st8"> in revenue</tspan></text>
<g>
	<path class="st2" d="M217.5,101.7c1.8,0,1.8-8.5,0-8.5h-11.2V82c0-1.8-8.5-1.8-8.5,0v11.2h-11.2c-1.8,0-1.8,8.5,0,8.5h11.2v11.2
		c0,1.8,8.5,1.8,8.5,0v-11.2H217.5z"/>
</g>
<path class="st2" d="M299.2,67l-1.1,1.2l-12.4,12.4h-33.2h-1.6v1.6v42v1.6h1.6h42h1.6v-1.6V90.9l12.4-12.4l1.2-1.1l-1.2-1.1
	l-8.1-8.1L299.2,67z M299.2,71.5l5.8,5.8l-15.5,15.5l-5.8-5.8L299.2,71.5z M254,83.8h12.1v8.9h3.2v-8.9h13.1l-2.1,2.1l-0.4,0.4
	l-0.1,0.5l-1.6,9.7l-0.4,2.2l2.2-0.4l9.7-1.6l0.5-0.1l0.4-0.4l2.1-2.1v16.3h-6.5v3.2h6.5v8.9h-23.4v-8.9h7.3v-3.2h-7.3v-8.1h-3.2
	v20.2H254V83.8z M282.5,90.4l3.6,3.6l-4.4,0.7L282.5,90.4z"/>
<text transform="matrix(1 0 0 1 235.2465 51.278)" class="st2 st4 st5">$0.058  Floor Area Square Footage</text>
<text transform="matrix(1 0 0 1 235.1689 152.778)"><tspan x="0" y="0" class="st2 st7 st8">For every </tspan><tspan x="40.4" y="0" class="st2 st4 st8">17</tspan><tspan x="51" y="0" class="st2 st7 st8"> square feet of floor area, </tspan><tspan x="0" y="10.8" class="st2 st7 st8">the BIZ receives </tspan><tspan x="66.7" y="10.8" class="st2 st4 st8">$1</tspan><tspan x="77.4" y="10.8" class="st2 st7 st8"> in revenue</tspan></text>
<g>
	<rect x="69.5" y="335.1" class="st0" width="99.7" height="91.9"/>
	<g>
		<g>
			<text transform="matrix(6.123234e-17 -1 1 6.123234e-17 86.788 400.075)" class="st2 st7 st9">Assessment ($)</text>
		</g>
		<g>
			<text transform="matrix(1 0 0 1 93.3314 413.4422)" class="st2 st7 st9">Assessed Value ($)</text>
		</g>
		<line class="st10" x1="92.9" y1="402.7" x2="156.9" y2="385.4"/>
		<polyline class="st11" points="92.1,346.6 92.1,403.1 156.9,403.1 		"/>
	</g>
</g>
<g>
	<rect x="234.9" y="335.1" class="st3" width="99.7" height="91.9"/>
	<g>
		<g>
			<text transform="matrix(6.123234e-17 -1 1 6.123234e-17 252.4206 400.0753)" class="st2 st7 st9">Assessment ($)</text>
		</g>
		<g>
			<text transform="matrix(1 0 0 1 258.9641 413.4424)" class="st2 st7 st9">Floor Area (Sq. Ft)</text>
		</g>
		<line class="st10" x1="258.5" y1="402.7" x2="313.4" y2="351.5"/>
		<polyline class="st11" points="257.7,346.6 257.7,403.1 322.6,403.1 		"/>
	</g>
</g>
<g>
	<path class="st2" d="M373.4,225.1H46.8c-4.9,0-9-4-9-9v-24.8c0-4.9,4-9,9-9h326.7c4.9,0,9,4,9,9v24.8
		C382.4,221.1,378.4,225.1,373.4,225.1z"/>
	<g>
		<g>
			<text transform="matrix(1 0 0 1 102.0506 208.2344)" class="st12 st4 st13">$4,165,972 in total BIZ assessement in 2018</text>
		</g>
		<g>
			<path class="st12" d="M68.9,195.2H88c0.9,0,1.5,0.7,1.5,1.5v3.5c0,0.8-0.6,1.4-1.5,1.4H68.9c-0.8,0-1.5-0.6-1.5-1.4v-3.5
				C67.4,195.9,68.1,195.2,68.9,195.2z"/>
			<path class="st12" d="M68.9,205.8H88c0.9,0,1.5,0.7,1.5,1.5v3.5c0,0.8-0.6,1.4-1.5,1.4H68.9c-0.8,0-1.5-0.6-1.5-1.4v-3.5
				C67.4,206.5,68.1,205.8,68.9,205.8z"/>
		</g>
	</g>
</g>
<g>
	<circle class="st2" cx="176.7" cy="48.1" r="5.2"/>
	<path class="st12" d="M175.9,48.7c0-0.2,0-0.3,0.1-0.4c0-0.1,0.1-0.2,0.2-0.3c0.1-0.1,0.3-0.3,0.4-0.4c0.1-0.1,0.2-0.2,0.3-0.3
		c0.1-0.1,0.2-0.2,0.2-0.3c0.1-0.1,0.1-0.2,0.1-0.3c0-0.2-0.1-0.3-0.2-0.4c-0.1-0.1-0.2-0.1-0.4-0.1c-0.3,0-0.4,0.1-0.6,0.2
		c-0.1,0.1-0.2,0.3-0.2,0.5l-1.2-0.1c0.1-0.6,0.3-1,0.6-1.3c0.4-0.3,0.8-0.4,1.4-0.4c0.2,0,0.5,0,0.7,0.1c0.2,0.1,0.4,0.2,0.6,0.3
		c0.2,0.1,0.3,0.3,0.4,0.5c0.1,0.2,0.1,0.4,0.1,0.7c0,0.2,0,0.3,0,0.4c0,0.1-0.1,0.2-0.2,0.4c-0.1,0.1-0.2,0.2-0.3,0.4
		c-0.1,0.1-0.3,0.3-0.5,0.4c-0.1,0.1-0.2,0.2-0.2,0.3c0,0.1-0.1,0.2-0.1,0.3v0.2h-1.2V48.7z M175.8,50.3c0-0.1,0-0.2,0.1-0.3
		c0-0.1,0.1-0.2,0.2-0.2c0.1-0.1,0.1-0.1,0.2-0.2c0.1,0,0.2-0.1,0.3-0.1c0.1,0,0.2,0,0.3,0.1c0.1,0,0.2,0.1,0.2,0.2
		c0.1,0.1,0.1,0.1,0.2,0.2c0,0.1,0.1,0.2,0.1,0.3c0,0.1,0,0.2-0.1,0.3c0,0.1-0.1,0.2-0.2,0.2c-0.1,0.1-0.1,0.1-0.2,0.2
		c-0.1,0-0.2,0.1-0.3,0.1c-0.1,0-0.2,0-0.3-0.1c-0.1,0-0.2-0.1-0.2-0.2c-0.1-0.1-0.1-0.1-0.2-0.2S175.8,50.4,175.8,50.3z"/>
</g>
<text transform="matrix(1 0 0 1 34.1012 256)" class="st4 st14">Money grows quicker because....</text>
<rect x="34.1" y="260" class="st15" width="286" height="59"/>
<text transform="matrix(1 0 0 1 34.1012 266.0479)"><tspan x="0" y="0" class="st7 st14">Lorem ipsum dolor sit amet, consectetuer adipiscing elit, sed diam nonummy </tspan><tspan x="0" y="9.6" class="st7 st14">nibh euismod tincidunt ut laoreet dolore magna aliquam erat volutpat. Ut wisi </tspan><tspan x="0" y="19.2" class="st7 st14">enim ad minim veniam, quis nostrud exerci tation ullamcorper suscipit lobortis </tspan><tspan x="0" y="28.8" class="st7 st14">nisl ut aliquip ex ea commodo consequat. Duis autem vel eum iriure dolor in </tspan><tspan x="0" y="38.4" class="st7 st14">hendrerit in vulputate velit esse molestie consequat, vel illum dolore eu feugiat </tspan><tspan x="0" y="48" class="st7 st14">nulla facilisis at vero eros et </tspan></text>
<line class="st16" x1="252.4" y1="82.4" x2="252.4" y2="71.5"/>
<line class="st16" x1="296.2" y1="72.4" x2="252.4" y2="72.4"/>
</svg>
