<?xml version="1.0" encoding="utf-8"?>
<!-- Generator: Adobe Illustrator 22.1.0, SVG Export Plug-In . SVG Version: 6.00 Build 0)  -->
<svg version="1.1" id="Layer_1" xmlns="http://www.w3.org/2000/svg" xmlns:xlink="http://www.w3.org/1999/xlink" x="0px" y="0px"
	 viewBox="0 0 420.2 373" style="enable-background:new 0 0 420.2 373;" xml:space="preserve">
<style type="text/css">
	.st0{opacity:0.22;fill:#139FDA;}
	.st1{fill:#11294B;stroke:#10294B;stroke-miterlimit:10;}
	.st2{fill:#11294B;}
	.st3{opacity:0.25;fill:#E0E061;}
	.st4{font-family:'Avenir-Black';}
	.st5{font-size:9px;}
	.st6{letter-spacing:24;}
	.st7{font-family:'Avenir-Roman';}
	.st8{font-size:7.6075px;}
	.st9{fill:none;stroke:#139FDA;stroke-width:3;stroke-linecap:round;stroke-miterlimit:10;}
	.st10{fill:none;stroke:#11294B;stroke-width:2;stroke-linecap:round;stroke-linejoin:round;stroke-miterlimit:10;}
	.st11{fill:#FFFFFF;}
	.st12{font-size:12px;}
</style>
<g>
	<g>
		<rect x="86.3" y="53" class="st0" width="80" height="73.7"/>
		<g>
			<path class="st1" d="M142,114.9h-41c-0.4,0-0.7-0.3-0.7-0.7V65.6c0-0.4,0.3-0.7,0.7-0.7h41c0.4,0,0.7,0.3,0.7,0.7
				s-0.3,0.7-0.7,0.7h-40.2v47.1h39.5v-11.1c0-0.4,0.3-0.7,0.7-0.7c0.4,0,0.7,0.3,0.7,0.7v11.8C142.8,114.6,142.5,114.9,142,114.9z
				 M132.3,94.4 M140.6,98C140.6,98,140.6,98,140.6,98c-0.1,0.3-0.8,1.4-1,1.6l-2.5,1.8l-3.2,2.3c-0.1,0.1-0.3,0.1-0.4,0.1
				c0,0,0,0,0,0l0,0c0,0,0,0,0,0h0c0,0,0,0,0,0c-0.3,0-0.4-0.1-1.5-0.8c-1.6-1-5.2-3.3-7.2-3.7c0.1,0.4,0.4,0.9,0.6,1.2l0.1,0.2
				c0.5,1,0.8,1.7,0.6,2.2c-0.1,0.2-0.2,0.4-0.7,0.6c-1.3,0.4-2.8-0.7-4.7-1.9c-1.4-1-3-2.1-4.5-2.5c-1.6-0.4-2.9-0.4-3.8,0
				c-0.1,0.1-0.3,0.2-0.6,0.3c1.4,1.2,2.7,2.6,2.8,3.6c0,0.5-0.3,1.1-1.1,1.3c-0.2,0-0.5,0.1-0.7,0.1c-1.1,0-2.1-0.5-3.1-1.6
				c-0.8-0.8-0.8-1.6-0.7-2.2c0.1-0.4,0.3-0.8,0.5-1.1c-0.6-0.4-1.2-0.8-1.5-0.8c-0.4-0.1-0.7-0.4-0.6-0.8c0.1-0.4,0.4-0.7,0.8-0.6
				c0.5,0.1,1.3,0.5,2.3,1.2c0.6-0.4,1.1-0.7,1.2-0.7c1.2-0.6,2.8-0.6,4.8-0.1c1.8,0.4,3.5,1.6,5,2.7c0.9,0.7,2.2,1.5,2.9,1.7
				c-0.1-0.3-0.3-0.6-0.3-0.7l-0.1-0.2c-0.7-1.3-1.1-2.3-0.6-2.9c0.2-0.3,0.5-0.5,0.9-0.5c1.9,0,5.1,1.8,8.3,3.9 M110.6,100.5
				c-0.1,0.2-0.2,0.3-0.2,0.5c0,0.2,0,0.5,0.3,0.9c0.5,0.5,1.2,1.2,2.2,1.1C112.6,102.3,111.6,101.4,110.6,100.5z M129.7,89.6h-22.9
				c-0.4,0-0.7-0.3-0.7-0.7s0.3-0.7,0.7-0.7h22.9c0.4,0,0.7,0.3,0.7,0.7S130.1,89.6,129.7,89.6z M129.7,82.6h-22.9
				c-0.4,0-0.7-0.3-0.7-0.7c0-0.4,0.3-0.7,0.7-0.7h22.9c0.4,0,0.7,0.3,0.7,0.7C130.5,82.3,130.1,82.6,129.7,82.6z M129.7,75.6h-22.9
				c-0.4,0-0.7-0.3-0.7-0.7c0-0.4,0.3-0.7,0.7-0.7h22.9c0.4,0,0.7,0.3,0.7,0.7C130.5,75.3,130.1,75.6,129.7,75.6z"/>
			<path class="st2" d="M149,73.2c-2.3-1.3-5.4-0.5-6.8,1.7l-10.4,17.5c-0.1,0.2-0.3,0.6-0.2,0.9l0.2,7.4c0.1,0.6,0.3,1,0.8,1.3
				c0.4,0.2,0.8,0.3,1.3,0.2c0.1,0,0.2,0,0.4-0.1l6.7-3.3c0.3-0.2,0.5-0.3,0.7-0.6L152,80.7c0.6-1.1,0.9-2.5,0.6-3.7s-1.1-2.3-2.3-3
				L149,73.2z M134.9,94.3l3.6,2.1l-3.4,1.8L134.9,94.3z M149.1,79.1l-8.7,14.6l-4.1-2.4l8.7-14.7c0.4-0.7,1.5-1,2.3-0.6l1.2,0.7
				c0.4,0.2,0.6,0.5,0.8,1C149.4,78.2,149.3,78.6,149.1,79.1z"/>
		</g>
	</g>
	<rect x="231.9" y="53" class="st3" width="80" height="73.7"/>
	<text transform="matrix(1 0 0 1 56.6134 43.7366)"><tspan x="0" y="0" class="st2 st4 st5">$0.003 X  Assessed Value</tspan><tspan x="109.6" y="0" class="st2 st4 st5 st6">	</tspan></text>
	<text transform="matrix(1 0 0 1 27.9398 249.2365)"><tspan x="0" y="0" class="st2 st7 st5">For every $407 of assessed value, </tspan><tspan x="16.4" y="10.8" class="st2 st7 st5">the BIZ receives $1 in revenue</tspan></text>
	<g>
		<path class="st2" d="M214.9,91.4c1.8,0,1.8-8.5,0-8.5h-11.2V71.8c0-1.8-8.5-1.8-8.5,0V83h-11.2c-1.8,0-1.8,8.5,0,8.5h11.2v11.2
			c0,1.8,8.5,1.8,8.5,0V91.4H214.9z"/>
	</g>
	<path class="st2" d="M296.7,59.4l-1.1,1.2L283.1,73h-33.2h-1.6v1.6v42v1.6h1.6h42h1.6v-1.6V83.4l12.4-12.4l1.2-1.1l-1.2-1.1
		l-8.1-8.1L296.7,59.4z M296.7,64l5.8,5.8L287,85.3l-5.8-5.8L296.7,64z M251.5,76.3h12.1v8.9h3.2v-8.9h13.1l-2.1,2.1l-0.4,0.4
		l-0.1,0.5l-1.6,9.7l-0.4,2.2l2.2-0.4l9.7-1.6l0.5-0.1l0.4-0.4l2.1-2.1v16.3h-6.5v3.2h6.5v8.9h-23.4v-8.9h7.3v-3.2h-7.3v-8.1h-3.2
		V115h-12.1V76.3z M280,82.8l3.6,3.6l-4.4,0.7L280,82.8z"/>
	<text transform="matrix(1 0 0 1 231.7701 43.7358)" class="st2 st4 st5">$0.058  Floor Area Square Footage</text>
	<text transform="matrix(1 0 0 1 231.9318 249.2358)"><tspan x="0" y="0" class="st2 st7 st5">For every 17 square feet of floor area, </tspan><tspan x="0" y="10.8" class="st2 st7 st5">the BIZ receives $1 in revenue</tspan></text>
	<g>
		<path class="st2" d="M214.9,186.1c1.8,0,1.8-8.5,0-8.5h-11.2v-11.2c0-1.8-8.5-1.8-8.5,0v11.2h-11.2c-1.8,0-1.8,8.5,0,8.5h11.2
			v11.2c0,1.8,8.5,1.8,8.5,0v-11.2H214.9z"/>
	</g>
	<g>
		<rect x="66.5" y="138" class="st0" width="99.7" height="91.9"/>
		<g>
			<g>
				<text transform="matrix(6.123234e-17 -1 1 6.123234e-17 83.82 203.0328)" class="st2 st7 st8">Assessment ($)</text>
			</g>
			<g>
				<text transform="matrix(1 0 0 1 90.3634 216.4)" class="st2 st7 st8">Assessed Value ($)</text>
			</g>
			<line class="st9" x1="89.9" y1="205.7" x2="154" y2="188.3"/>
			<polyline class="st10" points="89.1,149.6 89.1,206.1 154,206.1 			"/>
		</g>
	</g>
	<g>
		<rect x="231.9" y="138" class="st3" width="99.7" height="91.9"/>
		<g>
			<g>
				<text transform="matrix(6.123234e-17 -1 1 6.123234e-17 249.4526 203.033)" class="st2 st7 st8">Assessment ($)</text>
			</g>
			<g>
				<text transform="matrix(1 0 0 1 255.9961 216.4002)" class="st2 st7 st8">Floor Area (Sq. Ft)</text>
			</g>
			<line class="st9" x1="255.5" y1="205.7" x2="310.4" y2="154.5"/>
			<polyline class="st10" points="254.8,149.6 254.8,206.1 319.6,206.1 			"/>
		</g>
	</g>
</g>
<g>
	<path class="st2" d="M370.9,318.8H44.3c-4.9,0-9-4-9-9v-24.8c0-4.9,4-9,9-9h326.7c4.9,0,9,4,9,9v24.8
		C379.9,314.8,375.9,318.8,370.9,318.8z"/>
	<g>
		<g>
			<text transform="matrix(1 0 0 1 99.5413 301.9391)" class="st11 st4 st12">$4,165,972 in total BIZ assessement in 2018</text>
		</g>
		<g>
			<path class="st11" d="M66.4,288.9h19.1c0.9,0,1.5,0.7,1.5,1.5v3.5c0,0.8-0.6,1.4-1.5,1.4H66.4c-0.8,0-1.5-0.6-1.5-1.4v-3.5
				C64.9,289.6,65.6,288.9,66.4,288.9z"/>
			<path class="st11" d="M66.4,299.5h19.1c0.9,0,1.5,0.7,1.5,1.5v3.5c0,0.8-0.6,1.4-1.5,1.4H66.4c-0.8,0-1.5-0.6-1.5-1.4V301
				C64.9,300.2,65.6,299.5,66.4,299.5z"/>
		</g>
	</g>
</g>
</svg>
