<?xml version="1.0" encoding="utf-8"?>
<!-- Generator: Adobe Illustrator 23.0.1, SVG Export Plug-In . SVG Version: 6.00 Build 0)  -->
<svg version="1.1" id="Layer_1" xmlns="http://www.w3.org/2000/svg" xmlns:xlink="http://www.w3.org/1999/xlink" x="0px" y="0px"
	 viewBox="0 0 100 100" style="enable-background:new 0 0 100 100;" xml:space="preserve">
<style type="text/css">
	.st0{fill:none;stroke:#13284B;stroke-width:2.5;stroke-linejoin:round;stroke-miterlimit:10;}
</style>
<g>
	<path class="st0" d="M52.97,24.2c-0.93,0.33-1.93,0.52-2.97,0.52s-2.04-0.19-2.97-0.52v3.49l-1.49,7.44L50,39.59l4.46-4.46
		l-1.49-7.44C52.97,27.69,52.97,24.2,52.97,24.2z"/>
	<circle class="st0" cx="50" cy="15.8" r="8.92"/>
	<path class="st0" d="M58.92,23.23h-3.99c-1.41,0.94-3.1,1.49-4.93,1.49s-3.52-0.55-4.93-1.49h-3.99c-4.93,0-8.92,3.99-8.92,8.92
		v13.38h35.69V32.16C67.84,27.23,63.85,23.23,58.92,23.23z"/>
	<circle class="st0" cx="18.77" cy="41.08" r="7.44"/>
	<path class="st0" d="M30.67,60.41H6.88v-5.95c0-3.28,2.66-5.95,5.95-5.95h11.9c3.28,0,5.95,2.66,5.95,5.95v5.95H30.67z"/>
	<circle class="st0" cx="81.23" cy="41.08" r="7.44"/>
	<path class="st0" d="M93.12,60.41H69.33v-5.95c0-3.28,2.66-5.95,5.95-5.95h11.9c3.28,0,5.95,2.66,5.95,5.95L93.12,60.41
		L93.12,60.41z"/>
	<circle class="st0" cx="50" cy="61.9" r="7.44"/>
	<path class="st0" d="M61.9,81.23H38.1v-5.95c0-3.28,2.66-5.95,5.95-5.95h11.9c3.28,0,5.95,2.66,5.95,5.95
		C61.9,75.28,61.9,81.23,61.9,81.23z"/>
	<circle class="st0" cx="18.77" cy="73.79" r="7.44"/>
	<path class="st0" d="M30.67,93.12H6.88v-5.95c0-3.28,2.66-5.95,5.95-5.95h11.9c3.28,0,5.95,2.66,5.95,5.95v5.95H30.67z"/>
	<circle class="st0" cx="81.23" cy="73.79" r="7.44"/>
	<path class="st0" d="M93.12,93.12H69.33v-5.95c0-3.28,2.66-5.95,5.95-5.95h11.9c3.28,0,5.95,2.66,5.95,5.95L93.12,93.12
		L93.12,93.12z"/>
</g>
</svg>
