<?xml version="1.0" encoding="UTF-8"?>
<svg width="96px" height="67px" viewBox="0 0 96 67" version="1.1" xmlns="http://www.w3.org/2000/svg" xmlns:xlink="http://www.w3.org/1999/xlink">
    <!-- Generator: Sketch 48.1 (47250) - http://www.bohemiancoding.com/sketch -->
    <title>Page 1</title>
    <desc>Created with Sketch.</desc>
    <defs>
        <polygon id="path-1" points="0 0.29310476 27.2067 0.29310476 27.2067 49 0 49"></polygon>
        <polygon id="path-3" points="0.9067 0.292336298 28.114 0.292336298 28.114 48.8999 0.9067 48.8999"></polygon>
    </defs>
    <g id="Amenities" stroke="none" stroke-width="1" fill="none" fill-rule="evenodd" transform="translate(-124.000000, -1164.000000)">
        <g id="Page-1" transform="translate(124.000000, 1164.000000)">
            <path d="M21.707,36.9985 C21.307,32.4985 20.907,27.4985 20.607,24.4985 C20.907,24.7985 21.307,25.0985 21.607,25.3985 C24.107,27.5985 28.507,27.9985 31.607,27.9985 C33.007,27.9985 34.107,27.8985 34.607,27.8985 C36.207,27.6985 37.407,26.2985 37.207,24.6985 C37.107,23.0985 35.607,21.8985 34.007,22.0985 C31.207,22.3985 26.707,22.0985 25.407,20.9985 C22.107,18.0985 19.607,16.3985 13.307,16.2985 C8.507,16.2985 7.607,18.3985 7.707,20.9985 C7.707,24.4985 8.807,39.2985 9.507,42.4985 C10.207,45.3985 15.307,44.6985 20.707,44.6985 C26.107,44.6985 27.907,44.6985 29.807,45.1985 C30.007,48.1985 29.707,55.7985 29.207,62.1985 C29.007,64.2985 30.607,66.0985 32.607,66.1985 L32.907,66.1985 C34.807,66.1985 36.507,64.6985 36.607,62.6985 C37.607,50.6985 37.507,43.3985 36.507,41.0985 C35.207,38.0985 31.307,37.1985 21.707,36.9985" id="Fill-1" fill="#2A316C"></path>
            <path d="M12.976,0.0127 C17.001,-0.2243 20.456,2.8467 20.693,6.8707 C20.93,10.8957 17.859,14.3507 13.834,14.5877 C9.809,14.8257 6.354,11.7547 6.118,7.7297 C5.88,3.7047 8.951,0.2497 12.976,0.0127" id="Fill-3" fill="#2A316C"></path>
            <g id="Group-7" transform="translate(0.000000, 17.198600)">
                <mask id="mask-2" fill="white">
                    <use xlink:href="#path-1"></use>
                </mask>
                <g id="Clip-6"></g>
                <path d="M24.9067,29.4 L7.8067,29.4 L4.9067,2.5 C4.8067,1.2 3.6067,0.2 2.2067,0.3 C0.9067,0.4 -0.0933,1.6 0.0067,3 L3.1067,32.1 C3.2067,33.3 4.3067,34.3 5.5067,34.3 L4.0067,46.3 C3.8067,47.6 4.8067,48.8 6.1067,49 L6.4067,49 C7.6067,49 8.6067,48.1 8.8067,46.9 L10.4067,34.3 L18.7067,34.3 L20.3067,46.9 C20.5067,48.1 21.5067,49 22.7067,49 L23.0067,49 C24.3067,48.8 25.3067,47.6 25.1067,46.3 L23.6067,34.3 L24.8067,34.3 C26.1067,34.3 27.2067,33.2 27.2067,31.9 C27.2067,30.6 26.2067,29.4 24.9067,29.4" id="Fill-5" fill="#2A316C" mask="url(#mask-2)"></path>
            </g>
            <path d="M65.3071,45.0986 C67.2061,44.6986 69.0071,44.6986 74.4071,44.5986 C79.8071,44.4986 84.9071,45.1986 85.6071,42.3986 C86.4071,39.1986 87.4071,24.3986 87.4071,20.8986 C87.4071,18.3986 86.5071,16.1986 81.8071,16.1986 C75.6071,16.2986 73.0071,18.0986 69.7061,20.8986 C68.4071,21.9986 63.9071,22.1986 61.1071,21.9986 C59.5071,21.7986 58.1071,22.9986 57.9071,24.5986 C57.7061,26.1986 58.9071,27.5986 60.5071,27.7986 C61.0071,27.7986 62.1071,27.8986 63.5071,27.8986 C66.5071,27.8986 70.9071,27.4986 73.5071,25.2986 C73.9071,24.9986 74.2061,24.6986 74.5071,24.3986 C74.2061,27.2986 73.8071,32.3986 73.4071,36.8986 C63.8071,37.0986 59.9071,37.9986 58.4071,41.0986 C57.3071,43.3986 57.3071,50.5986 58.3071,62.6986 C58.5071,64.6986 60.1071,66.1986 62.0071,66.1986 L62.3071,66.1986 C64.4071,65.9986 65.9071,64.1986 65.7061,62.1986 C65.4071,55.7986 65.1071,48.0986 65.3071,45.0986" id="Fill-8" fill="#2A316C"></path>
            <path d="M74.4663,6.8862 C74.7033,2.8612 78.1573,-0.2088 82.1833,0.0282 C86.2073,0.2652 89.2793,3.7192 89.0413,7.7442 C88.8043,11.7692 85.3493,14.8402 81.3243,14.6032 C77.2993,14.3662 74.2293,10.9112 74.4663,6.8862" id="Fill-10" fill="#2A316C"></path>
            <g id="Group-14" transform="translate(67.000000, 17.198600)">
                <mask id="mask-4" fill="white">
                    <use xlink:href="#path-3"></use>
                </mask>
                <g id="Clip-13"></g>
                <path d="M25.9067,0.2999 C24.6067,0.1999 23.4067,1.0999 23.2067,2.4999 L20.3067,29.3999 L3.3067,29.3999 C2.0077,29.3999 0.9067,30.4999 0.9067,31.7999 C0.9067,33.0999 2.0077,34.1999 3.3067,34.1999 L4.5077,34.1999 L3.0077,46.1999 C2.8067,47.4999 3.8067,48.6999 5.1067,48.8999 L5.4067,48.8999 C6.6067,48.8999 7.6067,47.9999 7.8067,46.7999 L9.4067,34.1999 L17.7067,34.1999 L19.3067,46.7999 C19.5077,47.9999 20.5077,48.8999 21.7067,48.8999 L22.0077,48.8999 C23.3067,48.6999 24.3067,47.4999 24.1067,46.1999 L22.6067,34.1999 C23.8067,34.1999 24.9067,33.2999 25.0077,31.9999 L28.1067,2.8999 C28.2067,1.6999 27.3067,0.4999 25.9067,0.2999" id="Fill-12" fill="#2A316C" mask="url(#mask-4)"></path>
            </g>
            <path d="M70.1069,30.2988 L25.1069,30.2988 C24.8069,30.2988 24.6069,30.4988 24.6069,30.7988 L24.6069,34.0988 C24.6069,34.3988 24.8069,34.5988 25.1069,34.5988 L41.2069,34.5988 L41.2069,65.1978 C41.2069,65.4988 41.4069,65.6978 41.7069,65.6978 L53.5069,65.6978 C53.8069,65.6978 54.0069,65.4988 54.0069,65.1978 L54.0069,34.6988 L70.1069,34.6988 C70.4069,34.6988 70.6069,34.4988 70.6069,34.1988 L70.6069,30.8988 C70.7069,30.5988 70.4069,30.2988 70.1069,30.2988" id="Fill-15" fill="#2A316C"></path>
        </g>
    </g>
</svg>