<?xml version="1.0" encoding="utf-8"?>
<!-- Generator: Adobe Illustrator 23.0.1, SVG Export Plug-In . SVG Version: 6.00 Build 0)  -->
<svg version="1.1" id="Layer_1" xmlns="http://www.w3.org/2000/svg" xmlns:xlink="http://www.w3.org/1999/xlink" x="0px" y="0px"
	 viewBox="0 0 100 100" style="enable-background:new 0 0 100 100;" xml:space="preserve">
<style type="text/css">
	.st0{fill:#13284B;}
</style>
<path class="st0" d="M24.46,25.22h-4.04V19.1h4.04V25.22z M33.88,19.1h-4.04v6.12h4.04V19.1z M43.43,19.1h-4.04v6.12h4.04V19.1z
	 M24.46,31.09h-4.04v6.12h4.04V31.09z M33.88,31.09h-4.04v6.12h4.04V31.09z M43.43,31.09h-4.04v6.12h4.04V31.09z M24.46,42.96h-4.04
	v6.12h4.04V42.96z M33.88,42.96h-4.04v6.12h4.04V42.96z M43.43,42.96h-4.04v6.12h4.04V42.96z M24.46,54.95h-4.04v6.12h4.04V54.95z
	 M33.88,54.95h-4.04v6.12h4.04V54.95z M43.43,54.95h-4.04v6.12h4.04V54.95z M24.46,66.81h-4.04v6.12h4.04V66.81z M33.88,66.81h-4.04
	v6.12h4.04V66.81z M43.43,66.81h-4.04v6.12h4.04V66.81z M24.46,78.8h-4.04v6.12h4.04V78.8z M33.88,78.8h-4.04v6.12h4.04V78.8z
	 M43.43,78.8h-4.04v6.12h4.04V78.8z M91.26,46.02v47.35c0,1.1-0.86,2.08-2.08,2.08H51.01H12.72c-1.1,0-2.08-0.86-2.08-2.08V10.54
	c0-1.1,0.86-2.08,2.08-2.08h38.29c1.1,0,2.08,0.86,2.08,2.08v33.4H89.3C90.41,43.94,91.26,44.92,91.26,46.02z M50,11.17H13.22v81.3
	H50V11.17z M88.56,46.89H53.09v45.58h35.47V46.89z M62.76,54.95h-4.04v6.12h4.04V54.95z M72.18,54.95h-4.04v6.12h4.04V54.95z
	 M81.6,54.95h-4.04v6.12h4.04V54.95z M62.76,66.81h-4.04v6.12h4.04V66.81z M72.18,66.81h-4.04v6.12h4.04V66.81z M81.6,66.81h-4.04
	v6.12h4.04V66.81z M62.76,84.92V78.8h-4.04v6.12H62.76z M72.18,78.8h-4.04v6.12h4.04V78.8z M81.6,78.8h-4.04v6.12h4.04V78.8z"/>
</svg>
