<?xml version="1.0" encoding="UTF-8"?>
<svg width="55px" height="55px" viewBox="0 0 55 55" version="1.1" xmlns="http://www.w3.org/2000/svg" xmlns:xlink="http://www.w3.org/1999/xlink">
    <!-- Generator: Sketch 48.2 (47327) - http://www.bohemiancoding.com/sketch -->
    <title>Group</title>
    <desc>Created with Sketch.</desc>
    <defs>
        <filter x="-14.9%" y="-10.6%" width="129.8%" height="129.8%" filterUnits="objectBoundingBox" id="filter-1">
            <feOffset dx="0" dy="2" in="SourceAlpha" result="shadowOffsetOuter1"></feOffset>
            <feGaussianBlur stdDeviation="2" in="shadowOffsetOuter1" result="shadowBlurOuter1"></feGaussianBlur>
            <feColorMatrix values="0 0 0 0 0   0 0 0 0 0   0 0 0 0 0  0 0 0 0.5 0" type="matrix" in="shadowBlurOuter1" result="shadowMatrixOuter1"></feColorMatrix>
            <feMerge>
                <feMergeNode in="shadowMatrixOuter1"></feMergeNode>
                <feMergeNode in="SourceGraphic"></feMergeNode>
            </feMerge>
        </filter>
        <polygon id="path-2" points="0 0 47 0 47 47 0 47"></polygon>
    </defs>
    <g id="Intro" stroke="none" stroke-width="1" fill="none" fill-rule="evenodd" transform="translate(-138.000000, -526.000000)">
        <g id="Group" filter="url(#filter-1)" transform="translate(142.000000, 528.000000)">
            <circle id="Oval" fill="#FFFFFF" cx="23.5" cy="28.5" r="17.5"></circle>
            <g id="Page-1"></g>
            <mask id="mask-3" fill="white">
                <use xlink:href="#path-2"></use>
            </mask>
            <g id="Clip-2"></g>
            <path d="M35.3479167,19.5833333 L24.5770833,31.3333333 C24.0267917,31.9286667 23.0965833,31.9619583 22.50125,31.4116667 C22.4738333,31.3862083 22.448375,31.36075 22.4229167,31.3333333 L11.75,19.5833333 C11.2897917,18.9155417 11.4582083,18.001 12.126,17.5407917 C12.6684583,17.1647917 13.3989167,17.2000417 13.9041667,17.625 L23.6958333,28.2 L33.2916667,17.625 C33.9829583,17.2000417 34.8877083,17.4174167 35.3107083,18.1087083 C35.5887917,18.5571667 35.6025,19.1211667 35.3479167,19.5833333 M23.5,0 C10.522125,0 0,10.522125 0,23.5 C0,36.477875 10.522125,47 23.5,47 C36.477875,47 47,36.477875 47,23.5 C47,10.522125 36.477875,0 23.5,0" id="Fill-1" fill="#00B3EE" mask="url(#mask-3)"></path>
        </g>
    </g>
</svg>