
<svg width="480px" height="302px" viewBox="0 0 480 302" version="1.1" xmlns="http://www.w3.org/2000/svg" xmlns:xlink="http://www.w3.org/1999/xlink">
	<!-- Generator: Sketch 49 (51002) - http://www.bohemiancoding.com/sketch -->
	<desc>Created with Sketch.</desc>
	<defs></defs>
	<g id="Page-1" stroke="none" stroke-width="1" fill="none" fill-rule="evenodd">
		<g id="employment" transform="translate(1.000000, 2.000000)">
			<polyline id="Shape" stroke="#86A5C4" stroke-width="3" fill="#ADC8E7" fill-rule="nonzero" opacity="0.1" points="340.8 0.3 476.9 0.3 476.9 242.2 340.8 242.2"></polyline>
			<rect id="Rectangle-path" stroke="#86A5C4" stroke-width="3" fill="#ADC8E7" fill-rule="nonzero" opacity="0.1" x="0.8" y="0.8" width="339" height="138"></rect>
			<polyline id="Shape" stroke="#86A5C4" stroke-width="3" fill="#ADC8E7" fill-rule="nonzero" opacity="0.1" points="339.8 140.3 339.8 298.3 105.8 298.3 105.8 140.3"></polyline>
			<text id="2.2K" fill="#FFFFFF" font-family="Helvetica" font-size="12" font-weight="normal">
				<tspan x="354.515" y="132.755">2.2K</tspan>
			</text>
			<circle id="Oval" fill="#00A0DF" fill-rule="nonzero" cx="194.8" cy="110.3" r="17.5"></circle>
			<text id="2.2K" fill="#FFFFFF" font-family="Helvetica" font-size="12" font-weight="normal">
				<tspan x="182.2977" y="114.755">2.2K</tspan>
			</text>
			<circle id="Oval" fill="#00A0DF" fill-rule="nonzero" cx="263.8" cy="96.3" r="19.5"></circle>
			<text id="1.8K" fill="#FFFFFF" font-family="Helvetica" font-size="12" font-weight="normal">
				<tspan x="251.6297" y="100.755">1.8K</tspan>
			</text>
			<g id="Group" transform="translate(247.834300, 47.755000)" fill="#13294B" font-family="Helvetica" font-size="12" font-weight="normal">
				<text id="Royal">
					<tspan x="0" y="11">Royal</tspan>
				</text>
				<text id="Oak">
					<tspan x="4.1" y="25.4">Oak</tspan>
				</text>
			</g>
			<g id="Group" transform="translate(77.061900, 88.755000)" fill="#13294B" font-family="Helvetica" font-size="12" font-weight="normal">
				<text id="Farmington">
					<tspan x="0" y="11">Farmington</tspan>
				</text>
				<text id="Hills">
					<tspan x="20.8" y="25.4">Hills</tspan>
				</text>
			</g>
			<text id="Livonia" fill="#13294B" font-family="Helvetica" font-size="12" font-weight="normal">
				<tspan x="121.8294" y="195.755">Livonia</tspan>
			</text>
			<text id="Dearborn" fill="#13294B" font-family="Helvetica" font-size="12" font-weight="normal">
				<tspan x="145.846" y="232.755">Dearborn</tspan>
			</text>
			<text id="Canton" fill="#13294B" font-family="Helvetica" font-size="12" font-weight="normal">
				<tspan x="146.076" y="292.255">Canton</tspan>
			</text>
			<g id="Group" transform="translate(162.377700, 62.755000)" fill="#13294B" font-family="Helvetica" font-size="12" font-weight="normal">
				<text id="Southfield">
					<tspan x="0" y="11">Southfield</tspan>
				</text>
				<text id="City">
					<tspan x="17.5" y="25.4">City</tspan>
				</text>
			</g>
			<g id="Group" opacity="0.6" transform="translate(284.000000, 155.000000)" stroke="#262626" stroke-linecap="round" stroke-width="2">
				<g id="Shape">
					<path d="M0.3,28.8 L0.4,28.7"></path>
					<path d="M4.1,27.2 L68.4,1.5" stroke-dasharray="0.1994,3.989"></path>
					<path d="M70.2,0.8 L70.3,0.8"></path>
				</g>
			</g>
			<g id="Group" opacity="0.6" transform="translate(275.000000, 75.000000)" stroke="#262626" stroke-linecap="round" stroke-width="2">
				<g id="Shape">
					<path d="M0.3,92.8 L0.4,92.7"></path>
					<path d="M3,89.7 L77,2.3" stroke-dasharray="0.1981,3.961"></path>
				</g>
			</g>
			<g id="Group" opacity="0.6" transform="translate(179.000000, 216.000000)" stroke="#262626" stroke-linecap="round" stroke-width="2">
				<g id="Shape">
					<path d="M46.6,2.9 L2.5,38.9" stroke-dasharray="0.2008,4.0161"></path>
					<path d="M0.9,40.2 L0.8,40.3"></path>
				</g>
			</g>
			<g id="Group" opacity="0.6" transform="translate(155.000000, 132.000000)" stroke="#262626" stroke-linecap="round" stroke-width="2">
				<g id="Shape">
					<path d="M70.8,40.3 L70.7,40.2"></path>
					<path d="M67.2,38.2 L2.7,1.3" stroke-dasharray="0.2021,4.0413"></path>
					<path d="M0.9,0.3 L0.8,0.3"></path>
				</g>
			</g>
			<g id="Group" opacity="0.6" transform="translate(258.000000, 119.000000)" stroke="#262626" stroke-linecap="round" stroke-width="2">
				<g id="Shape">
					<path d="M4.3,0.8 L4.3,0.9"></path>
					<path d="M3.9,4.7 L0.5,38.8" stroke-dasharray="0.1914,3.8277"></path>
					<path d="M0.3,40.7 L0.3,40.8"></path>
				</g>
			</g>
			<g id="Group" opacity="0.6" transform="translate(206.000000, 127.000000)" stroke="#262626" stroke-linecap="round" stroke-width="2">
				<g id="Shape">
					<path d="M0.8,0.3 L0.9,0.3"></path>
					<path d="M3.4,3.5 L28,35.1" stroke-dasharray="0.2005,4.0095"></path>
					<path d="M29.3,36.7 L29.3,36.8"></path>
				</g>
			</g>
			<g id="Group" opacity="0.6" transform="translate(161.000000, 172.000000)" stroke="#262626" stroke-linecap="round" stroke-width="2">
				<g id="Shape">
					<path d="M58.8,13.3 L58.7,13.2"></path>
					<path d="M54.8,12.3 L2.9,0.7" stroke-dasharray="0.2022,4.0436"></path>
					<path d="M0.9,0.3 L0.8,0.3"></path>
				</g>
			</g>
			<g id="Group" opacity="0.6" transform="translate(208.000000, 196.000000)" stroke="#262626" stroke-linecap="round" stroke-width="2">
				<g id="Shape">
					<path d="M16.8,0.3 L16.7,0.3"></path>
					<path d="M12.9,1.2 L2.8,3.8" stroke-dasharray="0.1963,3.9259"></path>
					<path d="M0.9,4.2 L0.8,4.3"></path>
				</g>
			</g>
			<g id="Group" transform="translate(228.266700, 226.445900)" fill="#13294B" font-family="Helvetica" font-size="12" font-weight="normal">
				<text id="DETROIT">
					<tspan x="0" y="11">DETROIT</tspan>
				</text>
				<text id="CITY">
					<tspan x="12.7" y="25.4">CITY</tspan>
				</text>
			</g>
			<text id="MACOMB" fill="#ADC8E7" font-family="Helvetica" font-size="12" font-weight="normal">
				<tspan x="409.8333" y="229.255">MACOMB</tspan>
			</text>
			<text id="OAKLAND" fill="#ADC8E7" font-family="Helvetica" font-size="12" font-weight="normal">
				<tspan x="11.8333" y="126.255">OAKLAND</tspan>
			</text>
			<text id="WAYNE" fill="#ADC8E7" font-family="Helvetica" font-size="12" font-weight="normal">
				<tspan x="277.8333" y="286.255">WAYNE</tspan>
			</text>
			<rect id="Rectangle-path" x="272.8" y="70.8" width="1.5" height="4"></rect>
			<circle id="Oval" fill="#00A0DF" fill-rule="nonzero" cx="252.8" cy="192.3" r="30.5"></circle>
			<text id="15,770" fill="#FFFFFF" font-family="Helvetica" font-size="12" font-weight="normal">
				<tspan x="233.9615" y="195.755">15,770</tspan>
			</text>
			<circle id="Oval" fill="#00A0DF" fill-rule="nonzero" cx="143.8" cy="122.3" r="16.5"></circle>
			<text id="1.7K" fill="#FFFFFF" font-family="Helvetica" font-size="12" font-weight="normal">
				<tspan x="131.6297" y="126.755">1.7K</tspan>
			</text>
			<circle id="Oval" fill="#00A0DF" fill-rule="nonzero" cx="141.8" cy="167.3" r="16.5"></circle>
			<text id="1.6K" fill="#FFFFFF" font-family="Helvetica" font-size="12" font-weight="normal">
				<tspan x="129.6297" y="171.755">1.6K</tspan>
			</text>
			<text id="1.4K" fill="#FFFFFF" font-family="Helvetica" font-size="12" font-weight="normal">
				<tspan x="150.6297" y="271.755">1.4K</tspan>
			</text>
			<circle id="Oval" fill="#00A0DF" fill-rule="nonzero" cx="194.8" cy="205.3" r="16.5"></circle>
			<text id="1.6K" fill="#FFFFFF" transform="translate(195.134868, 204.751682) rotate(-0.650085) translate(-195.134868, -204.751682) " font-family="Helvetica" font-size="12" font-weight="normal">
				<tspan x="182.635314" y="208.751931">1.6K</tspan>
			</text>
			<g id="Group" transform="translate(350.520400, 167.255000)" fill="#13294B" font-family="Helvetica" font-size="12" font-weight="normal">
				<text id="St-Clair">
					<tspan x="0" y="11">St Clair</tspan>
				</text>
				<text id="Shores">
					<tspan x="1.3" y="25.4">Shores</tspan>
				</text>
			</g>
			<g id="Group" transform="translate(343.960800, 11.255000)" fill="#13294B" font-family="Helvetica" font-size="12" font-weight="normal">
				<text id="Sterling">
					<tspan x="0" y="11">Sterling</tspan>
				</text>
				<text id="Heights">
					<tspan x="0.1" y="25.4">Heights</tspan>
				</text>
			</g>
			<circle id="Oval" fill="#00A0DF" fill-rule="nonzero" cx="371.8" cy="147.3" r="16.5"></circle>
			<text id="1.6K" fill="#FFFFFF" font-family="Helvetica" font-size="12" font-weight="normal">
				<tspan x="359.6297" y="151.755">1.6K</tspan>
			</text>
			<circle id="Oval" fill="#00A0DF" fill-rule="nonzero" cx="362.8" cy="62.3" r="13.5"></circle>
			<circle id="Oval" fill="#00A0DF" fill-rule="nonzero" cx="167.8" cy="267.3" r="13.5"></circle>
			<text id="1.4K" fill="#FFFFFF" font-family="Helvetica" font-size="11" font-weight="normal">
				<tspan x="351.6297" y="65.755">1.4K</tspan>
			</text>
			<text id="1.4K" fill="#FFFFFF" font-family="Helvetica" font-size="11" font-weight="normal">
				<tspan x="155.6297" y="271.755">1.4K</tspan>
			</text>
		</g>
	</g>
</svg>