<?xml version="1.0" encoding="utf-8"?>
<!-- Generator: Adobe Illustrator 23.0.1, SVG Export Plug-In . SVG Version: 6.00 Build 0)  -->
<svg version="1.1" id="Layer_1" xmlns="http://www.w3.org/2000/svg" xmlns:xlink="http://www.w3.org/1999/xlink" x="0px" y="0px"
	 viewBox="0 0 100 100" style="enable-background:new 0 0 100 100;" xml:space="preserve">
<style type="text/css">
	.st0{fill:none;stroke:#13284B;stroke-width:2.5;stroke-miterlimit:10;}
</style>
<path class="st0" d="M66.39,54.35V34.81c0-6.19,5-11.18,11.2-11.18c1.46,0,2.85,0.27,4.13,0.78c0.23,0.09,0.45,0.19,0.67,0.29
	c0.25,0.12,0.5,0.25,0.73,0.38c3.39,1.92,5.67,5.55,5.67,9.73v23.13"/>
<path class="st0" d="M81.78,47.32v4.48c0,1.44,0.76,2.76,1.99,3.49l7.01,4.13c0.4,0.24,1.04,0.63,1.39,0.93
	c1.39,1.21,2.23,3.09,2.25,5.1c0,0.05,0,0.13,0,0.18v8.46H74.77 M69.86,56.19l0.7-0.41c1.75-1.03,2.83-2.92,2.83-4.96v-3.5"/>
<path class="st0" d="M78.66,35.08c-1.32,1.16-4.72,0.7-6.63,0.7l-0.05,0.54v2.09c0,0.03,0,0.03,0,0.04c0,0.03,0,0.03,0,0.04v4.28
	c0,3.56,2.5,7.43,5.61,7.43s5.61-3.87,5.61-7.43v-4.28c0-0.03,0-0.03,0-0.04c0-0.03,0-0.03,0-0.04l-0.01-1.87
	c-0.95-0.25-1.87-0.57-2.65-1.1c-0.36-0.25-0.8-0.35-1.23-0.35L78.66,35.08z"/>
<path class="st0" d="M89.16,74.09v-4.23"/>
<path class="st0" d="M86.16,57.16c0,2.75-1.33,5.34-3.57,6.92c-2.24,1.59-5.1,1.98-7.68,1.05"/>
<path class="st0" d="M13.09,57.95V34.82c0-6.19,4.96-11.18,11.13-11.18c1.45,0,2.83,0.27,4.1,0.78c0.23,0.09,0.45,0.19,0.67,0.29
	c0.25,0.12,0.49,0.24,0.73,0.38c3.37,1.92,5.63,5.55,5.63,9.73v19.53"/>
<path class="st0" d="M28.48,47.26v4.53c0,1.44,0.76,2.76,1.99,3.49l1.43,0.84 M26.88,74.09H7.46v-7.42c0-0.53-0.01-1.38,0.06-1.91
	c0.19-1.58,0.87-3.03,1.9-4.1c0.55-0.58,1.67-1.25,2.35-1.65l5.49-3.24c1.75-1.03,2.83-2.92,2.83-4.96v-3.56"/>
<path class="st0" d="M12.72,74.09v-4.23"/>
<path class="st0" d="M26.81,65.29c-2.6,0.76-5.4,0.22-7.54-1.45c-2.13-1.68-3.34-4.28-3.23-7"/>
<path class="st0" d="M58.09,43.09v6.56l12.54,7.02c2.56,1.43,4.14,4.1,4.14,6.98v10.48H27.11V63.87c0-3.02,1.66-5.82,4.34-7.32
	l12.34-6.9v-6.56"/>
<path class="st0" d="M46.58,20.49c-3.02,0-5.45,2.34-5.45,5.25v4.67c0,0.03,0.01,0.04,0.01,0.06c0,0.03-0.01,0.04-0.01,0.06v6.3
	c0,5.24,4.38,9.45,9.82,9.45s9.82-4.22,9.82-9.45v-6.3c0-0.03-0.01-0.04-0.01-0.06c0-0.03,0.01-0.04,0.01-0.06v-6.84
	c-0.45-3.25-2.09-5.57-5.46-5.55c-0.1,1.52-1.78,2.38-3.28,2.47H46.58z"/>
<path class="st0" d="M41.41,32.64c1.18,0,4.51-3.03,4.8-4.07c3.36,5.7,11.49,0.06,14.24,4.72"/>
<path class="st0" d="M50.96,75.16V58.98l-2.61-2.49L43.17,59c-0.9,0.42-1.9-0.34-1.78-1.34l2.24-8.13c0.81,2.49,2.72,4.99,4.66,7.01
	"/>
<path class="st0" d="M50.94,75.13V58.98l2.73-2.49L59.08,59c0.94,0.42,1.99-0.34,1.86-1.34c0,0-2.53-7.73-2.35-8.12
	c-1.2,1.85-1.99,4.49-4.87,6.89"/>
<path class="st0" d="M35.51,73.6v-7.61"/>
<path class="st0" d="M66.37,73.6v-7.61"/>
<ellipse class="st0" cx="56.55" cy="64.28" rx="1.43" ry="1.4"/>
<ellipse class="st0" cx="56.55" cy="69.89" rx="1.4" ry="1.37"/>
<path class="st0" d="M25.29,35.08c-1.32,1.16-4.72,0.7-6.63,0.7l-0.05,0.54v2.09c0,0.03,0,0.03,0,0.04c0,0.03,0,0.03,0,0.04v4.28
	c0,3.56,2.5,7.43,5.61,7.43s5.61-3.87,5.61-7.43v-4.28c0-0.03,0-0.03,0-0.04c0-0.03,0-0.03,0-0.04l-0.01-1.87
	c-0.95-0.25-1.87-0.57-2.65-1.1c-0.36-0.25-0.8-0.35-1.23-0.35L25.29,35.08z"/>
</svg>
