<?xml version="1.0" encoding="utf-8"?>
<!-- Generator: Adobe Illustrator 23.0.1, SVG Export Plug-In . SVG Version: 6.00 Build 0)  -->
<svg version="1.1" id="Layer_1" xmlns="http://www.w3.org/2000/svg" xmlns:xlink="http://www.w3.org/1999/xlink" x="0px" y="0px"
	 viewBox="0 0 100 100" style="enable-background:new 0 0 100 100;" xml:space="preserve">
<style type="text/css">
	.st0{fill:#13284B;}
</style>
<g>
	<path class="st0" d="M89.96,55.35c0.85,0,1.54-0.69,1.54-1.54v-7.85c0-0.85-0.69-1.54-1.54-1.54H70.5
		c-1.21-9.22-8.84-16.43-18.24-17v-4.49h15.18c0.85,0,1.54-0.69,1.54-1.54V10.88c0-0.85-0.69-1.54-1.54-1.54H50.73
		c-0.85,0-1.54,0.69-1.54,1.54V21.4v6.06c-9.09,0.87-16.37,7.97-17.56,16.97H12.17c-0.85,0-1.54,0.69-1.54,1.54v7.85
		c0,0.85,0.69,1.54,1.54,1.54h4.26V80h-4.26c-0.85,0-1.54,0.69-1.54,1.54v7.85c0,0.85,0.69,1.54,1.54,1.54h77.79
		c0.85,0,1.54-0.69,1.54-1.54v-7.85c0-0.85-0.69-1.54-1.54-1.54h-3.41V55.35H89.96z M52.26,12.42h13.65v7.45H52.26V12.42z
		 M51.07,30.44c8.25,0,15.09,6.08,16.33,13.99H34.74C35.98,36.52,42.82,30.44,51.07,30.44z M13.71,47.5h17.84h2.88h33.28h2.88h17.84
		v4.78H13.71V47.5z M64.2,80V55.35h8.1V80H64.2z M53.03,80V55.35h8.1V80H53.03z M41.86,80V55.35h8.1V80H41.86z M30.68,80V55.35h8.1
		V80H30.68z M19.51,55.35h8.1V80h-8.1V55.35z M88.43,87.85H13.71v-4.78h74.72V87.85z M83.48,80h-8.1V55.35h8.1V80z"/>
</g>
</svg>
