<?xml version="1.0" encoding="UTF-8"?>
<svg width="73px" height="91px" viewBox="0 0 73 91" version="1.1" xmlns="http://www.w3.org/2000/svg" xmlns:xlink="http://www.w3.org/1999/xlink">
    <!-- Generator: Sketch 49 (51002) - http://www.bohemiancoding.com/sketch -->
    <title>Page 1</title>
    <desc>Created with Sketch.</desc>
    <defs></defs>
    <g id="Public-Life" stroke="none" stroke-width="1" fill="none" fill-rule="evenodd">
        <g id="Clean-and-Welcoming" transform="translate(-109.000000, -2126.000000)" fill="#2A316C">
            <g id="Group-13" transform="translate(108.000000, 2117.000000)">
                <g id="Page-1" transform="translate(37.500000, 54.500000) scale(-1, 1) translate(-37.500000, -54.500000) translate(1.000000, 9.000000)">
                    <polygon id="Fill-1" points="18 64 36 64 36 50 18 50"></polygon>
                    <polygon id="Fill-2" points="0 27 0 91 36 91 36 68.1428571 13.5 68.1428571 13.5 45.2902857 36 45.2902857 36 27"></polygon>
                    <polygon id="Fill-3" points="27 18.5 22.5 18.5 22.5 14 13.5 14 13.5 18.5 9 18.5 9 23 27 23"></polygon>
                    <polygon id="Fill-4" points="73 0 32 13.7142857 32 18.2857143 73 32"></polygon>
                </g>
            </g>
        </g>
    </g>
</svg>