<?xml version="1.0" encoding="UTF-8"?>
<svg width="88px" height="88px" viewBox="0 0 88 88" version="1.1" xmlns="http://www.w3.org/2000/svg" xmlns:xlink="http://www.w3.org/1999/xlink">
    <!-- Generator: Sketch 49 (51002) - http://www.bohemiancoding.com/sketch -->
    <title>Group</title>
    <desc>Created with Sketch.</desc>
    <defs></defs>
    <g id="Public-Life" stroke="none" stroke-width="1" fill="none" fill-rule="evenodd">
        <g id="Clean-and-Welcoming" transform="translate(-118.000000, -1746.000000)" fill="#2A316C" fill-rule="nonzero">
            <g id="Group-11" transform="translate(108.000000, 1735.000000)">
                <g id="Group" transform="translate(10.000000, 11.000000)">
                    <path d="M74.4356014,28.2958205 C72.9728919,26.5680598 70.050305,26.5680598 68.5904276,28.2958205 L65.1085278,32.4051277 C62.9718109,34.9234137 62.412498,38.4230906 63.6444024,41.5381876 C64.77294,44.3869274 67.1645337,46.3012806 70.0814566,46.7542302 L70.0814566,52.5756301 C70.0814566,53.3633066 70.7144006,54 71.4974387,54 C72.2804767,54 72.9134207,53.3633066 72.9134207,52.5756301 L72.9134207,46.7613521 C75.6547619,46.3055537 77.9953802,44.500877 79.189053,41.8415784 C80.6262748,38.643868 80.1292651,35.0145734 77.8877656,32.3723672 L74.4356014,28.2958205 Z" id="Shape"></path>
                    <path d="M18.4356014,28.2958205 C16.9728919,26.5680598 14.050305,26.5680598 12.5904276,28.2958205 L9.10852777,32.4051277 C6.97181089,34.9234137 6.41249799,38.4230906 7.64440235,41.5381876 C8.77294003,44.3869274 11.1645337,46.3012806 14.0814566,46.7542302 L14.0814566,52.5756301 C14.0814566,53.3633066 14.7144006,54 15.4974387,54 C16.2804767,54 16.9134207,53.3633066 16.9134207,52.5756301 L16.9134207,46.7613521 C19.6547619,46.3055537 21.9953802,44.500877 23.189053,41.8415784 C24.6262748,38.643868 24.1292651,35.0145734 21.8877656,32.3723672 L18.4356014,28.2958205 Z" id="Shape"></path>
                    <path d="M74.4356014,60.2958205 C72.9728919,58.5680598 70.050305,58.5680598 68.5904276,60.2958205 L65.1085278,64.4051277 C62.9718109,66.9234137 62.412498,70.4230906 63.6444024,73.5381876 C64.77294,76.3869274 67.1645337,78.3012806 70.0814566,78.7542302 L70.0814566,84.5756301 C70.0814566,85.3633066 70.7144006,86 71.4974387,86 C72.2804767,86 72.9134207,85.3633066 72.9134207,84.5756301 L72.9134207,78.7613521 C75.6547619,78.3055537 77.9953802,76.500877 79.189053,73.8415784 C80.6262748,70.643868 80.1292651,67.0145734 77.8877656,64.3723672 L74.4356014,60.2958205 Z" id="Shape"></path>
                    <path d="M18.4356014,60.2958205 C16.9728919,58.5680598 14.050305,58.5680598 12.5904276,60.2958205 L9.10852777,64.4051277 C6.97181089,66.9234137 6.41249799,70.4230906 7.64440235,73.5381876 C8.77294003,76.3869274 11.1645337,78.3012806 14.0814566,78.7542302 L14.0814566,84.5756301 C14.0814566,85.3633066 14.7144006,86 15.4974387,86 C16.2804767,86 16.9134207,85.3633066 16.9134207,84.5756301 L16.9134207,78.7613521 C19.6547619,78.3055537 21.9953802,76.500877 23.189053,73.8415784 C24.6262748,70.643868 24.1292651,67.0145734 21.8877656,64.3723672 L18.4356014,60.2958205 Z" id="Shape"></path>
                    <path d="M79.2,13.2 L76.2666667,13.2 C75.4556,13.2 74.8,12.5444 74.8,11.7333333 C74.8,10.9222667 75.4556,10.2666667 76.2666667,10.2666667 L79.2,10.2666667 C80.0110667,10.2666667 80.6666667,10.9222667 80.6666667,11.7333333 C80.6666667,12.5444 80.0110667,13.2 79.2,13.2 Z M67.8494667,13.2 L62.238,13.2 C61.4269333,13.2 60.7713333,12.5444 60.7713333,11.7333333 C60.7713333,10.9222667 61.4269333,10.2666667 62.238,10.2666667 L67.8494667,10.2666667 C68.6590667,10.2666667 69.3161333,10.9222667 69.3161333,11.7333333 C69.3161333,12.5444 68.6590667,13.2 67.8494667,13.2 Z M53.8193333,13.2 L48.2093333,13.2 C47.3982667,13.2 46.7426667,12.5444 46.7426667,11.7333333 C46.7426667,10.9222667 47.3982667,10.2666667 48.2093333,10.2666667 L53.8193333,10.2666667 C54.6304,10.2666667 55.286,10.9222667 55.286,11.7333333 C55.286,12.5444 54.6304,13.2 53.8193333,13.2 Z M45.4666667,24.9333333 C45.4666667,25.7444 44.8110667,26.4 44,26.4 C43.1889333,26.4 42.5333333,25.7444 42.5333333,24.9333333 L42.5333333,22 C42.5333333,21.1889333 43.1889333,20.5333333 44,20.5333333 C44.8110667,20.5333333 45.4666667,21.1889333 45.4666667,22 L45.4666667,24.9333333 Z M45.4666667,41.228 C45.4666667,42.0390667 44.8110667,42.6946667 44,42.6946667 C43.1889333,42.6946667 42.5333333,42.0390667 42.5333333,41.228 L42.5333333,34.7101333 C42.5333333,33.8990667 43.1889333,33.2434667 44,33.2434667 C44.8110667,33.2434667 45.4666667,33.8990667 45.4666667,34.7101333 L45.4666667,41.228 Z M45.4666667,57.5256 C45.4666667,58.3352 44.8110667,58.9922667 44,58.9922667 C43.1889333,58.9922667 42.5333333,58.3352 42.5333333,57.5256 L42.5333333,51.0062667 C42.5333333,50.1966667 43.1889333,49.5396 44,49.5396 C44.8110667,49.5396 45.4666667,50.1966667 45.4666667,51.0062667 L45.4666667,57.5256 Z M45.4666667,73.8217333 C45.4666667,74.6328 44.8110667,75.2884 44,75.2884 C43.1889333,75.2884 42.5333333,74.6328 42.5333333,73.8217333 L42.5333333,67.3038667 C42.5333333,66.4928 43.1889333,65.8372 44,65.8372 C44.8110667,65.8372 45.4666667,66.4928 45.4666667,67.3038667 L45.4666667,73.8217333 Z M39.7921333,13.2 L34.1806667,13.2 C33.3696,13.2 32.714,12.5444 32.714,11.7333333 C32.714,10.9222667 33.3696,10.2666667 34.1806667,10.2666667 L39.7921333,10.2666667 C40.6032,10.2666667 41.2588,10.9222667 41.2588,11.7333333 C41.2588,12.5444 40.6032,13.2 39.7921333,13.2 Z M25.762,13.2 L20.1505333,13.2 C19.3409333,13.2 18.6838667,12.5444 18.6838667,11.7333333 C18.6838667,10.9222667 19.3409333,10.2666667 20.1505333,10.2666667 L25.762,10.2666667 C26.5730667,10.2666667 27.2286667,10.9222667 27.2286667,11.7333333 C27.2286667,12.5444 26.5730667,13.2 25.762,13.2 Z M11.7333333,13.2 L8.8,13.2 C7.98893333,13.2 7.33333333,12.5444 7.33333333,11.7333333 C7.33333333,10.9222667 7.98893333,10.2666667 8.8,10.2666667 L11.7333333,10.2666667 C12.5444,10.2666667 13.2,10.9222667 13.2,11.7333333 C13.2,12.5444 12.5444,13.2 11.7333333,13.2 Z M86.5333333,0 L1.46666667,0 C0.6556,0 0,0.6556 0,1.46666667 L0,22 C0,22.8110667 0.6556,23.4666667 1.46666667,23.4666667 L32.2666667,23.4666667 L32.2666667,86.5333333 C32.2666667,87.3444 32.9222667,88 33.7333333,88 L42.5333333,88 L42.5333333,83.6 C42.5333333,82.7889333 43.1889333,82.1333333 44,82.1333333 C44.8110667,82.1333333 45.4666667,82.7889333 45.4666667,83.6 L45.4666667,88 L54.2666667,88 C55.0777333,88 55.7333333,87.3444 55.7333333,86.5333333 L55.7333333,23.4666667 L86.5333333,23.4666667 C87.3444,23.4666667 88,22.8110667 88,22 L88,1.46666667 C88,0.6556 87.3444,0 86.5333333,0 Z" id="Shape"></path>
                </g>
            </g>
        </g>
    </g>
</svg>