<?xml version="1.0" encoding="utf-8"?>
<!-- Generator: Adobe Illustrator 23.0.1, SVG Export Plug-In . SVG Version: 6.00 Build 0)  -->
<svg version="1.1" id="Layer_1" xmlns="http://www.w3.org/2000/svg" xmlns:xlink="http://www.w3.org/1999/xlink" x="0px" y="0px"
	 viewBox="0 0 100 100" style="enable-background:new 0 0 100 100;" xml:space="preserve">
<style type="text/css">
	.st0{fill:#13284B;}
</style>
<g>
	<path class="st0" d="M79.03,86.84V46.44h9.53L50,10.63l-38.56,35.8h9.53v40.41H10.87v2.53h78.27v-2.53H79.03z M17.87,43.92
		L50,14.07l32.13,29.84H17.87V43.92z M39.89,86.84v-6.31h-2.53v6.31h-2.53V76.74h7.58v10.11H39.89z M38.64,59.07
		c-2.09,0-3.78-1.7-3.78-3.78s1.7-3.78,3.78-3.78c2.09,0,3.78,1.7,3.78,3.78S40.73,59.07,38.64,59.07z M36.11,61.59h5.05
		c2.09,0,3.78,1.7,3.78,3.78v8.83H32.33v-8.83C32.33,63.3,34.02,61.59,36.11,61.59z M62.63,86.84v-6.31h-2.53v6.31h-2.53V76.74h7.58
		v10.11H62.63z M57.58,55.29c0-2.09,1.7-3.78,3.78-3.78c2.09,0,3.78,1.7,3.78,3.78s-1.7,3.78-3.78,3.78
		C59.27,59.07,57.58,57.36,57.58,55.29z M55.05,74.22v-6.31c0-3.49,2.84-6.31,6.31-6.31c3.49,0,6.31,2.84,6.31,6.31v6.31H55.05z
		 M76.52,86.84h-8.83V76.74h2.53V67.9c0-3.41-1.94-6.37-4.77-7.84c0.48-0.4,0.9-0.87,1.24-1.39l1.39,1.32l1.74-1.84l-2.2-2.08
		c0.03-0.26,0.08-0.53,0.08-0.79c0-3.49-2.84-6.31-6.31-6.31c-3.49,0-6.31,2.84-6.31,6.31c0,0.25,0.05,0.48,0.08,0.73l-2.28,2.14
		l1.74,1.84l1.46-1.36c0.34,0.54,0.77,1.02,1.27,1.44c-2.84,1.47-4.77,4.43-4.77,7.84v8.83h2.53v10.11H44.98V76.74h2.53V65.37
		c0-2.71-1.74-5.02-4.15-5.91c1.01-1.12,1.63-2.57,1.63-4.18c0-3.49-2.84-6.31-6.31-6.31s-6.34,2.82-6.34,6.31
		c0,1.61,0.62,3.07,1.63,4.18c-2.42,0.88-4.15,3.19-4.15,5.91v11.36h2.53v10.11H23.5V46.44h53.02V86.84z"/>
	<path class="st0" d="M42.42,40.13h15.14V24.98H42.42V40.13L42.42,40.13z M44.95,33.82h3.78v3.78h-3.78V33.82z M51.26,37.6v-3.78
		h3.78v3.78H51.26z M55.05,31.29h-3.78v-3.78h3.78V31.29z M48.74,27.51v3.78h-3.78v-3.78H48.74z"/>
</g>
</svg>
