<?xml version="1.0" encoding="UTF-8"?>
<svg width="86px" height="77px" viewBox="0 0 86 77" version="1.1" xmlns="http://www.w3.org/2000/svg" xmlns:xlink="http://www.w3.org/1999/xlink">
    <!-- Generator: Sketch 49 (51002) - http://www.bohemiancoding.com/sketch -->
    <title>Group</title>
    <desc>Created with Sketch.</desc>
    <defs></defs>
    <g id="Public-Life" stroke="none" stroke-width="1" fill="none" fill-rule="evenodd">
        <g id="Amenities" transform="translate(-133.000000, -1055.000000)" fill="#2A316C" fill-rule="nonzero">
            <g id="Group" transform="translate(133.000000, 1055.000000)">
                <path d="M73.79578,73.2093704 C73.8559794,73.8623845 73.8129799,74.5240162 73.8129799,75.2785253 C74.8765014,75.2785253 76.4111065,75.2785253 77.5090277,75.2785253 C77.5510717,74.3669864 77.5931156,73.4516176 77.6437595,72.3610264 C80.6030822,72.673171 83.2002533,72.7727509 85.9493561,73.861427 C85.9665559,74.0194143 85.9828002,74.1774016 86,74.3344314 C85.309141,74.5661462 84.6335707,74.9280807 83.9264675,75.0085106 C79.6867146,75.49109 75.4498283,76.1546367 71.1966978,76.301134 C60.1859535,76.679346 49.1656537,77.0192581 38.1510872,76.9991506 C26.9817224,76.9780856 15.79898,76.7789259 4.68503683,75.4192776 C3.45716159,75.2689503 2.24553061,74.9702106 1.03389962,74.7068985 C0.751058322,74.6456186 0.499750003,74.4426288 0,74.1841041 C1.37885135,73.085853 2.85803491,73.089683 4.22446417,72.9020132 C6.72034755,72.5582712 9.23629737,72.3524089 11.7493806,72.1647392 C12.4908834,72.1082467 12.8205464,71.8047196 13.09861,71.1564929 C15.5161387,65.5158675 16.7182142,59.6081 16.9781225,53.4983002 C17.2074533,48.078857 16.8453017,42.6977138 15.8104466,37.367318 C15.767447,37.1451783 15.7082032,36.9249535 15.6738036,36.7822862 C14.3436851,37.2533756 13.088099,37.8996873 11.7608471,38.1361895 C5.44947278,39.2583781 0.31532983,33.1954957 2.38981789,27.1086759 C2.61819313,26.4393842 2.57901579,26.0228723 2.13946512,25.456033 C-0.54179398,22.0090373 -0.161487095,17.128666 3.01283319,14.1383972 C3.5106721,13.6701803 3.7189809,13.2402633 3.70464773,12.5479917 C3.58520461,7.09120609 7.65678159,3.29855336 13.0699437,3.72368282 C13.4750947,3.75432279 14.0379107,3.5044156 14.3121521,3.19227099 C17.7893801,-0.763156528 22.9923223,-1.07434364 26.919612,2.43488945 C27.1976756,2.68288163 27.8359796,2.79778149 28.1780647,2.65798667 C34.5716159,0.0545474431 40.7453917,4.70607659 40.0975322,11.6383679 C40.0612215,12.0290274 40.3182631,12.6063991 40.6316819,12.8486463 C45.4027177,16.5465067 45.3816958,23.0345185 40.5437717,26.7074839 C40.1013544,27.043566 39.7736025,27.2829407 39.8768014,27.9962773 C40.3746403,31.4710404 39.1591871,34.3234293 36.2954189,36.2958768 C33.4622282,38.2472594 30.4188176,38.2817293 27.366807,36.6779188 C27.1690092,36.574509 26.9597449,36.4892916 26.5450384,36.2987493 C26.174287,38.5048265 25.7414251,40.5816414 25.4901168,42.6795213 C24.3616182,52.0898194 25.313341,61.2885104 28.3443295,70.2775091 C28.6577482,71.2072404 29.0953878,71.4466151 30.0107999,71.3872502 C31.3542961,71.2982028 32.1215986,71.3642702 33.6065155,71.3642702 C33.6065155,72.678916 33.6399596,74.1821891 33.6399596,75.5447099 C34.7608138,75.5447099 36.669037,75.5437524 37.8013578,75.5437524 C37.8013578,74.4885888 37.7296919,73.3108652 37.7296919,73.3108652 C37.9399118,73.2112854 38.0631771,72.9594632 38.0918434,73.2668203 C39.1190542,73.2668203 40.8438128,73.3549102 41.9082899,73.3549102 C41.9503339,72.7890284 41.9665781,71.9493019 42.0267775,71.145003 C51.4541838,71.3422477 60.0970878,71.4916175 69.5006055,71.6879048 C69.6152709,72.2346366 69.5359607,73.106918 69.627693,73.5435374 C70.5698603,73.5435374 72.6921256,73.5875824 73.3992289,73.5875824 C73.4708948,73.1768154 73.3829846,71.884192 73.3829846,71.884192 C73.3829846,71.884192 73.518672,71.9042995 73.7489583,71.8468496" id="Shape"></path>
                <path d="M79,63.6796371 C78.3025055,63.7363265 77.7724098,63.6733383 77.1355252,63.7246287 C77.1355252,66.2468567 77.1355252,68.7258927 77.1355252,71.2049288 C77.1355252,71.642247 77.1393734,72.080465 77.1412975,72.5177831 C77.1470699,73.9899076 77.2134521,73.624576 75.7068641,73.6749666 C74.747689,73.7064607 74.3455473,73.7424539 74.3628644,72.8183269 C74.4167399,69.8272866 74.3830677,66.8344467 74.3830677,63.7507238 C73.9126197,63.7507238 73.5162505,63.7507238 72.9659514,63.7507238 C72.9659514,66.0254981 72.9794203,68.2804761 72.9524825,70.5354541 C72.9476722,70.9403783 72.8418455,71.6629431 72.6715606,71.6926375 C71.9673317,71.818614 71.2111515,71.7853202 70.4953779,71.6800399 C70.3606893,71.6611434 70.2587108,71.0474583 70.2558247,70.7064221 C70.2346593,68.409152 70.2442799,66.1127818 70.2442799,63.733627 C60.5255365,63.733627 50.9001129,63.733627 41.1255699,63.733627 C41.1255699,66.4088264 41.1255699,69.0534314 41.1255699,71.6656426 C40.8744719,71.7403286 40.7686452,71.7925188 40.6580081,71.8015172 C38.3827331,72.0111779 38.3596436,71.9778842 38.381771,69.8776772 C38.4029364,67.8422581 38.3865813,65.806839 38.3865813,63.7156304 C37.9065127,63.7156304 37.5765257,63.7156304 37.0906847,63.7156304 C37.0906847,65.8932228 37.0877986,68.0357219 37.0916468,70.1773211 C37.0926089,71.0546569 37.0531643,71.9355921 37.1291672,72.8075289 C37.2301836,73.9575137 36.5201824,73.9818091 35.5927553,73.9989059 C34.6537834,74.0178024 34.2833898,73.7982435 34.3064793,72.8453218 C34.3718994,70.1782209 34.3314929,67.5084206 34.3276446,64.8404199 C34.3276446,64.4840866 34.2968587,64.1277532 34.2776174,63.7192297 C33.8360313,63.6769376 33.6888359,63.6895353 33,63.6787373 C33,62.8922844 33.077927,62.4531666 33.2126156,61.8853729 C34.6576317,59.9309386 36.279667,58.0007999 36.279667,58.0007999 C36.279667,58.0007999 38.5712971,58.021496 40.5512193,58.021496 C52.1960095,58.021496 63.8427239,58.0331938 75.4884762,58.0007999 C75.9146693,57.9990002 76.5640607,58.0007999 76.5640607,58.0007999 C76.5640607,58.0007999 77.0652947,58.6153848 77.2500105,59.0446045 C77.7368135,60.1792922 78.3698498,61.2590901 78.8816665,62.3847794 C79.0250136,62.6979208 78.9595934,63.1973274 79,63.6796371 Z" id="Shape"></path>
                <path d="M77,52 C77,53.2419202 77,53.6454373 77,55 C63.6733539,55 50.3725013,55 37,55 C37,53.7423954 37,53.3445817 37,52 C50.3266461,52 63.63132,52 77,52 Z" id="Shape"></path>
                <path d="M76.9656363,54.1015607 C76.9656363,55.225051 77,55.7177887 77,56.9199718 C76.5933627,56.9478169 76.18768,56.9998752 75.7839063,56.9998752 C63.2716961,57.0047178 50.7757131,56.8667028 38.2615938,56.9260251 C37.7289562,56.9284464 37.0369092,56.9514489 37.0369092,56.9514489 C37.0369092,56.9514489 37.0082727,56.4526579 37.0025455,55.7807429 C36.9968182,55.0228712 37.0025455,54.0010761 37.0025455,54.0010761 C37.0025455,54.0010761 37.7661836,53.9986548 38.2310483,54.0010761 C50.7432585,54.0579771 63.2564233,54.0325532 75.7686336,54.0325532 C76.1456799,54.0337639 76.5227262,54.0749263 76.9656363,54.1015607 Z" id="Shape"></path>
                <path d="M37.0408391,48 C50.3950515,48 63.6524943,48 77,48 C77,49.096108 76.9923351,49.8002383 76.9923351,51 C76.5286072,51 76.111827,51 75.6960049,51 C63.40051,50.9988086 51.1059732,51 38.8104782,50.9976172 C37.7862529,50.9976172 37.0111375,51 37.0111375,51 C37.0111375,51 36.9718548,49.7537728 37.0408391,48 Z" id="Shape"></path>
            </g>
        </g>
    </g>
</svg>