<?xml version="1.0" encoding="UTF-8"?>
<svg width="61px" height="94px" viewBox="0 0 61 94" version="1.1" xmlns="http://www.w3.org/2000/svg" xmlns:xlink="http://www.w3.org/1999/xlink">
    <!-- Generator: Sketch 49 (51002) - http://www.bohemiancoding.com/sketch -->
    <title>Group 3 Copy</title>
    <desc>Created with Sketch.</desc>
    <defs></defs>
    <g id="Public-Life" stroke="none" stroke-width="1" fill="none" fill-rule="evenodd">
        <g id="Clean-and-Welcoming" transform="translate(-117.000000, -1997.000000)" fill="#2A316C" fill-rule="nonzero">
            <g id="Group-14" transform="translate(108.000000, 1992.000000)">
                <g id="Group-3-Copy" transform="translate(9.000000, 5.000000)">
                    <path d="M60.4194966,51.1819519 L46.763999,28.9932436 C46.0631547,27.8544603 44.8275379,27.1445291 43.4791175,27.1093942 L43.4143599,27.1073274 C43.0007469,26.9605877 42.5537106,26.8779174 42.0868292,26.8779174 L34.8862019,26.8779174 L27.2155598,26.6712416 L6.48790567,9.88813752 C4.7895854,8.51477717 2.28701754,8.76072131 0.897862583,10.4420285 C-0.49129237,12.121269 -0.240617792,14.5972444 1.456658,15.9716382 L23.2371454,33.6031462 C23.4752862,33.7953546 23.7374501,33.9472613 24.0079697,34.0785004 L24.0079697,90.0679939 C24.0079697,92.240156 25.7867147,93.9989666 27.9801173,93.9989666 C30.1745643,93.9989666 31.9543538,92.240156 31.9543538,90.0679939 L31.9543538,61.6810799 C32.3052982,61.7503163 32.6729543,61.7978517 33.0688112,61.7978517 L37.7407587,61.7978517 C37.8713183,61.7978517 37.9903888,61.7802843 38.1167705,61.7730506 L38.1167705,90.0690273 C38.1167705,92.2411894 39.8934266,94 42.0889181,94 C44.2833651,94 46.0610657,92.2411894 46.0610657,90.0690273 L46.0610657,42.9634908 L53.6345714,55.2689649 C54.3834617,56.4852516 55.6911474,57.1559144 57.0322564,57.1559144 C57.7362342,57.1559144 58.4485678,56.9709396 59.0940548,56.5823892 C60.9668028,55.454973 61.5611104,53.0368668 60.4194966,51.1819519 Z" id="Shape"></path>
                    <path d="M54.7456729,57 C51.4289331,57 48.923377,59.0329787 48.0469386,62.4406785 C47.8320481,63.2714376 48.3754624,64.1064298 49.2586512,64.3096219 C50.1418401,64.5128139 51.0306543,63.9995424 51.2466699,63.1698415 C51.606696,61.7686631 52.5056359,60.0976203 54.7456729,60.0976203 C56.712315,60.0976203 57.7091371,61.4511756 57.7091371,64.1223042 L57.7091371,92.4527773 C57.7091371,93.3068188 58.4449403,94 59.3551311,94 C60.2641968,94 61,93.3068188 61,92.4527773 L61,64.1223042 C60.9988749,59.7282764 58.6035768,57 54.7456729,57 Z" id="Shape"></path>
                    <path d="M35.4989311,5 C30.2615324,5 26,10.3116012 26,15.5326515 C26,20.7515713 30.2615324,25 35.4989311,25 C40.7363299,25 45,20.7515713 45,15.5326515 C44.9989311,10.3126665 40.7363299,5 35.4989311,5 Z" id="Shape"></path>
                    <path d="M55.853606,15.0307881 C55.7158816,14.9297444 55.5251864,14.9426436 55.4012345,15.0619611 C55.3842838,15.0780851 53.7135814,16.6614611 51.6710234,17.0194137 C51.3998124,17.0667107 51.1466114,16.9968401 50.8923511,16.8033522 C49.7799621,15.9563052 48.8349612,12.9099457 48.3614013,8.65213708 C48.1029033,6.32813246 46.6864613,3.87513591 44.7562015,2.40462789 C43.2465308,1.25552478 41.594898,0.798678354 39.9792854,1.08138567 C37.4801181,1.51995823 36.8232789,2.46482413 36.344422,3.15493096 C36.040369,3.59135366 35.8581491,3.85363725 35.3072517,3.9503812 C35.1430419,3.97940438 35.0212088,4.11699578 35.0095552,4.28576022 C34.9979016,4.50719637 34.9046728,6.47539825 35.6695726,7.17087974 C36.0922805,7.55463074 36.6749604,7.51700809 37.3381561,7.02146409 C37.624199,6.80647754 37.9070636,6.67426081 38.1793341,6.62696377 C39.5406863,6.3883287 40.4888655,8.28451008 40.799275,9.32074526 C40.8861473,9.61312697 40.9507718,10.1054462 41.0249311,10.6751605 C41.3650043,13.3130455 41.9995957,18.2222634 47.0286533,19.6701979 C48.2120233,20.0109515 49.3572543,20.0883467 50.4336231,19.8991585 C54.1977355,19.2380749 55.8981015,15.6306005 55.9680231,15.4779601 C56.0379447,15.31887 55.9902709,15.1318317 55.853606,15.0307881 Z" id="Shape"></path>
                    <path d="M17.1467261,14.0315567 C17.2855077,13.9305068 17.4751405,13.9444818 17.6001498,14.0627317 C17.6171003,14.0788567 19.2867166,15.6623303 21.3303015,16.0203049 C21.6004488,16.0676049 21.8547051,15.99773 22.107902,15.8042301 C23.2202733,14.9571309 24.1663186,11.9105837 24.6388115,7.65251255 C24.8973054,5.32836466 26.3137248,2.87521689 28.2450132,1.40461823 C29.75466,0.256519276 31.4062664,-0.201430307 33.0218533,0.0812944358 C35.5209808,0.519894037 36.1778095,1.46481818 36.6566589,2.15496755 C36.9596476,2.59141715 37.142924,2.85371691 37.6938126,2.95046683 C37.8569604,2.9794918 37.979851,3.11709167 37.990445,3.28586652 C38.0020984,3.50624132 38.0953257,5.47563953 37.330438,6.17116389 C36.9077369,6.55386355 36.3250663,6.51731358 35.6629405,6.02066403 C35.3758428,5.80566423 35.0940421,5.67343935 34.8207165,5.62613939 C33.459386,5.38748961 32.5122813,7.28378788 32.2018768,8.32008694 C32.1139465,8.61248667 32.0503824,9.10483623 31.9762243,9.67458571 C31.6361565,12.3126333 31.0015752,17.2221538 25.9725976,18.6701775 C24.7881871,19.0109522 23.6429744,19.0883521 22.5676821,18.8991523 C18.8036296,18.2380279 17.1032907,14.6292562 17.0333702,14.4766063 C16.9613309,14.3207315 17.009004,14.1336816 17.1467261,14.0315567 Z" id="Shape"></path>
                </g>
            </g>
        </g>
    </g>
</svg>