<?xml version="1.0" encoding="utf-8"?>
<!-- Generator: Adobe Illustrator 23.0.1, SVG Export Plug-In . SVG Version: 6.00 Build 0)  -->
<svg version="1.1" id="Layer_1" xmlns="http://www.w3.org/2000/svg" xmlns:xlink="http://www.w3.org/1999/xlink" x="0px" y="0px"
	 viewBox="0 0 100 100" style="enable-background:new 0 0 100 100;" xml:space="preserve">
<style type="text/css">
	.st0{fill:#13284B;}
</style>
<g>
	<g>
		<path class="st0" d="M93.33,52.4l-9.01-8.22V19.14c0-0.8-0.53-1.33-1.33-1.33h-8.75c-0.8,0-1.33,0.53-1.33,1.33v14.58L60.6,22.45
			c-0.53-0.4-1.33-0.4-1.72,0l-16.7,15.24c-1.86-3.18-5.04-5.43-8.75-5.43H16.47c-5.57,0-10.2,5.17-10.2,11.4v28.22
			c0,0.8,0.53,1.33,1.33,1.33h6.1v17.89c0,2.52,2.12,4.64,4.64,4.64c0.8,0,67.84,0,68.37,0c0.8,0,1.33-0.53,1.33-1.33V54.65h4.37
			c0.53,0,1.06-0.4,1.19-0.8C93.86,53.33,93.73,52.66,93.33,52.4z M75.57,20.46h6.1v21.2l-6.1-5.57V20.46z M16.34,91.09V56.11
			c0-0.8-0.53-1.33-1.33-1.33s-1.33,0.53-1.33,1.33v14.44H8.92v-26.9c0-4.77,3.45-8.61,7.55-8.61h16.96c3.18,0,5.83,2.25,7.02,5.3
			l0,0c0.4,1.06,0.53,2.12,0.53,3.18v9.81l0,0l0,0v17.23h-4.77V56.11c0-0.8-0.53-1.33-1.33-1.33s-1.33,0.53-1.33,1.33v34.98
			c0,1.06-0.93,1.99-1.99,1.99h-5.3V72.8c0-0.8-0.53-1.33-1.33-1.33s-1.33,0.53-1.33,1.33v20.27h-5.3
			C17.27,93.08,16.34,92.15,16.34,91.09z M51.32,93.08V67.24h16.7v25.84H51.32z M85.38,93.08H70.8V65.91c0-0.8-0.53-1.33-1.33-1.33
			H50c-0.8,0-1.33,0.53-1.33,1.33v27.16H35.82c0.27-0.53,0.4-1.19,0.4-1.99V73.2h6.1c0.8,0,1.33-0.53,1.33-1.33V54.65h41.61v38.43
			H85.38z M86.7,52H43.77v-8.35c0-1.19-0.13-2.25-0.4-3.31L59.8,25.23C79.95,43.65,88.96,52,88.96,52H86.7z"/>
	</g>
	<g>
		<path class="st0" d="M60.2,34.51c-4.11,0-7.42,3.31-7.42,7.42s3.31,7.42,7.42,7.42s7.42-3.31,7.42-7.42
			C67.49,37.95,64.18,34.51,60.2,34.51z M60.2,46.83c-2.65,0-4.77-2.12-4.77-4.77c0-2.65,2.12-4.77,4.77-4.77s4.77,2.12,4.77,4.77
			C64.97,44.71,62.72,46.83,60.2,46.83z"/>
	</g>
	<g>
		<path class="st0" d="M24.82,30.14c5.96,0,10.87-4.9,10.87-10.87c0-6.1-4.9-11-10.87-11s-10.87,4.9-10.87,10.87
			C13.96,25.23,18.86,30.14,24.82,30.14z M24.82,10.92c4.51,0,8.22,3.71,8.22,8.22s-3.71,8.22-8.22,8.22s-8.22-3.71-8.22-8.22
			S20.32,10.92,24.82,10.92z"/>
	</g>
	<g>
		<path class="st0" d="M74.78,60.88h6.89c0.8,0,1.33-0.53,1.33-1.33s-0.53-1.33-1.33-1.33h-6.89c-0.8,0-1.33,0.53-1.33,1.33
			S74.12,60.88,74.78,60.88z"/>
	</g>
	<g>
		<path class="st0" d="M74.78,68.03h6.89c0.8,0,1.33-0.53,1.33-1.33s-0.53-1.33-1.33-1.33h-6.89c-0.8,0-1.33,0.53-1.33,1.33
			S74.12,68.03,74.78,68.03z"/>
	</g>
	<g>
		<path class="st0" d="M74.78,75.19h6.89c0.8,0,1.33-0.53,1.33-1.33s-0.53-1.33-1.33-1.33h-6.89c-0.8,0-1.33,0.53-1.33,1.33
			S74.12,75.19,74.78,75.19z"/>
	</g>
	<g>
		<path class="st0" d="M74.78,82.34h6.89c0.8,0,1.33-0.53,1.33-1.33s-0.53-1.33-1.33-1.33h-6.89c-0.8,0-1.33,0.53-1.33,1.33
			S74.12,82.34,74.78,82.34z"/>
	</g>
	<g>
		<path class="st0" d="M74.78,89.37h6.89c0.8,0,1.33-0.53,1.33-1.33s-0.53-1.33-1.33-1.33h-6.89c-0.8,0-1.33,0.53-1.33,1.33
			S74.12,89.37,74.78,89.37z"/>
	</g>
</g>
</svg>
