<?xml version="1.0" encoding="utf-8"?>
<!-- Generator: Adobe Illustrator 23.0.1, SVG Export Plug-In . SVG Version: 6.00 Build 0)  -->
<svg version="1.1" id="Layer_1" xmlns="http://www.w3.org/2000/svg" xmlns:xlink="http://www.w3.org/1999/xlink" x="0px" y="0px"
	 viewBox="0 0 100 100" style="enable-background:new 0 0 100 100;" xml:space="preserve">
<style type="text/css">
	.st0{fill-rule:evenodd;clip-rule:evenodd;fill:#13284B;}
</style>
<path class="st0" d="M89.03,89.03h4.04c0.74,0,1.35,0.6,1.35,1.35c0,0.74-0.6,1.35-1.35,1.35H6.93c-0.74,0-1.35-0.6-1.35-1.35
	c0-0.74,0.6-1.35,1.35-1.35h4.04V25.77c0-0.34,0.13-0.66,0.35-0.91L26.13,8.71c0.53-0.58,1.45-0.58,1.98,0l14.81,16.15
	c0.23,0.25,0.35,0.57,0.35,0.91v14.81H85c0.47,0,0.91,0.25,1.15,0.65l8.08,13.46c0.54,0.9-0.11,2.04-1.15,2.04h-4.04V89.03z
	 M31.16,74.22c0-2.23-1.81-4.03-4.04-4.03c-2.23,0-4.04,1.81-4.04,4.03v14.81h8.08V74.22z M43.27,43.27v10.77h47.42l-6.46-10.77
	H43.27z M43.27,56.73v32.3h43.07v-32.3H43.27z M33.85,89.03h6.73V26.3L27.12,11.61L13.66,26.3v62.74h6.73V74.22
	c0-3.71,3.02-6.72,6.73-6.72c3.72,0,6.73,3.01,6.73,6.72V89.03z M20.39,39.23c0-3.72,3.02-6.73,6.73-6.73
	c3.72,0,6.73,3.02,6.73,6.73c0,3.72-3.02,6.73-6.73,6.73C23.4,45.96,20.39,42.94,20.39,39.23z M23.08,39.23
	c0,2.23,1.81,4.04,4.04,4.04c2.23,0,4.04-1.81,4.04-4.04c0-2.23-1.81-4.04-4.04-4.04C24.89,35.19,23.08,37,23.08,39.23z
	 M63.46,68.84c0-0.74,0.6-1.35,1.35-1.35c0.74,0,1.35,0.6,1.35,1.35v5.38c0,0.74-0.6,1.35-1.35,1.35c-0.74,0-1.35-0.6-1.35-1.35
	V68.84z M74.23,68.84c0-0.74,0.6-1.35,1.35-1.35c0.74,0,1.35,0.6,1.35,1.35v5.38c0,0.74-0.6,1.35-1.35,1.35
	c-0.74,0-1.35-0.6-1.35-1.35V68.84z M52.69,68.84c0-0.74,0.6-1.35,1.35-1.35s1.35,0.6,1.35,1.35v5.38c0,0.74-0.6,1.35-1.35,1.35
	s-1.35-0.6-1.35-1.35V68.84z"/>
</svg>
