<?xml version="1.0" encoding="UTF-8" standalone="no"?>
<!-- Svg Vector Icons : http://www.onlinewebfonts.com/icon -->

<svg
   xmlns:dc="http://purl.org/dc/elements/1.1/"
   xmlns:cc="http://creativecommons.org/ns#"
   xmlns:rdf="http://www.w3.org/1999/02/22-rdf-syntax-ns#"
   xmlns:svg="http://www.w3.org/2000/svg"
   xmlns="http://www.w3.org/2000/svg"
   xmlns:sodipodi="http://sodipodi.sourceforge.net/DTD/sodipodi-0.dtd"
   xmlns:inkscape="http://www.inkscape.org/namespaces/inkscape"
   version="1.1"
   x="0px"
   y="0px"
   viewBox="0 0 1000 1000"
   enable-background="new 0 0 1000 1000"
   xml:space="preserve"
   id="svg2"
   inkscape:version="0.91 r13725"
   sodipodi:docname="reset.svg"><defs
     id="defs14" /><sodipodi:namedview
     pagecolor="#ffffff"
     bordercolor="#666666"
     borderopacity="1"
     objecttolerance="10"
     gridtolerance="10"
     guidetolerance="10"
     inkscape:pageopacity="0"
     inkscape:pageshadow="2"
     inkscape:window-width="1183"
     inkscape:window-height="579"
     id="namedview12"
     showgrid="false"
     inkscape:zoom="0.236"
     inkscape:cx="-63.559322"
     inkscape:cy="500"
     inkscape:window-x="0"
     inkscape:window-y="0"
     inkscape:window-maximized="0"
     inkscape:current-layer="svg2" /><metadata
     id="metadata4"> Svg Vector Icons : http://www.onlinewebfonts.com/icon <rdf:RDF><cc:Work
     rdf:about=""><dc:format>image/svg+xml</dc:format><dc:type
       rdf:resource="http://purl.org/dc/dcmitype/StillImage" /></cc:Work></rdf:RDF></metadata><path
     inkscape:connector-curvature="0"
     id="path8"
     d="m 509,989.4 c -108.1,1.3 -197.5,-25.8 -279.4,-78.9 -29.3,-19 -55.9,-41.3 -80.7,-65.8 -7.2,-7.1 -7.1,-10.4 0,-17.5 37.8,-37.8 75.6,-75.6 113.4,-113.4 7,-7 10.1,-7 17.4,0.6 44.9,46.1 99.5,74.2 162.4,86.6 69.3,13.7 135,2.9 197.5,-29.4 44.6,-23.1 82.7,-54 111.6,-95.6 26.4,-38.1 42.5,-80.3 50.1,-125.8 C 815.1,467.8 798,392 750.7,323.3 710,264.1 653.4,227.1 585.5,206.1 558.6,197.8 531.1,192.8 503,192.2 c -59.9,-1.3 -114.5,16 -165.2,47.2 -12.5,7.7 -24.5,16.2 -36.2,25.2 -7.9,6.1 -7.9,7.7 -1,14.7 27.4,27.4 54.8,54.8 82.2,82.2 2.4,2.4 6,4.6 4.4,8.7 -1.4,3.8 -5.3,3.2 -8.4,3.7 -33.9,4.9 -67.8,9.9 -101.7,14.9 -48.9,7.2 -97.8,14.5 -146.7,21.8 -36,5.3 -71.9,10.7 -107.9,16.1 -11.2,1.7 -13.8,-0.5 -12.1,-11.7 8.1,-54 16.4,-108 24.5,-161.9 7.8,-51.9 15.4,-103.8 23,-155.7 2,-13.4 3.8,-26.8 5.8,-40.1 0.4,-2.8 1.1,-5.7 4.4,-6.6 3,-0.8 4.7,1.2 6.6,3.1 25.9,26 51.7,51.9 77.6,77.9 9.2,9.2 10.9,9.4 20.7,0.7 58.1,-52 125.1,-87.6 200.4,-107.4 34.8,-9.2 70.2,-15.2 106.4,-14.6 10,0.2 20.1,0.3 30.1,0 55.2,-1.5 108.1,10 159.4,28.9 123.6,45.7 212.9,129.6 272,246.3 24.2,47.7 37.8,98.7 44.7,151.7 4.7,35.6 5.1,71.6 1.9,106.9 -9.1,101.7 -46.5,192.6 -112.5,271.1 -59.6,70.7 -133.3,121.1 -221.1,150.4 -50.4,16.8 -102.1,26 -145.3,23.7 z"
     style="fill:#ffffff;fill-opacity:1" /></svg>