<?xml version="1.0" encoding="utf-8"?>
<!-- Generator: Adobe Illustrator 23.0.1, SVG Export Plug-In . SVG Version: 6.00 Build 0)  -->
<svg version="1.1" id="Layer_1" xmlns="http://www.w3.org/2000/svg" xmlns:xlink="http://www.w3.org/1999/xlink" x="0px" y="0px"
	 viewBox="0 0 100 100" style="enable-background:new 0 0 100 100;" xml:space="preserve">
<style type="text/css">
	.st0{fill:#13284B;}
</style>
<g>
	<path class="st0" d="M73.59,42.34L52.11,20.86c-0.59-0.59-1.63-0.59-2.21,0L28.41,42.34c-0.61,0.61-0.61,1.6,0,2.21
		c0.61,0.61,1.6,0.61,2.21,0l2.52-2.52v15.48c0,0.86,0.7,1.57,1.57,1.57h32.58c0.86,0,1.57-0.7,1.57-1.57V42.03l2.52,2.52
		c0.31,0.31,0.71,0.46,1.11,0.46s0.8-0.15,1.11-0.46C74.2,43.95,74.2,42.95,73.59,42.34z M65.73,55.95H36.28V38.9L51,24.18
		L65.73,38.9V55.95z"/>
	<path class="st0" d="M51,7.12c-19.32,0-35.04,15.72-35.04,35.04c0,19.05,32.71,43.98,34.1,45.03c0.28,0.21,0.61,0.32,0.94,0.32
		s0.66-0.11,0.94-0.32c1.39-1.05,34.1-25.98,34.1-45.03C86.04,22.84,70.33,7.12,51,7.12z M51,83.96
		c-5.38-4.25-31.91-25.99-31.91-41.8c0-17.6,14.32-31.91,31.91-31.91s31.91,14.32,31.91,31.91C82.91,57.97,56.38,79.71,51,83.96z"/>
	<path class="st0" d="M44.74,37.78v9.39c0,0.86,0.7,1.57,1.57,1.57h9.39c0.86,0,1.57-0.7,1.57-1.57v-9.39c0-0.86-0.7-1.57-1.57-1.57
		h-9.39C45.44,36.21,44.74,36.91,44.74,37.78z M47.87,39.34h6.26v6.26h-6.26V39.34z"/>
</g>
</svg>
