<?xml version="1.0" encoding="UTF-8"?>
<svg width="54px" height="80px" viewBox="0 0 54 80" version="1.1" xmlns="http://www.w3.org/2000/svg" xmlns:xlink="http://www.w3.org/1999/xlink">
    <!-- Generator: Sketch 49 (51002) - http://www.bohemiancoding.com/sketch -->
    <title>Shape</title>
    <desc>Created with Sketch.</desc>
    <defs></defs>
    <g id="Public-Life" stroke="none" stroke-width="1" fill="none" fill-rule="evenodd">
        <g id="Amenities" transform="translate(-145.000000, -818.000000)" fill="#2A316C" fill-rule="nonzero">
            <path d="M198.25178,891.1986 L174.921849,856.847214 L179.724242,847.972766 L185.898748,847.972766 C186.350757,847.972766 186.810808,847.515963 187.270056,847.058361 L198.711832,827.272653 C199.617458,825.223042 197.104868,824.310237 196.192003,825.902246 L185.897943,842.516736 C184.526635,844.566347 181.324772,842.973539 183.148893,840.233524 L192.990139,823.396632 C193.9022,821.804624 191.612397,820.212615 190.247523,822.260626 L180.406277,838.640715 C178.805748,841.38153 176.063936,838.875116 177.205218,837.283108 L186.810004,820.447016 C187.95209,818.397405 185.667918,817.027798 184.749423,818.855008 L172.632047,837.961511 C172.172799,838.875116 172.172799,839.331919 172.402825,839.55352 L175.603884,845.243951 L171.48433,851.391184 L167.370406,845.466352 C167.370406,845.466352 173.320516,838.418314 165.080603,829.086263 C157.076347,819.533411 150.214177,816.582995 147.013117,818.854208 C144.494093,820.668618 143.582032,829.543066 148.843673,839.55352 C154.104509,849.799176 161.420297,848.428768 163.257286,848.207167 L168.059679,856.624813 L145.871835,890.976999 C143.811254,894.161016 145.871835,896.432229 147.242339,897.111432 C148.613647,897.802636 151.591919,898.703441 153.646066,894.84022 L171.485134,862.759246 L191.159584,895.976226 C192.300866,897.802636 194.814261,898.703441 196.650446,897.345833 C197.562507,896.66663 200.311557,894.383417 198.25178,891.1986" id="Shape"></path>
        </g>
    </g>
</svg>