<?xml version="1.0" encoding="UTF-8"?>
<svg width="77px" height="71px" viewBox="0 0 77 71" version="1.1" xmlns="http://www.w3.org/2000/svg" xmlns:xlink="http://www.w3.org/1999/xlink">
    <!-- Generator: Sketch 49 (51002) - http://www.bohemiancoding.com/sketch -->
    <title>Shape</title>
    <desc>Created with Sketch.</desc>
    <defs></defs>
    <g id="Public-Life" stroke="none" stroke-width="1" fill="none" fill-rule="evenodd">
        <g id="Amenities" transform="translate(-134.000000, -944.000000)" fill="#2A316C" fill-rule="nonzero">
            <path d="M144,944 C142.908362,944.054023 141.44429,944.274702 139.955414,945.019304 L134,1006.68726 L138.299363,1003.34272 C138.426578,1003.23274 138.581279,1003.15537 138.745223,1003.1197 C139.219149,1003.03306 139.733921,1003.33344 139.89172,1003.78856 L142.152866,1010 L144,944 Z M145.925844,944 L144,1015 L184.348018,1015 C184.089831,1014.94624 183.805922,1014.89766 183.558737,1014.84157 C182.094621,1014.50807 180.856877,1014.12863 179.864905,1013.73214 C179.368918,1013.53385 178.938196,1013.35828 178.507342,1013.06657 C178.076488,1012.77446 177.276065,1012.36641 177.276065,1010.94286 C177.276065,1010.17687 177.64518,1009.67663 177.907489,1009.38979 C178.169798,1009.10244 178.383573,1008.95344 178.602056,1008.81915 C179.039022,1008.55118 179.47034,1008.37013 179.959618,1008.18522 C180.938164,1007.81572 182.160359,1007.44155 183.495595,1007.0759 C184.699928,1006.74615 185.820924,1006.444 187,1006.12501 L186.084435,984.698135 C181.327597,981.03829 177.806784,978.087025 175.85536,974.682121 C174.578286,972.453838 174.023108,969.955553 174.339941,967.265162 C174.656775,964.574771 175.742087,961.707184 177.497063,958.29513 C177.802446,957.681045 178.396387,957.263619 179.075624,957.185705 C179.149235,957.181658 179.223012,957.181658 179.296623,957.185705 L184.9163,957.185705 L184.348018,944 L145.925844,944 Z M164,950 C168,950 174,950 174,953 C174,956 168,956 164,956 C160,956 154,956 154,953 C154,950 160,950 164,950 Z M179.073917,959 C172.162949,972.240728 177.101715,975.296251 191.910757,986.499924 L191.910757,1006.87038 C187.632686,1008.22826 179.073917,1009.92603 179.073917,1010.94445 C179.073917,1011.96307 186.962313,1014 193.873282,1014 C200.784147,1014 207.70747,1011.96307 207.70747,1010.94445 C207.70747,1009.92603 199.784843,1008.22826 195.835806,1006.87038 L195.835806,986.499924 C210.644848,975.296251 214.618336,972.240728 207.70747,959 L179.073917,959 Z M139.179612,1006 L135,1009.12045 L142,1015 L139.179612,1006 Z" id="Shape"></path>
        </g>
    </g>
</svg>