<?xml version="1.0" encoding="utf-8"?>
<!-- Generator: Adobe Illustrator 23.0.1, SVG Export Plug-In . SVG Version: 6.00 Build 0)  -->
<svg version="1.1" id="Layer_1" xmlns="http://www.w3.org/2000/svg" xmlns:xlink="http://www.w3.org/1999/xlink" x="0px" y="0px"
	 viewBox="0 0 100 100" style="enable-background:new 0 0 100 100;" xml:space="preserve">
<style type="text/css">
	.st0{fill:#13284B;}
</style>
<path class="st0" d="M86,49H68V38.85c0-1.14-0.64-2.17-1.66-2.68L51.5,28.75V19H65c1.66,0,3-1.34,3-3v-6c0-1.66-1.34-3-3-3
	c-5.51,0-11.02,0-16.5,0v21.75l-14.84,7.42C32.64,36.68,32,37.72,32,38.85V49H14c-3.31,0-6,2.69-6,6v36c27.16,0,51.39,0,84,0V55
	C92,51.69,89.31,49,86,49z M65,10v6H51.5v-6H65z M32,88H11V55c0-1.65,1.35-3,3-3h18V88z M44,88V70h12v18H44z M65,88h-6V70
	c0-1.66-1.34-3-3-3H44c-1.66,0-3,1.34-3,3v18h-6V49V38.85l15-7.5l15,7.5V49V88z M89,88H68V52h18c1.65,0,3,1.35,3,3V88z"/>
<path class="st0" d="M17,65.5c0-0.83,0.67-1.5,1.5-1.5h6c0.83,0,1.5,0.67,1.5,1.5c0,0.83-0.67,1.5-1.5,1.5h-6
	C17.67,67,17,66.33,17,65.5z"/>
<path class="st0" d="M17,77.5c0-0.83,0.67-1.5,1.5-1.5h6c0.83,0,1.5,0.67,1.5,1.5c0,0.83-0.67,1.5-1.5,1.5h-6
	C17.67,79,17,78.33,17,77.5z"/>
<path class="st0" d="M83,65.5c0,0.83-0.67,1.5-1.5,1.5h-6c-0.83,0-1.5-0.67-1.5-1.5c0-0.83,0.67-1.5,1.5-1.5h6
	C82.33,64,83,64.67,83,65.5z"/>
<path class="st0" d="M83,77.5c0,0.83-0.67,1.5-1.5,1.5h-6c-0.83,0-1.5-0.67-1.5-1.5c0-0.83,0.67-1.5,1.5-1.5h6
	C82.33,76,83,76.67,83,77.5z"/>
<path class="st0" d="M50,40c-4.97,0-9,4.03-9,9s4.03,9,9,9s9-4.03,9-9S54.97,40,50,40z M50,55c-3.31,0-6-2.69-6-6c0-3.31,2.69-6,6-6
	s6,2.69,6,6C56,52.31,53.31,55,50,55z"/>
</svg>
