<?xml version="1.0" encoding="utf-8"?>
<!-- Generator: Adobe Illustrator 23.0.1, SVG Export Plug-In . SVG Version: 6.00 Build 0)  -->
<svg version="1.1" id="Layer_1" xmlns="http://www.w3.org/2000/svg" xmlns:xlink="http://www.w3.org/1999/xlink" x="0px" y="0px"
	 viewBox="0 0 100 100" style="enable-background:new 0 0 100 100;" xml:space="preserve">
<style type="text/css">
	.st0{fill:#13284B;}
</style>
<g>
	<g>
		<path class="st0" d="M52,91.28c-13.66,0-39.5-2.1-39.5-10.06V44.7c0-0.93,0.75-1.68,1.68-1.68s1.68,0.75,1.68,1.68v36.51
			c0,2.28,12.76,6.71,36.14,6.71s36.14-4.43,36.14-6.71V44.7c0-0.93,0.75-1.68,1.68-1.68s1.68,0.75,1.68,1.68v36.51
			C91.5,89.17,65.66,91.28,52,91.28z"/>
	</g>
	<g>
		<path class="st0" d="M52,54.77c-13.66,0-39.5-2.1-39.5-10.06S38.34,34.64,52,34.64s39.5,2.1,39.5,10.06S65.66,54.77,52,54.77z
			 M52,38c-23.39,0-36.14,4.43-36.14,6.71S28.61,51.41,52,51.41s36.14-4.43,36.14-6.71S75.39,38,52,38z"/>
	</g>
	<g>
		<path class="st0" d="M61.45,91.28H42.55c-0.93,0-1.68-0.75-1.68-1.68V70.79c0-3.7,3.01-6.71,6.71-6.71h8.84
			c3.7,0,6.71,3.01,6.71,6.71V89.6C63.13,90.53,62.38,91.28,61.45,91.28z M44.22,87.92h15.55V70.79c0-1.85-1.51-3.36-3.36-3.36
			h-8.84c-1.85,0-3.36,1.51-3.36,3.36V87.92z"/>
	</g>
	<g>
		<path class="st0" d="M52,53.76c-0.93,0-1.68-0.75-1.68-1.68V12.4c0-0.93,0.75-1.68,1.68-1.68s1.68,0.75,1.68,1.68v39.68
			C53.68,53.01,52.93,53.76,52,53.76z"/>
	</g>
	<g>
		<path class="st0" d="M66.19,23.78H52c-0.93,0-1.68-0.75-1.68-1.68v-9.7c0-0.93,0.75-1.68,1.68-1.68h14.19
			c0.62,0,1.19,0.35,1.48,0.9c0.29,0.55,0.25,1.22-0.1,1.73l-2.68,3.9l2.68,3.9c0.35,0.51,0.39,1.18,0.1,1.73
			C67.39,23.43,66.81,23.78,66.19,23.78z M53.68,20.42H63l-1.52-2.22c-0.39-0.57-0.39-1.33,0-1.9L63,14.08h-9.33V20.42z"/>
	</g>
	<g>
		<path class="st0" d="M28.51,52.64c-0.93,0-1.68-0.75-1.68-1.68V17.44c0-0.93,0.75-1.68,1.68-1.68c0.93,0,1.68,0.75,1.68,1.68
			v33.52C30.18,51.89,29.43,52.64,28.51,52.64z"/>
	</g>
	<g>
		<path class="st0" d="M42.7,28.81H28.51c-0.93,0-1.68-0.75-1.68-1.68v-9.7c0-0.93,0.75-1.68,1.68-1.68H42.7
			c0.62,0,1.19,0.35,1.48,0.9c0.29,0.55,0.25,1.22-0.1,1.73l-2.68,3.9l2.68,3.9c0.35,0.51,0.39,1.18,0.1,1.73
			C43.89,28.47,43.32,28.81,42.7,28.81z M30.18,25.46h9.33l-1.52-2.22c-0.39-0.57-0.39-1.33,0-1.9l1.52-2.22h-9.33V25.46z"/>
	</g>
	<g>
		<g>
			<path class="st0" d="M75.49,52.64c-0.93,0-1.68-0.75-1.68-1.68V17.44c0-0.93,0.75-1.68,1.68-1.68s1.68,0.75,1.68,1.68v33.52
				C77.17,51.89,76.42,52.64,75.49,52.64z"/>
		</g>
		<g>
			<path class="st0" d="M89.69,28.81H75.49c-0.93,0-1.68-0.75-1.68-1.68v-9.7c0-0.93,0.75-1.68,1.68-1.68h14.19
				c0.62,0,1.19,0.35,1.48,0.9c0.29,0.55,0.25,1.22-0.1,1.73l-2.68,3.9l2.68,3.9c0.35,0.51,0.39,1.18,0.1,1.73
				C90.88,28.47,90.31,28.81,89.69,28.81z M77.17,25.46h9.33l-1.52-2.22c-0.39-0.57-0.39-1.33,0-1.9l1.52-2.22h-9.33V25.46z"/>
		</g>
	</g>
</g>
</svg>
