<?xml version="1.0" encoding="UTF-8"?>
<svg width="65px" height="89px" viewBox="0 0 65 89" version="1.1" xmlns="http://www.w3.org/2000/svg" xmlns:xlink="http://www.w3.org/1999/xlink">
    <!-- Generator: Sketch 49 (51002) - http://www.bohemiancoding.com/sketch -->
    <title>Group 15</title>
    <desc>Created with Sketch.</desc>
    <defs></defs>
    <g id="Public-Life" stroke="none" stroke-width="1" fill="none" fill-rule="evenodd">
        <g id="Clean-and-Welcoming" transform="translate(-124.000000, -1618.000000)" fill="#2A316C">
            <g id="Group-12" transform="translate(108.000000, 1611.000000)">
                <g id="Group-15" transform="translate(16.000000, 7.000000)">
                    <path d="M45.0473373,89 L12.9526627,89 L5,27 L53,27 L45.0473373,89 Z M38.7988166,57.855814 L18.9171598,58.4325581 C18.0650888,58.4325581 18.0650888,54.972093 18.9171598,54.972093 L38.7988166,54.3953488 C39.6508876,54.3953488 39.6508876,57.855814 38.7988166,57.855814 Z M38.7988166,75.4465116 L18.9171598,75.7348837 C18.3491124,75.7348837 18.3491124,72.2744186 18.9171598,72.2744186 L38.7988166,71.6976744 C39.6508876,71.6976744 39.6508876,75.4465116 38.7988166,75.4465116 Z M39.9349112,66.5069767 L17.7810651,67.0837209 C17.2130178,67.0837209 17.2130178,63.6232558 17.7810651,63.6232558 L39.9349112,63.0465116 C40.7869822,63.0465116 40.7869822,66.5069767 39.9349112,66.5069767 Z" id="Shape"></path>
                    <path d="M2.79980421,2.0424843 L21.1257954,9.03751645 L23.4165443,2.62540365 C24.2755751,0.585185941 26.8526676,-0.58065275 29.1434165,0.293726268 L45.7513461,6.70583907 C47.7557513,7.58021809 48.9011258,10.2033551 48.042095,12.2435728 L45.7513461,18.6556856 L63.7909936,25.9421775 C66.3680861,26.8165565 64.3636809,31.7713709 62.072932,30.8969919 C41.7425355,22.7361211 21.412139,14.8667099 1.08174254,6.99729874 C-1.20900636,6.12291972 0.509055311,1.16810529 2.79980421,2.0424843 Z" id="Shape"></path>
                </g>
            </g>
        </g>
    </g>
</svg>