<?xml version="1.0" encoding="utf-8"?>
<!-- Generator: Adobe Illustrator 22.1.0, SVG Export Plug-In . SVG Version: 6.00 Build 0)  -->
<svg version="1.1" id="Layer_1" xmlns="http://www.w3.org/2000/svg" xmlns:xlink="http://www.w3.org/1999/xlink" x="0px" y="0px"
	 viewBox="0 0 754.7 299.3" style="enable-background:new 0 0 754.7 299.3;" xml:space="preserve">
<style type="text/css">
	.st0{fill:#139FDA;}
	.st1{fill:#FFFFFF;}
	.st2{font-family:'Avenir-Black';}
	.st3{font-size:8px;}
	.st4{fill:#00A892;}
	.st5{opacity:0.22;fill:#139FDA;}
	.st6{opacity:0.25;fill:#00A892;}
	.st7{fill:#E0E061;}
	.st8{fill:#11294B;}
	.st9{opacity:0.25;fill:#E0E061;}
	.st10{fill:#11294B;stroke:#10294B;stroke-miterlimit:10;}
	.st11{font-size:6px;}
	.st12{font-family:'Avenir-Roman';}
	.st13{fill:none;stroke:#11294B;stroke-miterlimit:10;}
</style>
<rect x="-17.2" y="57.5" transform="matrix(6.123234e-17 -1 1 6.123234e-17 -43.9952 95.0252)" class="st0" width="85.4" height="24"/>
<text transform="matrix(6.123234e-17 -1 1 6.123234e-17 28.0421 103.9215)" class="st1 st2 st3">CONSTRUCTION</text>
<rect x="-17.2" y="143.1" transform="matrix(6.123234e-17 -1 1 6.123234e-17 -129.5911 180.6211)" class="st4" width="85.4" height="24"/>
<g>
	<text transform="matrix(6.123234e-17 -1 1 6.123234e-17 28.0418 165.653)" class="st1 st2 st3">CITY</text>
</g>
<rect x="37.5" y="26.8" class="st5" width="702.1" height="85.4"/>
<rect x="37.5" y="112.4" class="st6" width="702.1" height="85.4"/>
<rect x="-17.2" y="228.3" transform="matrix(6.123234e-17 -1 1 6.123234e-17 -214.7718 265.8018)" class="st7" width="85.4" height="24"/>
<text transform="matrix(6.123234e-17 -1 1 6.123234e-17 28.042 247.3034)" class="st8 st2 st3">BIZ</text>
<rect x="37.5" y="197.6" class="st9" width="702.1" height="85.4"/>
<g>
	<path class="st10" d="M89,187.7H62.5c-0.3,0-0.5-0.2-0.5-0.5v-31.6c0-0.3,0.2-0.5,0.5-0.5H89c0.3,0,0.5,0.2,0.5,0.5
		c0,0.3-0.2,0.5-0.5,0.5H63v30.6h25.5v-7.2c0-0.3,0.2-0.5,0.5-0.5s0.5,0.2,0.5,0.5v7.7C89.5,187.5,89.3,187.7,89,187.7z M82.7,174.3
		 M88.1,176.7C88.1,176.7,88.1,176.7,88.1,176.7c-0.1,0.2-0.5,0.9-0.7,1l-1.6,1.2l-2.1,1.5c-0.1,0.1-0.2,0.1-0.3,0.1c0,0,0,0,0,0
		l0,0c0,0,0,0,0,0h0c0,0,0,0,0,0c-0.2,0-0.3-0.1-1-0.5c-1-0.7-3.4-2.2-4.7-2.4c0.1,0.3,0.3,0.6,0.4,0.8l0.1,0.1
		c0.3,0.7,0.5,1.1,0.4,1.5c0,0.1-0.2,0.3-0.4,0.4c-0.8,0.3-1.8-0.4-3-1.2c-0.9-0.6-1.9-1.4-2.9-1.6c-1-0.2-1.9-0.2-2.4,0
		c-0.1,0-0.2,0.1-0.4,0.2c0.9,0.8,1.8,1.7,1.8,2.3c0,0.3-0.2,0.7-0.7,0.8c-0.2,0-0.3,0-0.5,0c-0.7,0-1.4-0.3-2-1
		c-0.5-0.5-0.5-1.1-0.5-1.4c0.1-0.3,0.2-0.5,0.3-0.7c-0.4-0.3-0.8-0.5-0.9-0.5c-0.3,0-0.4-0.3-0.4-0.5c0-0.3,0.3-0.4,0.5-0.4
		c0.3,0,0.9,0.4,1.5,0.8c0.4-0.3,0.7-0.4,0.8-0.5c0.8-0.4,1.8-0.4,3.1-0.1c1.2,0.3,2.3,1.1,3.3,1.7c0.6,0.4,1.4,1,1.9,1.1
		c-0.1-0.2-0.2-0.4-0.2-0.5l-0.1-0.1c-0.4-0.9-0.7-1.5-0.4-1.9c0.1-0.2,0.3-0.3,0.6-0.3c1.2,0,3.3,1.2,5.4,2.5 M68.7,178.3
		c-0.1,0.1-0.1,0.2-0.1,0.3c0,0.1,0,0.3,0.2,0.6c0.3,0.3,0.8,0.8,1.4,0.7C70,179.5,69.3,178.9,68.7,178.3z M81.1,171.2H66.2
		c-0.3,0-0.5-0.2-0.5-0.5c0-0.3,0.2-0.5,0.5-0.5h14.8c0.3,0,0.5,0.2,0.5,0.5C81.5,171,81.3,171.2,81.1,171.2z M81.1,166.7H66.2
		c-0.3,0-0.5-0.2-0.5-0.5s0.2-0.5,0.5-0.5h14.8c0.3,0,0.5,0.2,0.5,0.5S81.3,166.7,81.1,166.7z M81.1,162.1H66.2
		c-0.3,0-0.5-0.2-0.5-0.5s0.2-0.5,0.5-0.5h14.8c0.3,0,0.5,0.2,0.5,0.5S81.3,162.1,81.1,162.1z"/>
	<path class="st8" d="M93.6,160.6c-1.5-0.9-3.5-0.3-4.4,1.1l-6.7,11.4c-0.1,0.2-0.2,0.4-0.1,0.6l0.1,4.8c0,0.4,0.2,0.7,0.5,0.8
		c0.2,0.1,0.5,0.2,0.8,0.1c0.1,0,0.1,0,0.2-0.1l4.3-2.2c0.2-0.1,0.3-0.2,0.4-0.4l6.7-11.5c0.4-0.7,0.6-1.6,0.4-2.4
		c-0.2-0.8-0.7-1.5-1.5-1.9L93.6,160.6z M84.4,174.3l2.3,1.4l-2.2,1.2L84.4,174.3z M93.6,164.4l-5.7,9.5l-2.6-1.6l5.6-9.5
		c0.3-0.5,1-0.6,1.5-0.4l0.8,0.5c0.2,0.1,0.4,0.4,0.5,0.7S93.7,164.1,93.6,164.4z"/>
</g>
<g>
	<path class="st10" d="M377.2,272.8h-26.5c-0.3,0-0.5-0.2-0.5-0.5v-31.6c0-0.3,0.2-0.5,0.5-0.5h26.5c0.3,0,0.5,0.2,0.5,0.5
		c0,0.3-0.2,0.5-0.5,0.5h-26v30.6h25.5v-7.2c0-0.3,0.2-0.5,0.5-0.5s0.5,0.2,0.5,0.5v7.7C377.7,272.6,377.5,272.8,377.2,272.8z
		 M370.9,259.5 M376.3,261.8C376.3,261.8,376.3,261.9,376.3,261.8c-0.1,0.2-0.5,0.9-0.7,1L374,264l-2.1,1.5
		c-0.1,0.1-0.2,0.1-0.3,0.1c0,0,0,0,0,0l0,0c0,0,0,0,0,0h0c0,0,0,0,0,0c-0.2,0-0.3-0.1-1-0.5c-1-0.7-3.4-2.2-4.7-2.4
		c0.1,0.3,0.3,0.6,0.4,0.8l0.1,0.1c0.3,0.7,0.5,1.1,0.4,1.5c0,0.1-0.2,0.3-0.4,0.4c-0.8,0.3-1.8-0.4-3-1.2c-0.9-0.6-1.9-1.4-2.9-1.6
		c-1-0.2-1.9-0.2-2.4,0c-0.1,0-0.2,0.1-0.4,0.2c0.9,0.8,1.8,1.7,1.8,2.3c0,0.3-0.2,0.7-0.7,0.8c-0.2,0-0.3,0-0.5,0
		c-0.7,0-1.4-0.3-2-1c-0.5-0.5-0.5-1.1-0.5-1.4c0.1-0.3,0.2-0.5,0.3-0.7c-0.4-0.3-0.8-0.5-0.9-0.5c-0.3,0-0.4-0.3-0.4-0.5
		c0-0.3,0.3-0.4,0.5-0.4c0.3,0,0.9,0.4,1.5,0.8c0.4-0.3,0.7-0.4,0.8-0.5c0.8-0.4,1.8-0.4,3.1-0.1c1.2,0.3,2.3,1.1,3.3,1.7
		c0.6,0.4,1.4,1,1.9,1.1c-0.1-0.2-0.2-0.4-0.2-0.5l-0.1-0.1c-0.4-0.9-0.7-1.5-0.4-1.9c0.1-0.2,0.3-0.3,0.6-0.3
		c1.2,0,3.3,1.2,5.4,2.5 M356.9,263.5c-0.1,0.1-0.1,0.2-0.1,0.3c0,0.1,0,0.3,0.2,0.6c0.3,0.3,0.8,0.8,1.4,0.7
		C358.2,264.7,357.5,264,356.9,263.5z M369.3,256.4h-14.8c-0.3,0-0.5-0.2-0.5-0.5s0.2-0.5,0.5-0.5h14.8c0.3,0,0.5,0.2,0.5,0.5
		S369.5,256.4,369.3,256.4z M369.3,251.8h-14.8c-0.3,0-0.5-0.2-0.5-0.5c0-0.3,0.2-0.5,0.5-0.5h14.8c0.3,0,0.5,0.2,0.5,0.5
		C369.7,251.6,369.5,251.8,369.3,251.8z M369.3,247.3h-14.8c-0.3,0-0.5-0.2-0.5-0.5c0-0.3,0.2-0.5,0.5-0.5h14.8
		c0.3,0,0.5,0.2,0.5,0.5C369.7,247.1,369.5,247.3,369.3,247.3z"/>
	<path class="st8" d="M381.7,245.7c-1.5-0.9-3.5-0.3-4.4,1.1l-6.7,11.4c-0.1,0.2-0.2,0.4-0.1,0.6l0.1,4.8c0,0.4,0.2,0.7,0.5,0.8
		c0.2,0.1,0.5,0.2,0.8,0.1c0.1,0,0.1,0,0.2-0.1l4.3-2.2c0.2-0.1,0.3-0.2,0.4-0.4l6.7-11.5c0.4-0.7,0.6-1.6,0.4-2.4
		c-0.2-0.8-0.7-1.5-1.5-1.9L381.7,245.7z M372.6,259.4l2.3,1.4l-2.2,1.2L372.6,259.4z M381.8,249.5l-5.7,9.5l-2.6-1.6l5.6-9.5
		c0.3-0.5,1-0.6,1.5-0.4l0.8,0.5c0.2,0.1,0.4,0.4,0.5,0.7C382,249,381.9,249.2,381.8,249.5z"/>
</g>
<text transform="matrix(1 0 0 1 61.8462 128.2523)"><tspan x="0" y="0" class="st8 st2 st11">DEC 2015</tspan><tspan x="0" y="9.6" class="st8 st12 st3">Assessment Draft of</tspan><tspan x="0" y="19.2" class="st8 st12 st3">Incomplete Building</tspan></text>
<circle class="st8" cx="57.2" cy="126.4" r="1.9"/>
<text transform="matrix(1 0 0 1 185.8288 128.2523)"><tspan x="0" y="0" class="st8 st2 st11">MAR 2016</tspan><tspan x="0" y="9.6" class="st8 st12 st3">City Finalizes </tspan><tspan x="0" y="19.2" class="st8 st12 st3">Assessed Value</tspan></text>
<circle class="st8" cx="181.2" cy="126.4" r="1.9"/>
<text transform="matrix(1 0 0 1 348.5062 213.215)"><tspan x="0" y="0" class="st8 st2 st11">APR 2017</tspan><tspan x="0" y="9.6" class="st8 st12 st3">BIZ Finalizes</tspan><tspan x="0" y="19.2" class="st8 st12 st3">Assessment Roll</tspan></text>
<circle class="st8" cx="343.8" cy="211.3" r="1.9"/>
<text transform="matrix(1 0 0 1 475.1125 213.215)"><tspan x="0" y="0" class="st8 st2 st11">OCT 2017</tspan><tspan x="0" y="9.6" class="st8 st12 st3">BIZ Receives</tspan><tspan x="0" y="19.2" class="st8 st12 st3">Assessment Data</tspan></text>
<circle class="st8" cx="470.4" cy="211.3" r="1.9"/>
<text transform="matrix(1 0 0 1 165.1767 40.6647)"><tspan x="0" y="0" class="st8 st2 st11">FEB 2016</tspan><tspan x="0" y="9.6" class="st8 st12 st3">Building Construction</tspan><tspan x="0" y="19.2" class="st8 st12 st3">Completed</tspan></text>
<circle class="st8" cx="159.7" cy="37.9" r="2.2"/>
<g>
	<path class="st8" d="M200.9,96.3h-17.5c-0.3,0-0.6,0.3-0.6,0.6v7.5c0,0.3,0.3,0.6,0.6,0.6h17.5c0.3,0,0.6-0.3,0.6-0.6v-7.5
		C201.5,96.6,201.2,96.3,200.9,96.3z M200.2,103.8H184v-6.2h16.2V103.8z"/>
	<path class="st8" d="M200.9,88.2h-8.1v-2c1-0.3,1.5-1.4,1.1-2.4c-0.2-0.5-0.6-1-1.1-1.1V80h6.9c0.3,0,0.6-0.3,0.6-0.6v-5
		c0,0,0-0.1,0-0.1c0,0,0-0.1,0-0.1c0,0,0-0.1,0-0.1c0,0,0-0.1,0-0.1c0,0,0,0-0.1-0.1c0,0,0,0-0.1-0.1c0,0-0.1,0-0.1,0
		c0,0-0.1,0-0.1,0c0,0-0.1,0-0.1,0c0,0-0.1,0-0.1,0h-4.9l-22.4-6.2c-0.1,0-0.1,0-0.2,0h0c0,0,0,0,0,0c0,0-0.1,0-0.1,0c0,0,0,0-0.1,0
		c0,0-0.1,0-0.1,0c0,0,0,0-0.1,0c0,0,0,0,0,0l-7.5,6.2c0,0-0.1,0.1-0.1,0.1c0,0,0,0.1-0.1,0.1c0,0.1,0,0.2-0.1,0.2c0,0,0,0,0,0v5
		c0,0,0,0,0,0c0,0,0,0.1,0,0.1c0,0,0,0.1,0,0.1c0,0,0,0,0,0c0,0,0,0,0,0.1c0,0,0,0.1,0,0.1c0,0,0,0,0.1,0.1c0,0,0,0,0.1,0.1
		c0,0,0.1,0,0.1,0c0,0,0,0,0.1,0c0,0,0,0,0,0c0.1,0,0.1,0,0.2,0h4.4v24.4c0,0,0,0,0,0c0,0,0,0.1,0,0.1c0,0,0,0.1,0,0.1c0,0,0,0,0,0
		c0,0,0,0,0,0.1c0,0,0,0.1,0,0.1c0,0,0,0,0.1,0.1c0,0,0,0,0.1,0.1c0,0,0.1,0,0.1,0c0,0,0,0,0.1,0c0,0,0,0,0,0c0.1,0,0.1,0,0.2,0h5
		c0.3,0,0.6-0.3,0.6-0.6V90h3.1c0.3,0,0.6-0.3,0.6-0.6V80h12.5v2.6c-1,0.3-1.5,1.4-1.1,2.4c0.2,0.5,0.6,1,1.1,1.1v2h-8.1
		c-0.3,0-0.6,0.3-0.6,0.6v2.5c0,0.3,0.3,0.6,0.6,0.6h17.5c0.3,0,0.6-0.3,0.6-0.6v-2.5C201.5,88.4,201.2,88.2,200.9,88.2z
		 M176.1,78.8l2.9-2.9v2.9H176.1z M171.1,78.8l2.9-2.9v2.9H171.1z M189.6,73.8h-14.6l-1.9-4.7l16.9,4.7H189.6z M170.3,75h2.9
		l-2.9,2.9V75z M170.6,73.8l1.6-3.9l1.6,3.9H170.6z M175.3,75h2.9l-2.9,2.9V75z M169.2,73.8h-2.8l4.3-3.6L169.2,73.8z M165.3,75h2.9
		l-2.9,2.9V75z M180.2,75h2.9l-2.9,2.9V75z M185.2,75h2.9l-2.9,2.9V75z M190.2,75h2.9l-2.9,2.9V75z M199,78.8h-2.9l2.9-2.9V78.8z
		 M195.2,77.9V75h2.9L195.2,77.9z M169,75.9v2.9h-2.9L169,75.9z M174,98.8h-2.9l2.9-2.9V98.8z M170.3,97.9V95h2.9L170.3,97.9z
		 M170.3,100h2.9l-2.9,2.9V100z M174,93.8h-2.9l2.9-2.9V93.8z M170.3,92.9V90h2.9L170.3,92.9z M174,103.8h-2.9l2.9-2.9V103.8z
		 M177.7,87.5v1.2h-3.1h-4.4V80h1.2v6.9c0,0.1,0,0.2,0,0.2c0.1,0.2,0.2,0.3,0.3,0.3c0.1,0,0.2,0,0.2,0 M172.8,85.4V80h5v6.2h-1.6
		h-3.4V85.4z M184,75.9v2.9h-2.9L184,75.9z M189,75.9v2.9h-2.9L189,75.9z M194,75.9v2.9h-2.9L194,75.9z M192.1,83.8
		c0.3,0,0.6,0.3,0.6,0.6s-0.3,0.6-0.6,0.6s-0.6-0.3-0.6-0.6S191.8,83.8,192.1,83.8z M200.2,90.7H184v-1.2h16.2V90.7z"/>
	<path class="st8" d="M185.9,102.5h2.5c0.3,0,0.6-0.3,0.6-0.6v-2.5c0-0.3-0.3-0.6-0.6-0.6h-2.5c-0.3,0-0.6,0.3-0.6,0.6v2.5
		C185.2,102.2,185.5,102.5,185.9,102.5z M186.5,100h1.2v1.2h-1.2V100z"/>
	<path class="st8" d="M190.9,102.5h2.5c0.3,0,0.6-0.3,0.6-0.6v-2.5c0-0.3-0.3-0.6-0.6-0.6h-2.5c-0.3,0-0.6,0.3-0.6,0.6v2.5
		C190.2,102.2,190.5,102.5,190.9,102.5z M191.5,100h1.2v1.2h-1.2V100z"/>
	<path class="st8" d="M195.9,102.5h2.5c0.3,0,0.6-0.3,0.6-0.6v-2.5c0-0.3-0.3-0.6-0.6-0.6h-2.5c-0.3,0-0.6,0.3-0.6,0.6v2.5
		C195.2,102.2,195.5,102.5,195.9,102.5z M196.5,100h1.2v1.2h-1.2V100z"/>
</g>
<g transform="translate(0,-952.36218)">
	<path class="st8" d="M202.6,1107c-4.6,0-8.4,3.8-8.4,8.4s3.8,8.4,8.4,8.4c4.6,0,8.4-3.8,8.4-8.4S207.2,1107,202.6,1107z
		 M202.6,1108.6c3.7,0,6.8,3,6.8,6.8c0,3.7-3,6.8-6.8,6.8c-3.7,0-6.8-3-6.8-6.8C195.8,1111.6,198.8,1108.6,202.6,1108.6z
		 M202.5,1110.2c-0.4,0-0.7,0.4-0.7,0.8v0.4c-1.2,0.2-2,1.2-2,2.4c0,1.4,1.3,2.4,2.8,2.4c0.9,0,1.2,0.4,1.2,0.8
		c0,0.5-0.2,0.8-0.8,0.8h-2.4c-0.4,0-0.8,0.3-0.8,0.8c0,0.4,0.3,0.8,0.8,0.8c0,0,0,0,0,0h1.2v0.4c0,0.4,0.3,0.8,0.8,0.8
		c0.4,0,0.8-0.3,0.8-0.8c0,0,0,0,0,0v-0.4c1.2-0.2,2-1.2,2-2.4c0-1.4-1.3-2.4-2.8-2.4c-0.9,0-1.2-0.4-1.2-0.8c0-0.5,0.2-0.8,0.8-0.8
		h2.4c0.4,0,0.8-0.3,0.8-0.8c0-0.4-0.3-0.8-0.8-0.8c0,0,0,0,0,0h-1.2v-0.4c0-0.4-0.3-0.8-0.8-0.8
		C202.5,1110.2,202.5,1110.2,202.5,1110.2z M182.2,1124.5c-0.4,0-0.7,0.4-0.7,0.8v14.3c0,0.4,0.4,0.8,0.8,0.8h5.6
		c0.4,0,0.8-0.4,0.8-0.8v-2.4c1.2,0.9,2.2,1.7,3.5,2.4c1.7,1,3.8,1.6,6.9,1.6c3.3,0,7.1-1.8,10.2-3.5c3.1-1.7,5.3-3.4,5.4-3.4
		c0,0,0,0,0,0c0.6-0.4,1.1-0.7,1.4-1.2c0.4-0.5,0.5-1.1,0.5-1.8c0-0.6-0.3-1.1-0.6-1.5s-0.8-0.5-1.2-0.7c-0.8-0.2-1.6-0.2-1.8-0.2
		c-1,0-2,0.5-2.9,0.9c-0.5,0.3-0.6,0.3-0.9,0.5c-0.4-1-1.4-1.8-2.6-1.8h-7.3c-2.3-2-6.1-2.3-10.6-2.4v-0.8c0-0.4-0.4-0.8-0.8-0.8
		H182.2C182.2,1124.5,182.2,1124.5,182.2,1124.5z M183.1,1126.1h4v0.7c0,0,0,0,0,0.1v8.8c0,0,0,0.1,0,0.1v3.1h-4V1126.1z
		 M188.6,1127.7c4.6,0.1,8.2,0.6,9.8,2.1c0.1,0.1,0.3,0.2,0.6,0.2h7.6c0.7,0,1.2,0.5,1.2,1.2s-0.5,1.2-1.2,1.2H195
		c-0.4,0-0.8,0.3-0.8,0.8s0.3,0.8,0.8,0.8c0,0,0,0,0,0h11.5c1.3,0,2.3-0.9,2.6-2c0.1,0,0.1-0.1,0.2-0.1c0,0,0.6-0.4,1.4-0.8
		s1.8-0.7,2.2-0.7c0.2,0,0.8,0,1.3,0.2c0.2,0.1,0.4,0.2,0.5,0.3c0.1,0.1,0.1,0.2,0.1,0.4c0,0.5-0.1,0.7-0.2,0.9
		c-0.1,0.2-0.5,0.5-1,0.8c0,0,0,0,0,0c0,0-2.2,1.7-5.2,3.3s-6.7,3.3-9.4,3.3c-2.9,0-4.6-0.6-6.1-1.4c-1.4-0.8-2.6-1.9-4.3-3V1127.7z
		"/>
</g>
<text transform="matrix(1 0 0 1 259.9383 128.2523)"><tspan x="0" y="0" class="st8 st2 st11">JUN 2016</tspan><tspan x="0" y="9.6" class="st8 st12 st3">Tax Bill Based</tspan><tspan x="0" y="19.2" class="st8 st12 st3">on Values Sent</tspan></text>
<circle class="st8" cx="255.3" cy="126.4" r="1.9"/>
<g>
	<path class="st8" d="M291.4,162.7h-8.6v-11h-29.4v38h29.4v-8.6h8.6V162.7z M281.6,188.5h-27v-35.5h27v9.8h-13.5v-8.6h-12.3v11h4.9
		v15.9h20.8V188.5z M260.8,162.7v1.2h-3.7v-8.6h9.8v7.4H260.8z M290.2,179.9H262v-15.9h28.2V179.9z"/>
	<path class="st8" d="M276.1,173.7c-0.3,0-0.6-0.3-0.6-0.6h-1.2c0,0.8,0.5,1.5,1.2,1.7v1.3h1.2v-1.3c0.7-0.3,1.2-0.9,1.2-1.7
		c0-1-0.8-1.8-1.8-1.8c-0.3,0-0.6-0.3-0.6-0.6c0-0.3,0.3-0.6,0.6-0.6c0.3,0,0.6,0.3,0.6,0.6h1.2c0-0.8-0.5-1.5-1.2-1.7v-1.3h-1.2
		v1.3c-0.7,0.3-1.2,0.9-1.2,1.7c0,1,0.8,1.8,1.8,1.8c0.3,0,0.6,0.3,0.6,0.6S276.4,173.7,276.1,173.7z"/>
	<polygon class="st8" points="264.4,166.4 267.5,166.4 267.5,165.2 263.2,165.2 263.2,169.5 264.4,169.5 	"/>
	<polygon class="st8" points="267.5,177.4 264.4,177.4 264.4,174.4 263.2,174.4 263.2,178.7 267.5,178.7 	"/>
	<polygon class="st8" points="287.7,169.5 289,169.5 289,165.2 284.7,165.2 284.7,166.4 287.7,166.4 	"/>
	<polygon class="st8" points="289,174.4 287.7,174.4 287.7,177.4 284.7,177.4 284.7,178.7 289,178.7 	"/>
	<path class="st8" d="M276.1,178.7c3.7,0,6.7-3,6.7-6.7s-3-6.7-6.7-6.7s-6.7,3-6.7,6.7S272.4,178.7,276.1,178.7z M276.1,166.4
		c3,0,5.5,2.5,5.5,5.5s-2.5,5.5-5.5,5.5s-5.5-2.5-5.5-5.5S273,166.4,276.1,166.4z"/>
	<rect x="269.3" y="154.1" class="st8" width="11" height="1.2"/>
	<rect x="269.3" y="156.6" class="st8" width="11" height="1.2"/>
	<rect x="279.1" y="159" class="st8" width="1.2" height="1.2"/>
	<rect x="269.3" y="159" class="st8" width="8.6" height="1.2"/>
	<rect x="255.9" y="186" class="st8" width="22.1" height="1.2"/>
	<rect x="279.1" y="186" class="st8" width="1.2" height="1.2"/>
	<rect x="255.9" y="183.6" class="st8" width="24.5" height="1.2"/>
</g>
<text transform="matrix(1 0 0 1 422.6158 128.2523)"><tspan x="0" y="0" class="st8 st2 st11">JUN 2017</tspan><tspan x="0" y="9.6" class="st8 st12 st3">Tax Bill Based</tspan><tspan x="0" y="19.2" class="st8 st12 st3">on Values Sent</tspan></text>
<circle class="st8" cx="418" cy="126.4" r="1.9"/>
<g>
	<path class="st8" d="M454.1,162.7h-8.6v-11h-29.4v38h29.4v-8.6h8.6V162.7z M444.3,188.5h-27v-35.5h27v9.8h-13.5v-8.6h-12.3v11h4.9
		v15.9h20.8V188.5z M423.4,162.7v1.2h-3.7v-8.6h9.8v7.4H423.4z M452.9,179.9h-28.2v-15.9h28.2V179.9z"/>
	<path class="st8" d="M438.8,173.7c-0.3,0-0.6-0.3-0.6-0.6h-1.2c0,0.8,0.5,1.5,1.2,1.7v1.3h1.2v-1.3c0.7-0.3,1.2-0.9,1.2-1.7
		c0-1-0.8-1.8-1.8-1.8c-0.3,0-0.6-0.3-0.6-0.6c0-0.3,0.3-0.6,0.6-0.6s0.6,0.3,0.6,0.6h1.2c0-0.8-0.5-1.5-1.2-1.7v-1.3h-1.2v1.3
		c-0.7,0.3-1.2,0.9-1.2,1.7c0,1,0.8,1.8,1.8,1.8c0.3,0,0.6,0.3,0.6,0.6S439.1,173.7,438.8,173.7z"/>
	<polygon class="st8" points="427.1,166.4 430.2,166.4 430.2,165.2 425.9,165.2 425.9,169.5 427.1,169.5 	"/>
	<polygon class="st8" points="430.2,177.4 427.1,177.4 427.1,174.4 425.9,174.4 425.9,178.7 430.2,178.7 	"/>
	<polygon class="st8" points="450.4,169.5 451.6,169.5 451.6,165.2 447.3,165.2 447.3,166.4 450.4,166.4 	"/>
	<polygon class="st8" points="451.6,174.4 450.4,174.4 450.4,177.4 447.3,177.4 447.3,178.7 451.6,178.7 	"/>
	<path class="st8" d="M438.8,178.7c3.7,0,6.7-3,6.7-6.7s-3-6.7-6.7-6.7s-6.7,3-6.7,6.7S435,178.7,438.8,178.7z M438.8,166.4
		c3,0,5.5,2.5,5.5,5.5s-2.5,5.5-5.5,5.5s-5.5-2.5-5.5-5.5S435.7,166.4,438.8,166.4z"/>
	<rect x="432" y="154.1" class="st8" width="11" height="1.2"/>
	<rect x="432" y="156.6" class="st8" width="11" height="1.2"/>
	<rect x="441.8" y="159" class="st8" width="1.2" height="1.2"/>
	<rect x="432" y="159" class="st8" width="8.6" height="1.2"/>
	<rect x="418.5" y="186" class="st8" width="22.1" height="1.2"/>
	<rect x="441.8" y="186" class="st8" width="1.2" height="1.2"/>
	<rect x="418.5" y="183.6" class="st8" width="24.5" height="1.2"/>
</g>
<text transform="matrix(1 0 0 1 647.4446 128.2523)"><tspan x="0" y="0" class="st8 st2 st11">JUN 2018</tspan><tspan x="0" y="9.6" class="st8 st12 st3">Tax Bill Based</tspan><tspan x="0" y="19.2" class="st8 st12 st3">on Values Sent</tspan></text>
<circle class="st8" cx="642.8" cy="126.4" r="1.9"/>
<g>
	<path class="st8" d="M678.9,162.7h-8.6v-11h-29.4v38h29.4v-8.6h8.6V162.7z M669.1,188.5h-27v-35.5h27v9.8h-13.5v-8.6h-12.3v11h4.9
		v15.9h20.8V188.5z M648.3,162.7v1.2h-3.7v-8.6h9.8v7.4H648.3z M677.7,179.9h-28.2v-15.9h28.2V179.9z"/>
	<path class="st8" d="M663.6,173.7c-0.3,0-0.6-0.3-0.6-0.6h-1.2c0,0.8,0.5,1.5,1.2,1.7v1.3h1.2v-1.3c0.7-0.3,1.2-0.9,1.2-1.7
		c0-1-0.8-1.8-1.8-1.8c-0.3,0-0.6-0.3-0.6-0.6c0-0.3,0.3-0.6,0.6-0.6s0.6,0.3,0.6,0.6h1.2c0-0.8-0.5-1.5-1.2-1.7v-1.3H663v1.3
		c-0.7,0.3-1.2,0.9-1.2,1.7c0,1,0.8,1.8,1.8,1.8c0.3,0,0.6,0.3,0.6,0.6S663.9,173.7,663.6,173.7z"/>
	<polygon class="st8" points="651.9,166.4 655,166.4 655,165.2 650.7,165.2 650.7,169.5 651.9,169.5 	"/>
	<polygon class="st8" points="655,177.4 651.9,177.4 651.9,174.4 650.7,174.4 650.7,178.7 655,178.7 	"/>
	<polygon class="st8" points="675.2,169.5 676.5,169.5 676.5,165.2 672.2,165.2 672.2,166.4 675.2,166.4 	"/>
	<polygon class="st8" points="676.5,174.4 675.2,174.4 675.2,177.4 672.2,177.4 672.2,178.7 676.5,178.7 	"/>
	<path class="st8" d="M663.6,178.7c3.7,0,6.7-3,6.7-6.7s-3-6.7-6.7-6.7c-3.7,0-6.7,3-6.7,6.7S659.9,178.7,663.6,178.7z M663.6,166.4
		c3,0,5.5,2.5,5.5,5.5s-2.5,5.5-5.5,5.5c-3,0-5.5-2.5-5.5-5.5S660.5,166.4,663.6,166.4z"/>
	<rect x="656.8" y="154.1" class="st8" width="11" height="1.2"/>
	<rect x="656.8" y="156.6" class="st8" width="11" height="1.2"/>
	<rect x="666.7" y="159" class="st8" width="1.2" height="1.2"/>
	<rect x="656.8" y="159" class="st8" width="8.6" height="1.2"/>
	<rect x="643.4" y="186" class="st8" width="22.1" height="1.2"/>
	<rect x="666.7" y="186" class="st8" width="1.2" height="1.2"/>
	<rect x="643.4" y="183.6" class="st8" width="24.5" height="1.2"/>
</g>
<g>
	<path class="st8" d="M347.4,234.3c-3.3,0-5.9,2.7-5.9,5.9c0,1.7,0.7,3.2,1.8,4.2l0,0c1.1,1.1,2.6,1.8,4.2,1.8c3.3,0,6-2.7,6-6
		C353.4,237,350.7,234.3,347.4,234.3z M344.4,239.3l1.8,1.8l4.1-4.1l1.3,1.3l-5.4,5.4l-3-3L344.4,239.3z"/>
</g>
<g>
	<path class="st10" d="M594.7,272.8h-26.5c-0.3,0-0.5-0.2-0.5-0.5v-31.6c0-0.3,0.2-0.5,0.5-0.5h26.5c0.3,0,0.5,0.2,0.5,0.5
		c0,0.3-0.2,0.5-0.5,0.5h-26v30.6h25.5v-7.2c0-0.3,0.2-0.5,0.5-0.5c0.3,0,0.5,0.2,0.5,0.5v7.7C595.2,272.6,594.9,272.8,594.7,272.8z
		 M588.3,259.5 M593.8,261.8C593.8,261.8,593.8,261.9,593.8,261.8c-0.1,0.2-0.5,0.9-0.7,1l-1.6,1.2l-2.1,1.5
		c-0.1,0.1-0.2,0.1-0.3,0.1c0,0,0,0,0,0l0,0c0,0,0,0,0,0h0c0,0,0,0,0,0c-0.2,0-0.3-0.1-1-0.5c-1-0.7-3.4-2.2-4.7-2.4
		c0.1,0.3,0.3,0.6,0.4,0.8l0.1,0.1c0.3,0.7,0.5,1.1,0.4,1.5c0,0.1-0.2,0.3-0.4,0.4c-0.8,0.3-1.8-0.4-3-1.2c-0.9-0.6-1.9-1.4-2.9-1.6
		c-1-0.2-1.9-0.2-2.4,0c-0.1,0-0.2,0.1-0.4,0.2c0.9,0.8,1.8,1.7,1.8,2.3c0,0.3-0.2,0.7-0.7,0.8c-0.2,0-0.3,0-0.5,0
		c-0.7,0-1.4-0.3-2-1c-0.5-0.5-0.5-1.1-0.5-1.4c0.1-0.3,0.2-0.5,0.3-0.7c-0.4-0.3-0.8-0.5-0.9-0.5c-0.3,0-0.4-0.3-0.4-0.5
		c0-0.3,0.3-0.4,0.5-0.4c0.3,0,0.9,0.4,1.5,0.8c0.4-0.3,0.7-0.4,0.8-0.5c0.8-0.4,1.8-0.4,3.1-0.1c1.2,0.3,2.3,1.1,3.3,1.7
		c0.6,0.4,1.4,1,1.9,1.1c-0.1-0.2-0.2-0.4-0.2-0.5l-0.1-0.1c-0.4-0.9-0.7-1.5-0.4-1.9c0.1-0.2,0.3-0.3,0.6-0.3
		c1.2,0,3.3,1.2,5.4,2.5 M574.3,263.5c-0.1,0.1-0.1,0.2-0.1,0.3c0,0.1,0,0.3,0.2,0.6c0.3,0.3,0.8,0.8,1.4,0.7
		C575.6,264.7,575,264,574.3,263.5z M586.7,256.4h-14.8c-0.3,0-0.5-0.2-0.5-0.5s0.2-0.5,0.5-0.5h14.8c0.3,0,0.5,0.2,0.5,0.5
		S587,256.4,586.7,256.4z M586.7,251.8h-14.8c-0.3,0-0.5-0.2-0.5-0.5c0-0.3,0.2-0.5,0.5-0.5h14.8c0.3,0,0.5,0.2,0.5,0.5
		C587.2,251.6,587,251.8,586.7,251.8z M586.7,247.3h-14.8c-0.3,0-0.5-0.2-0.5-0.5c0-0.3,0.2-0.5,0.5-0.5h14.8c0.3,0,0.5,0.2,0.5,0.5
		C587.2,247.1,587,247.3,586.7,247.3z"/>
	<path class="st8" d="M599.2,245.7c-1.5-0.9-3.5-0.3-4.4,1.1l-6.7,11.4c-0.1,0.2-0.2,0.4-0.1,0.6l0.1,4.8c0,0.4,0.2,0.7,0.5,0.8
		c0.2,0.1,0.5,0.2,0.8,0.1c0.1,0,0.1,0,0.2-0.1l4.3-2.2c0.2-0.1,0.3-0.2,0.4-0.4l6.7-11.5c0.4-0.7,0.6-1.6,0.4-2.4
		c-0.2-0.8-0.7-1.5-1.5-1.9L599.2,245.7z M590.1,259.4l2.3,1.4l-2.2,1.2L590.1,259.4z M599.3,249.5l-5.7,9.5l-2.6-1.6l5.6-9.5
		c0.3-0.5,1-0.6,1.5-0.4l0.8,0.5c0.2,0.1,0.4,0.4,0.5,0.7C599.4,249,599.4,249.2,599.3,249.5z"/>
</g>
<text transform="matrix(1 0 0 1 565.9568 213.215)"><tspan x="0" y="0" class="st8 st2 st11">APR 2018</tspan><tspan x="0" y="9.6" class="st8 st12 st3">BIZ Finalizes</tspan><tspan x="0" y="19.2" class="st8 st12 st3">Assessment Roll</tspan></text>
<circle class="st8" cx="561.3" cy="211.3" r="1.9"/>
<g>
	<path class="st8" d="M604.7,234.3c-3.3,0-5.9,2.7-5.9,5.9c0,1.7,0.7,3.2,1.8,4.2l0,0c1.1,1.1,2.6,1.8,4.2,1.8c3.3,0,6-2.7,6-6
		C610.7,237,608,234.3,604.7,234.3z M601.8,239.3l1.8,1.8l4.1-4.1l1.3,1.3l-5.4,5.4l-3-3L601.8,239.3z"/>
</g>
<g>
	<path class="st8" d="M511.9,237.9h-35.8c-1.3,0-2.4,1.1-2.4,2.4v24.6c0,1.3,1.1,2.4,2.4,2.4h11.6v2.9h-0.3c-0.7,0-1.2,0.6-1.2,1.2
		c0,0.7,0.6,1.2,1.2,1.2h13.1c0.7,0,1.2-0.6,1.2-1.2c0-0.7-0.6-1.2-1.2-1.2h-0.3v-2.9h11.6c1.3,0,2.4-1.1,2.4-2.4v-24.6
		C514.3,239,513.2,237.9,511.9,237.9z M512.4,264.9c0,0.3-0.2,0.5-0.5,0.5h-35.8c-0.3,0-0.5-0.2-0.5-0.5v-24.6
		c0-0.3,0.2-0.5,0.5-0.5h35.8c0.3,0,0.5,0.2,0.5,0.5C512.4,240.3,512.4,264.9,512.4,264.9z"/>
	<path class="st8" d="M481.4,254h-2.5c-0.7,0-1.2,0.6-1.2,1.2v8.1h4.9v-8.1C482.6,254.5,482,254,481.4,254z"/>
	<path class="st8" d="M488.3,251.6h-2.5c-0.7,0-1.2,0.6-1.2,1.2v10.5h4.9v-10.5C489.5,252.1,489,251.6,488.3,251.6z"/>
	<path class="st8" d="M495.2,256.3h-2.5c-0.7,0-1.2,0.6-1.2,1.2v5.8h4.9v-5.8C496.4,256.8,495.9,256.3,495.2,256.3z"/>
	<path class="st8" d="M502.1,250.3h-2.5c-0.7,0-1.2,0.6-1.2,1.2v11.7h4.9v-11.7C503.4,250.9,502.8,250.3,502.1,250.3z"/>
	<path class="st8" d="M509.1,247.9h-2.5c-0.7,0-1.2,0.6-1.2,1.2v14.2h4.9v-14.2C510.3,248.4,509.7,247.9,509.1,247.9z"/>
	<path class="st8" d="M480.1,251c0.8,0,1.5-0.7,1.5-1.5c0,0,0,0,0,0l4.3-1.5c0.3,0.4,0.7,0.6,1.2,0.6c0.3,0,0.6-0.1,0.9-0.3l4.6,3.1
		c0,0.1-0.1,0.3-0.1,0.4c0,0.8,0.7,1.5,1.5,1.5s1.5-0.7,1.5-1.5c0-0.2,0-0.4-0.1-0.6l4.8-4.1c0.2,0.1,0.5,0.2,0.8,0.2
		c0.8,0,1.5-0.7,1.5-1.5c0,0,0,0,0,0l4.3-1.5c0.3,0.3,0.7,0.6,1.2,0.6c0.8,0,1.5-0.7,1.5-1.5c0-0.8-0.7-1.5-1.5-1.5
		c-0.8,0-1.5,0.7-1.5,1.5c0,0,0,0,0,0l-4.3,1.5c-0.3-0.3-0.7-0.6-1.2-0.6c-0.8,0-1.5,0.7-1.5,1.5c0,0.2,0,0.4,0.1,0.6l-4.8,4.1
		c-0.2-0.1-0.5-0.2-0.8-0.2c-0.3,0-0.6,0.1-0.9,0.3l-4.6-3.1c0-0.1,0.1-0.3,0.1-0.4c0-0.8-0.7-1.5-1.5-1.5s-1.5,0.7-1.5,1.5
		c0,0,0,0,0,0l-4.3,1.5c-0.3-0.4-0.7-0.6-1.2-0.6c-0.8,0-1.5,0.7-1.5,1.5S479.3,251,480.1,251z"/>
</g>
<text transform="matrix(1 0 0 1 646.7599 211.8391)"><tspan x="0" y="0" class="st8 st2 st11">JUN 2018</tspan><tspan x="0" y="9.6" class="st8 st12 st3">BIZ Receives</tspan><tspan x="0" y="19.2" class="st8 st12 st3">Revenue</tspan></text>
<g transform="translate(0,-952.36218)">
	<path class="st8" d="M663.5,1190.6c-4.6,0-8.4,3.8-8.4,8.4s3.8,8.4,8.4,8.4c4.6,0,8.4-3.8,8.4-8.4S668.1,1190.6,663.5,1190.6z
		 M663.5,1192.2c3.7,0,6.8,3,6.8,6.8s-3,6.8-6.8,6.8c-3.7,0-6.8-3-6.8-6.8S659.7,1192.2,663.5,1192.2z M663.4,1193.8
		c-0.4,0-0.7,0.4-0.7,0.8v0.4c-1.2,0.2-2,1.2-2,2.4c0,1.4,1.3,2.4,2.8,2.4c0.9,0,1.2,0.4,1.2,0.8c0,0.5-0.2,0.8-0.8,0.8h-2.4
		c-0.4,0-0.8,0.3-0.8,0.8s0.3,0.8,0.8,0.8c0,0,0,0,0,0h1.2v0.4c0,0.4,0.3,0.8,0.8,0.8s0.8-0.3,0.8-0.8c0,0,0,0,0,0v-0.4
		c1.2-0.2,2-1.2,2-2.4c0-1.4-1.3-2.4-2.8-2.4c-0.9,0-1.2-0.4-1.2-0.8c0-0.5,0.2-0.8,0.8-0.8h2.4c0.4,0,0.8-0.3,0.8-0.8
		s-0.3-0.8-0.8-0.8c0,0,0,0,0,0h-1.2v-0.4c0-0.4-0.3-0.8-0.8-0.8C663.5,1193.8,663.4,1193.8,663.4,1193.8z M643.1,1208.1
		c-0.4,0-0.7,0.4-0.7,0.8v14.3c0,0.4,0.4,0.8,0.8,0.8h5.6c0.4,0,0.8-0.4,0.8-0.8v-2.4c1.2,0.9,2.2,1.7,3.5,2.4
		c1.7,1,3.8,1.6,6.9,1.6c3.3,0,7.1-1.8,10.2-3.5c3.1-1.7,5.3-3.4,5.4-3.4c0,0,0,0,0,0c0.6-0.4,1.1-0.7,1.4-1.2
		c0.4-0.5,0.5-1.1,0.5-1.8c0-0.6-0.3-1.1-0.6-1.5s-0.8-0.5-1.2-0.7c-0.8-0.2-1.6-0.2-1.8-0.2c-1,0-2,0.5-2.9,0.9
		c-0.5,0.3-0.6,0.3-0.9,0.5c-0.4-1-1.4-1.8-2.6-1.8h-7.3c-2.3-2-6.1-2.3-10.6-2.4v-0.8c0-0.4-0.4-0.8-0.8-0.8H643.1
		C643.2,1208.1,643.1,1208.1,643.1,1208.1z M644,1209.7h4v0.7c0,0,0,0,0,0.1v8.8c0,0,0,0.1,0,0.1v3.1h-4V1209.7z M649.6,1211.3
		c4.6,0.1,8.2,0.6,9.8,2.1c0.1,0.1,0.3,0.2,0.6,0.2h7.6c0.7,0,1.2,0.5,1.2,1.2s-0.5,1.2-1.2,1.2h-11.5c-0.4,0-0.8,0.3-0.8,0.8
		s0.3,0.8,0.8,0.8c0,0,0,0,0,0h11.5c1.3,0,2.3-0.9,2.6-2c0.1,0,0.1-0.1,0.2-0.1c0,0,0.6-0.4,1.4-0.8s1.8-0.7,2.2-0.7
		c0.2,0,0.8,0,1.3,0.2c0.2,0.1,0.4,0.2,0.5,0.3c0.1,0.1,0.1,0.2,0.1,0.4c0,0.5-0.1,0.7-0.2,0.9c-0.1,0.2-0.5,0.5-1,0.8c0,0,0,0,0,0
		c0,0-2.2,1.7-5.2,3.3s-6.7,3.3-9.4,3.3c-2.9,0-4.6-0.6-6.1-1.4c-1.4-0.8-2.6-1.9-4.3-3V1211.3z"/>
</g>
<circle class="st8" cx="642.8" cy="209.5" r="1.9"/>
<line class="st13" x1="330.7" y1="16.7" x2="330.7" y2="283"/>
<line class="st13" x1="547.1" y1="16.7" x2="547.1" y2="283"/>
<text transform="matrix(1 0 0 1 168.5477 21.7387)" class="st2 st3">YEAR 1</text>
<text transform="matrix(1 0 0 1 416.0831 21.7387)" class="st2 st3">YEAR 2</text>
<text transform="matrix(1 0 0 1 625.9936 21.7387)" class="st2 st3">YEAR 3</text>
</svg>
