<?xml version="1.0" encoding="utf-8"?>
<!-- Generator: Adobe Illustrator 23.0.1, SVG Export Plug-In . SVG Version: 6.00 Build 0)  -->
<svg version="1.1" id="Layer_1" xmlns="http://www.w3.org/2000/svg" xmlns:xlink="http://www.w3.org/1999/xlink" x="0px" y="0px"
	 viewBox="0 0 433.67 203.44" style="enable-background:new 0 0 433.67 203.44;" xml:space="preserve">
<style type="text/css">
	.st0{fill:#139FDA;}
	.st1{fill:#FFFFFF;}
	.st2{font-family:'Avenir-Black';}
	.st3{font-size:12px;}
	.st4{fill:#00A892;}
	.st5{fill:#E0E061;}
	.st6{fill:#11294B;}
	.st7{font-family:'Avenir-Roman';}
	.st8{fill:none;stroke:#139FDA;stroke-width:3;stroke-miterlimit:10;}
	.st9{fill:none;stroke:#00A892;stroke-width:3;stroke-miterlimit:10;}
	.st10{fill:none;stroke:#E0E061;stroke-width:3;stroke-miterlimit:10;}
	.st11{opacity:0.22;fill:#139FDA;}
	.st12{opacity:0.22;fill:#00A892;}
	.st13{opacity:0.22;fill:#E0E061;}
</style>
<rect x="10.44" y="138.05" class="st0" width="130.87" height="31.97"/>
<text transform="matrix(1 0 0 1 54.6597 158.7045)" class="st1 st2 st3">YEAR 1</text>
<rect x="149.77" y="138.05" class="st4" width="130.87" height="31.97"/>
<text transform="matrix(1 0 0 1 193.993 158.7045)" class="st1 st2 st3">YEAR 2</text>
<rect x="289.1" y="138.05" class="st5" width="130.87" height="31.97"/>
<text transform="matrix(1 0 0 1 333.3263 158.7045)" class="st6 st2 st3">YEAR 3</text>
<text transform="matrix(1 0 0 1 42.4589 187.566)" class="st0 st7 st3">Construction</text>
<text transform="matrix(1 0 0 1 178.2198 187.566)" class="st4 st7 st3">Tax Collected</text>
<text transform="matrix(1 0 0 1 315.8767 187.566)" class="st6 st7 st3">Biz Revenue</text>
<line class="st8" x1="10.44" y1="197.97" x2="10.44" y2="138.05"/>
<line class="st9" x1="149.77" y1="197.97" x2="149.77" y2="138.05"/>
<line class="st10" x1="287.42" y1="197.97" x2="287.42" y2="138.05"/>
<rect x="9.12" y="7.97" class="st11" width="132.37" height="130.09"/>
<rect x="148.27" y="7.97" class="st12" width="132.37" height="130.09"/>
<rect x="287.42" y="7.97" class="st13" width="132.7" height="130.09"/>
<g>
	<path class="st6" d="M113.31,95.5H76.62c-0.72,0-1.31,0.59-1.31,1.31v15.73c0,0.72,0.59,1.31,1.31,1.31h36.69
		c0.72,0,1.31-0.59,1.31-1.31V96.81C114.62,96.08,114.04,95.5,113.31,95.5z M112,111.22H77.93V98.12H112V111.22z"/>
	<path class="st6" d="M113.31,78.46H96.28v-4.17c2.04-0.71,3.11-2.94,2.4-4.98c-0.39-1.13-1.28-2.01-2.4-2.4v-5.48h14.42
		c0.72,0,1.31-0.59,1.31-1.31V49.63c0-0.02-0.02-0.19-0.04-0.25c-0.01-0.06-0.03-0.13-0.05-0.19c-0.01-0.02-0.06-0.13-0.08-0.17
		c-0.03-0.06-0.06-0.12-0.1-0.17c-0.04-0.05-0.08-0.1-0.13-0.14c-0.04-0.05-0.09-0.09-0.14-0.13c-0.05-0.04-0.11-0.07-0.17-0.1
		c-0.04-0.02-0.15-0.07-0.17-0.08c-0.06-0.02-0.12-0.04-0.19-0.05c-0.06-0.01-0.23-0.03-0.25-0.03h-10.31L53.38,35.26
		c-0.11-0.03-0.22-0.05-0.34-0.05h-0.02c-0.02,0-0.04,0.01-0.07,0.01c-0.09,0-0.18,0.02-0.27,0.04c-0.04,0.01-0.08,0.03-0.12,0.04
		c-0.07,0.03-0.14,0.06-0.21,0.1c-0.04,0.02-0.07,0.05-0.11,0.07c-0.02,0.01-0.04,0.02-0.06,0.04L36.46,48.62
		c-0.02,0.01-0.15,0.18-0.21,0.26c-0.05,0.06-0.09,0.13-0.13,0.2c-0.06,0.16-0.1,0.33-0.12,0.5c0,0.02-0.01,0.04-0.01,0.06v10.48
		c0,0.02,0.01,0.04,0.01,0.06c0,0.07,0.01,0.13,0.03,0.19c0.01,0.06,0.03,0.13,0.05,0.19c0,0.02,0,0.04,0.01,0.06
		c0.02,0.04,0.04,0.07,0.06,0.11c0.03,0.06,0.06,0.12,0.1,0.17c0.04,0.05,0.08,0.1,0.13,0.14c0.04,0.05,0.09,0.09,0.14,0.13
		c0.05,0.04,0.11,0.07,0.17,0.1c0.04,0.02,0.07,0.05,0.11,0.06c0.02,0,0.03,0,0.05,0.01c0.14,0.05,0.3,0.08,0.45,0.08h9.17v51.11
		c0,0.02,0.01,0.04,0.01,0.06c0,0.07,0.01,0.13,0.03,0.19c0.01,0.06,0.03,0.13,0.05,0.19c0.01,0.02,0.01,0.04,0.01,0.06
		c0.01,0.02,0.04,0.07,0.06,0.11c0.03,0.06,0.06,0.12,0.1,0.17c0.04,0.05,0.08,0.1,0.13,0.14c0.04,0.05,0.09,0.09,0.14,0.13
		c0.05,0.04,0.11,0.07,0.17,0.1c0.04,0.02,0.07,0.05,0.11,0.06c0.02,0.01,0.03,0,0.05,0.01c0.14,0.05,0.29,0.08,0.45,0.09h10.48
		c0.72,0,1.31-0.59,1.31-1.31V82.39h6.55c0.72,0,1.31-0.59,1.31-1.31V61.42h26.21v5.48c-2.04,0.71-3.11,2.94-2.4,4.98
		c0.39,1.13,1.28,2.01,2.4,2.4v4.17H76.62c-0.72,0-1.31,0.59-1.31,1.31v5.24c0,0.72,0.59,1.31,1.31,1.31h36.69
		c0.72,0,1.31-0.59,1.31-1.31v-5.24C114.62,79.05,114.04,78.46,113.31,78.46z M61.43,58.8l6.01-6.01v6.01H61.43z M50.95,58.8
		l6.01-6.01v6.01H50.95z M89.72,48.32H59.16l-3.93-9.82l35.37,9.82H89.72z M49.1,50.94h6.01l-6.01,6.01V50.94z M49.72,48.32
		l3.31-8.27l3.31,8.27H49.72z M59.58,50.94h6.01l-6.01,6.01V50.94z M46.9,48.32h-5.98l8.96-7.47L46.9,48.32z M38.61,50.94h6.01
		l-6.01,6.01V50.94z M70.07,50.94h6.01l-6.01,6.01V50.94z M80.55,50.94h6.01l-6.01,6.01V50.94z M91.03,50.94h6.01l-6.01,6.01V50.94z
		 M109.38,58.8h-6.01l6.01-6.01V58.8z M101.52,56.95v-6.01h6.01L101.52,56.95z M46.48,52.79v6.01h-6.01L46.48,52.79z M56.96,100.74
		h-6.01l6.01-6.01V100.74z M49.1,98.89v-6.01h6.01L49.1,98.89z M49.1,103.36h6.01l-6.01,6.01V103.36z M56.96,90.26h-6.01l6.01-6.01
		V90.26z M49.1,88.4v-6.01h6.01L49.1,88.4z M56.96,111.22h-6.01l6.01-6.01V111.22z M64.82,77.15v2.62h-6.55H49.1V61.42h2.62v14.42
		c0,0.17,0.04,0.34,0.1,0.5c0.13,0.32,0.39,0.58,0.71,0.71c0.16,0.07,0.33,0.1,0.5,0.1 M54.34,72.68V61.42h10.48v13.11h-3.39h-7.1
		V72.68z M77.93,52.79v6.01h-6.01L77.93,52.79z M88.41,52.79v6.01H82.4L88.41,52.79z M98.9,52.79v6.01h-6.01L98.9,52.79z
		 M94.97,69.29c0.72,0,1.31,0.59,1.31,1.31s-0.59,1.31-1.31,1.31s-1.31-0.59-1.31-1.31S94.24,69.29,94.97,69.29z M112,83.7H77.93
		v-2.62H112V83.7z"/>
	<path class="st6" d="M81.86,108.6h5.24c0.72,0,1.31-0.59,1.31-1.31v-5.24c0-0.72-0.59-1.31-1.31-1.31h-5.24
		c-0.72,0-1.31,0.59-1.31,1.31v5.24C80.55,108.02,81.14,108.6,81.86,108.6z M83.17,103.36h2.62v2.62h-2.62V103.36z"/>
	<path class="st6" d="M92.34,108.6h5.24c0.72,0,1.31-0.59,1.31-1.31v-5.24c0-0.72-0.59-1.31-1.31-1.31h-5.24
		c-0.72,0-1.31,0.59-1.31,1.31v5.24C91.03,108.02,91.62,108.6,92.34,108.6z M93.66,103.36h2.62v2.62h-2.62V103.36z"/>
	<path class="st6" d="M102.83,108.6h5.24c0.72,0,1.31-0.59,1.31-1.31v-5.24c0-0.72-0.59-1.31-1.31-1.31h-5.24
		c-0.72,0-1.31,0.59-1.31,1.31v5.24C101.52,108.02,102.11,108.6,102.83,108.6z M104.14,103.36h2.62v2.62h-2.62V103.36z"/>
</g>
<g transform="translate(0,-952.36218)">
	<path class="st6" d="M353.99,996.46c-9,0-16.33,7.33-16.33,16.33s7.33,16.33,16.33,16.33s16.33-7.33,16.33-16.33
		S362.99,996.46,353.99,996.46z M353.99,999.57c7.32,0,13.22,5.9,13.22,13.22c0,7.32-5.9,13.22-13.22,13.22s-13.22-5.9-13.22-13.22
		C340.77,1005.47,346.67,999.57,353.99,999.57z M353.82,1002.66c-0.8,0.09-1.4,0.77-1.39,1.58v0.85c-2.27,0.38-3.89,2.39-3.89,4.59
		c0,2.65,2.48,4.67,5.44,4.67c1.73,0,2.33,0.76,2.33,1.56c0,1-0.39,1.56-1.56,1.56h-4.67c-0.86-0.01-1.57,0.67-1.58,1.53
		c-0.01,0.86,0.67,1.57,1.53,1.58c0.01,0,0.03,0,0.04,0h2.33v0.78c-0.01,0.86,0.67,1.57,1.53,1.58s1.57-0.67,1.58-1.53
		c0-0.01,0-0.03,0-0.04v-0.85c2.27-0.38,3.89-2.4,3.89-4.59c0-2.65-2.48-4.67-5.44-4.67c-1.73,0-2.33-0.76-2.33-1.56
		c0-1,0.39-1.56,1.56-1.56h4.67c0.86,0.01,1.57-0.67,1.58-1.53c0.01-0.86-0.67-1.57-1.53-1.58c-0.01,0-0.03,0-0.04,0h-2.33v-0.78
		c0.02-0.86-0.66-1.57-1.52-1.59C353.96,1002.65,353.89,1002.65,353.82,1002.66z M314.18,1030.69c-0.8,0.08-1.41,0.75-1.41,1.56v28
		c0,0.86,0.7,1.56,1.56,1.56h10.89c0.86,0,1.56-0.7,1.56-1.56v-4.76c2.29,1.69,4.36,3.35,6.83,4.74c3.31,1.86,7.35,3.14,13.39,3.14
		c6.42,0,13.88-3.47,19.91-6.83c5.97-3.33,10.44-6.6,10.52-6.66c0,0,0.05-0.05,0.05-0.05c1.17-0.78,2.09-1.42,2.77-2.38
		c0.7-0.98,0.97-2.18,0.97-3.52c0-1.17-0.51-2.23-1.22-2.92c-0.7-0.69-1.53-1.07-2.31-1.31c-1.56-0.48-3.09-0.44-3.48-0.44
		c-1.97,0-3.94,0.88-5.61,1.7c-1.01,0.49-1.26,0.66-1.8,0.97c-0.8-2.01-2.75-3.45-5.03-3.45h-14.22
		c-4.41-3.91-11.87-4.58-20.78-4.64v-1.58c0-0.86-0.7-1.56-1.56-1.56h-10.89C314.27,1030.68,314.22,1030.68,314.18,1030.69z
		 M315.88,1033.8h7.78v1.43c0,0.04,0,0.08,0,0.12v17.11c0,0.06,0,0.11,0,0.17v6.05h-7.78V1033.8z M326.77,1036.96
		c9.01,0.11,16.1,1.13,19.13,4.16c0.29,0.29,0.68,0.46,1.09,0.46h14.78c1.32,0,2.33,1.01,2.33,2.33c0,1.32-1.01,2.33-2.33,2.33
		h-22.56c-0.86-0.01-1.57,0.67-1.58,1.53c-0.01,0.86,0.67,1.57,1.53,1.58c0.01,0,0.03,0,0.04,0h22.56c2.46,0,4.46-1.71,5.13-3.96
		c0.13-0.04,0.25-0.1,0.36-0.17c0,0,1.18-0.74,2.7-1.48s3.44-1.39,4.25-1.39c0.39,0,1.59,0.02,2.55,0.32
		c0.48,0.15,0.87,0.34,1.07,0.53c0.2,0.19,0.27,0.32,0.27,0.7c0,0.99-0.11,1.32-0.39,1.7c-0.27,0.38-0.91,0.9-2.04,1.65
		c-0.02,0.02-0.03,0.03-0.05,0.05c0,0-4.4,3.26-10.23,6.51c-5.84,3.25-13.15,6.42-18.4,6.42c-5.63,0-8.98-1.09-11.89-2.72
		c-2.7-1.52-5.12-3.66-8.34-5.88V1036.96z"/>
</g>
<g>
	<path class="st6" d="M251.07,62.12h-16.49V41.03h-56.36v72.85h56.36V97.4h16.49V62.12z M232.28,111.39h-51.76V43.33h51.76v18.79
		H206.4V45.63h-23.58v21.09h9.39V97.2h40.07V111.39z M192.41,62.12v2.3h-7.09V47.93h18.79v14.19L192.41,62.12L192.41,62.12z
		 M248.77,94.9h-54.06V64.42h54.06V94.9z"/>
	<path class="st6" d="M221.74,83.21c-0.58,0-1.15-0.58-1.15-1.15h-2.3c0,1.53,0.96,2.88,2.3,3.26v2.49h2.3v-2.49
		c1.34-0.58,2.3-1.73,2.3-3.26c0-1.92-1.53-3.45-3.45-3.45c-0.58,0-1.15-0.58-1.15-1.15c0-0.58,0.58-1.15,1.15-1.15
		c0.58,0,1.15,0.58,1.15,1.15h2.3c0-1.53-0.96-2.88-2.3-3.26v-2.49h-2.3v2.49c-1.34,0.58-2.3,1.73-2.3,3.26
		c0,1.92,1.53,3.45,3.45,3.45c0.58,0,1.15,0.58,1.15,1.15S222.31,83.21,221.74,83.21z"/>
	<polygon class="st6" points="199.5,69.02 205.25,69.02 205.25,66.72 197.01,66.72 197.01,74.97 199.5,74.97 	"/>
	<polygon class="st6" points="205.25,90.3 199.5,90.3 199.5,84.36 197.01,84.36 197.01,92.6 205.25,92.6 	"/>
	<polygon class="st6" points="244.17,74.97 246.47,74.97 246.47,66.72 238.23,66.72 238.23,69.02 244.17,69.02 	"/>
	<polygon class="st6" points="246.47,84.36 244.17,84.36 244.17,90.3 238.23,90.3 238.23,92.6 246.47,92.6 	"/>
	<path class="st6" d="M221.74,92.6c7.09,0,12.84-5.75,12.84-12.84c0-7.09-5.75-12.84-12.84-12.84c-7.09,0-12.84,5.75-12.84,12.84
		C208.89,86.85,214.64,92.6,221.74,92.6z M221.74,69.02c5.75,0,10.54,4.79,10.54,10.54s-4.79,10.54-10.54,10.54
		s-10.54-4.6-10.54-10.35C211.19,74.01,215.99,69.02,221.74,69.02z"/>
	<rect x="208.89" y="45.63" class="st6" width="21.09" height="2.3"/>
	<rect x="208.89" y="50.23" class="st6" width="21.09" height="2.3"/>
	<rect x="227.68" y="55.03" class="st6" width="2.3" height="2.3"/>
	<rect x="208.89" y="55.03" class="st6" width="16.49" height="2.3"/>
	<rect x="183.01" y="106.79" class="st6" width="42.37" height="2.3"/>
	<rect x="227.68" y="106.79" class="st6" width="2.3" height="2.3"/>
	<rect x="183.01" y="102" class="st6" width="46.97" height="2.3"/>
</g>
</svg>
