<?xml version="1.0" encoding="UTF-8" standalone="no"?>
<!-- Generator: Adobe Illustrator 22.1.0, SVG Export Plug-In . SVG Version: 6.00 Build 0)  -->

<svg
   xmlns:dc="http://purl.org/dc/elements/1.1/"
   xmlns:cc="http://creativecommons.org/ns#"
   xmlns:rdf="http://www.w3.org/1999/02/22-rdf-syntax-ns#"
   xmlns:svg="http://www.w3.org/2000/svg"
   xmlns="http://www.w3.org/2000/svg"
   xmlns:sodipodi="http://sodipodi.sourceforge.net/DTD/sodipodi-0.dtd"
   xmlns:inkscape="http://www.inkscape.org/namespaces/inkscape"
   version="1.1"
   id="Layer_1"
   x="0px"
   y="0px"
   viewBox="0 0 697.69043 190"
   xml:space="preserve"
   inkscape:version="0.91 r13725"
   sodipodi:docname="valueofbiz_timeline.svg"
   width="697.69043"
   height="190"><metadata
     id="metadata191"><rdf:RDF><cc:Work
         rdf:about=""><dc:format>image/svg+xml</dc:format><dc:type
           rdf:resource="http://purl.org/dc/dcmitype/StillImage" /><dc:title></dc:title></cc:Work></rdf:RDF></metadata><defs
     id="defs189" /><sodipodi:namedview
     pagecolor="#ffffff"
     bordercolor="#666666"
     borderopacity="1"
     objecttolerance="10"
     gridtolerance="10"
     guidetolerance="10"
     inkscape:pageopacity="0"
     inkscape:pageshadow="2"
     inkscape:window-width="1374"
     inkscape:window-height="740"
     id="namedview187"
     showgrid="false"
     fit-margin-top="0"
     fit-margin-left="0"
     fit-margin-right="0"
     fit-margin-bottom="0"
     inkscape:zoom="0.38562092"
     inkscape:cx="17.201693"
     inkscape:cy="81"
     inkscape:window-x="0"
     inkscape:window-y="0"
     inkscape:window-maximized="0"
     inkscape:current-layer="Layer_1" /><style
     type="text/css"
     id="style3">
	.st0{fill:#139FDA;}
	.st1{fill:#FFFFFF;}
	.st2{font-family:'Avenir-Black';}
	.st3{font-size:12px;}
	.st4{font-family:'Avenir-Roman';}
	.st5{fill:none;stroke:#139FDA;stroke-width:3;stroke-miterlimit:10;}
	.st6{opacity:0.22;fill:#139FDA;}
	.st7{fill:#010101;}
	.st8{fill:#11294B;}
	.st9{fill:none;stroke:#11294B;stroke-width:3;stroke-miterlimit:10;stroke-dasharray:6,3;}
	.st10{fill:none;stroke:#11294B;stroke-width:3;stroke-miterlimit:10;}
	.st11{fill:none;stroke:#11294B;stroke-width:2;stroke-miterlimit:10;}
	.st12{fill:none;stroke:#11294B;stroke-width:2;stroke-miterlimit:10;stroke-dasharray:3.1718,1.2687;}
	.st13{fill:#11294B;stroke:#10294B;stroke-miterlimit:10;}
	.st14{fill:none;stroke:#10294B;stroke-width:3;stroke-miterlimit:10;}
	.st15{fill:none;stroke:#11294B;stroke-width:3;stroke-linecap:round;stroke-miterlimit:10;}
</style><rect
     x="1.5"
     y="130.10001"
     class="st0"
     width="130.89999"
     height="32"
     id="rect5"
     style="fill:#139fda" /><text
     class="st1 st2 st3"
     id="text7"
     style="font-size:12px;font-family:Avenir-Black;fill:#ffffff"
     x="45.759098"
     y="150.7347">YEAR 1</text>
<rect
     x="140.89999"
     y="130.10001"
     class="st0"
     width="130.89999"
     height="32"
     id="rect9"
     style="fill:#139fda" /><text
     class="st1 st2 st3"
     id="text11"
     style="font-size:12px;font-family:Avenir-Black;fill:#ffffff"
     x="185.0925"
     y="150.7347">YEAR 2</text>
<rect
     x="280.20001"
     y="130.10001"
     class="st0"
     width="130.89999"
     height="32"
     id="rect13"
     style="fill:#139fda" /><text
     class="st1 st2 st3"
     id="text15"
     style="font-size:12px;font-family:Avenir-Black;fill:#ffffff"
     x="324.42581"
     y="150.7347">YEAR 3</text>
<rect
     x="419.5"
     y="130.10001"
     class="st0"
     width="130.89999"
     height="32"
     id="rect17"
     style="fill:#139fda" /><text
     class="st1 st2 st3"
     id="text19"
     style="font-size:12px;font-family:Avenir-Black;fill:#ffffff"
     x="463.75909"
     y="150.7347">YEAR 4</text>
<rect
     x="558.89996"
     y="130.10001"
     class="st0"
     width="130.89999"
     height="32"
     id="rect21"
     style="fill:#139fda" /><text
     class="st1 st2 st3"
     id="text23"
     style="font-size:12px;font-family:Avenir-Black;fill:#ffffff"
     x="603.09241"
     y="150.7347">YEAR 5</text>
<text
     class="st0 st4 st3"
     id="text25"
     style="font-size:12px;font-family:Avenir-Roman;fill:#139fda"
     x="40.369198"
     y="179.59599">Planning</text>
<line
     class="st5"
     x1="1.5"
     y1="190"
     x2="1.5"
     y2="130.10001"
     id="line27"
     style="fill:none;stroke:#139fda;stroke-width:3;stroke-miterlimit:10" /><text
     class="st0 st4 st3"
     id="text29"
     style="font-size:12px;font-family:Avenir-Roman;fill:#139fda"
     x="172.89169"
     y="179.5963">Construction</text>
<line
     class="st5"
     x1="140.89999"
     y1="190"
     x2="140.89999"
     y2="130.10001"
     id="line31"
     style="fill:none;stroke:#139fda;stroke-width:3;stroke-miterlimit:10" /><text
     class="st0 st4 st3"
     id="text33"
     style="font-size:12px;font-family:Avenir-Roman;fill:#139fda"
     x="332.26669"
     y="179.59599">Leasing and Moving People In</text>
<text
     class="st0 st4 st3"
     id="text35"
     style="font-size:12px;font-family:Avenir-Roman;fill:#139fda"
     x="573.2666"
     y="179.59599">Biz Collects Revenue</text>
<line
     class="st5"
     x1="280.20001"
     y1="190"
     x2="280.20001"
     y2="130.10001"
     id="line37"
     style="fill:none;stroke:#139fda;stroke-width:3;stroke-miterlimit:10" /><line
     class="st5"
     x1="558.89996"
     y1="190"
     x2="558.89996"
     y2="130.10001"
     id="line39"
     style="fill:none;stroke:#139fda;stroke-width:3;stroke-miterlimit:10" /><rect
     x="0.39999771"
     y="0"
     class="st6"
     width="132.39999"
     height="130.10001"
     id="rect41"
     style="opacity:0.22000002;fill:#139fda" /><rect
     x="139.60001"
     y="0"
     class="st6"
     width="132.39999"
     height="130.10001"
     id="rect43"
     style="opacity:0.22000002;fill:#139fda" /><rect
     x="278.70001"
     y="0"
     class="st6"
     width="271.70001"
     height="130.10001"
     id="rect45"
     style="opacity:0.22000002;fill:#139fda" /><rect
     x="557"
     y="0"
     class="st6"
     width="132.7"
     height="130.10001"
     id="rect47"
     style="opacity:0.22000002;fill:#139fda" /><g
     id="g49"
     transform="translate(-33.900002,-197)"><g
       id="g51"><path
         class="st7"
         d="m 145.5,229.2 -90,0 c -2.8,0 -5,2.2 -5,5 l 0,59.9 c 0,2.8 2.2,5 5,5 l 15,0 23.3,0 51.7,0 c 2.8,0 5,-2.2 5,-5 l 0,-59.9 c 0,-2.8 -2.2,-5 -5,-5 z m -71.6,66.5 0,-1.6 c 0,-0.9 0.8,-1.7 1.7,-1.7 l 13.3,0 c 0.9,0 1.7,0.7 1.7,1.7 l 0,1.7 -16.7,0 0,-0.1 z m -20,-28.4 0,-33.1 c 0,-0.9 0.7,-1.7 1.7,-1.7 l 90,0 c 0.9,0 1.7,0.7 1.7,1.7 l 0,59.8 -0.1,0 c 0,0.9 -0.7,1.7 -1.7,1.7 l -51.6,0 0,-1.7 c 0,-2.7 -2.2,-5 -5,-5 l -13.3,0 c -2.8,0 -5,2.2 -5,5 l 0,1.6 -15,0 c -0.9,0 -1.7,-0.7 -1.7,-1.7 l 0,-23.3"
         id="path53"
         inkscape:connector-curvature="0"
         style="fill:#010101" /><path
         class="st7"
         d="m 135,245.4 c -1.9,-1.9 -5.2,-1.9 -7.1,0 l -14.7,14.7 c -0.2,0.2 -0.4,0.5 -0.4,0.8 l -1.7,7.4 c -0.1,0.6 0,1.1 0.5,1.5 0.3,0.3 0.7,0.5 1.2,0.5 0.1,0 0.2,0 0.4,0 l 7.4,-1.6 c 0.3,-0.1 0.6,-0.2 0.8,-0.4 L 136,253.5 c 0.9,-0.9 1.5,-2.2 1.5,-3.5 0,-1.3 -0.5,-2.6 -1.5,-3.5 l -1,-1.1 z m -19.2,17.2 3,3 -3.8,0.9 0.8,-3.9 z m 17.8,-11.4 -12.3,12.2 -3.4,-3.4 12.3,-12.3 c 0.6,-0.6 1.7,-0.6 2.4,0 l 1,1 c 0.3,0.3 0.5,0.7 0.5,1.2 0,0.5 -0.2,0.9 -0.5,1.3 z"
         id="path55"
         inkscape:connector-curvature="0"
         style="fill:#010101" /></g><g
       id="g57"><path
         class="st8"
         d="m 145.5,229.2 -90,0 c -2.8,0 -5,2.2 -5,5 l 0,59.9 c 0,2.8 2.2,5 5,5 l 15,0 23.3,0 51.7,0 c 2.8,0 5,-2.2 5,-5 l 0,-59.9 c 0,-2.8 -2.2,-5 -5,-5 z m -71.6,66.5 0,-1.6 c 0,-0.9 0.8,-1.7 1.7,-1.7 l 13.3,0 c 0.9,0 1.7,0.7 1.7,1.7 l 0,1.7 -16.7,0 0,-0.1 z m -20,-28.4 0,-33.1 c 0,-0.9 0.7,-1.7 1.7,-1.7 l 90,0 c 0.9,0 1.7,0.7 1.7,1.7 l 0,59.8 -0.1,0 c 0,0.9 -0.7,1.7 -1.7,1.7 l -51.6,0 0,-1.7 c 0,-2.7 -2.2,-5 -5,-5 l -13.3,0 c -2.8,0 -5,2.2 -5,5 l 0,1.6 -15,0 c -0.9,0 -1.7,-0.7 -1.7,-1.7 l 0,-23.3"
         id="path59"
         inkscape:connector-curvature="0"
         style="fill:#11294b" /><path
         class="st8"
         d="m 135,245.4 c -1.9,-1.9 -5.2,-1.9 -7.1,0 l -14.7,14.7 c -0.2,0.2 -0.4,0.5 -0.4,0.8 l -1.7,7.4 c -0.1,0.6 0,1.1 0.5,1.5 0.3,0.3 0.7,0.5 1.2,0.5 0.1,0 0.2,0 0.4,0 l 7.4,-1.6 c 0.3,-0.1 0.6,-0.2 0.8,-0.4 L 136,253.5 c 0.9,-0.9 1.5,-2.2 1.5,-3.5 0,-1.3 -0.5,-2.6 -1.5,-3.5 l -1,-1.1 z m -19.2,17.2 3,3 -3.8,0.9 0.8,-3.9 z m 17.8,-11.4 -12.3,12.2 -3.4,-3.4 12.3,-12.3 c 0.6,-0.6 1.7,-0.6 2.4,0 l 1,1 c 0.3,0.3 0.5,0.7 0.5,1.2 0,0.5 -0.2,0.9 -0.5,1.3 z"
         id="path61"
         inkscape:connector-curvature="0"
         style="fill:#11294b" /></g></g><line
     class="st9"
     x1="72.900002"
     y1="48.800003"
     x2="72.900002"
     y2="84"
     id="line63"
     style="fill:none;stroke:#11294b;stroke-width:3;stroke-miterlimit:10;stroke-dasharray:6, 3" /><polyline
     class="st10"
     points="77.6,286 77.6,247.2 106.8,247.2 "
     id="polyline65"
     style="fill:none;stroke:#11294b;stroke-width:3;stroke-miterlimit:10"
     transform="translate(-33.900002,-197)" /><rect
     x="52"
     y="43.699997"
     class="st10"
     width="12.6"
     height="5.9000001"
     id="rect67"
     style="fill:none;stroke:#11294b;stroke-width:3;stroke-miterlimit:10" /><line
     class="st10"
     x1="58.299995"
     y1="38.100006"
     x2="58.299995"
     y2="43.699997"
     id="line69"
     style="fill:none;stroke:#11294b;stroke-width:3;stroke-miterlimit:10" /><rect
     x="49.5"
     y="55.899994"
     class="st11"
     width="6.0999999"
     height="10.7"
     id="rect71"
     style="fill:none;stroke:#11294b;stroke-width:2;stroke-miterlimit:10" /><rect
     x="49.5"
     y="72.700012"
     class="st11"
     width="6.0999999"
     height="10.7"
     id="rect73"
     style="fill:none;stroke:#11294b;stroke-width:2;stroke-miterlimit:10" /><g
     id="g75"
     transform="translate(-33.900002,-197)"><g
       id="g77"><polyline
         class="st11"
         points="101.2,261.1 101.2,263.6 98.7,263.6   "
         id="polyline79"
         style="fill:none;stroke:#11294b;stroke-width:2;stroke-miterlimit:10" /><polyline
         class="st11"
         points="97.6,263.6 95.1,263.6 95.1,261.1   "
         id="polyline81"
         style="fill:none;stroke:#11294b;stroke-width:2;stroke-miterlimit:10" /><line
         class="st12"
         x1="95.099998"
         y1="259.79999"
         x2="95.099998"
         y2="256"
         id="line83"
         style="fill:none;stroke:#11294b;stroke-width:2;stroke-miterlimit:10;stroke-dasharray:3.1718, 1.2687" /><polyline
         class="st11"
         points="95.1,255.4 95.1,252.9 97.6,252.9   "
         id="polyline85"
         style="fill:none;stroke:#11294b;stroke-width:2;stroke-miterlimit:10" /><polyline
         class="st11"
         points="98.7,252.9 101.2,252.9 101.2,255.4   "
         id="polyline87"
         style="fill:none;stroke:#11294b;stroke-width:2;stroke-miterlimit:10" /><line
         class="st12"
         x1="101.2"
         y1="256.60001"
         x2="101.2"
         y2="260.39999"
         id="line89"
         style="fill:none;stroke:#11294b;stroke-width:2;stroke-miterlimit:10;stroke-dasharray:3.1718, 1.2687" /></g></g><g
     id="g91"
     transform="translate(-33.900002,-197)"><path
       class="st8"
       d="m 277.6,284.5 -36.6,0 c -0.7,0 -1.3,0.6 -1.3,1.3 l 0,15.7 c 0,0.7 0.6,1.3 1.3,1.3 l 36.7,0 c 0.7,0 1.3,-0.6 1.3,-1.3 l 0,-15.7 c 0,-0.7 -0.6,-1.3 -1.4,-1.3 z m -1.3,15.8 -34.1,0 0,-13.1 34.1,0 0,13.1 z"
       id="path93"
       inkscape:connector-curvature="0"
       style="fill:#11294b" /><path
       class="st8"
       d="m 277.6,267.5 -17,0 0,-4.2 c 2,-0.7 3.1,-2.9 2.4,-5 -0.4,-1.1 -1.3,-2 -2.4,-2.4 l 0,-5.5 14.4,0 c 0.7,0 1.3,-0.6 1.3,-1.3 l 0,-10.5 c 0,0 0,-0.2 0,-0.3 0,-0.1 0,-0.1 0,-0.2 0,0 -0.1,-0.1 -0.1,-0.2 0,-0.1 -0.1,-0.1 -0.1,-0.2 0,0 -0.1,-0.1 -0.1,-0.1 0,0 -0.1,-0.1 -0.1,-0.1 -0.1,0 -0.1,-0.1 -0.2,-0.1 0,0 -0.1,-0.1 -0.2,-0.1 -0.1,0 -0.1,0 -0.2,0 -0.1,0 -0.2,0 -0.2,0 l -10.3,0 -47,-13.1 c -0.1,0 -0.2,0 -0.3,0 l 0,0 c 0,0 0,0 -0.1,0 -0.1,0 -0.2,0 -0.3,0 0,0 -0.1,0 -0.1,0 -0.1,0 -0.1,0.1 -0.2,0.1 0,0 -0.1,0 -0.1,0.1 0,0 0,0 -0.1,0 l -15.7,13.1 c 0,0 -0.2,0.2 -0.2,0.3 0,0.1 -0.1,0.1 -0.1,0.2 -0.1,0.2 -0.1,0.3 -0.1,0.5 0,0 0,0 0,0.1 l 0,10.5 c 0,0 0,0 0,0.1 0,0.1 0,0.1 0,0.2 0,0.1 0,0.1 0,0.2 0,0 0,0 0,0.1 0,0 0,0.1 0.1,0.1 0,0.1 0.1,0.1 0.1,0.2 0,0 0.1,0.1 0.1,0.1 0,0 0.1,0.1 0.1,0.1 0.1,0 0.1,0.1 0.2,0.1 0,0 0.1,0 0.1,0.1 0,0 0,0 0,0 0.1,0.1 0.3,0.1 0.4,0.1 l 9.2,0 0,51.1 c 0,0 0,0 0,0.1 0,0.1 0,0.1 0,0.2 0,0.1 0,0.1 0,0.2 0,0 0,0 0,0.1 0,0 0,0.1 0.1,0.1 0,0.1 0.1,0.1 0.1,0.2 0,0 0.1,0.1 0.1,0.1 0,0 0.1,0.1 0.1,0.1 0.1,0 0.1,0.1 0.2,0.1 0,0 0.1,0 0.1,0.1 0,0 0,0 0,0 0.1,0.1 0.3,0.1 0.4,0.1 l 10.5,0 c 0.7,0 1.3,-0.6 1.3,-1.3 l 0,-30.1 6.6,0 c 0.7,0 1.3,-0.6 1.3,-1.3 l 0,-19.7 26.4,0 0,5.5 c -2,0.7 -3.1,2.9 -2.4,5 0.4,1.1 1.3,2 2.4,2.4 l 0,4.2 -17,0 c -0.7,0 -1.3,0.6 -1.3,1.3 l 0,5.2 c 0,0.7 0.6,1.3 1.3,1.3 l 36.7,0 c 0.7,0 1.3,-0.6 1.3,-1.3 l 0,-5.2 c 0,-0.9 -0.6,-1.5 -1.4,-1.5 z m -51.8,-19.7 6,-6 0,6 -6,0 z m -10.5,0 6,-6 0,6 -6,0 z m 38.8,-10.5 -30.6,0 -3.9,-9.8 35.4,9.8 -0.9,0 z m -40.7,2.7 6,0 -6,6 0,-6 z m 0.7,-2.7 3.3,-8.3 3.3,8.3 -6.6,0 z m 9.8,2.7 6,0 -6,6 0,-6 z m -12.7,-2.7 -6,0 9,-7.5 -3,7.5 z m -8.3,2.7 6,0 -6,6 0,-6 z m 31.5,0 6,0 -6,6 0,-6 z m 10.5,0 6,0 -6,6 0,-6 z m 10.5,0 6,0 -6,6 0,-6 z m 18.3,7.8 -6,0 6,-6 0,6 z m -7.8,-1.8 0,-6 6,0 -6,6 z m -55.1,-4.2 0,6 -6,0 6,-6 z m 10.5,48 -6,0 6,-6 0,6 z m -7.9,-1.9 0,-6 6,0 -6,6 z m 0,4.5 6,0 -6,6 0,-6 z m 7.9,-13.1 -6,0 6,-6 0,6 z m -7.9,-1.9 0,-6 6,0 -6,6 z m 7.9,22.9 -6,0 6,-6 0,6 z m 7.9,-34.1 0,2.6 -6.6,0 -9.2,0 0,-18.3 2.6,0 0,14.4 c 0,0.2 0,0.3 0.1,0.5 0.1,0.3 0.4,0.6 0.7,0.7 0.2,0.1 0.3,0.1 0.5,0.1 m 1.4,-4.5 0,-11.3 10.5,0 0,13.1 -3.4,0 -7.1,0 0,-1.8 z m 23.6,-19.9 0,6 -6,0 6,-6 z m 10.4,0 0,6 -6,0 6,-6 z m 10.5,0 0,6 -6,0 6,-6 z m -3.9,16.5 c 0.7,0 1.3,0.6 1.3,1.3 0,0.7 -0.6,1.3 -1.3,1.3 -0.7,0 -1.3,-0.6 -1.3,-1.3 0,-0.7 0.6,-1.3 1.3,-1.3 z m 17,14.4 -34.1,0 0,-2.6 34.1,0 0,2.6 z"
       id="path95"
       inkscape:connector-curvature="0"
       style="fill:#11294b" /><path
       class="st8"
       d="m 246.2,297.6 5.2,0 c 0.7,0 1.3,-0.6 1.3,-1.3 l 0,-5.2 c 0,-0.7 -0.6,-1.3 -1.3,-1.3 l -5.2,0 c -0.7,0 -1.3,0.6 -1.3,1.3 l 0,5.2 c 0,0.7 0.6,1.3 1.3,1.3 z m 1.3,-5.2 2.6,0 0,2.6 -2.6,0 0,-2.6 z"
       id="path97"
       inkscape:connector-curvature="0"
       style="fill:#11294b" /><path
       class="st8"
       d="m 256.7,297.6 5.2,0 c 0.7,0 1.3,-0.6 1.3,-1.3 l 0,-5.2 c 0,-0.7 -0.6,-1.3 -1.3,-1.3 l -5.2,0 c -0.7,0 -1.3,0.6 -1.3,1.3 l 0,5.2 c 0,0.7 0.6,1.3 1.3,1.3 z m 1.3,-5.2 2.6,0 0,2.6 -2.6,0 0,-2.6 z"
       id="path99"
       inkscape:connector-curvature="0"
       style="fill:#11294b" /><path
       class="st8"
       d="m 267.2,297.6 5.2,0 c 0.7,0 1.3,-0.6 1.3,-1.3 l 0,-5.2 c 0,-0.7 -0.6,-1.3 -1.3,-1.3 l -5.2,0 c -0.7,0 -1.3,0.6 -1.3,1.3 l 0,5.2 c 0,0.7 0.5,1.3 1.3,1.3 z m 1.3,-5.2 2.6,0 0,2.6 -2.6,0 0,-2.6 z"
       id="path101"
       inkscape:connector-curvature="0"
       style="fill:#11294b" /></g><g
     id="g103"
     transform="translate(-33.900002,-197)"><g
       id="g105"><g
         id="g107"><g
           id="g109"><path
             class="st8"
             d="m 491.9,297.4 c 0,-0.6 0.4,-1 1,-1 l 49.9,0 c 0.5,0 1,0.4 1,1 l 0,2.4 c 0,0.6 -0.5,1 -1,1 l -49.9,0 c -0.6,0 -1,-0.4 -1,-1 l 0,-2.4 z"
             id="path111"
             inkscape:connector-curvature="0"
             style="fill:#11294b" /></g></g><g
         id="g113"><g
           id="g115"><path
             class="st8"
             d="m 503.7,241.7 c 0,-0.5 0.4,-1 1,-1 l 8.5,0 c 0.5,0 1,0.5 1,1 l 0,3 c 0,0.6 -0.5,1 -1,1 l -8.5,0 c -0.6,0 -1,-0.4 -1,-1 l 0,-3 z"
             id="path117"
             inkscape:connector-curvature="0"
             style="fill:#11294b" /></g></g><g
         id="g119"><g
           id="g121"><path
             class="st8"
             d="m 503.7,253.1 c 0,-0.5 0.4,-1 1,-1 l 8.5,0 c 0.5,0 1,0.5 1,1 l 0,3 c 0,0.5 -0.5,1 -1,1 l -8.5,0 c -0.6,0 -1,-0.5 -1,-1 l 0,-3 z"
             id="path123"
             inkscape:connector-curvature="0"
             style="fill:#11294b" /></g></g><g
         id="g125"><g
           id="g127"><path
             class="st8"
             d="m 503.7,264.4 c 0,-0.5 0.4,-1 1,-1 l 8.5,0 c 0.5,0 1,0.5 1,1 l 0,3 c 0,0.5 -0.5,1 -1,1 l -8.5,0 c -0.6,0 -1,-0.5 -1,-1 l 0,-3 z"
             id="path129"
             inkscape:connector-curvature="0"
             style="fill:#11294b" /></g></g><g
         id="g131"><g
           id="g133"><path
             class="st8"
             d="m 521.4,241.7 c 0,-0.5 0.5,-1 1,-1 l 8.5,0 c 0.5,0 1,0.5 1,1 l 0,3 c 0,0.6 -0.5,1 -1,1 l -8.5,0 c -0.5,0 -1,-0.4 -1,-1 l 0,-3 z"
             id="path135"
             inkscape:connector-curvature="0"
             style="fill:#11294b" /></g></g><g
         id="g137"><g
           id="g139"><path
             class="st8"
             d="m 521.4,253.1 c 0,-0.5 0.5,-1 1,-1 l 8.5,0 c 0.5,0 1,0.5 1,1 l 0,3 c 0,0.5 -0.5,1 -1,1 l -8.5,0 c -0.5,0 -1,-0.5 -1,-1 l 0,-3 z"
             id="path141"
             inkscape:connector-curvature="0"
             style="fill:#11294b" /></g></g><g
         id="g143"><g
           id="g145"><path
             class="st8"
             d="m 521.4,264.4 c 0,-0.5 0.5,-1 1,-1 l 8.5,0 c 0.5,0 1,0.5 1,1 l 0,3 c 0,0.5 -0.5,1 -1,1 l -8.5,0 c -0.5,0 -1,-0.5 -1,-1 l 0,-3 z"
             id="path147"
             inkscape:connector-curvature="0"
             style="fill:#11294b" /></g></g></g></g><g
     id="g149"
     transform="translate(-33.900002,-197)"><circle
       class="st13"
       cx="430"
       cy="298.20001"
       r="1.9"
       id="circle151"
       style="fill:#11294b;stroke:#10294b;stroke-miterlimit:10" /><path
       class="st13"
       d="m 482.6,293.1 -1,0 0,-5.7 c 0,-0.1 0,-0.1 0,-0.2 l 0,-0.1 c 0,0 0,-0.1 0,-0.1 l 0,-0.1 -0.1,-0.1 0,-0.1 0,0 -9.1,-10.7 c -0.2,-0.2 -0.5,-0.4 -0.7,-0.4 l -11.3,0 0,-8.8 c 0,-0.5 -0.4,-1 -1,-1 l 0,0 -41.7,0 c -0.5,0 -1,0.4 -1,1 l 0,0 0,27.2 c 0,2.7 2.2,5 5,5 l 1,0 c 0.5,4 4.1,6.8 8.1,6.3 3.3,-0.4 5.9,-3 6.3,-6.3 l 24.8,0 c 0.5,4 4.1,6.8 8.1,6.3 3.3,-0.4 5.9,-3 6.3,-6.3 l 2.3,0 c 2.7,0 5,-2.2 5,-5 0,-0.5 -0.4,-0.9 -1,-0.9 0,0 0,0 0,0 z m -13,-15.5 1.7,0 7.3,8.8 -9,0 0,-8.8 z m -5.2,0 3.2,0 0,8.8 -3.2,0 0,-8.8 z m -5.9,19.5 -21.3,0 c -0.3,-1.9 -1.4,-3.6 -3,-4.8 l 24.3,0 0,4.8 z m -39.7,-29.3 39.7,0 0,22.5 -39.7,0 0,-22.5 z m 0,26.3 0,-1.7 7,0 c -1.6,1.1 -2.7,2.8 -3,4.8 l -1,0 c -1.7,-0.1 -3,-1.4 -3,-3.1 0,0 0,0 0,0 l 0,0 z m 11.2,9.4 c -2.9,0 -5.3,-2.4 -5.3,-5.3 0,-2.9 2.4,-5.3 5.3,-5.3 2.9,0 5.3,2.4 5.3,5.3 -0.1,2.9 -2.4,5.3 -5.3,5.3 z m 30.4,-6.4 0,-19.5 2,0 0,9.7 c 0,0.5 0.4,1 1,1 l 0,0 16.2,0 0,4.7 -5.4,0 c -2.8,-2.8 -7.4,-2.9 -10.2,-0.1 -1.1,1.1 -1.8,2.5 -2.1,4 l -1.5,0.2 z m 8.7,6.4 c -2.9,0 -5.3,-2.4 -5.3,-5.3 0,-2.9 2.4,-5.3 5.3,-5.3 2.9,0 5.3,2.4 5.3,5.3 0,2.9 -2.4,5.3 -5.3,5.3 z m 9.6,-6.4 -2.4,0 c -0.1,-0.7 -0.3,-1.4 -0.6,-2 l 5.8,0 c -0.5,1.2 -1.6,2 -2.8,2 l 0,0 z"
       id="path153"
       inkscape:connector-curvature="0"
       style="fill:#11294b;stroke:#10294b;stroke-miterlimit:10" /><circle
       class="st13"
       cx="469.20001"
       cy="298.20001"
       r="1.9"
       id="circle155"
       style="fill:#11294b;stroke:#10294b;stroke-miterlimit:10" /></g><path
     class="st13"
     d="m 355.4,105.4 -51.6,0 c -0.5,0 -0.9,-0.4 -0.9,-0.9 l 0,-61.5 c 0,-0.5 0.4,-0.9 0.9,-0.9 l 51.6,0 c 0.5,0 0.9,0.4 0.9,0.9 0,0.5 -0.4,0.9 -0.9,0.9 l -50.7,0 0,59.6 49.7,0 0,-14 c 0,-0.5 0.4,-0.9 0.9,-0.9 0.5,0 0.9,0.4 0.9,0.9 l 0,15 c 0.2,0.5 -0.3,0.9 -0.8,0.9 z m -12.3,-26 m 10.5,4.6 c 0,0 0,0.1 0,0 -0.2,0.3 -1,1.7 -1.3,2 l -3.2,2.3 -4.1,2.9 c -0.2,0.1 -0.3,0.2 -0.5,0.2 0,0 0,0 0,0 l 0,0 c 0,0 0,0 0,0 l 0,0 c 0,0 0,0 0,0 -0.3,0 -0.5,-0.1 -1.9,-1 -2,-1.3 -6.6,-4.2 -9.1,-4.7 0.2,0.5 0.5,1.2 0.7,1.6 l 0.1,0.2 c 0.6,1.3 1,2.2 0.7,2.8 -0.1,0.2 -0.3,0.5 -0.8,0.7 -1.6,0.5 -3.6,-0.8 -5.9,-2.4 -1.8,-1.2 -3.8,-2.6 -5.7,-3.1 -2,-0.5 -3.6,-0.5 -4.8,0 -0.2,0.1 -0.4,0.2 -0.7,0.4 1.8,1.5 3.4,3.3 3.5,4.5 0,0.6 -0.3,1.4 -1.4,1.6 -0.3,0.1 -0.6,0.1 -0.9,0.1 -1.4,0 -2.6,-0.7 -3.9,-2 -1,-1 -1,-2.1 -0.9,-2.7 0.1,-0.5 0.3,-1 0.6,-1.4 -0.8,-0.6 -1.5,-1 -1.8,-1 -0.5,-0.1 -0.9,-0.6 -0.8,-1.1 0.1,-0.5 0.5,-0.9 1,-0.8 0.6,0.1 1.7,0.7 2.9,1.6 0.7,-0.5 1.4,-0.9 1.5,-0.9 1.6,-0.7 3.6,-0.7 6,-0.2 2.3,0.6 4.4,2.1 6.3,3.4 1.2,0.8 2.7,1.9 3.6,2.1 -0.1,-0.3 -0.3,-0.7 -0.4,-0.9 L 332.3,88 c -0.8,-1.7 -1.3,-2.9 -0.8,-3.7 0.2,-0.4 0.7,-0.6 1.1,-0.6 2.4,0 6.4,2.3 10.5,4.9 m -27.3,-1.4 c -0.1,0.2 -0.2,0.4 -0.3,0.6 0,0.2 0,0.6 0.4,1.1 0.6,0.7 1.6,1.5 2.8,1.3 -0.4,-0.7 -1.6,-1.9 -2.9,-3 z m 24.1,-13.8 -28.9,0 c -0.5,0 -0.9,-0.4 -0.9,-0.9 0,-0.5 0.4,-0.9 0.9,-0.9 l 28.9,0 c 0.5,0 0.9,0.4 0.9,0.9 0,0.4 -0.4,0.9 -0.9,0.9 z m 0,-8.9 -28.9,0 c -0.5,0 -0.9,-0.4 -0.9,-0.9 0,-0.5 0.4,-0.9 0.9,-0.9 l 28.9,0 c 0.5,0 0.9,0.4 0.9,0.9 0,0.5 -0.4,0.9 -0.9,0.9 z m 0,-8.8 -28.9,0 c -0.5,0 -0.9,-0.4 -0.9,-0.9 0,-0.5 0.4,-0.9 0.9,-0.9 l 28.9,0 c 0.5,0 0.9,0.4 0.9,0.9 0,0.5 -0.4,0.9 -0.9,0.9 z"
     id="path157"
     inkscape:connector-curvature="0"
     style="fill:#11294b;stroke:#10294b;stroke-miterlimit:10" /><path
     class="st7"
     d="m 364.2,52.7 c -2.9,-1.7 -6.8,-0.7 -8.5,2.2 l -13.1,22.2 c -0.2,0.3 -0.3,0.7 -0.2,1.1 l 0.2,9.4 c 0.1,0.8 0.3,1.3 1.1,1.6 0.5,0.3 1,0.4 1.6,0.2 0.1,0 0.2,-0.1 0.5,-0.1 l 8.4,-4.2 c 0.3,-0.2 0.7,-0.4 0.8,-0.7 l 13,-22.3 c 0.8,-1.4 1.1,-3.1 0.7,-4.7 -0.4,-1.6 -1.4,-3 -2.9,-3.7 l -1.6,-1 z m -17.7,26.6 4.5,2.7 -4.3,2.3 -0.2,-5 z m 17.8,-19.2 -11,18.5 -5.1,-3 11,-18.6 c 0.5,-0.9 1.9,-1.2 2.9,-0.7 l 1.5,0.9 c 0.5,0.3 0.8,0.7 1,1.3 0.2,0.6 0,1 -0.3,1.6 z"
     id="path159"
     inkscape:connector-curvature="0"
     style="fill:#010101" /><path
     class="st8"
     d="m 364.2,52.7 c -2.9,-1.7 -6.8,-0.7 -8.5,2.2 l -13.1,22.2 c -0.2,0.3 -0.3,0.7 -0.2,1.1 l 0.2,9.4 c 0.1,0.8 0.3,1.3 1.1,1.6 0.5,0.3 1,0.4 1.6,0.2 0.1,0 0.2,-0.1 0.5,-0.1 l 8.4,-4.2 c 0.3,-0.2 0.7,-0.4 0.8,-0.7 l 13,-22.3 c 0.8,-1.4 1.1,-3.1 0.7,-4.7 -0.4,-1.6 -1.4,-3 -2.9,-3.7 l -1.6,-1 z m -17.7,26.6 4.5,2.7 -4.3,2.3 -0.2,-5 z m 17.8,-19.2 -11,18.5 -5.1,-3 11,-18.6 c 0.5,-0.9 1.9,-1.2 2.9,-0.7 l 1.5,0.9 c 0.5,0.3 0.8,0.7 1,1.3 0.2,0.6 0,1 -0.3,1.6 z"
     id="path161"
     inkscape:connector-curvature="0"
     style="fill:#11294b" /><path
     class="st8"
     d="m 477.2,83.2 c -3.9,0 -4.9,4 -4.9,6.1 0,0.5 0.4,0.8 0.8,0.8 0,0 0,0 0,0 0.5,0 0.8,-0.4 0.8,-0.8 0,-0.1 0,-1.8 0.8,-3.1 l 0,5.2 0.4,7.7 c 0,0.2 0.2,0.3 0.3,0.3 l 0.7,0 c 0.2,0 0.3,-0.1 0.3,-0.3 l 0.4,-7.7 0.5,0 0.4,7.7 c 0,0.2 0.2,0.3 0.3,0.3 l 0.7,0 c 0.2,0 0.3,-0.1 0.3,-0.3 l 0.4,-7.7 0,-5.2 c 0.8,1.3 0.8,3 0.8,3.1 0,0.5 0.4,0.8 0.8,0.8 0.5,0 0.8,-0.4 0.8,-0.8 0.3,-2 -0.7,-6.1 -4.6,-6.1 z"
     id="path163"
     inkscape:connector-curvature="0"
     style="fill:#11294b" /><circle
     class="st8"
     cx="477.20001"
     cy="81"
     r="1.8"
     id="circle165"
     style="fill:#11294b" /><path
     class="st8"
     d="m 496.2,89.3 c 0,-0.2 -1,-5.9 -4.8,-5.9 -3.9,0 -4.8,5.7 -4.8,5.9 -0.1,0.4 0.2,0.8 0.6,0.8 0.4,0.1 0.8,-0.2 0.8,-0.6 0,0 0.3,-1.8 1.2,-3.2 l 0,1.1 -1.4,5.6 c 0,0.2 0.1,0.3 0.2,0.3 l 1.1,0 0.3,5.8 c 0,0.2 0.2,0.3 0.3,0.3 l 0.7,0 c 0.2,0 0.3,-0.1 0.3,-0.3 l 0.3,-5.8 0.5,0 0.3,5.8 c 0,0.2 0.2,0.3 0.3,0.3 l 0.7,0 c 0.2,0 0.3,-0.1 0.3,-0.3 l 0.3,-5.8 1.1,0 c 0.2,0 0.3,-0.1 0.2,-0.3 l -1.4,-5.6 0,-1.1 c 0.9,1.4 1.1,3.2 1.2,3.2 0.1,0.4 0.4,0.6 0.7,0.6 0,0 0.1,0 0.1,0 0.6,-0.1 0.9,-0.4 0.9,-0.8 z"
     id="path167"
     inkscape:connector-curvature="0"
     style="fill:#11294b" /><circle
     class="st8"
     cx="491.30002"
     cy="81"
     r="1.8"
     id="circle169"
     style="fill:#11294b" /><circle
     class="st8"
     cx="484.30002"
     cy="88.600006"
     r="1.3"
     id="circle171"
     style="fill:#11294b" /><path
     class="st8"
     d="m 487.6,88.5 c -0.2,-0.1 -0.5,0 -0.6,0.2 0,0.1 -0.5,1.1 -1.4,1.7 -0.3,-0.2 -0.7,-0.3 -1.2,-0.3 -0.5,0 -0.9,0.1 -1.2,0.3 -0.8,-0.7 -1.3,-1.7 -1.4,-1.7 -0.1,-0.2 -0.4,-0.4 -0.6,-0.2 -0.2,0.1 -0.4,0.4 -0.2,0.6 0.3,0.7 1,1.9 2,2.6 l 0,3.3 0.2,4.1 c 0,0.1 0.1,0.2 0.2,0.2 l 0.5,0 c 0.1,0 0.2,-0.1 0.2,-0.2 l 0.2,-4.1 0.3,0 0.2,4.1 c 0,0.1 0.1,0.2 0.2,0.2 l 0.5,0 c 0.1,0 0.2,-0.1 0.2,-0.2 l 0.2,-4.1 0,-3.3 c 1,-0.7 1.7,-1.9 2,-2.6 0,-0.2 -0.1,-0.5 -0.3,-0.6 z"
     id="path173"
     inkscape:connector-curvature="0"
     style="fill:#11294b" /><line
     class="st14"
     x1="439.39999"
     y1="103.79999"
     x2="533.79999"
     y2="103.79999"
     id="line175"
     style="fill:none;stroke:#10294b;stroke-width:3;stroke-miterlimit:10" /><path
     class="st10"
     d="m 504,99.4 -40.6,0 c -0.5,0 -1,-0.5 -1,-1 l 0,-61.4 c 0,-0.6 0.5,-1 1,-1 l 40.6,0 c 0.5,0 1,0.4 1,1 l 0,61.3 c 0,0.6 -0.4,1.1 -1,1.1 z"
     id="path177"
     inkscape:connector-curvature="0"
     style="fill:none;stroke:#11294b;stroke-width:3;stroke-miterlimit:10" /><path
     class="st10"
     d="m 498.6,35.2 -29.8,0 c -0.5,0 -1,-0.5 -1,-1 l 0,-7 c 0,-0.6 0.5,-1 1,-1 l 29.8,0 c 0.5,0 1,0.4 1,1 l 0,7 c 0,0.5 -0.4,1 -1,1 z"
     id="path179"
     inkscape:connector-curvature="0"
     style="fill:none;stroke:#11294b;stroke-width:3;stroke-miterlimit:10" /><line
     class="st15"
     x1="483.69998"
     y1="26.199997"
     x2="483.69998"
     y2="20"
     id="line181"
     style="fill:none;stroke:#11294b;stroke-width:3;stroke-linecap:round;stroke-miterlimit:10" /><g
     transform="translate(-33.900002,-1149.3622)"
     id="g183"><path
       class="st8"
       d="m 661.1,1185.5 c -9,0 -16.3,7.3 -16.3,16.3 0,9 7.3,16.3 16.3,16.3 9,0 16.3,-7.3 16.3,-16.3 0,-9 -7.3,-16.3 -16.3,-16.3 z m 0,3.1 c 7.3,0 13.2,5.9 13.2,13.2 0,7.3 -5.9,13.2 -13.2,13.2 -7.3,0 -13.2,-5.9 -13.2,-13.2 0,-7.3 5.9,-13.2 13.2,-13.2 z m -0.1,3.1 c -0.8,0.1 -1.4,0.8 -1.4,1.6 l 0,0.9 c -2.3,0.4 -3.9,2.4 -3.9,4.6 0,2.7 2.5,4.7 5.4,4.7 1.7,0 2.3,0.8 2.3,1.6 0,1 -0.4,1.6 -1.6,1.6 l -4.7,0 c -0.9,0 -1.6,0.7 -1.6,1.5 0,0.8 0.7,1.6 1.5,1.6 0,0 0,0 0,0 l 2.3,0 0,0.8 c 0,0.9 0.7,1.6 1.5,1.6 0.9,0 1.6,-0.7 1.6,-1.5 0,0 0,0 0,0 l 0,-0.9 c 2.3,-0.4 3.9,-2.4 3.9,-4.6 0,-2.7 -2.5,-4.7 -5.4,-4.7 -1.7,0 -2.3,-0.8 -2.3,-1.6 0,-1 0.4,-1.6 1.6,-1.6 l 4.7,0 c 0.9,0 1.6,-0.7 1.6,-1.5 0,-0.8 -0.7,-1.6 -1.5,-1.6 0,0 0,0 0,0 l -2.3,0 0,-0.8 c 0,-0.9 -0.7,-1.6 -1.5,-1.6 -0.1,-0.1 -0.2,-0.1 -0.2,-0.1 z m -39.7,28 c -0.8,0.1 -1.4,0.8 -1.4,1.6 l 0,28 c 0,0.9 0.7,1.6 1.6,1.6 l 10.9,0 c 0.9,0 1.6,-0.7 1.6,-1.6 l 0,-4.8 c 2.3,1.7 4.4,3.3 6.8,4.7 3.3,1.9 7.4,3.1 13.4,3.1 6.4,0 13.9,-3.5 19.9,-6.8 6,-3.3 10.4,-6.6 10.5,-6.7 0,0 0,0 0,0 1.2,-0.8 2.1,-1.4 2.8,-2.4 0.7,-1 1,-2.2 1,-3.5 0,-1.2 -0.5,-2.2 -1.2,-2.9 -0.7,-0.7 -1.5,-1.1 -2.3,-1.3 -1.6,-0.5 -3.1,-0.4 -3.5,-0.4 -2,0 -3.9,0.9 -5.6,1.7 -1,0.5 -1.3,0.7 -1.8,1 -0.8,-2 -2.7,-3.5 -5,-3.5 l -14.2,0 c -4.4,-3.9 -11.9,-4.6 -20.8,-4.6 l 0,-1.6 c 0,-0.9 -0.7,-1.6 -1.6,-1.6 l -10.9,0 c -0.1,0 -0.1,0 -0.2,0 z m 1.7,3.1 7.8,0 0,1.4 c 0,0 0,0.1 0,0.1 l 0,17.1 c 0,0.1 0,0.1 0,0.2 l 0,6.1 -7.8,0 0,-24.9 z m 10.9,3.2 c 9,0.1 16.1,1.1 19.1,4.2 0.3,0.3 0.7,0.5 1.1,0.5 l 14.8,0 c 1.3,0 2.3,1 2.3,2.3 0,1.3 -1,2.3 -2.3,2.3 l -22.6,0 c -0.9,0 -1.6,0.7 -1.6,1.5 0,0.8 0.7,1.6 1.5,1.6 0,0 0,0 0,0 l 22.6,0 c 2.5,0 4.5,-1.7 5.1,-4 0.1,0 0.3,-0.1 0.4,-0.2 0,0 1.2,-0.7 2.7,-1.5 1.5,-0.7 3.4,-1.4 4.3,-1.4 0.4,0 1.6,0 2.6,0.3 0.5,0.1 0.9,0.3 1.1,0.5 0.2,0.2 0.3,0.3 0.3,0.7 0,1 -0.1,1.3 -0.4,1.7 -0.3,0.4 -0.9,0.9 -2,1.7 0,0 0,0 0,0 0,0 -4.4,3.3 -10.2,6.5 -5.8,3.2 -13.2,6.4 -18.4,6.4 -5.6,0 -9,-1.1 -11.9,-2.7 -2.7,-1.5 -5.1,-3.7 -8.3,-5.9 l 0,-14.5 z"
       id="path185"
       inkscape:connector-curvature="0"
       style="fill:#11294b" /></g></svg>