<?xml version="1.0" encoding="utf-8"?>
<!-- Generator: Adobe Illustrator 23.0.1, SVG Export Plug-In . SVG Version: 6.00 Build 0)  -->
<svg version="1.1" id="Layer_1" xmlns="http://www.w3.org/2000/svg" xmlns:xlink="http://www.w3.org/1999/xlink" x="0px" y="0px"
	 viewBox="0 0 792 612" style="enable-background:new 0 0 792 612;" xml:space="preserve">
<style type="text/css">
	.st0{fill:#139FDA;}
	.st1{fill:#FFFFFF;}
	.st2{font-family:'Avenir-Black';}
	.st3{font-size:12px;}
	.st4{fill:#00A892;}
	.st5{fill:#E0E061;}
	.st6{fill:#11294B;}
	.st7{font-family:'Avenir-Roman';}
	.st8{fill:none;stroke:#139FDA;stroke-width:3;stroke-miterlimit:10;}
	.st9{fill:none;stroke:#00A892;stroke-width:3;stroke-miterlimit:10;}
	.st10{fill:none;stroke:#E0E061;stroke-width:3;stroke-miterlimit:10;}
	.st11{opacity:0.22;fill:#139FDA;}
	.st12{opacity:0.22;fill:#00A892;}
	.st13{opacity:0.22;fill:#E0E061;}
</style>
<rect x="174.77" y="327.09" class="st0" width="130.87" height="31.97"/>
<text transform="matrix(1 0 0 1 218.9925 347.7347)" class="st1 st2 st3">YEAR 1</text>
<rect x="314.1" y="327.09" class="st4" width="130.87" height="31.97"/>
<text transform="matrix(1 0 0 1 358.3258 347.7347)" class="st1 st2 st3">YEAR 2</text>
<rect x="453.44" y="327.09" class="st5" width="130.87" height="31.97"/>
<text transform="matrix(1 0 0 1 497.6591 347.7347)" class="st6 st2 st3">YEAR 3</text>
<text transform="matrix(1 0 0 1 206.7917 376.5963)" class="st0 st7 st3">Construction</text>
<text transform="matrix(1 0 0 1 342.5526 376.5963)" class="st4 st7 st3">Tax Collected</text>
<text transform="matrix(1 0 0 1 480.2095 376.5963)" class="st6 st7 st3">Biz Revenue</text>
<line class="st8" x1="174.77" y1="387" x2="174.77" y2="327.09"/>
<line class="st9" x1="314.1" y1="387" x2="314.1" y2="327.09"/>
<line class="st10" x1="451.75" y1="387" x2="451.75" y2="327.09"/>
<rect x="173.46" y="197" class="st11" width="132.37" height="130.09"/>
<rect x="312.6" y="197" class="st12" width="132.37" height="130.09"/>
<rect x="451.75" y="197" class="st13" width="132.7" height="130.09"/>
<g>
	<path class="st6" d="M277.65,284.53h-36.69c-0.72,0-1.31,0.59-1.31,1.31v15.73c0,0.72,0.59,1.31,1.31,1.31h36.69
		c0.72,0,1.31-0.59,1.31-1.31v-15.73C278.96,285.12,278.37,284.53,277.65,284.53z M276.34,300.25h-34.07v-13.11h34.07V300.25z"/>
	<path class="st6" d="M277.65,267.49h-17.04v-4.17c2.04-0.71,3.11-2.94,2.4-4.98c-0.39-1.13-1.28-2.01-2.4-2.4v-5.48h14.42
		c0.72,0,1.31-0.59,1.31-1.31v-10.48c0-0.02-0.02-0.19-0.04-0.25c-0.01-0.06-0.03-0.13-0.05-0.19c-0.01-0.02-0.06-0.13-0.08-0.17
		c-0.03-0.06-0.06-0.12-0.1-0.17c-0.04-0.05-0.08-0.1-0.13-0.14c-0.04-0.05-0.09-0.09-0.14-0.13c-0.05-0.04-0.11-0.07-0.17-0.1
		c-0.04-0.02-0.15-0.07-0.17-0.08c-0.06-0.02-0.12-0.04-0.19-0.05c-0.06-0.01-0.23-0.03-0.25-0.03h-10.31l-47.01-13.06
		c-0.11-0.03-0.22-0.05-0.34-0.05h-0.02c-0.02,0-0.04,0.01-0.07,0.01c-0.09,0-0.18,0.02-0.27,0.04c-0.04,0.01-0.08,0.03-0.12,0.04
		c-0.07,0.03-0.14,0.06-0.21,0.1c-0.04,0.02-0.07,0.05-0.11,0.07c-0.02,0.01-0.04,0.02-0.06,0.04l-15.73,13.11
		c-0.02,0.01-0.15,0.18-0.21,0.26c-0.05,0.06-0.09,0.13-0.13,0.2c-0.06,0.16-0.1,0.33-0.12,0.5c0,0.02-0.01,0.04-0.01,0.06v10.48
		c0,0.02,0.01,0.04,0.01,0.06c0,0.07,0.01,0.13,0.03,0.19c0.01,0.06,0.03,0.13,0.05,0.19c0,0.02,0,0.04,0.01,0.06
		c0.02,0.04,0.04,0.07,0.06,0.11c0.03,0.06,0.06,0.12,0.1,0.17c0.04,0.05,0.08,0.1,0.13,0.14c0.04,0.05,0.09,0.09,0.14,0.13
		c0.05,0.04,0.11,0.07,0.17,0.1c0.04,0.02,0.07,0.05,0.11,0.06c0.02,0,0.03,0,0.05,0.01c0.14,0.05,0.3,0.08,0.45,0.08h9.17v51.11
		c0,0.02,0.01,0.04,0.01,0.06c0,0.07,0.01,0.13,0.03,0.19c0.01,0.06,0.03,0.13,0.05,0.19c0.01,0.02,0.01,0.04,0.01,0.06
		c0.01,0.02,0.04,0.07,0.06,0.11c0.03,0.06,0.06,0.12,0.1,0.17c0.04,0.05,0.08,0.1,0.13,0.14c0.04,0.05,0.09,0.09,0.14,0.13
		c0.05,0.04,0.11,0.07,0.17,0.1c0.04,0.02,0.07,0.05,0.11,0.06c0.02,0.01,0.03,0,0.05,0.01c0.14,0.05,0.29,0.08,0.45,0.09h10.48
		c0.72,0,1.31-0.59,1.31-1.31v-30.14h6.55c0.72,0,1.31-0.59,1.31-1.31v-19.66h26.21v5.48c-2.04,0.71-3.11,2.94-2.4,4.98
		c0.39,1.13,1.28,2.01,2.4,2.4v4.17h-17.04c-0.72,0-1.31,0.59-1.31,1.31v5.24c0,0.72,0.59,1.31,1.31,1.31h36.69
		c0.72,0,1.31-0.59,1.31-1.31v-5.24C278.96,268.08,278.37,267.49,277.65,267.49z M225.77,247.83l6.01-6.01v6.01H225.77z
		 M215.28,247.83l6.01-6.01v6.01H215.28z M254.06,237.35h-30.57l-3.93-9.82l35.37,9.82H254.06z M213.43,239.97h6.01l-6.01,6.01
		V239.97z M214.05,237.35l3.31-8.27l3.31,8.27H214.05z M223.91,239.97h6.01l-6.01,6.01V239.97z M211.23,237.35h-5.98l8.96-7.47
		L211.23,237.35z M202.95,239.97h6.01l-6.01,6.01V239.97z M234.4,239.97h6.01l-6.01,6.01V239.97z M244.88,239.97h6.01l-6.01,6.01
		V239.97z M255.37,239.97h6.01l-6.01,6.01V239.97z M273.71,247.83h-6.01l6.01-6.01V247.83z M265.85,245.98v-6.01h6.01L265.85,245.98
		z M210.81,241.82v6.01h-6.01L210.81,241.82z M221.29,289.77h-6.01l6.01-6.01V289.77z M213.43,287.92v-6.01h6.01L213.43,287.92z
		 M213.43,292.39h6.01l-6.01,6.01V292.39z M221.29,279.29h-6.01l6.01-6.01V279.29z M213.43,277.43v-6.01h6.01L213.43,277.43z
		 M221.29,300.25h-6.01l6.01-6.01V300.25z M229.16,266.18v2.62h-6.55h-9.17v-18.35h2.62v14.42c0,0.17,0.04,0.34,0.1,0.5
		c0.13,0.32,0.39,0.58,0.71,0.71c0.16,0.07,0.33,0.1,0.5,0.1 M218.67,261.71v-11.25h10.48v13.11h-3.39h-7.1V261.71z M242.26,241.82
		v6.01h-6.01L242.26,241.82z M252.75,241.82v6.01h-6.01L252.75,241.82z M263.23,241.82v6.01h-6.01L263.23,241.82z M259.3,258.32
		c0.72,0,1.31,0.59,1.31,1.31s-0.59,1.31-1.31,1.31s-1.31-0.59-1.31-1.31S258.57,258.32,259.3,258.32z M276.34,272.73h-34.07v-2.62
		h34.07V272.73z"/>
	<path class="st6" d="M246.19,297.63h5.24c0.72,0,1.31-0.59,1.31-1.31v-5.24c0-0.72-0.59-1.31-1.31-1.31h-5.24
		c-0.72,0-1.31,0.59-1.31,1.31v5.24C244.88,297.05,245.47,297.63,246.19,297.63z M247.5,292.39h2.62v2.62h-2.62V292.39z"/>
	<path class="st6" d="M256.68,297.63h5.24c0.72,0,1.31-0.59,1.31-1.31v-5.24c0-0.72-0.59-1.31-1.31-1.31h-5.24
		c-0.72,0-1.31,0.59-1.31,1.31v5.24C255.37,297.05,255.95,297.63,256.68,297.63z M257.99,292.39h2.62v2.62h-2.62V292.39z"/>
	<path class="st6" d="M267.16,297.63h5.24c0.72,0,1.31-0.59,1.31-1.31v-5.24c0-0.72-0.59-1.31-1.31-1.31h-5.24
		c-0.72,0-1.31,0.59-1.31,1.31v5.24C265.85,297.05,266.44,297.63,267.16,297.63z M268.47,292.39h2.62v2.62h-2.62V292.39z"/>
</g>
<g transform="translate(0,-952.36218)">
	<path class="st6" d="M518.32,1185.49c-9,0-16.33,7.33-16.33,16.33s7.33,16.33,16.33,16.33c9,0,16.33-7.33,16.33-16.33
		S527.33,1185.49,518.32,1185.49z M518.32,1188.6c7.32,0,13.22,5.9,13.22,13.22c0,7.32-5.9,13.22-13.22,13.22
		c-7.32,0-13.22-5.9-13.22-13.22C505.1,1194.51,511,1188.6,518.32,1188.6z M518.15,1191.69c-0.8,0.09-1.4,0.77-1.39,1.58v0.85
		c-2.27,0.38-3.89,2.39-3.89,4.59c0,2.65,2.48,4.67,5.44,4.67c1.73,0,2.33,0.76,2.33,1.56c0,1-0.39,1.56-1.56,1.56h-4.67
		c-0.86-0.01-1.57,0.67-1.58,1.53s0.67,1.57,1.53,1.58c0.01,0,0.03,0,0.04,0h2.33v0.78c-0.01,0.86,0.67,1.57,1.53,1.58
		c0.86,0.01,1.57-0.67,1.58-1.53c0-0.01,0-0.03,0-0.04v-0.85c2.27-0.38,3.89-2.4,3.89-4.59c0-2.65-2.48-4.67-5.44-4.67
		c-1.73,0-2.33-0.76-2.33-1.56c0-1,0.39-1.56,1.56-1.56h4.67c0.86,0.01,1.57-0.67,1.58-1.53s-0.67-1.57-1.53-1.58
		c-0.01,0-0.03,0-0.04,0h-2.33v-0.78c0.02-0.86-0.66-1.57-1.52-1.59C518.29,1191.68,518.22,1191.68,518.15,1191.69z M478.51,1219.72
		c-0.8,0.08-1.41,0.75-1.41,1.56v28c0,0.86,0.7,1.56,1.56,1.56h10.89c0.86,0,1.56-0.7,1.56-1.56v-4.76
		c2.29,1.69,4.36,3.35,6.83,4.74c3.31,1.86,7.35,3.14,13.39,3.14c6.42,0,13.88-3.47,19.91-6.83c5.97-3.33,10.44-6.6,10.53-6.66
		c0,0,0.05-0.05,0.05-0.05c1.17-0.78,2.09-1.42,2.77-2.38c0.7-0.98,0.97-2.18,0.97-3.52c0-1.17-0.51-2.23-1.22-2.92
		c-0.7-0.68-1.53-1.07-2.31-1.31c-1.56-0.48-3.09-0.44-3.48-0.44c-1.97,0-3.94,0.88-5.61,1.7c-1.01,0.49-1.26,0.66-1.8,0.97
		c-0.8-2.01-2.75-3.45-5.03-3.45h-14.22c-4.41-3.91-11.87-4.58-20.78-4.64v-1.58c0-0.86-0.7-1.56-1.56-1.56h-10.89
		C478.61,1219.71,478.56,1219.71,478.51,1219.72z M480.21,1222.83h7.78v1.43c0,0.04,0,0.08,0,0.12v17.11c0,0.06,0,0.11,0,0.17v6.05
		h-7.78V1222.83z M491.1,1225.99c9.01,0.11,16.1,1.13,19.13,4.16c0.29,0.29,0.68,0.46,1.09,0.46h14.78c1.32,0,2.33,1.01,2.33,2.33
		c0,1.32-1.01,2.33-2.33,2.33h-22.56c-0.86-0.01-1.57,0.67-1.58,1.53s0.67,1.57,1.53,1.58c0.01,0,0.03,0,0.04,0h22.56
		c2.46,0,4.46-1.71,5.13-3.96c0.13-0.04,0.25-0.1,0.36-0.17c0,0,1.18-0.74,2.7-1.48c1.52-0.74,3.44-1.39,4.25-1.39
		c0.39,0,1.59,0.02,2.55,0.32c0.48,0.15,0.87,0.34,1.07,0.53c0.2,0.19,0.27,0.32,0.27,0.7c0,0.99-0.11,1.32-0.39,1.7
		c-0.27,0.38-0.91,0.9-2.04,1.65c-0.02,0.02-0.03,0.03-0.05,0.05c0,0-4.4,3.26-10.23,6.51s-13.15,6.42-18.4,6.42
		c-5.63,0-8.98-1.09-11.89-2.72c-2.7-1.52-5.12-3.66-8.34-5.88V1225.99z"/>
</g>
<g>
	<path class="st6" d="M415.4,251.15h-16.49v-21.09h-56.36v72.85h56.36v-16.49h16.49V251.15z M396.62,300.42h-51.76v-68.06h51.76
		v18.79h-25.88v-16.49h-23.58v21.09h9.39v30.48h40.07V300.42z M356.74,251.15v2.3h-7.09v-16.49h18.79v14.19L356.74,251.15
		L356.74,251.15z M413.1,283.93h-54.06v-30.48h54.06V283.93z"/>
	<path class="st6" d="M386.07,272.24c-0.58,0-1.15-0.58-1.15-1.15h-2.3c0,1.53,0.96,2.88,2.3,3.26v2.49h2.3v-2.49
		c1.34-0.58,2.3-1.73,2.3-3.26c0-1.92-1.53-3.45-3.45-3.45c-0.58,0-1.15-0.58-1.15-1.15s0.58-1.15,1.15-1.15
		c0.58,0,1.15,0.58,1.15,1.15h2.3c0-1.53-0.96-2.88-2.3-3.26v-2.49h-2.3v2.49c-1.34,0.58-2.3,1.73-2.3,3.26
		c0,1.92,1.53,3.45,3.45,3.45c0.58,0,1.15,0.58,1.15,1.15C387.22,271.66,386.65,272.24,386.07,272.24z"/>
	<polygon class="st6" points="363.83,258.05 369.58,258.05 369.58,255.75 361.34,255.75 361.34,264 363.83,264 	"/>
	<polygon class="st6" points="369.58,279.33 363.83,279.33 363.83,273.39 361.34,273.39 361.34,281.63 369.58,281.63 	"/>
	<polygon class="st6" points="408.5,264 410.8,264 410.8,255.75 402.56,255.75 402.56,258.05 408.5,258.05 	"/>
	<polygon class="st6" points="410.8,273.39 408.5,273.39 408.5,279.33 402.56,279.33 402.56,281.63 410.8,281.63 	"/>
	<path class="st6" d="M386.07,281.63c7.09,0,12.84-5.75,12.84-12.84c0-7.09-5.75-12.84-12.84-12.84c-7.09,0-12.84,5.75-12.84,12.84
		C373.23,275.88,378.98,281.63,386.07,281.63z M386.07,258.05c5.75,0,10.54,4.79,10.54,10.54s-4.79,10.54-10.54,10.54
		c-5.75,0-10.54-4.6-10.54-10.35S380.32,258.05,386.07,258.05z"/>
	<rect x="373.23" y="234.66" class="st6" width="21.09" height="2.3"/>
	<rect x="373.23" y="239.26" class="st6" width="21.09" height="2.3"/>
	<rect x="392.01" y="244.06" class="st6" width="2.3" height="2.3"/>
	<rect x="373.23" y="244.06" class="st6" width="16.49" height="2.3"/>
	<rect x="347.35" y="295.82" class="st6" width="42.37" height="2.3"/>
	<rect x="392.01" y="295.82" class="st6" width="2.3" height="2.3"/>
	<rect x="347.35" y="291.03" class="st6" width="46.97" height="2.3"/>
</g>
</svg>
