<?xml version="1.0" encoding="utf-8"?>
<!-- Generator: Adobe Illustrator 23.0.1, SVG Export Plug-In . SVG Version: 6.00 Build 0)  -->
<svg version="1.1" id="Layer_1" xmlns="http://www.w3.org/2000/svg" xmlns:xlink="http://www.w3.org/1999/xlink" x="0px" y="0px"
	 viewBox="0 0 325.1 157.9" style="enable-background:new 0 0 325.1 157.9;" xml:space="preserve">
<style type="text/css">
	.st0{fill:#139FDA;}
	.st1{fill:#FFFFFF;}
	.st2{fill:#E0E061;}
	.st3{fill:#11294B;}
	.st4{opacity:0.22;fill:#139FDA;enable-background:new    ;}
	.st5{opacity:0.22;fill:#00A892;enable-background:new    ;}
	.st6{opacity:0.22;fill:#E0E061;enable-background:new    ;}
	.st7{enable-background:new    ;}
	.st8{fill:#00A892;}
</style>
<rect x="8.6" y="106.3" class="st0" width="100.4" height="34.4"/>
<g>
	<path class="st1" d="M45.7,119.1l-2.4-3.7H45l1.4,2.4l1.4-2.4h1.7l-2.4,3.7v2.7h-1.4L45.7,119.1L45.7,119.1z"/>
	<path class="st1" d="M50,115.4h4.4v1.3h-3v1.2h2.8v1.3h-2.8v1.3h3.1v1.3H50V115.4z"/>
	<path class="st1" d="M57.8,115.4H59l2.8,6.4h-1.6l-0.5-1.4h-2.5l-0.5,1.4H55L57.8,115.4z M58.3,117.3l-0.8,2h1.6L58.3,117.3z"/>
	<path class="st1" d="M62.4,115.4h2.5c0.3,0,0.6,0,0.9,0.1c0.3,0.1,0.6,0.2,0.8,0.3c0.2,0.2,0.4,0.3,0.5,0.6s0.2,0.6,0.2,0.9
		c0,0.4-0.1,0.8-0.3,1.2c-0.2,0.3-0.6,0.5-1,0.6l1.6,2.7h-1.7l-1.3-2.6h-0.7v2.6h-1.4C62.4,121.9,62.4,115.4,62.4,115.4z
		 M63.8,118.1h0.8c0.1,0,0.3,0,0.4,0s0.3,0,0.4-0.1c0.1-0.1,0.2-0.1,0.3-0.2c0.1-0.1,0.1-0.2,0.1-0.4c0-0.2,0-0.3-0.1-0.4
		s-0.2-0.2-0.2-0.2s-0.2-0.1-0.3-0.1c-0.1,0-0.3,0-0.4,0h-0.9L63.8,118.1L63.8,118.1z"/>
	<path class="st1" d="M72.9,117l-1.3,1.1l-0.8-0.9l2.1-1.8h1.3v6.4h-1.3L72.9,117L72.9,117z"/>
</g>
<rect x="219" y="106.3" class="st2" width="100.5" height="34.4"/>
<g>
	<path class="st3" d="M255.7,119.1l-2.4-3.7h1.8l1.4,2.4l1.4-2.4h1.7l-2.4,3.7v2.7h-1.4L255.7,119.1L255.7,119.1z"/>
	<path class="st3" d="M260,115.4h4.4v1.3h-3v1.2h2.8v1.3h-2.8v1.3h3.1v1.3H260L260,115.4L260,115.4z"/>
	<path class="st3" d="M267.8,115.4h1.2l2.8,6.4h-1.6l-0.5-1.4h-2.5l-0.5,1.4H265L267.8,115.4z M268.4,117.3l-0.8,2h1.6L268.4,117.3z
		"/>
	<path class="st3" d="M272.4,115.4h2.5c0.3,0,0.6,0,0.9,0.1c0.3,0.1,0.5,0.2,0.8,0.3s0.4,0.3,0.5,0.6s0.2,0.6,0.2,0.9
		c0,0.4-0.1,0.8-0.4,1.2c-0.2,0.3-0.6,0.5-1,0.6l1.6,2.7h-1.7l-1.3-2.6h-0.7v2.6h-1.4L272.4,115.4L272.4,115.4z M273.8,118.1h0.8
		c0.1,0,0.3,0,0.4,0c0.1,0,0.3,0,0.4-0.1c0.1-0.1,0.2-0.1,0.3-0.2c0.1-0.1,0.1-0.2,0.1-0.4c0-0.2,0-0.3-0.1-0.4s-0.1-0.2-0.2-0.2
		s-0.2-0.1-0.4-0.1c-0.1,0-0.3,0-0.4,0h-0.9L273.8,118.1L273.8,118.1z"/>
	<path class="st3" d="M282.3,118h0.4c0.1,0,0.2,0,0.4,0s0.2-0.1,0.3-0.1c0.1-0.1,0.2-0.1,0.2-0.2c0.1-0.1,0.1-0.2,0.1-0.4
		c0-0.2-0.1-0.3-0.2-0.5c-0.1-0.1-0.3-0.2-0.6-0.2c-0.2,0-0.4,0.1-0.5,0.2c-0.1,0.1-0.2,0.3-0.3,0.4l-1.5-0.3
		c0.1-0.3,0.2-0.5,0.3-0.7c0.1-0.2,0.3-0.3,0.5-0.5c0.2-0.1,0.4-0.2,0.7-0.3c0.2-0.1,0.5-0.1,0.8-0.1c0.3,0,0.6,0,0.8,0.1
		s0.5,0.2,0.7,0.3s0.4,0.3,0.5,0.6c0.1,0.2,0.2,0.5,0.2,0.8c0,0.4-0.1,0.7-0.3,0.9s-0.5,0.4-0.8,0.5v0c0.2,0,0.4,0.1,0.5,0.2
		c0.1,0.1,0.3,0.2,0.4,0.3c0.1,0.1,0.2,0.3,0.2,0.4c0,0.2,0.1,0.3,0.1,0.5c0,0.3-0.1,0.6-0.2,0.8c-0.1,0.2-0.3,0.4-0.5,0.6
		c-0.2,0.2-0.5,0.3-0.7,0.4s-0.6,0.1-0.9,0.1c-0.6,0-1.1-0.1-1.5-0.4c-0.4-0.3-0.7-0.7-0.8-1.3l1.4-0.3c0,0.2,0.1,0.4,0.3,0.5
		s0.4,0.2,0.7,0.2c0.3,0,0.5-0.1,0.7-0.2s0.2-0.3,0.2-0.6c0-0.2,0-0.3-0.1-0.4c-0.1-0.1-0.2-0.2-0.3-0.2c-0.1-0.1-0.3-0.1-0.4-0.1
		c-0.1,0-0.3,0-0.5,0h-0.3L282.3,118L282.3,118z"/>
</g>
<rect x="8.6" y="8" class="st4" width="100.4" height="98.3"/>
<rect x="114.4" y="8" class="st5" width="99.4" height="98.3"/>
<rect x="219" y="8" class="st6" width="100.5" height="98.3"/>
<g>
	<path class="st3" d="M86.8,74.1H59.1c-0.5,0-1,0.4-1,1V87c0,0.6,0.4,1,1,1h27.7c0.6,0,1-0.4,1-1V75.1
		C87.8,74.6,87.4,74.1,86.8,74.1z M85.8,86H60.1v-9.9h25.7L85.8,86L85.8,86z"/>
	<path class="st3" d="M86.8,61.2H73.9v-3.2c1.5-0.5,2.3-2.2,1.8-3.8c-0.3-0.8-1-1.5-1.8-1.8v-4.1h10.9c0.6,0,1-0.4,1-1v-7.9
		c0,0,0-0.1,0-0.2s0-0.1,0-0.1c0,0,0-0.1-0.1-0.1c0,0-0.1-0.1-0.1-0.1s-0.1-0.1-0.1-0.1c0,0-0.1-0.1-0.1-0.1s-0.1,0-0.1-0.1
		c0,0-0.1,0-0.1-0.1c-0.1,0-0.1,0-0.1,0c0,0-0.2,0-0.2,0H77l-35.5-9.9c-0.1,0-0.2,0-0.2,0h0c0,0,0,0,0,0c-0.1,0-0.1,0-0.2,0
		c0,0-0.1,0-0.1,0c0,0-0.1,0-0.2,0.1c0,0-0.1,0-0.1,0c0,0,0,0,0,0l-11.9,9.9c0,0-0.1,0.1-0.2,0.2c0,0-0.1,0.1-0.1,0.2
		c0,0.1-0.1,0.2-0.1,0.4c0,0,0,0,0,0v7.9c0,0,0,0,0,0c0,0,0,0.1,0,0.2c0,0,0,0.1,0,0.1c0,0,0,0,0,0c0,0,0,0,0,0.1c0,0,0,0.1,0.1,0.1
		s0.1,0.1,0.1,0.1c0,0,0.1,0.1,0.1,0.1s0.1,0,0.1,0.1c0,0,0,0,0.1,0c0,0,0,0,0,0c0.1,0,0.2,0.1,0.3,0.1h6.9V87c0,0,0,0,0,0.1
		c0,0.1,0,0.1,0,0.2c0,0.1,0,0.1,0,0.1c0,0,0,0,0,0.1s0,0.1,0,0.1c0,0,0,0.1,0.1,0.1c0,0,0.1,0.1,0.1,0.1c0,0,0.1,0.1,0.1,0.1
		s0.1,0.1,0.1,0.1c0,0,0,0,0.1,0.1c0,0,0,0,0,0c0.1,0,0.2,0.1,0.3,0.1h7.9c0.5,0,1-0.4,1-1V64.2h5c0.5,0,1-0.4,1-1V48.4H72v4.1
		c-1.5,0.5-2.3,2.2-1.8,3.8c0.3,0.8,1,1.5,1.8,1.8v3.2H59.1c-0.5,0-1,0.4-1,1v4c0,0.6,0.4,1,1,1h27.7c0.6,0,1-0.4,1-1v-4
		C87.8,61.7,87.4,61.2,86.8,61.2z M47.6,46.4l4.5-4.5v4.5H47.6z M39.7,46.4l4.5-4.5v4.5H39.7z M69,38.5H45.9l-3-7.4l26.7,7.4H69z
		 M38.3,40.4h4.5L38.3,45V40.4z M38.8,38.5l2.5-6.2l2.5,6.2H38.8z M46.2,40.4h4.5L46.2,45V40.4z M36.6,38.5h-4.5l6.8-5.6L36.6,38.5z
		 M30.4,40.4h4.5L30.4,45C30.4,45,30.4,40.4,30.4,40.4z M54.1,40.4h4.5L54.1,45V40.4z M62.1,40.4h4.5L62.1,45
		C62.1,45,62.1,40.4,62.1,40.4z M70,40.4h4.5L70,45V40.4z M83.8,46.4h-4.5l4.5-4.5V46.4z M77.9,45v-4.5h4.5L77.9,45z M36.3,41.8v4.5
		h-4.5L36.3,41.8z M44.2,78.1h-4.5l4.5-4.5V78.1z M38.3,76.7v-4.5h4.5L38.3,76.7z M38.3,80h4.5l-4.5,4.5V80z M44.2,70.1h-4.5
		l4.5-4.5V70.1z M38.3,68.7v-4.5h4.5L38.3,68.7z M44.2,86h-4.5l4.5-4.5V86z M50.2,60.2v2h-5h-6.9V48.4h2v10.9c0,0.1,0,0.3,0.1,0.4
		c0.1,0.2,0.3,0.4,0.5,0.5c0.1,0,0.2,0.1,0.4,0.1 M42.3,56.9v-8.5h7.9v9.9h-2.6h-5.4V56.9z M60.1,41.8v4.5h-4.5L60.1,41.8z M68,41.8
		v4.5h-4.5L68,41.8z M75.9,41.8v4.5h-4.5L75.9,41.8z M73,54.3c0.6,0,1,0.4,1,1c0,0.5-0.4,1-1,1c-0.6,0-1-0.4-1-1
		C72,54.7,72.4,54.3,73,54.3z M85.8,65.2H60.1v-2h25.7L85.8,65.2L85.8,65.2z"/>
	<path class="st3" d="M63,84h4c0.6,0,1-0.4,1-1v-4c0-0.6-0.4-1-1-1h-4c-0.5,0-1,0.4-1,1v4C62.1,83.6,62.5,84,63,84z M64.1,80h2v2h-2
		V80z"/>
	<path class="st3" d="M71,84h4c0.6,0,1-0.4,1-1v-4c0-0.6-0.4-1-1-1h-4c-0.6,0-1,0.4-1,1v4C70,83.6,70.4,84,71,84z M72,80h2v2h-2V80z
		"/>
	<path class="st3" d="M78.9,84h4c0.6,0,1-0.4,1-1v-4c0-0.6-0.4-1-1-1h-4c-0.6,0-1,0.4-1,1v4C77.9,83.6,78.3,84,78.9,84z M79.9,80h2
		v2h-2V80z"/>
</g>
<g transform="translate(0,-952.36218)">
	<path class="st3" d="M275.5,987.6c-6.8,0-12.3,5.5-12.3,12.3c0,6.8,5.5,12.3,12.3,12.3s12.3-5.5,12.3-12.3S282.2,987.6,275.5,987.6
		z M275.5,990c5.5,0,10,4.5,10,10c0,5.5-4.5,10-10,10s-10-4.5-10-10C265.5,994.4,269.9,990,275.5,990z M245.4,1013.5
		c-0.6,0.1-1.1,0.6-1.1,1.2v21.2c0,0.7,0.5,1.2,1.2,1.2h8.2c0.6,0,1.2-0.5,1.2-1.2v-3.6c1.7,1.3,3.3,2.5,5.2,3.6
		c2.5,1.4,5.5,2.4,10.1,2.4c4.9,0,10.5-2.6,15-5.2c4.5-2.5,7.9-5,8-5l0,0c0.9-0.6,1.6-1.1,2.1-1.8c0.5-0.7,0.7-1.7,0.7-2.7
		c0-0.9-0.4-1.7-0.9-2.2s-1.1-0.8-1.7-1c-1.2-0.4-2.3-0.3-2.6-0.3c-1.5,0-3,0.7-4.2,1.3c-0.8,0.4-1,0.5-1.4,0.7
		c-0.6-1.5-2.1-2.6-3.8-2.6h-10.7c-3.3-3-9-3.5-15.7-3.5v-1.2c0-0.7-0.5-1.2-1.2-1.2h-8.2C245.4,1013.5,245.4,1013.5,245.4,1013.5z
		 M246.6,1015.8h5.9v1.1c0,0,0,0.1,0,0.1v12.9c0,0,0,0.1,0,0.1v4.6h-5.9V1015.8z M254.9,1018.2c6.8,0.1,12.2,0.8,14.5,3.1
		c0.2,0.2,0.5,0.3,0.8,0.3h11.2c1,0,1.8,0.8,1.8,1.8c0,1-0.8,1.8-1.8,1.8h-17c-0.6,0-1.2,0.5-1.2,1.2s0.5,1.2,1.2,1.2c0,0,0,0,0,0
		h17c1.9,0,3.4-1.3,3.9-3c0.1,0,0.2-0.1,0.3-0.1c0,0,0.9-0.6,2-1.1s2.6-1,3.2-1c0.3,0,1.2,0,1.9,0.2c0.4,0.1,0.7,0.3,0.8,0.4
		s0.2,0.2,0.2,0.5c0,0.7-0.1,1-0.3,1.3s-0.7,0.7-1.5,1.2c0,0,0,0,0,0c0,0-3.3,2.5-7.7,4.9s-9.9,4.8-13.9,4.8c-4.2,0-6.8-0.8-9-2.1
		c-2-1.2-3.9-2.8-6.3-4.4L254.9,1018.2L254.9,1018.2z"/>
</g>
<g class="st7">
	<path class="st1" d="M40.1,128.5c-0.2-0.2-0.4-0.4-0.6-0.5s-0.5-0.2-0.8-0.2c-0.3,0-0.6,0.1-0.9,0.2s-0.5,0.3-0.7,0.5
		c-0.2,0.2-0.3,0.5-0.4,0.7c-0.1,0.3-0.2,0.6-0.2,0.9c0,0.3,0,0.6,0.1,0.8c0.1,0.3,0.2,0.5,0.4,0.7c0.2,0.2,0.4,0.4,0.7,0.5
		c0.3,0.1,0.6,0.2,0.9,0.2c0.3,0,0.6-0.1,0.9-0.2c0.2-0.1,0.5-0.3,0.6-0.6l0.6,0.5c0,0.1-0.1,0.1-0.2,0.3s-0.2,0.2-0.4,0.3
		s-0.4,0.2-0.6,0.3c-0.2,0.1-0.5,0.1-0.9,0.1c-0.4,0-0.9-0.1-1.2-0.3c-0.4-0.2-0.7-0.4-0.9-0.7s-0.4-0.6-0.6-0.9
		c-0.1-0.3-0.2-0.7-0.2-1.1c0-0.4,0.1-0.8,0.2-1.2c0.1-0.4,0.3-0.7,0.6-1s0.6-0.5,0.9-0.6c0.4-0.1,0.8-0.2,1.2-0.2
		c0.4,0,0.7,0.1,1.1,0.2c0.4,0.1,0.7,0.4,0.9,0.7L40.1,128.5z"/>
	<path class="st1" d="M41.4,131c0-0.3,0.1-0.5,0.2-0.8c0.1-0.2,0.2-0.5,0.4-0.6c0.2-0.2,0.4-0.3,0.6-0.4c0.2-0.1,0.5-0.2,0.8-0.2
		c0.3,0,0.5,0.1,0.8,0.2c0.2,0.1,0.5,0.2,0.6,0.4c0.2,0.2,0.3,0.4,0.4,0.6c0.1,0.2,0.2,0.5,0.2,0.8c0,0.3-0.1,0.5-0.2,0.8
		c-0.1,0.2-0.2,0.5-0.4,0.6c-0.2,0.2-0.4,0.3-0.6,0.4c-0.2,0.1-0.5,0.2-0.8,0.2c-0.3,0-0.5-0.1-0.8-0.2c-0.2-0.1-0.5-0.2-0.6-0.4
		s-0.3-0.4-0.4-0.6C41.5,131.5,41.4,131.3,41.4,131z M42.2,131c0,0.2,0,0.4,0.1,0.5c0.1,0.2,0.1,0.3,0.2,0.4
		c0.1,0.1,0.2,0.2,0.4,0.3c0.2,0.1,0.3,0.1,0.5,0.1c0.2,0,0.4,0,0.5-0.1c0.2-0.1,0.3-0.2,0.4-0.3c0.1-0.1,0.2-0.3,0.2-0.4
		c0.1-0.2,0.1-0.3,0.1-0.5c0-0.2,0-0.4-0.1-0.5c-0.1-0.2-0.1-0.3-0.2-0.4c-0.1-0.1-0.2-0.2-0.4-0.3c-0.2-0.1-0.3-0.1-0.5-0.1
		c-0.2,0-0.4,0-0.5,0.1c-0.2,0.1-0.3,0.2-0.4,0.3c-0.1,0.1-0.2,0.3-0.2,0.4C42.2,130.6,42.2,130.8,42.2,131z"/>
	<path class="st1" d="M46.3,129.1h0.7v0.6h0c0.1-0.2,0.2-0.4,0.5-0.5c0.2-0.1,0.5-0.2,0.8-0.2c0.2,0,0.4,0,0.5,0.1
		c0.2,0.1,0.3,0.1,0.4,0.3s0.2,0.3,0.3,0.5c0.1,0.2,0.1,0.4,0.1,0.7v2.4H49v-2.2c0-0.2,0-0.3-0.1-0.5c0-0.1-0.1-0.2-0.2-0.3
		s-0.2-0.1-0.3-0.2c-0.1,0-0.2-0.1-0.3-0.1c-0.1,0-0.3,0-0.4,0.1c-0.1,0-0.2,0.1-0.3,0.2c-0.1,0.1-0.2,0.2-0.2,0.4
		c-0.1,0.2-0.1,0.3-0.1,0.6v2h-0.7V129.1z"/>
	<path class="st1" d="M52.8,130.1c-0.1-0.1-0.2-0.2-0.3-0.3c-0.1-0.1-0.3-0.1-0.5-0.1c-0.2,0-0.3,0-0.4,0.1
		c-0.1,0.1-0.2,0.2-0.2,0.3c0,0.1,0,0.2,0.1,0.3c0.1,0.1,0.2,0.1,0.3,0.2c0.1,0,0.2,0.1,0.3,0.1c0.1,0,0.2,0,0.3,0.1
		c0.2,0,0.3,0.1,0.4,0.1c0.1,0.1,0.3,0.1,0.4,0.2c0.1,0.1,0.2,0.2,0.2,0.3c0.1,0.1,0.1,0.3,0.1,0.4c0,0.2,0,0.4-0.1,0.5
		c-0.1,0.2-0.2,0.3-0.4,0.4c-0.1,0.1-0.3,0.2-0.5,0.2c-0.2,0-0.4,0.1-0.6,0.1c-0.3,0-0.6,0-0.8-0.1s-0.4-0.3-0.6-0.5l0.5-0.4
		c0.1,0.1,0.2,0.2,0.4,0.3c0.1,0.1,0.3,0.1,0.5,0.1c0.1,0,0.2,0,0.3,0c0.1,0,0.2,0,0.2-0.1c0.1,0,0.1-0.1,0.2-0.2
		c0-0.1,0.1-0.1,0.1-0.2c0-0.1,0-0.2-0.1-0.3c-0.1-0.1-0.1-0.1-0.2-0.2s-0.2-0.1-0.3-0.1c-0.1,0-0.2,0-0.3-0.1
		c-0.2,0-0.3-0.1-0.4-0.1c-0.1,0-0.3-0.1-0.4-0.2s-0.2-0.2-0.3-0.3c-0.1-0.1-0.1-0.3-0.1-0.5c0-0.2,0-0.4,0.1-0.5
		c0.1-0.1,0.2-0.3,0.3-0.4c0.1-0.1,0.3-0.2,0.5-0.2c0.2,0,0.3-0.1,0.5-0.1c0.3,0,0.5,0,0.7,0.1c0.2,0.1,0.4,0.3,0.6,0.5L52.8,130.1z
		"/>
	<path class="st1" d="M56.4,129.7h-1v1.7c0,0.1,0,0.2,0,0.3c0,0.1,0,0.2,0.1,0.3c0,0.1,0.1,0.1,0.2,0.2c0.1,0.1,0.2,0.1,0.3,0.1
		c0.1,0,0.2,0,0.3,0c0.1,0,0.2,0,0.2-0.1v0.7c-0.1,0-0.2,0.1-0.3,0.1c-0.1,0-0.2,0-0.3,0c-0.3,0-0.5,0-0.6-0.1
		c-0.2-0.1-0.3-0.2-0.3-0.3c-0.1-0.1-0.1-0.3-0.1-0.4c0-0.2,0-0.3,0-0.5v-2h-0.8v-0.6h0.8V128h0.7v1.1h1V129.7z"/>
	<path class="st1" d="M57.3,129.1H58v0.6h0c0-0.1,0.1-0.2,0.2-0.3c0.1-0.1,0.2-0.2,0.3-0.2s0.2-0.1,0.3-0.1s0.2-0.1,0.4-0.1
		s0.2,0,0.3,0l0,0.8c-0.1,0-0.1,0-0.2,0s-0.1,0-0.2,0c-0.4,0-0.6,0.1-0.8,0.3S58,130.6,58,131v1.9h-0.7V129.1z"/>
	<path class="st1" d="M63.6,132.9h-0.7v-0.6h0c-0.1,0.2-0.2,0.4-0.5,0.5s-0.5,0.2-0.8,0.2c-0.2,0-0.4,0-0.5-0.1
		c-0.2-0.1-0.3-0.1-0.4-0.3s-0.2-0.3-0.3-0.5c-0.1-0.2-0.1-0.4-0.1-0.7v-2.4H61v2.2c0,0.2,0,0.3,0.1,0.5c0,0.1,0.1,0.2,0.2,0.3
		s0.2,0.1,0.3,0.2c0.1,0,0.2,0.1,0.3,0.1c0.1,0,0.3,0,0.4-0.1c0.1,0,0.2-0.1,0.3-0.2c0.1-0.1,0.2-0.2,0.2-0.4
		c0.1-0.2,0.1-0.3,0.1-0.6v-2h0.7V132.9z"/>
	<path class="st1" d="M67.4,130.1c-0.1-0.1-0.3-0.2-0.4-0.3c-0.1-0.1-0.3-0.1-0.5-0.1c-0.2,0-0.4,0-0.5,0.1
		c-0.1,0.1-0.3,0.2-0.4,0.3c-0.1,0.1-0.2,0.3-0.2,0.4c-0.1,0.2-0.1,0.3-0.1,0.5s0,0.3,0.1,0.5s0.1,0.3,0.2,0.4
		c0.1,0.1,0.2,0.2,0.4,0.3c0.1,0.1,0.3,0.1,0.5,0.1c0.2,0,0.4,0,0.5-0.1c0.1-0.1,0.3-0.2,0.4-0.3l0.5,0.5c-0.2,0.2-0.4,0.4-0.7,0.4
		s-0.5,0.1-0.8,0.1c-0.3,0-0.6,0-0.8-0.1c-0.2-0.1-0.5-0.2-0.6-0.4c-0.2-0.2-0.3-0.4-0.4-0.6c-0.1-0.2-0.1-0.5-0.1-0.8
		s0-0.6,0.1-0.8c0.1-0.2,0.2-0.5,0.4-0.6c0.2-0.2,0.4-0.3,0.6-0.4c0.2-0.1,0.5-0.1,0.8-0.1c0.3,0,0.5,0,0.8,0.1
		c0.3,0.1,0.5,0.2,0.7,0.5L67.4,130.1z"/>
	<path class="st1" d="M70.6,129.7h-1v1.7c0,0.1,0,0.2,0,0.3c0,0.1,0,0.2,0.1,0.3c0,0.1,0.1,0.1,0.2,0.2c0.1,0.1,0.2,0.1,0.3,0.1
		c0.1,0,0.2,0,0.3,0c0.1,0,0.2,0,0.2-0.1v0.7c-0.1,0-0.2,0.1-0.3,0.1c-0.1,0-0.2,0-0.3,0c-0.3,0-0.5,0-0.6-0.1
		c-0.2-0.1-0.3-0.2-0.3-0.3c-0.1-0.1-0.1-0.3-0.1-0.4c0-0.2,0-0.3,0-0.5v-2H68v-0.6h0.8V128h0.7v1.1h1V129.7z"/>
	<path class="st1" d="M71.4,127.7c0-0.1,0.1-0.3,0.2-0.4c0.1-0.1,0.2-0.2,0.4-0.2c0.1,0,0.3,0.1,0.4,0.2c0.1,0.1,0.2,0.2,0.2,0.4
		c0,0.1-0.1,0.3-0.2,0.4c-0.1,0.1-0.2,0.2-0.4,0.2c-0.1,0-0.3-0.1-0.4-0.2C71.5,128,71.4,127.9,71.4,127.7z M71.6,129.1h0.7v3.8
		h-0.7V129.1z"/>
	<path class="st1" d="M73.3,131c0-0.3,0.1-0.5,0.2-0.8c0.1-0.2,0.2-0.5,0.4-0.6c0.2-0.2,0.4-0.3,0.6-0.4c0.2-0.1,0.5-0.2,0.8-0.2
		c0.3,0,0.5,0.1,0.8,0.2c0.2,0.1,0.5,0.2,0.6,0.4c0.2,0.2,0.3,0.4,0.4,0.6c0.1,0.2,0.2,0.5,0.2,0.8c0,0.3-0.1,0.5-0.2,0.8
		c-0.1,0.2-0.2,0.5-0.4,0.6c-0.2,0.2-0.4,0.3-0.6,0.4c-0.2,0.1-0.5,0.2-0.8,0.2c-0.3,0-0.5-0.1-0.8-0.2c-0.2-0.1-0.5-0.2-0.6-0.4
		s-0.3-0.4-0.4-0.6C73.3,131.5,73.3,131.3,73.3,131z M74,131c0,0.2,0,0.4,0.1,0.5c0.1,0.2,0.1,0.3,0.2,0.4c0.1,0.1,0.2,0.2,0.4,0.3
		c0.2,0.1,0.3,0.1,0.5,0.1c0.2,0,0.4,0,0.5-0.1c0.2-0.1,0.3-0.2,0.4-0.3c0.1-0.1,0.2-0.3,0.2-0.4c0.1-0.2,0.1-0.3,0.1-0.5
		c0-0.2,0-0.4-0.1-0.5c-0.1-0.2-0.1-0.3-0.2-0.4c-0.1-0.1-0.2-0.2-0.4-0.3c-0.2-0.1-0.3-0.1-0.5-0.1c-0.2,0-0.4,0-0.5,0.1
		c-0.2,0.1-0.3,0.2-0.4,0.3c-0.1,0.1-0.2,0.3-0.2,0.4C74.1,130.6,74,130.8,74,131z"/>
	<path class="st1" d="M78.2,129.1h0.7v0.6h0c0.1-0.2,0.2-0.4,0.5-0.5c0.2-0.1,0.5-0.2,0.8-0.2c0.2,0,0.4,0,0.5,0.1
		c0.2,0.1,0.3,0.1,0.4,0.3s0.2,0.3,0.3,0.5c0.1,0.2,0.1,0.4,0.1,0.7v2.4h-0.7v-2.2c0-0.2,0-0.3-0.1-0.5c0-0.1-0.1-0.2-0.2-0.3
		s-0.2-0.1-0.3-0.2c-0.1,0-0.2-0.1-0.3-0.1c-0.1,0-0.3,0-0.4,0.1c-0.1,0-0.2,0.1-0.3,0.2c-0.1,0.1-0.2,0.2-0.2,0.4
		c-0.1,0.2-0.1,0.3-0.1,0.6v2h-0.7V129.1z"/>
</g>
<g class="st7">
	<path class="st3" d="M228.7,127.9h1.7c0.2,0,0.4,0,0.6,0.1s0.3,0.1,0.5,0.2c0.1,0.1,0.2,0.2,0.3,0.4s0.1,0.3,0.1,0.5
		c0,0.3-0.1,0.5-0.2,0.7c-0.2,0.2-0.4,0.3-0.6,0.4v0c0.1,0,0.3,0,0.4,0.1c0.1,0.1,0.2,0.2,0.3,0.3s0.2,0.2,0.2,0.4
		c0.1,0.1,0.1,0.3,0.1,0.5c0,0.2,0,0.4-0.1,0.6c-0.1,0.2-0.2,0.3-0.4,0.4c-0.2,0.1-0.3,0.2-0.6,0.3s-0.4,0.1-0.7,0.1h-1.7V127.9z
		 M229.3,130h0.9c0.1,0,0.2,0,0.4,0c0.1,0,0.2-0.1,0.3-0.1c0.1-0.1,0.2-0.1,0.2-0.2s0.1-0.2,0.1-0.3c0-0.2-0.1-0.4-0.2-0.5
		c-0.1-0.1-0.3-0.2-0.6-0.2h-1.1V130z M229.3,132.3h1c0.1,0,0.2,0,0.3,0c0.1,0,0.2-0.1,0.3-0.1c0.1-0.1,0.2-0.1,0.3-0.3
		c0.1-0.1,0.1-0.2,0.1-0.4c0-0.3-0.1-0.5-0.3-0.7c-0.2-0.1-0.5-0.2-0.8-0.2h-1V132.3z"/>
	<path class="st3" d="M233.1,127.9h0.7v5h-0.7V127.9z"/>
	<path class="st3" d="M234.6,132.3l2.8-3.7h-2.7v-0.6h3.6v0.6l-2.8,3.7h2.8v0.6h-3.7V132.3z"/>
	<path class="st3" d="M242.7,127.9h0.6l2.1,5h-0.8l-0.5-1.2h-2.4l-0.5,1.2h-0.8L242.7,127.9z M243.9,131.1l-0.9-2.3h0l-0.9,2.3
		H243.9z"/>
	<path class="st3" d="M247.6,130.4c-0.1-0.1-0.2-0.2-0.3-0.2c-0.1-0.1-0.2-0.1-0.4-0.1c-0.1,0-0.3,0-0.4,0.1
		c-0.1,0.1-0.2,0.2-0.2,0.3c0,0.1,0,0.2,0.1,0.2c0.1,0.1,0.1,0.1,0.2,0.1c0.1,0,0.2,0.1,0.3,0.1c0.1,0,0.2,0,0.3,0
		c0.1,0,0.3,0.1,0.4,0.1c0.1,0,0.2,0.1,0.3,0.2c0.1,0.1,0.2,0.2,0.2,0.3s0.1,0.2,0.1,0.4c0,0.2,0,0.3-0.1,0.5
		c-0.1,0.1-0.2,0.2-0.3,0.3s-0.3,0.1-0.4,0.2c-0.2,0-0.3,0.1-0.5,0.1c-0.3,0-0.5,0-0.7-0.1c-0.2-0.1-0.4-0.2-0.6-0.5l0.5-0.4
		c0.1,0.1,0.2,0.2,0.3,0.3s0.3,0.1,0.5,0.1c0.1,0,0.2,0,0.2,0c0.1,0,0.2,0,0.2-0.1c0.1,0,0.1-0.1,0.2-0.1c0-0.1,0.1-0.1,0.1-0.2
		c0-0.1,0-0.2-0.1-0.2c-0.1-0.1-0.1-0.1-0.2-0.1c-0.1,0-0.2-0.1-0.3-0.1c-0.1,0-0.2,0-0.2-0.1c-0.1,0-0.3-0.1-0.4-0.1
		s-0.2-0.1-0.3-0.2c-0.1-0.1-0.2-0.2-0.2-0.3c-0.1-0.1-0.1-0.2-0.1-0.4c0-0.2,0-0.3,0.1-0.5c0.1-0.1,0.2-0.2,0.3-0.3
		s0.3-0.1,0.4-0.2c0.2,0,0.3-0.1,0.5-0.1c0.2,0,0.4,0,0.6,0.1c0.2,0.1,0.4,0.2,0.5,0.4L247.6,130.4z"/>
	<path class="st3" d="M250.7,130.4c-0.1-0.1-0.2-0.2-0.3-0.2c-0.1-0.1-0.2-0.1-0.4-0.1c-0.1,0-0.3,0-0.4,0.1
		c-0.1,0.1-0.2,0.2-0.2,0.3c0,0.1,0,0.2,0.1,0.2c0.1,0.1,0.1,0.1,0.2,0.1c0.1,0,0.2,0.1,0.3,0.1c0.1,0,0.2,0,0.3,0
		c0.1,0,0.3,0.1,0.4,0.1c0.1,0,0.2,0.1,0.3,0.2c0.1,0.1,0.2,0.2,0.2,0.3s0.1,0.2,0.1,0.4c0,0.2,0,0.3-0.1,0.5s-0.2,0.2-0.3,0.3
		s-0.3,0.1-0.4,0.2c-0.2,0-0.3,0.1-0.5,0.1c-0.3,0-0.5,0-0.7-0.1c-0.2-0.1-0.4-0.2-0.6-0.5l0.5-0.4c0.1,0.1,0.2,0.2,0.3,0.3
		s0.3,0.1,0.5,0.1c0.1,0,0.2,0,0.2,0s0.2,0,0.2-0.1c0.1,0,0.1-0.1,0.2-0.1c0-0.1,0.1-0.1,0.1-0.2c0-0.1,0-0.2-0.1-0.2
		s-0.1-0.1-0.2-0.1c-0.1,0-0.2-0.1-0.3-0.1c-0.1,0-0.2,0-0.2-0.1c-0.1,0-0.3-0.1-0.4-0.1c-0.1,0-0.2-0.1-0.3-0.2
		c-0.1-0.1-0.2-0.2-0.2-0.3c-0.1-0.1-0.1-0.2-0.1-0.4c0-0.2,0-0.3,0.1-0.5c0.1-0.1,0.2-0.2,0.3-0.3s0.3-0.1,0.4-0.2s0.3-0.1,0.5-0.1
		c0.2,0,0.4,0,0.6,0.1s0.4,0.2,0.5,0.4L250.7,130.4z"/>
	<path class="st3" d="M252.6,131.5c0,0.1,0,0.3,0.1,0.4c0.1,0.1,0.1,0.2,0.2,0.3s0.2,0.1,0.4,0.2c0.1,0,0.3,0.1,0.4,0.1
		c0.2,0,0.4,0,0.5-0.1s0.3-0.2,0.4-0.4l0.5,0.4c-0.4,0.5-0.8,0.7-1.5,0.7c-0.3,0-0.5,0-0.7-0.1c-0.2-0.1-0.4-0.2-0.5-0.4
		c-0.1-0.2-0.3-0.3-0.3-0.6c-0.1-0.2-0.1-0.4-0.1-0.7c0-0.2,0-0.5,0.1-0.7c0.1-0.2,0.2-0.4,0.4-0.6c0.2-0.2,0.3-0.3,0.5-0.4
		c0.2-0.1,0.4-0.1,0.7-0.1c0.3,0,0.5,0.1,0.7,0.2s0.4,0.2,0.5,0.4c0.1,0.2,0.2,0.4,0.3,0.6c0.1,0.2,0.1,0.4,0.1,0.6v0.2H252.6z
		 M254.6,131c0-0.1,0-0.3-0.1-0.4c0-0.1-0.1-0.2-0.2-0.3c-0.1-0.1-0.2-0.2-0.3-0.2s-0.3-0.1-0.4-0.1c-0.2,0-0.3,0-0.4,0.1
		c-0.1,0.1-0.2,0.1-0.3,0.2s-0.2,0.2-0.2,0.3s-0.1,0.2-0.1,0.3H254.6z"/>
	<path class="st3" d="M257.7,130.4c-0.1-0.1-0.2-0.2-0.3-0.2c-0.1-0.1-0.2-0.1-0.4-0.1c-0.1,0-0.3,0-0.4,0.1
		c-0.1,0.1-0.2,0.2-0.2,0.3c0,0.1,0,0.2,0.1,0.2c0.1,0.1,0.1,0.1,0.2,0.1c0.1,0,0.2,0.1,0.3,0.1c0.1,0,0.2,0,0.3,0
		c0.1,0,0.3,0.1,0.4,0.1c0.1,0,0.2,0.1,0.3,0.2c0.1,0.1,0.2,0.2,0.2,0.3s0.1,0.2,0.1,0.4c0,0.2,0,0.3-0.1,0.5s-0.2,0.2-0.3,0.3
		s-0.3,0.1-0.4,0.2c-0.2,0-0.3,0.1-0.5,0.1c-0.3,0-0.5,0-0.7-0.1c-0.2-0.1-0.4-0.2-0.6-0.5l0.5-0.4c0.1,0.1,0.2,0.2,0.3,0.3
		s0.3,0.1,0.5,0.1c0.1,0,0.2,0,0.2,0s0.2,0,0.2-0.1c0.1,0,0.1-0.1,0.2-0.1c0-0.1,0.1-0.1,0.1-0.2c0-0.1,0-0.2-0.1-0.2
		s-0.1-0.1-0.2-0.1c-0.1,0-0.2-0.1-0.3-0.1c-0.1,0-0.2,0-0.2-0.1c-0.1,0-0.3-0.1-0.4-0.1c-0.1,0-0.2-0.1-0.3-0.2
		c-0.1-0.1-0.2-0.2-0.2-0.3c-0.1-0.1-0.1-0.2-0.1-0.4c0-0.2,0-0.3,0.1-0.5c0.1-0.1,0.2-0.2,0.3-0.3s0.3-0.1,0.4-0.2s0.3-0.1,0.5-0.1
		c0.2,0,0.4,0,0.6,0.1s0.4,0.2,0.5,0.4L257.7,130.4z"/>
	<path class="st3" d="M260.9,130.4c-0.1-0.1-0.2-0.2-0.3-0.2c-0.1-0.1-0.2-0.1-0.4-0.1c-0.1,0-0.3,0-0.4,0.1
		c-0.1,0.1-0.2,0.2-0.2,0.3c0,0.1,0,0.2,0.1,0.2c0.1,0.1,0.1,0.1,0.2,0.1c0.1,0,0.2,0.1,0.3,0.1c0.1,0,0.2,0,0.3,0
		c0.1,0,0.3,0.1,0.4,0.1c0.1,0,0.2,0.1,0.3,0.2c0.1,0.1,0.2,0.2,0.2,0.3s0.1,0.2,0.1,0.4c0,0.2,0,0.3-0.1,0.5
		c-0.1,0.1-0.2,0.2-0.3,0.3s-0.3,0.1-0.4,0.2c-0.2,0-0.3,0.1-0.5,0.1c-0.3,0-0.5,0-0.7-0.1c-0.2-0.1-0.4-0.2-0.6-0.5l0.5-0.4
		c0.1,0.1,0.2,0.2,0.3,0.3s0.3,0.1,0.5,0.1c0.1,0,0.2,0,0.2,0c0.1,0,0.2,0,0.2-0.1c0.1,0,0.1-0.1,0.2-0.1c0-0.1,0.1-0.1,0.1-0.2
		c0-0.1,0-0.2-0.1-0.2c-0.1-0.1-0.1-0.1-0.2-0.1c-0.1,0-0.2-0.1-0.3-0.1c-0.1,0-0.2,0-0.2-0.1c-0.1,0-0.3-0.1-0.4-0.1
		s-0.2-0.1-0.3-0.2c-0.1-0.1-0.2-0.2-0.2-0.3c-0.1-0.1-0.1-0.2-0.1-0.4c0-0.2,0-0.3,0.1-0.5c0.1-0.1,0.2-0.2,0.3-0.3
		s0.3-0.1,0.4-0.2c0.2,0,0.3-0.1,0.5-0.1c0.2,0,0.4,0,0.6,0.1c0.2,0.1,0.4,0.2,0.5,0.4L260.9,130.4z"/>
	<path class="st3" d="M262.2,129.6h0.6v0.5h0c0,0,0-0.1,0.1-0.2c0.1-0.1,0.1-0.1,0.2-0.2c0.1-0.1,0.2-0.1,0.3-0.2
		c0.1,0,0.3-0.1,0.4-0.1c0.2,0,0.5,0.1,0.6,0.2s0.3,0.3,0.4,0.5c0.1-0.2,0.3-0.4,0.5-0.5c0.2-0.1,0.4-0.2,0.6-0.2
		c0.3,0,0.5,0,0.6,0.1s0.3,0.2,0.4,0.3s0.2,0.3,0.2,0.5s0.1,0.4,0.1,0.5v1.9h-0.6V131c0-0.1,0-0.2,0-0.4c0-0.1-0.1-0.2-0.1-0.3
		c-0.1-0.1-0.1-0.2-0.2-0.2c-0.1-0.1-0.2-0.1-0.4-0.1c-0.3,0-0.5,0.1-0.7,0.3s-0.2,0.4-0.2,0.7v1.8h-0.6v-1.7c0-0.2,0-0.3,0-0.4
		s0-0.2-0.1-0.3s-0.1-0.2-0.2-0.2s-0.2-0.1-0.4-0.1c-0.1,0-0.2,0-0.3,0.1c-0.1,0-0.2,0.1-0.3,0.2s-0.1,0.2-0.2,0.3
		c0,0.1-0.1,0.3-0.1,0.5v1.7h-0.6V129.6z"/>
	<path class="st3" d="M268.6,131.5c0,0.1,0,0.3,0.1,0.4c0.1,0.1,0.1,0.2,0.2,0.3s0.2,0.1,0.4,0.2c0.1,0,0.3,0.1,0.4,0.1
		c0.2,0,0.4,0,0.5-0.1s0.3-0.2,0.4-0.4l0.5,0.4c-0.3,0.5-0.8,0.7-1.5,0.7c-0.3,0-0.5,0-0.7-0.1c-0.2-0.1-0.4-0.2-0.5-0.4
		c-0.1-0.2-0.3-0.3-0.3-0.6c-0.1-0.2-0.1-0.4-0.1-0.7c0-0.2,0-0.5,0.1-0.7c0.1-0.2,0.2-0.4,0.4-0.6s0.3-0.3,0.5-0.4
		c0.2-0.1,0.4-0.1,0.7-0.1c0.3,0,0.5,0.1,0.7,0.2c0.2,0.1,0.4,0.2,0.5,0.4c0.1,0.2,0.2,0.4,0.3,0.6c0.1,0.2,0.1,0.4,0.1,0.6v0.2
		H268.6z M270.6,131c0-0.1,0-0.3-0.1-0.4c0-0.1-0.1-0.2-0.2-0.3c-0.1-0.1-0.2-0.2-0.3-0.2s-0.3-0.1-0.4-0.1c-0.2,0-0.3,0-0.4,0.1
		c-0.1,0.1-0.2,0.1-0.3,0.2s-0.2,0.2-0.2,0.3c0,0.1-0.1,0.2-0.1,0.3H270.6z"/>
	<path class="st3" d="M272.1,129.6h0.6v0.5h0c0.1-0.2,0.2-0.3,0.4-0.4c0.2-0.1,0.4-0.2,0.7-0.2c0.2,0,0.3,0,0.5,0.1
		c0.1,0,0.3,0.1,0.4,0.2c0.1,0.1,0.2,0.2,0.3,0.4c0.1,0.2,0.1,0.4,0.1,0.6v2.1h-0.6v-2c0-0.2,0-0.3-0.1-0.4s-0.1-0.2-0.2-0.3
		c-0.1-0.1-0.2-0.1-0.2-0.1s-0.2,0-0.3,0c-0.1,0-0.3,0-0.4,0.1c-0.1,0-0.2,0.1-0.3,0.2s-0.1,0.2-0.2,0.3s-0.1,0.3-0.1,0.5v1.7h-0.6
		V129.6z"/>
	<path class="st3" d="M277.7,130.1h-0.9v1.5c0,0.1,0,0.2,0,0.3c0,0.1,0,0.2,0.1,0.2s0.1,0.1,0.1,0.2c0.1,0,0.2,0.1,0.3,0.1
		c0.1,0,0.2,0,0.2,0c0.1,0,0.2,0,0.2-0.1v0.6c-0.1,0-0.2,0.1-0.3,0.1s-0.2,0-0.3,0c-0.2,0-0.4,0-0.6-0.1s-0.2-0.2-0.3-0.3
		c-0.1-0.1-0.1-0.2-0.1-0.4s0-0.3,0-0.4v-1.7h-0.7v-0.5h0.7v-0.9h0.6v0.9h0.9V130.1z"/>
	<path class="st3" d="M284.1,129c-0.1-0.2-0.3-0.3-0.5-0.4c-0.2-0.1-0.4-0.1-0.7-0.1c-0.3,0-0.5,0.1-0.8,0.2
		c-0.2,0.1-0.4,0.2-0.6,0.4c-0.2,0.2-0.3,0.4-0.4,0.6s-0.1,0.5-0.1,0.8c0,0.3,0,0.5,0.1,0.7s0.2,0.4,0.4,0.6
		c0.2,0.2,0.4,0.3,0.6,0.4c0.2,0.1,0.5,0.2,0.8,0.2c0.3,0,0.5-0.1,0.7-0.2c0.2-0.1,0.4-0.3,0.5-0.5l0.6,0.4c0,0.1-0.1,0.1-0.2,0.2
		s-0.2,0.2-0.4,0.3c-0.2,0.1-0.3,0.2-0.6,0.3c-0.2,0.1-0.5,0.1-0.8,0.1c-0.4,0-0.7-0.1-1.1-0.2c-0.3-0.1-0.6-0.3-0.8-0.6
		c-0.2-0.2-0.4-0.5-0.5-0.8c-0.1-0.3-0.2-0.6-0.2-0.9c0-0.4,0.1-0.7,0.2-1.1s0.3-0.6,0.5-0.8c0.2-0.2,0.5-0.4,0.8-0.5
		s0.7-0.2,1.1-0.2c0.3,0,0.6,0.1,1,0.2c0.3,0.1,0.6,0.3,0.8,0.6L284.1,129z"/>
	<path class="st3" d="M285.2,131.2c0-0.2,0-0.5,0.1-0.7s0.2-0.4,0.4-0.6c0.2-0.2,0.3-0.3,0.6-0.4s0.4-0.1,0.7-0.1
		c0.2,0,0.5,0,0.7,0.1s0.4,0.2,0.6,0.4c0.2,0.2,0.3,0.3,0.4,0.6s0.1,0.4,0.1,0.7c0,0.2,0,0.5-0.1,0.7c-0.1,0.2-0.2,0.4-0.4,0.6
		c-0.2,0.2-0.3,0.3-0.6,0.4s-0.4,0.1-0.7,0.1c-0.2,0-0.5,0-0.7-0.1s-0.4-0.2-0.6-0.4c-0.2-0.2-0.3-0.3-0.4-0.6
		C285.3,131.7,285.2,131.5,285.2,131.2z M285.9,131.2c0,0.2,0,0.3,0.1,0.5c0.1,0.1,0.1,0.3,0.2,0.4c0.1,0.1,0.2,0.2,0.3,0.2
		c0.1,0.1,0.3,0.1,0.5,0.1s0.3,0,0.5-0.1c0.1-0.1,0.2-0.1,0.3-0.2c0.1-0.1,0.2-0.2,0.2-0.4s0.1-0.3,0.1-0.5s0-0.3-0.1-0.5
		c-0.1-0.1-0.1-0.3-0.2-0.4c-0.1-0.1-0.2-0.2-0.3-0.2c-0.1-0.1-0.3-0.1-0.5-0.1s-0.3,0-0.5,0.1c-0.1,0.1-0.2,0.1-0.3,0.2
		c-0.1,0.1-0.2,0.2-0.2,0.4C285.9,130.9,285.9,131.1,285.9,131.2z"/>
	<path class="st3" d="M289.6,127.6h0.6v5.3h-0.6V127.6z"/>
	<path class="st3" d="M291.3,127.6h0.6v5.3h-0.6V127.6z"/>
	<path class="st3" d="M293.4,131.5c0,0.1,0,0.3,0.1,0.4c0.1,0.1,0.1,0.2,0.2,0.3s0.2,0.1,0.4,0.2c0.1,0,0.3,0.1,0.4,0.1
		c0.2,0,0.4,0,0.5-0.1s0.3-0.2,0.4-0.4l0.5,0.4c-0.3,0.5-0.8,0.7-1.5,0.7c-0.3,0-0.5,0-0.7-0.1c-0.2-0.1-0.4-0.2-0.5-0.4
		c-0.1-0.2-0.3-0.3-0.3-0.6c-0.1-0.2-0.1-0.4-0.1-0.7c0-0.2,0-0.5,0.1-0.7c0.1-0.2,0.2-0.4,0.4-0.6s0.3-0.3,0.5-0.4
		c0.2-0.1,0.4-0.1,0.7-0.1c0.3,0,0.5,0.1,0.7,0.2c0.2,0.1,0.4,0.2,0.5,0.4c0.1,0.2,0.2,0.4,0.3,0.6c0.1,0.2,0.1,0.4,0.1,0.6v0.2
		H293.4z M295.4,131c0-0.1,0-0.3-0.1-0.4c0-0.1-0.1-0.2-0.2-0.3c-0.1-0.1-0.2-0.2-0.3-0.2s-0.3-0.1-0.4-0.1c-0.2,0-0.3,0-0.4,0.1
		c-0.1,0.1-0.2,0.1-0.3,0.2s-0.2,0.2-0.2,0.3c0,0.1-0.1,0.2-0.1,0.3H295.4z"/>
	<path class="st3" d="M299.2,130.5c-0.1-0.1-0.2-0.2-0.4-0.3c-0.1-0.1-0.3-0.1-0.5-0.1c-0.2,0-0.3,0-0.5,0.1
		c-0.1,0.1-0.2,0.1-0.3,0.3c-0.1,0.1-0.2,0.2-0.2,0.4c0,0.1-0.1,0.3-0.1,0.4s0,0.3,0.1,0.4c0.1,0.1,0.1,0.3,0.2,0.4
		c0.1,0.1,0.2,0.2,0.3,0.2c0.1,0.1,0.3,0.1,0.4,0.1c0.2,0,0.3,0,0.5-0.1c0.1-0.1,0.2-0.2,0.3-0.3l0.4,0.4c-0.2,0.2-0.4,0.3-0.6,0.4
		s-0.4,0.1-0.7,0.1c-0.3,0-0.5,0-0.7-0.1c-0.2-0.1-0.4-0.2-0.5-0.4s-0.3-0.3-0.4-0.5s-0.1-0.4-0.1-0.7c0-0.3,0-0.5,0.1-0.7
		c0.1-0.2,0.2-0.4,0.4-0.6c0.2-0.2,0.3-0.3,0.5-0.4c0.2-0.1,0.4-0.1,0.7-0.1c0.2,0,0.5,0,0.7,0.1c0.2,0.1,0.4,0.2,0.6,0.4
		L299.2,130.5z"/>
	<path class="st3" d="M302,130.1h-0.9v1.5c0,0.1,0,0.2,0,0.3c0,0.1,0,0.2,0.1,0.2s0.1,0.1,0.1,0.2c0.1,0,0.2,0.1,0.3,0.1
		c0.1,0,0.2,0,0.2,0c0.1,0,0.2,0,0.2-0.1v0.6c-0.1,0-0.2,0.1-0.3,0.1s-0.2,0-0.3,0c-0.2,0-0.4,0-0.6-0.1s-0.2-0.2-0.3-0.3
		c-0.1-0.1-0.1-0.2-0.1-0.4s0-0.3,0-0.4v-1.7h-0.7v-0.5h0.7v-0.9h0.6v0.9h0.9V130.1z"/>
	<path class="st3" d="M303.3,131.5c0,0.1,0,0.3,0.1,0.4c0.1,0.1,0.1,0.2,0.2,0.3s0.2,0.1,0.4,0.2c0.1,0,0.3,0.1,0.4,0.1
		c0.2,0,0.4,0,0.5-0.1s0.3-0.2,0.4-0.4l0.5,0.4c-0.4,0.5-0.8,0.7-1.5,0.7c-0.3,0-0.5,0-0.7-0.1c-0.2-0.1-0.4-0.2-0.5-0.4
		c-0.1-0.2-0.3-0.3-0.3-0.6c-0.1-0.2-0.1-0.4-0.1-0.7c0-0.2,0-0.5,0.1-0.7c0.1-0.2,0.2-0.4,0.4-0.6c0.2-0.2,0.3-0.3,0.5-0.4
		c0.2-0.1,0.4-0.1,0.7-0.1c0.3,0,0.5,0.1,0.7,0.2s0.4,0.2,0.5,0.4c0.1,0.2,0.2,0.4,0.3,0.6c0.1,0.2,0.1,0.4,0.1,0.6v0.2H303.3z
		 M305.2,131c0-0.1,0-0.3-0.1-0.4c0-0.1-0.1-0.2-0.2-0.3c-0.1-0.1-0.2-0.2-0.3-0.2s-0.3-0.1-0.4-0.1c-0.2,0-0.3,0-0.4,0.1
		c-0.1,0.1-0.2,0.1-0.3,0.2s-0.2,0.2-0.2,0.3s-0.1,0.2-0.1,0.3H305.2z"/>
	<path class="st3" d="M310,132.9h-0.6v-0.5h0c-0.1,0.2-0.3,0.3-0.5,0.4c-0.2,0.1-0.4,0.1-0.7,0.1c-0.3,0-0.5,0-0.7-0.1
		s-0.4-0.2-0.5-0.4c-0.1-0.2-0.3-0.3-0.3-0.6c-0.1-0.2-0.1-0.4-0.1-0.7c0-0.2,0-0.5,0.1-0.7c0.1-0.2,0.2-0.4,0.3-0.6
		c0.1-0.2,0.3-0.3,0.5-0.4c0.2-0.1,0.4-0.1,0.7-0.1c0.2,0,0.5,0.1,0.7,0.2c0.2,0.1,0.4,0.2,0.5,0.4h0v-2.5h0.6V132.9z M308.3,132.4
		c0.2,0,0.3,0,0.5-0.1c0.1-0.1,0.2-0.1,0.3-0.2c0.1-0.1,0.2-0.2,0.2-0.4c0.1-0.1,0.1-0.3,0.1-0.5s0-0.3-0.1-0.5
		c-0.1-0.1-0.1-0.3-0.2-0.4c-0.1-0.1-0.2-0.2-0.3-0.2s-0.3-0.1-0.5-0.1s-0.3,0-0.5,0.1c-0.1,0.1-0.2,0.1-0.3,0.2s-0.2,0.2-0.2,0.4
		c-0.1,0.1-0.1,0.3-0.1,0.5s0,0.3,0.1,0.5c0.1,0.1,0.1,0.3,0.2,0.4c0.1,0.1,0.2,0.2,0.3,0.2C308,132.4,308.1,132.4,308.3,132.4z"/>
</g>
<g>
	<rect x="114.4" y="106.3" class="st8" width="99.4" height="34.4"/>
	<g>
		<path class="st1" d="M150.5,119.1l-2.4-3.7h1.8l1.4,2.4l1.4-2.4h1.7l-2.4,3.7v2.7h-1.4L150.5,119.1L150.5,119.1z"/>
		<path class="st1" d="M154.9,115.4h4.4v1.3h-2.9v1.2h2.8v1.3h-2.8v1.3h3.1v1.3h-4.5V115.4z"/>
		<path class="st1" d="M162.6,115.4h1.2l2.8,6.4H165l-0.6-1.4H162l-0.5,1.4h-1.6L162.6,115.4z M163.2,117.3l-0.8,2h1.6L163.2,117.3z
			"/>
		<path class="st1" d="M167.2,115.4h2.5c0.3,0,0.6,0,0.9,0.1s0.6,0.2,0.8,0.3s0.4,0.3,0.5,0.6s0.2,0.6,0.2,0.9
			c0,0.4-0.1,0.8-0.4,1.2c-0.2,0.3-0.6,0.5-1,0.6l1.6,2.7h-1.7l-1.3-2.6h-0.7v2.6h-1.4V115.4z M168.7,118.1h0.8c0.1,0,0.3,0,0.4,0
			s0.3,0,0.4-0.1c0.1-0.1,0.2-0.1,0.3-0.2c0.1-0.1,0.1-0.2,0.1-0.4c0-0.2,0-0.3-0.1-0.4s-0.1-0.2-0.2-0.2s-0.2-0.1-0.4-0.1
			c-0.1,0-0.3,0-0.4,0h-0.9L168.7,118.1L168.7,118.1z"/>
		<path class="st1" d="M175.6,120.4l2.5-2.2c0.1-0.1,0.2-0.2,0.4-0.4s0.2-0.3,0.2-0.5c0-0.2-0.1-0.4-0.2-0.5s-0.3-0.2-0.6-0.2
			c-0.2,0-0.4,0.1-0.6,0.2c-0.1,0.2-0.2,0.3-0.2,0.6l-1.4-0.1c0-0.3,0.1-0.6,0.2-0.9c0.1-0.2,0.3-0.4,0.5-0.6s0.4-0.3,0.7-0.4
			s0.6-0.1,0.9-0.1c0.3,0,0.6,0,0.8,0.1c0.2,0.1,0.5,0.2,0.7,0.4s0.3,0.4,0.4,0.6s0.2,0.5,0.2,0.8c0,0.2,0,0.4-0.1,0.6
			s-0.1,0.3-0.2,0.4c-0.1,0.1-0.2,0.3-0.3,0.4c-0.1,0.1-0.2,0.2-0.3,0.3l-1.9,1.7h2.9v1.2h-4.5L175.6,120.4L175.6,120.4z"/>
	</g>
	<g class="st7">
		<path class="st1" d="M135.9,128.5c-0.2-0.2-0.4-0.4-0.6-0.5s-0.5-0.2-0.8-0.2c-0.3,0-0.6,0.1-0.9,0.2s-0.5,0.3-0.7,0.5
			s-0.3,0.5-0.4,0.7c-0.1,0.3-0.2,0.6-0.2,0.9c0,0.3,0,0.6,0.1,0.8c0.1,0.3,0.2,0.5,0.4,0.7c0.2,0.2,0.4,0.4,0.7,0.5
			s0.6,0.2,0.9,0.2c0.3,0,0.6-0.1,0.9-0.2c0.2-0.1,0.5-0.3,0.6-0.6l0.6,0.5c0,0.1-0.1,0.1-0.2,0.3c-0.1,0.1-0.2,0.2-0.4,0.3
			c-0.2,0.1-0.4,0.2-0.6,0.3c-0.2,0.1-0.5,0.1-0.9,0.1c-0.4,0-0.9-0.1-1.2-0.3c-0.4-0.2-0.7-0.4-0.9-0.7c-0.3-0.3-0.4-0.6-0.6-0.9
			c-0.1-0.3-0.2-0.7-0.2-1.1c0-0.4,0.1-0.8,0.2-1.2c0.1-0.4,0.3-0.7,0.6-1s0.6-0.5,0.9-0.6s0.8-0.2,1.2-0.2c0.4,0,0.7,0.1,1.1,0.2
			c0.4,0.1,0.7,0.4,0.9,0.7L135.9,128.5z"/>
		<path class="st1" d="M137.3,127.7c0-0.1,0.1-0.3,0.2-0.4c0.1-0.1,0.2-0.2,0.4-0.2s0.3,0.1,0.4,0.2c0.1,0.1,0.2,0.2,0.2,0.4
			c0,0.1-0.1,0.3-0.2,0.4c-0.1,0.1-0.2,0.2-0.4,0.2s-0.3-0.1-0.4-0.2C137.3,128,137.3,127.9,137.3,127.7z M137.4,129.1h0.7v3.8h-0.7
			V129.1z"/>
		<path class="st1" d="M141.3,129.7h-1v1.7c0,0.1,0,0.2,0,0.3c0,0.1,0,0.2,0.1,0.3c0,0.1,0.1,0.1,0.2,0.2c0.1,0.1,0.2,0.1,0.3,0.1
			c0.1,0,0.2,0,0.3,0c0.1,0,0.2,0,0.2-0.1v0.7c-0.1,0-0.2,0.1-0.3,0.1c-0.1,0-0.2,0-0.3,0c-0.3,0-0.5,0-0.6-0.1
			c-0.2-0.1-0.3-0.2-0.3-0.3c-0.1-0.1-0.1-0.3-0.1-0.4c0-0.2,0-0.3,0-0.5v-2h-0.8v-0.6h0.8V128h0.7v1.1h1V129.7z"/>
		<path class="st1" d="M141.8,129.1h0.8l1.1,3h0l1.1-3h0.8l-1.8,4.6c-0.1,0.2-0.1,0.3-0.2,0.5c-0.1,0.1-0.2,0.3-0.2,0.3
			c-0.1,0.1-0.2,0.2-0.3,0.2c-0.1,0.1-0.3,0.1-0.5,0.1c-0.1,0-0.2,0-0.3,0c-0.1,0-0.2,0-0.3-0.1l0.1-0.7c0.1,0.1,0.3,0.1,0.4,0.1
			c0.1,0,0.2,0,0.3,0c0.1,0,0.1-0.1,0.2-0.1c0.1-0.1,0.1-0.1,0.1-0.2c0-0.1,0.1-0.2,0.1-0.3l0.2-0.6L141.8,129.1z"/>
		<path class="st1" d="M149.8,127.9H148v-0.7h4.4v0.7h-1.8v4.9h-0.8V127.9z"/>
		<path class="st1" d="M152.2,129.6c0.2-0.2,0.4-0.3,0.7-0.4c0.3-0.1,0.5-0.1,0.8-0.1c0.3,0,0.5,0,0.7,0.1c0.2,0.1,0.4,0.2,0.5,0.3
			s0.2,0.3,0.3,0.4c0.1,0.2,0.1,0.3,0.1,0.5v1.9c0,0.1,0,0.3,0,0.4c0,0.1,0,0.2,0,0.3h-0.6c0-0.2,0-0.4,0-0.6h0
			c-0.2,0.2-0.3,0.4-0.6,0.5c-0.2,0.1-0.5,0.2-0.8,0.2c-0.2,0-0.3,0-0.5-0.1c-0.2,0-0.3-0.1-0.4-0.2c-0.1-0.1-0.2-0.2-0.3-0.4
			s-0.1-0.3-0.1-0.5c0-0.2,0.1-0.5,0.2-0.6c0.1-0.2,0.3-0.3,0.4-0.4c0.2-0.1,0.4-0.2,0.7-0.2c0.3,0,0.5-0.1,0.8-0.1h0.5v-0.2
			c0-0.1,0-0.2-0.1-0.3c0-0.1-0.1-0.2-0.2-0.3c-0.1-0.1-0.2-0.1-0.3-0.2c-0.1,0-0.2-0.1-0.4-0.1c-0.1,0-0.3,0-0.4,0
			c-0.1,0-0.2,0.1-0.3,0.1c-0.1,0-0.2,0.1-0.2,0.1c-0.1,0.1-0.1,0.1-0.2,0.2L152.2,129.6z M154.2,131.1c-0.2,0-0.3,0-0.5,0
			s-0.3,0.1-0.5,0.1c-0.1,0.1-0.3,0.1-0.4,0.2c-0.1,0.1-0.1,0.2-0.1,0.4c0,0.2,0.1,0.4,0.2,0.5c0.1,0.1,0.3,0.1,0.6,0.1
			c0.2,0,0.4,0,0.5-0.1s0.3-0.2,0.3-0.3s0.1-0.2,0.2-0.4c0-0.1,0.1-0.3,0.1-0.4v-0.2H154.2z"/>
		<path class="st1" d="M157.4,130.9l-1.3-1.8h0.9l0.9,1.3l0.9-1.3h0.9l-1.3,1.8l1.5,2H159l-1.1-1.6l-1.1,1.6h-0.9L157.4,130.9z"/>
		<path class="st1" d="M166.8,128.5c-0.2-0.2-0.4-0.4-0.6-0.5s-0.5-0.2-0.8-0.2c-0.3,0-0.6,0.1-0.9,0.2s-0.5,0.3-0.7,0.5
			s-0.3,0.5-0.4,0.7c-0.1,0.3-0.2,0.6-0.2,0.9c0,0.3,0,0.6,0.1,0.8c0.1,0.3,0.2,0.5,0.4,0.7c0.2,0.2,0.4,0.4,0.7,0.5
			c0.3,0.1,0.6,0.2,0.9,0.2c0.3,0,0.6-0.1,0.9-0.2c0.2-0.1,0.5-0.3,0.6-0.6l0.6,0.5c0,0.1-0.1,0.1-0.2,0.3c-0.1,0.1-0.2,0.2-0.4,0.3
			c-0.2,0.1-0.4,0.2-0.6,0.3c-0.2,0.1-0.5,0.1-0.9,0.1c-0.4,0-0.9-0.1-1.2-0.3c-0.4-0.2-0.7-0.4-0.9-0.7c-0.3-0.3-0.4-0.6-0.6-0.9
			c-0.1-0.3-0.2-0.7-0.2-1.1c0-0.4,0.1-0.8,0.2-1.2c0.1-0.4,0.3-0.7,0.6-1s0.6-0.5,0.9-0.6c0.4-0.1,0.8-0.2,1.2-0.2
			c0.4,0,0.7,0.1,1.1,0.2c0.4,0.1,0.7,0.4,0.9,0.7L166.8,128.5z"/>
		<path class="st1" d="M168.2,131c0-0.3,0.1-0.5,0.2-0.8c0.1-0.2,0.2-0.5,0.4-0.6c0.2-0.2,0.4-0.3,0.6-0.4c0.2-0.1,0.5-0.2,0.8-0.2
			c0.3,0,0.5,0.1,0.8,0.2c0.2,0.1,0.5,0.2,0.6,0.4c0.2,0.2,0.3,0.4,0.4,0.6c0.1,0.2,0.2,0.5,0.2,0.8c0,0.3-0.1,0.5-0.2,0.8
			c-0.1,0.2-0.2,0.5-0.4,0.6s-0.4,0.3-0.6,0.4c-0.2,0.1-0.5,0.2-0.8,0.2c-0.3,0-0.5-0.1-0.8-0.2c-0.2-0.1-0.5-0.2-0.6-0.4
			c-0.2-0.2-0.3-0.4-0.4-0.6C168.2,131.5,168.2,131.3,168.2,131z M168.9,131c0,0.2,0,0.4,0.1,0.5c0.1,0.2,0.1,0.3,0.2,0.4
			c0.1,0.1,0.2,0.2,0.4,0.3c0.2,0.1,0.3,0.1,0.5,0.1c0.2,0,0.4,0,0.5-0.1c0.2-0.1,0.3-0.2,0.4-0.3c0.1-0.1,0.2-0.3,0.2-0.4
			c0.1-0.2,0.1-0.3,0.1-0.5c0-0.2,0-0.4-0.1-0.5c-0.1-0.2-0.1-0.3-0.2-0.4c-0.1-0.1-0.2-0.2-0.4-0.3c-0.2-0.1-0.3-0.1-0.5-0.1
			c-0.2,0-0.4,0-0.5,0.1c-0.2,0.1-0.3,0.2-0.4,0.3c-0.1,0.1-0.2,0.3-0.2,0.4C169,130.6,168.9,130.8,168.9,131z"/>
		<path class="st1" d="M173.1,126.8h0.7v6h-0.7V126.8z"/>
		<path class="st1" d="M175.1,126.8h0.7v6h-0.7V126.8z"/>
		<path class="st1" d="M177.5,131.3c0,0.2,0,0.3,0.1,0.5c0.1,0.1,0.2,0.3,0.3,0.3s0.3,0.2,0.4,0.2c0.2,0.1,0.3,0.1,0.5,0.1
			c0.2,0,0.4-0.1,0.6-0.2c0.2-0.1,0.3-0.2,0.5-0.4l0.5,0.4c-0.4,0.5-1,0.8-1.7,0.8c-0.3,0-0.6-0.1-0.8-0.2c-0.2-0.1-0.4-0.2-0.6-0.4
			s-0.3-0.4-0.4-0.6c-0.1-0.2-0.1-0.5-0.1-0.8c0-0.3,0-0.5,0.1-0.8c0.1-0.2,0.2-0.5,0.4-0.6c0.2-0.2,0.4-0.3,0.6-0.4
			c0.2-0.1,0.5-0.2,0.8-0.2c0.3,0,0.6,0.1,0.9,0.2c0.2,0.1,0.4,0.3,0.6,0.5c0.1,0.2,0.3,0.4,0.3,0.6c0.1,0.2,0.1,0.5,0.1,0.7v0.3
			H177.5z M179.7,130.7c0-0.2,0-0.3-0.1-0.4c0-0.1-0.1-0.2-0.2-0.3c-0.1-0.1-0.2-0.2-0.3-0.2c-0.1-0.1-0.3-0.1-0.5-0.1
			c-0.2,0-0.3,0-0.5,0.1c-0.1,0.1-0.3,0.2-0.4,0.3c-0.1,0.1-0.2,0.2-0.2,0.4s-0.1,0.3-0.1,0.4H179.7z"/>
		<path class="st1" d="M184.1,130.1c-0.1-0.1-0.3-0.2-0.4-0.3c-0.1-0.1-0.3-0.1-0.5-0.1c-0.2,0-0.4,0-0.5,0.1
			c-0.1,0.1-0.3,0.2-0.4,0.3c-0.1,0.1-0.2,0.3-0.2,0.4c-0.1,0.2-0.1,0.3-0.1,0.5s0,0.3,0.1,0.5s0.1,0.3,0.2,0.4s0.2,0.2,0.4,0.3
			s0.3,0.1,0.5,0.1c0.2,0,0.4,0,0.5-0.1c0.1-0.1,0.3-0.2,0.4-0.3l0.5,0.5c-0.2,0.2-0.4,0.4-0.7,0.4s-0.5,0.1-0.8,0.1
			c-0.3,0-0.6,0-0.8-0.1c-0.2-0.1-0.5-0.2-0.6-0.4c-0.2-0.2-0.3-0.4-0.4-0.6c-0.1-0.2-0.1-0.5-0.1-0.8s0-0.6,0.1-0.8
			c0.1-0.2,0.2-0.5,0.4-0.6c0.2-0.2,0.4-0.3,0.6-0.4c0.2-0.1,0.5-0.1,0.8-0.1c0.3,0,0.5,0,0.8,0.1c0.3,0.1,0.5,0.2,0.7,0.5
			L184.1,130.1z"/>
		<path class="st1" d="M187.3,129.7h-1v1.7c0,0.1,0,0.2,0,0.3c0,0.1,0,0.2,0.1,0.3c0,0.1,0.1,0.1,0.2,0.2c0.1,0.1,0.2,0.1,0.3,0.1
			c0.1,0,0.2,0,0.3,0c0.1,0,0.2,0,0.2-0.1v0.7c-0.1,0-0.2,0.1-0.3,0.1c-0.1,0-0.2,0-0.3,0c-0.3,0-0.5,0-0.6-0.1
			c-0.2-0.1-0.3-0.2-0.3-0.3c-0.1-0.1-0.1-0.3-0.1-0.4c0-0.2,0-0.3,0-0.5v-2h-0.8v-0.6h0.8V128h0.7v1.1h1V129.7z"/>
		<path class="st1" d="M188.7,131.3c0,0.2,0,0.3,0.1,0.5c0.1,0.1,0.2,0.3,0.3,0.3s0.3,0.2,0.4,0.2c0.2,0.1,0.3,0.1,0.5,0.1
			c0.2,0,0.4-0.1,0.6-0.2c0.2-0.1,0.3-0.2,0.5-0.4l0.5,0.4c-0.4,0.5-1,0.8-1.7,0.8c-0.3,0-0.6-0.1-0.8-0.2c-0.2-0.1-0.4-0.2-0.6-0.4
			c-0.2-0.2-0.3-0.4-0.4-0.6c-0.1-0.2-0.1-0.5-0.1-0.8c0-0.3,0-0.5,0.1-0.8c0.1-0.2,0.2-0.5,0.4-0.6c0.2-0.2,0.4-0.3,0.6-0.4
			c0.2-0.1,0.5-0.2,0.8-0.2c0.3,0,0.6,0.1,0.9,0.2c0.2,0.1,0.4,0.3,0.6,0.5s0.3,0.4,0.3,0.6s0.1,0.5,0.1,0.7v0.3H188.7z M191,130.7
			c0-0.2,0-0.3-0.1-0.4c0-0.1-0.1-0.2-0.2-0.3s-0.2-0.2-0.3-0.2c-0.1-0.1-0.3-0.1-0.5-0.1c-0.2,0-0.3,0-0.5,0.1s-0.3,0.2-0.4,0.3
			s-0.2,0.2-0.2,0.4c-0.1,0.1-0.1,0.3-0.1,0.4H191z"/>
		<path class="st1" d="M196.4,132.9h-0.7v-0.5h0c-0.1,0.2-0.3,0.4-0.6,0.5c-0.2,0.1-0.5,0.2-0.7,0.2c-0.3,0-0.6-0.1-0.8-0.2
			c-0.2-0.1-0.4-0.2-0.6-0.4c-0.2-0.2-0.3-0.4-0.4-0.6c-0.1-0.2-0.1-0.5-0.1-0.8c0-0.3,0-0.5,0.1-0.8c0.1-0.2,0.2-0.5,0.4-0.6
			c0.2-0.2,0.4-0.3,0.6-0.4c0.2-0.1,0.5-0.2,0.8-0.2c0.3,0,0.5,0.1,0.8,0.2c0.2,0.1,0.4,0.3,0.6,0.5h0v-2.8h0.7V132.9z M194.5,132.3
			c0.2,0,0.4,0,0.5-0.1c0.2-0.1,0.3-0.2,0.4-0.3c0.1-0.1,0.2-0.3,0.2-0.4c0.1-0.2,0.1-0.3,0.1-0.5c0-0.2,0-0.4-0.1-0.5
			c-0.1-0.2-0.1-0.3-0.2-0.4c-0.1-0.1-0.2-0.2-0.4-0.3c-0.2-0.1-0.3-0.1-0.5-0.1c-0.2,0-0.4,0-0.5,0.1c-0.2,0.1-0.3,0.2-0.4,0.3
			c-0.1,0.1-0.2,0.3-0.2,0.4c-0.1,0.2-0.1,0.3-0.1,0.5c0,0.2,0,0.4,0.1,0.5c0.1,0.2,0.1,0.3,0.2,0.4c0.1,0.1,0.2,0.2,0.4,0.3
			C194.1,132.3,194.3,132.3,194.5,132.3z"/>
	</g>
</g>
<path class="st3" d="M193.5,42.8c0-8.5-6.9-15.4-15.4-15.4c-3,0-5.7,0.8-8,2.3h-28.4c-1.7,0-3,1.4-3,3v53.4c0,1.7,1.4,3,3,3h42.7
	c1.7,0,3-1.4,3-3l0-31.1C191.1,52.2,193.5,47.8,193.5,42.8z M191.2,42.8c0,7.2-5.9,13.1-13.1,13.1c-7.2,0-13.1-5.9-13.1-13.1
	c0-7.2,5.9-13.1,13.1-13.1C185.3,29.7,191.2,35.5,191.2,42.8z M185.1,86.1c0,0.4-0.3,0.8-0.8,0.8h-42.7c-0.4,0-0.8-0.3-0.8-0.8V32.7
	c0-0.4,0.3-0.8,0.8-0.8h25.5c-2.7,2.8-4.4,6.6-4.4,10.8c0,8.5,6.9,15.4,15.4,15.4c2.5,0,4.9-0.6,7-1.7L185.1,86.1z"/>
<path class="st3" d="M172.3,50c0.2,0.2,0.5,0.2,0.7,0.2c0.3,0,0.7-0.2,0.9-0.4L184,36.7c0.4-0.5,0.3-1.2-0.2-1.6
	c-0.5-0.4-1.2-0.3-1.6,0.2l-10.1,13.1C171.7,48.9,171.8,49.6,172.3,50z"/>
<path class="st3" d="M173.7,42.6c2.2,0,4-1.8,4-4s-1.8-4-4-4c-2.2,0-4,1.8-4,4C169.7,40.8,171.5,42.6,173.7,42.6z M173.7,36.9
	c0.9,0,1.7,0.8,1.7,1.7s-0.8,1.7-1.7,1.7c-0.9,0-1.7-0.8-1.7-1.7S172.8,36.9,173.7,36.9z"/>
<path class="st3" d="M178.4,46.5c0,2.2,1.8,4,4,4c2.2,0,4-1.8,4-4c0-2.2-1.8-4-4-4C180.2,42.6,178.4,44.3,178.4,46.5z M184,46.5
	c0,0.9-0.8,1.7-1.7,1.7c-0.9,0-1.7-0.8-1.7-1.7c0-0.9,0.8-1.7,1.7-1.7C183.3,44.8,184,45.6,184,46.5z"/>
<path class="st3" d="M176,67.7c0,0.6,0.5,1.1,1.1,1.1s1.1-0.5,1.1-1.1c0-1.7-1.1-3.6-3.9-4v-0.3c0-0.6-0.5-1.1-1.1-1.1
	s-1.1,0.5-1.1,1.1v0.3c-2.7,0.4-3.9,2.3-3.9,4.1c0,2.6,2.1,3.5,3.9,4v4.3c-1-0.2-1.6-0.9-1.6-1.8c0-0.6-0.5-1.1-1.1-1.1
	c-0.6,0-1.1,0.5-1.1,1.1c0,2.2,1.6,3.8,3.9,4.1v0.3c0,0.6,0.5,1.1,1.1,1.1s1.1-0.5,1.1-1.1v-0.4c3.5-0.5,3.9-2.9,3.9-4.1
	c0-2.8-2-3.7-3.9-4.3V66C175.2,66.2,176,66.6,176,67.7z M170.4,67.7c0-0.3,0.1-1.4,1.6-1.8v3.3C170.9,68.9,170.4,68.5,170.4,67.7z
	 M176,74.1c0,0.5,0,1.4-1.6,1.7v-3.6C175.5,72.7,176,73.1,176,74.1z"/>
<path class="st3" d="M160.4,66.7h-9.1c-0.6,0-1.1,0.5-1.1,1.1c0,0.6,0.5,1.1,1.1,1.1h9.1c0.6,0,1.1-0.5,1.1-1.1S161,66.7,160.4,66.7
	z"/>
<path class="st3" d="M160.4,73.6h-9.1c-0.6,0-1.1,0.5-1.1,1.1s0.5,1.1,1.1,1.1h9.1c0.6,0,1.1-0.5,1.1-1.1S161,73.6,160.4,73.6z"/>
<path class="st3" d="M160.4,41.6h-9.1c-0.6,0-1.1,0.5-1.1,1.1c0,0.6,0.5,1.1,1.1,1.1h9.1c0.6,0,1.1-0.5,1.1-1.1
	C161.5,42.1,161,41.6,160.4,41.6z"/>
<path class="st3" d="M160.4,48.5h-9.1c-0.6,0-1.1,0.5-1.1,1.1c0,0.6,0.5,1.1,1.1,1.1h9.1c0.6,0,1.1-0.5,1.1-1.1
	C161.5,49,161,48.5,160.4,48.5z"/>
<path class="st3" d="M277.7,45c0,0.5,0.4,0.9,0.9,0.9s0.9-0.4,0.9-0.9c0-1.3-0.8-2.8-3.1-3.2v-0.3c0-0.5-0.4-0.9-0.9-0.9
	s-0.9,0.4-0.9,0.9v0.2c-2.1,0.3-3.1,1.8-3.1,3.2c0,2.1,1.7,2.7,3.1,3.1v3.4c-0.8-0.2-1.3-0.7-1.3-1.4c0-0.5-0.4-0.9-0.9-0.9
	s-0.9,0.4-0.9,0.9c0,1.7,1.2,3,3.1,3.2v0.3c0,0.5,0.4,0.9,0.9,0.9s0.9-0.4,0.9-0.9v-0.3c2.8-0.4,3.1-2.3,3.1-3.2
	c0-2.2-1.6-3-3.1-3.4v-3.1C277,43.8,277.7,44.2,277.7,45z M273.2,45c0-0.2,0.1-1.1,1.3-1.4v2.7C273.6,46,273.2,45.7,273.2,45z
	 M277.7,50.1c0,0.4,0,1.1-1.3,1.4v-2.9C277.3,49,277.7,49.3,277.7,50.1z"/>
</svg>
