<?xml version="1.0" encoding="utf-8"?>
<!-- Generator: Adobe Illustrator 23.0.1, SVG Export Plug-In . SVG Version: 6.00 Build 0)  -->
<svg version="1.1" id="Layer_1" xmlns="http://www.w3.org/2000/svg" xmlns:xlink="http://www.w3.org/1999/xlink" x="0px" y="0px"
	 viewBox="0 0 325.12 157.95" style="enable-background:new 0 0 325.12 157.95;" xml:space="preserve">
<style type="text/css">
	.st0{fill:#139FDA;}
	.st1{fill:#FFFFFF;}
	.st2{fill:#00A892;}
	.st3{fill:#E0E061;}
	.st4{fill:#11294B;}
	.st5{fill:none;stroke:#139FDA;stroke-width:3;stroke-miterlimit:10;}
	.st6{opacity:0.22;fill:#139FDA;}
	.st7{opacity:0.22;fill:#00A892;}
	.st8{opacity:0.22;fill:#E0E061;}
</style>
<rect x="10.07" y="106.26" class="st0" width="98.88" height="24.15"/>
<g>
	<path class="st1" d="M45.71,119.12l-2.41-3.68h1.76l1.36,2.4l1.44-2.4h1.68l-2.41,3.68v2.74h-1.41V119.12z"/>
	<path class="st1" d="M50.07,115.44h4.36v1.31h-2.95v1.2h2.78v1.31h-2.78v1.31h3.11v1.31h-4.52V115.44z"/>
	<path class="st1" d="M57.84,115.44H59l2.79,6.42h-1.6l-0.55-1.36h-2.49l-0.53,1.36h-1.56L57.84,115.44z M58.38,117.31l-0.78,1.99
		h1.57L58.38,117.31z"/>
	<path class="st1" d="M62.44,115.44h2.48c0.33,0,0.64,0.03,0.93,0.1c0.29,0.06,0.55,0.17,0.77,0.32c0.22,0.15,0.4,0.35,0.53,0.6
		c0.13,0.25,0.19,0.56,0.19,0.94c0,0.45-0.12,0.84-0.35,1.16c-0.24,0.32-0.58,0.52-1.03,0.6l1.63,2.71h-1.7l-1.34-2.57h-0.7v2.57
		h-1.41V115.44z M63.86,118.09h0.83c0.13,0,0.26,0,0.4-0.01c0.14-0.01,0.27-0.04,0.39-0.08c0.11-0.05,0.21-0.12,0.29-0.21
		c0.08-0.1,0.11-0.23,0.11-0.41c0-0.16-0.03-0.29-0.1-0.39c-0.07-0.1-0.15-0.17-0.25-0.22c-0.1-0.05-0.22-0.09-0.35-0.1
		c-0.13-0.02-0.26-0.03-0.39-0.03h-0.92V118.09z"/>
	<path class="st1" d="M72.96,116.96l-1.29,1.13l-0.77-0.89l2.09-1.77h1.27v6.42h-1.31V116.96z"/>
</g>
<rect x="114.21" y="106.26" class="st2" width="98.88" height="24.15"/>
<g>
	<path class="st1" d="M150.99,119.12l-2.41-3.68h1.76l1.36,2.4l1.44-2.4h1.68l-2.41,3.68v2.74h-1.41V119.12z"/>
	<path class="st1" d="M155.34,115.44h4.36v1.31h-2.95v1.2h2.78v1.31h-2.78v1.31h3.11v1.31h-4.52V115.44z"/>
	<path class="st1" d="M163.11,115.44h1.17l2.79,6.42h-1.6l-0.55-1.36h-2.49l-0.53,1.36h-1.56L163.11,115.44z M163.65,117.31
		l-0.78,1.99h1.57L163.65,117.31z"/>
	<path class="st1" d="M167.71,115.44h2.48c0.33,0,0.64,0.03,0.93,0.1s0.55,0.17,0.77,0.32c0.22,0.15,0.4,0.35,0.53,0.6
		c0.13,0.25,0.19,0.56,0.19,0.94c0,0.45-0.12,0.84-0.35,1.16c-0.24,0.32-0.58,0.52-1.03,0.6l1.63,2.71h-1.7l-1.34-2.57h-0.7v2.57
		h-1.41V115.44z M169.13,118.09h0.83c0.13,0,0.26,0,0.4-0.01c0.14-0.01,0.27-0.04,0.39-0.08c0.11-0.05,0.21-0.12,0.29-0.21
		c0.08-0.1,0.11-0.23,0.11-0.41c0-0.16-0.03-0.29-0.1-0.39c-0.07-0.1-0.15-0.17-0.25-0.22c-0.1-0.05-0.22-0.09-0.35-0.1
		c-0.13-0.02-0.26-0.03-0.39-0.03h-0.92V118.09z"/>
	<path class="st1" d="M176.06,120.42l2.49-2.24c0.13-0.11,0.25-0.24,0.38-0.39c0.13-0.15,0.19-0.31,0.19-0.51
		c0-0.22-0.08-0.39-0.24-0.51c-0.16-0.12-0.34-0.19-0.55-0.19c-0.25,0-0.45,0.08-0.59,0.24c-0.14,0.16-0.22,0.35-0.24,0.58
		l-1.36-0.1c0.02-0.33,0.09-0.62,0.21-0.87c0.12-0.24,0.28-0.45,0.48-0.61c0.2-0.16,0.43-0.29,0.7-0.37
		c0.27-0.08,0.56-0.12,0.87-0.12c0.29,0,0.56,0.04,0.82,0.12c0.25,0.08,0.47,0.2,0.66,0.36s0.33,0.36,0.44,0.6
		c0.11,0.24,0.16,0.52,0.16,0.84c0,0.21-0.02,0.39-0.06,0.56c-0.04,0.17-0.1,0.32-0.18,0.45c-0.08,0.14-0.17,0.26-0.27,0.38
		c-0.1,0.12-0.21,0.23-0.33,0.34l-1.95,1.68h2.85v1.2h-4.48V120.42z"/>
</g>
<rect x="220.62" y="106.26" class="st3" width="98.88" height="24.15"/>
<g>
	<path class="st4" d="M256.26,119.12l-2.41-3.68h1.76l1.36,2.4l1.44-2.4h1.68l-2.41,3.68v2.74h-1.41V119.12z"/>
	<path class="st4" d="M260.61,115.44h4.36v1.31h-2.95v1.2h2.78v1.31h-2.78v1.31h3.11v1.31h-4.52V115.44z"/>
	<path class="st4" d="M268.38,115.44h1.17l2.79,6.42h-1.6l-0.55-1.36h-2.49l-0.53,1.36h-1.56L268.38,115.44z M268.93,117.31
		l-0.78,1.99h1.57L268.93,117.31z"/>
	<path class="st4" d="M272.99,115.44h2.48c0.33,0,0.64,0.03,0.93,0.1c0.29,0.06,0.55,0.17,0.77,0.32c0.22,0.15,0.4,0.35,0.53,0.6
		c0.13,0.25,0.19,0.56,0.19,0.94c0,0.45-0.12,0.84-0.35,1.16c-0.24,0.32-0.58,0.52-1.03,0.6l1.63,2.71h-1.7l-1.34-2.57h-0.7v2.57
		h-1.41V115.44z M274.4,118.09h0.83c0.13,0,0.26,0,0.4-0.01c0.14-0.01,0.27-0.04,0.39-0.08c0.11-0.05,0.21-0.12,0.29-0.21
		s0.11-0.23,0.11-0.41c0-0.16-0.03-0.29-0.1-0.39c-0.07-0.1-0.15-0.17-0.25-0.22c-0.1-0.05-0.22-0.09-0.35-0.1
		c-0.13-0.02-0.26-0.03-0.39-0.03h-0.93V118.09z"/>
	<path class="st4" d="M282.85,117.97h0.44c0.13,0,0.25-0.01,0.37-0.03c0.12-0.02,0.23-0.05,0.33-0.1c0.1-0.05,0.18-0.12,0.24-0.22
		c0.06-0.09,0.09-0.22,0.09-0.37c0-0.19-0.08-0.35-0.23-0.48c-0.15-0.13-0.34-0.19-0.57-0.19c-0.21,0-0.39,0.06-0.53,0.17
		c-0.14,0.12-0.23,0.26-0.27,0.43l-1.5-0.31c0.07-0.28,0.18-0.52,0.33-0.71c0.15-0.2,0.32-0.35,0.52-0.48
		c0.2-0.12,0.42-0.21,0.67-0.27c0.24-0.06,0.5-0.09,0.77-0.09c0.28,0,0.56,0.03,0.82,0.1c0.26,0.07,0.49,0.18,0.69,0.33
		c0.2,0.15,0.36,0.33,0.48,0.56c0.12,0.22,0.18,0.49,0.18,0.8c0,0.36-0.09,0.66-0.28,0.92s-0.46,0.42-0.82,0.49v0.03
		c0.19,0.02,0.36,0.08,0.51,0.17c0.15,0.09,0.27,0.2,0.38,0.33c0.1,0.13,0.18,0.28,0.24,0.45c0.05,0.17,0.08,0.35,0.08,0.53
		c0,0.32-0.06,0.6-0.19,0.84c-0.12,0.24-0.29,0.44-0.5,0.6c-0.21,0.16-0.45,0.28-0.73,0.36c-0.28,0.08-0.58,0.12-0.89,0.12
		c-0.57,0-1.07-0.13-1.48-0.4c-0.41-0.27-0.69-0.69-0.82-1.26l1.43-0.34c0.05,0.23,0.15,0.41,0.3,0.54c0.15,0.13,0.37,0.2,0.66,0.2
		c0.3,0,0.52-0.08,0.66-0.23c0.14-0.15,0.21-0.35,0.21-0.59c0-0.18-0.04-0.32-0.11-0.42c-0.08-0.1-0.17-0.17-0.3-0.22
		c-0.12-0.05-0.26-0.08-0.41-0.09c-0.15-0.01-0.3-0.01-0.45-0.01h-0.32V117.97z"/>
</g>
<g>
	<path class="st0" d="M39.56,138.57c-0.19-0.26-0.43-0.45-0.72-0.58c-0.28-0.13-0.58-0.2-0.89-0.2c-0.36,0-0.68,0.07-0.98,0.22
		c-0.3,0.15-0.56,0.34-0.78,0.59c-0.22,0.24-0.39,0.53-0.51,0.85s-0.18,0.66-0.18,1.01c0,0.37,0.06,0.72,0.18,1.05
		c0.12,0.32,0.29,0.61,0.5,0.84c0.21,0.24,0.47,0.43,0.77,0.57c0.3,0.14,0.63,0.21,0.99,0.21c0.39,0,0.74-0.08,1.05-0.23
		c0.31-0.15,0.58-0.38,0.81-0.67l0.57,0.48c-0.29,0.39-0.64,0.67-1.05,0.85c-0.41,0.18-0.87,0.27-1.38,0.27
		c-0.46,0-0.89-0.08-1.29-0.25c-0.4-0.17-0.75-0.4-1.04-0.7c-0.29-0.3-0.52-0.65-0.69-1.07c-0.17-0.41-0.25-0.86-0.25-1.35
		c0-0.47,0.08-0.91,0.24-1.32c0.16-0.41,0.39-0.77,0.68-1.07c0.29-0.3,0.63-0.54,1.03-0.72c0.4-0.17,0.84-0.26,1.31-0.26
		c0.44,0,0.85,0.08,1.26,0.24c0.4,0.16,0.74,0.41,1.01,0.77L39.56,138.57z"/>
	<path class="st0" d="M41.07,141.54c0-0.33,0.06-0.64,0.17-0.91c0.11-0.27,0.27-0.51,0.47-0.7c0.2-0.2,0.44-0.35,0.72-0.46
		c0.28-0.11,0.58-0.16,0.91-0.16c0.33,0,0.63,0.05,0.91,0.16c0.28,0.11,0.52,0.26,0.72,0.46c0.2,0.2,0.36,0.43,0.47,0.7
		c0.11,0.27,0.17,0.57,0.17,0.91c0,0.33-0.06,0.63-0.17,0.91c-0.11,0.27-0.27,0.51-0.47,0.7c-0.2,0.2-0.44,0.35-0.72,0.46
		c-0.28,0.11-0.58,0.16-0.91,0.16c-0.33,0-0.63-0.05-0.91-0.16c-0.28-0.11-0.52-0.26-0.72-0.46c-0.2-0.2-0.36-0.43-0.47-0.7
		C41.13,142.18,41.07,141.87,41.07,141.54z M41.83,141.54c0,0.22,0.04,0.43,0.1,0.62c0.07,0.19,0.17,0.36,0.3,0.5
		c0.13,0.14,0.29,0.25,0.48,0.34c0.18,0.08,0.39,0.12,0.62,0.12c0.23,0,0.44-0.04,0.62-0.12c0.18-0.08,0.34-0.19,0.48-0.34
		c0.13-0.14,0.23-0.31,0.3-0.5c0.07-0.19,0.1-0.4,0.1-0.62c0-0.22-0.04-0.43-0.1-0.62c-0.07-0.19-0.17-0.36-0.3-0.5
		c-0.13-0.14-0.29-0.25-0.48-0.34c-0.18-0.08-0.39-0.12-0.62-0.12c-0.23,0-0.44,0.04-0.62,0.12c-0.18,0.08-0.34,0.19-0.48,0.34
		c-0.13,0.14-0.23,0.31-0.3,0.5C41.87,141.11,41.83,141.32,41.83,141.54z"/>
	<path class="st0" d="M46.7,140.43c0-0.19-0.01-0.37-0.02-0.54c-0.01-0.17-0.02-0.32-0.02-0.46h0.67c0,0.12,0,0.23,0.01,0.34
		c0.01,0.12,0.01,0.23,0.01,0.35h0.02c0.05-0.1,0.12-0.2,0.2-0.3c0.09-0.1,0.19-0.18,0.31-0.26c0.12-0.08,0.26-0.14,0.41-0.18
		c0.15-0.05,0.31-0.07,0.49-0.07c0.28,0,0.52,0.04,0.72,0.13s0.37,0.2,0.5,0.35c0.13,0.15,0.23,0.33,0.29,0.55
		c0.06,0.21,0.1,0.45,0.1,0.7v2.62H49.7v-2.55c0-0.36-0.08-0.64-0.24-0.84c-0.16-0.21-0.4-0.31-0.73-0.31
		c-0.23,0-0.43,0.04-0.59,0.12c-0.17,0.08-0.3,0.19-0.41,0.34c-0.11,0.15-0.18,0.32-0.24,0.52c-0.05,0.2-0.08,0.42-0.08,0.66v2.07
		H46.7V140.43z"/>
	<path class="st0" d="M51.84,142.55c0.14,0.17,0.29,0.31,0.46,0.42c0.17,0.1,0.38,0.15,0.63,0.15c0.11,0,0.22-0.01,0.33-0.04
		c0.11-0.02,0.21-0.06,0.3-0.12c0.09-0.05,0.16-0.12,0.22-0.2c0.05-0.08,0.08-0.18,0.08-0.29c0-0.12-0.03-0.21-0.08-0.28
		c-0.05-0.07-0.12-0.13-0.2-0.19c-0.08-0.05-0.18-0.09-0.29-0.12c-0.11-0.03-0.22-0.06-0.34-0.08c-0.2-0.04-0.39-0.09-0.57-0.15
		c-0.18-0.05-0.34-0.13-0.48-0.21c-0.14-0.09-0.24-0.2-0.33-0.34c-0.08-0.14-0.12-0.32-0.12-0.53c0-0.21,0.05-0.39,0.14-0.54
		c0.09-0.16,0.21-0.29,0.36-0.39c0.15-0.1,0.32-0.18,0.51-0.24c0.19-0.05,0.38-0.08,0.58-0.08c0.3,0,0.58,0.06,0.84,0.18
		c0.26,0.12,0.46,0.32,0.6,0.59l-0.59,0.39c-0.09-0.15-0.21-0.27-0.36-0.37c-0.15-0.09-0.33-0.14-0.54-0.14
		c-0.1,0-0.19,0.01-0.29,0.04c-0.1,0.02-0.19,0.06-0.27,0.11c-0.08,0.05-0.14,0.11-0.19,0.19c-0.05,0.08-0.08,0.16-0.08,0.26
		c0,0.09,0.03,0.17,0.09,0.23c0.06,0.06,0.14,0.12,0.24,0.17c0.1,0.05,0.21,0.09,0.34,0.13c0.13,0.04,0.26,0.07,0.4,0.09
		c0.19,0.04,0.37,0.08,0.53,0.14c0.17,0.06,0.32,0.14,0.44,0.23c0.13,0.1,0.23,0.22,0.3,0.36c0.07,0.15,0.11,0.32,0.11,0.53
		c0,0.24-0.05,0.45-0.14,0.62c-0.1,0.17-0.23,0.31-0.39,0.41c-0.16,0.11-0.34,0.18-0.54,0.23c-0.2,0.05-0.41,0.07-0.62,0.07
		c-0.36,0-0.68-0.06-0.94-0.17c-0.26-0.11-0.5-0.32-0.71-0.62L51.84,142.55z"/>
	<path class="st0" d="M57.93,140.02h-1.25v2.12c0,0.14,0,0.27,0.01,0.39s0.03,0.22,0.07,0.31c0.04,0.09,0.11,0.16,0.19,0.21
		c0.08,0.05,0.21,0.08,0.36,0.08c0.1,0,0.21-0.01,0.32-0.04c0.11-0.02,0.21-0.06,0.31-0.11l0.03,0.64c-0.12,0.05-0.26,0.09-0.4,0.12
		c-0.15,0.02-0.29,0.04-0.42,0.04c-0.25,0-0.46-0.03-0.61-0.1c-0.15-0.07-0.27-0.16-0.35-0.28c-0.08-0.12-0.14-0.27-0.17-0.45
		c-0.03-0.18-0.04-0.38-0.04-0.59v-2.33h-0.92v-0.6h0.92v-1.21h0.71v1.21h1.25V140.02z"/>
	<path class="st0" d="M58.8,140.43c0-0.19-0.01-0.37-0.02-0.54c-0.01-0.17-0.02-0.32-0.02-0.46h0.67c0,0.12,0,0.23,0.01,0.34
		c0.01,0.12,0.01,0.23,0.01,0.35h0.02c0.05-0.1,0.12-0.2,0.2-0.3c0.09-0.1,0.19-0.18,0.31-0.26c0.12-0.08,0.26-0.14,0.41-0.18
		c0.15-0.05,0.31-0.07,0.49-0.07c0.05,0,0.1,0,0.14,0.01s0.1,0.02,0.15,0.04l-0.05,0.72c-0.12-0.04-0.25-0.05-0.38-0.05
		c-0.43,0-0.75,0.14-0.95,0.42c-0.2,0.28-0.29,0.67-0.29,1.16v2.07H58.8V140.43z"/>
	<path class="st0" d="M65.69,142.66c0,0.19,0.01,0.37,0.02,0.54c0.01,0.17,0.02,0.32,0.02,0.46h-0.67c0-0.12,0-0.23-0.01-0.34
		c-0.01-0.11-0.01-0.23-0.01-0.35h-0.02c-0.05,0.1-0.12,0.2-0.2,0.3c-0.09,0.1-0.19,0.18-0.31,0.26c-0.12,0.08-0.26,0.14-0.41,0.18
		c-0.15,0.05-0.31,0.07-0.49,0.07c-0.28,0-0.52-0.04-0.72-0.13c-0.2-0.08-0.37-0.2-0.5-0.35c-0.13-0.15-0.23-0.33-0.29-0.55
		s-0.1-0.45-0.1-0.7v-2.62h0.71v2.55c0,0.36,0.08,0.64,0.24,0.84c0.16,0.21,0.4,0.31,0.73,0.31c0.23,0,0.43-0.04,0.59-0.12
		c0.17-0.08,0.3-0.19,0.41-0.34c0.11-0.14,0.18-0.32,0.24-0.52c0.05-0.2,0.08-0.42,0.08-0.66v-2.07h0.71V142.66z"/>
	<path class="st0" d="M70.05,140.48c-0.15-0.18-0.31-0.31-0.49-0.39c-0.18-0.08-0.37-0.12-0.58-0.12c-0.24,0-0.44,0.04-0.63,0.12
		c-0.18,0.08-0.33,0.2-0.45,0.34c-0.12,0.15-0.21,0.31-0.27,0.5c-0.06,0.19-0.09,0.39-0.09,0.61c0,0.22,0.04,0.42,0.1,0.61
		c0.07,0.19,0.17,0.36,0.29,0.5c0.12,0.15,0.27,0.26,0.45,0.34c0.18,0.08,0.37,0.12,0.59,0.12c0.47,0,0.83-0.18,1.08-0.53l0.53,0.5
		c-0.21,0.24-0.45,0.41-0.73,0.52c-0.28,0.11-0.57,0.16-0.88,0.16c-0.33,0-0.63-0.05-0.9-0.16c-0.27-0.11-0.5-0.26-0.69-0.46
		c-0.19-0.2-0.34-0.44-0.44-0.71s-0.16-0.57-0.16-0.9c0-0.32,0.05-0.62,0.16-0.89c0.11-0.27,0.26-0.51,0.45-0.71
		c0.19-0.2,0.42-0.35,0.69-0.47c0.27-0.11,0.57-0.17,0.89-0.17c0.31,0,0.61,0.05,0.89,0.16c0.28,0.11,0.53,0.28,0.74,0.51
		L70.05,140.48z"/>
	<path class="st0" d="M73.72,140.02h-1.25v2.12c0,0.14,0,0.27,0.01,0.39c0.01,0.12,0.03,0.22,0.07,0.31
		c0.04,0.09,0.11,0.16,0.19,0.21c0.08,0.05,0.21,0.08,0.36,0.08c0.1,0,0.21-0.01,0.32-0.04c0.11-0.02,0.21-0.06,0.31-0.11l0.03,0.64
		c-0.12,0.05-0.26,0.09-0.4,0.12c-0.15,0.02-0.29,0.04-0.42,0.04c-0.25,0-0.46-0.03-0.61-0.1c-0.15-0.07-0.27-0.16-0.35-0.28
		c-0.08-0.12-0.14-0.27-0.17-0.45c-0.03-0.18-0.04-0.38-0.04-0.59v-2.33h-0.92v-0.6h0.92v-1.21h0.71v1.21h1.25V140.02z"/>
	<path class="st0" d="M74.5,137.76c0-0.14,0.05-0.26,0.15-0.36c0.1-0.1,0.22-0.15,0.37-0.15c0.14,0,0.27,0.05,0.37,0.15
		c0.1,0.1,0.15,0.22,0.15,0.36c0,0.15-0.05,0.27-0.14,0.37c-0.1,0.1-0.22,0.15-0.37,0.15c-0.15,0-0.28-0.05-0.37-0.15
		C74.55,138.04,74.5,137.91,74.5,137.76z M74.66,139.42h0.71v4.24h-0.71V139.42z"/>
	<path class="st0" d="M76.53,141.54c0-0.33,0.06-0.64,0.17-0.91c0.11-0.27,0.27-0.51,0.47-0.7c0.2-0.2,0.44-0.35,0.72-0.46
		c0.28-0.11,0.58-0.16,0.91-0.16c0.33,0,0.63,0.05,0.91,0.16c0.28,0.11,0.52,0.26,0.72,0.46c0.2,0.2,0.36,0.43,0.47,0.7
		c0.11,0.27,0.17,0.57,0.17,0.91c0,0.33-0.06,0.63-0.17,0.91c-0.11,0.27-0.27,0.51-0.47,0.7c-0.2,0.2-0.44,0.35-0.72,0.46
		c-0.28,0.11-0.58,0.16-0.91,0.16c-0.33,0-0.63-0.05-0.91-0.16c-0.28-0.11-0.52-0.26-0.72-0.46c-0.2-0.2-0.36-0.43-0.47-0.7
		C76.59,142.18,76.53,141.87,76.53,141.54z M77.29,141.54c0,0.22,0.04,0.43,0.1,0.62c0.07,0.19,0.17,0.36,0.3,0.5
		c0.13,0.14,0.29,0.25,0.48,0.34c0.18,0.08,0.39,0.12,0.62,0.12s0.44-0.04,0.62-0.12c0.18-0.08,0.34-0.19,0.48-0.34
		c0.13-0.14,0.23-0.31,0.3-0.5c0.07-0.19,0.1-0.4,0.1-0.62c0-0.22-0.04-0.43-0.1-0.62c-0.07-0.19-0.17-0.36-0.3-0.5
		c-0.13-0.14-0.29-0.25-0.48-0.34c-0.18-0.08-0.39-0.12-0.62-0.12s-0.44,0.04-0.62,0.12c-0.18,0.08-0.34,0.19-0.48,0.34
		c-0.13,0.14-0.23,0.31-0.3,0.5C77.33,141.11,77.29,141.32,77.29,141.54z"/>
	<path class="st0" d="M82.16,140.43c0-0.19-0.01-0.37-0.02-0.54c-0.01-0.17-0.02-0.32-0.02-0.46h0.67c0,0.12,0,0.23,0.01,0.34
		c0.01,0.12,0.01,0.23,0.01,0.35h0.02c0.05-0.1,0.12-0.2,0.2-0.3c0.09-0.1,0.19-0.18,0.31-0.26c0.12-0.08,0.26-0.14,0.41-0.18
		c0.15-0.05,0.31-0.07,0.49-0.07c0.28,0,0.52,0.04,0.72,0.13s0.37,0.2,0.5,0.35c0.13,0.15,0.23,0.33,0.29,0.55
		c0.06,0.21,0.1,0.45,0.1,0.7v2.62h-0.71v-2.55c0-0.36-0.08-0.64-0.24-0.84c-0.16-0.21-0.4-0.31-0.73-0.31
		c-0.23,0-0.43,0.04-0.59,0.12c-0.17,0.08-0.3,0.19-0.41,0.34c-0.11,0.15-0.18,0.32-0.24,0.52c-0.05,0.2-0.08,0.42-0.08,0.66v2.07
		h-0.71V140.43z"/>
</g>
<g>
	<path class="st2" d="M141.94,137.95h-2.12v5.71h-0.76v-5.71h-2.12v-0.71h5V137.95z"/>
	<path class="st2" d="M141.65,139.96c0.22-0.22,0.48-0.39,0.78-0.49c0.3-0.11,0.6-0.16,0.91-0.16c0.63,0,1.08,0.15,1.36,0.44
		c0.28,0.3,0.42,0.75,0.42,1.35v1.82c0,0.12,0.01,0.25,0.02,0.38c0.01,0.13,0.03,0.25,0.05,0.36h-0.68c-0.02-0.1-0.04-0.2-0.04-0.32
		c0-0.12,0-0.22,0-0.31h-0.02c-0.14,0.22-0.33,0.4-0.56,0.53c-0.23,0.14-0.51,0.21-0.84,0.21c-0.22,0-0.42-0.03-0.61-0.08
		c-0.19-0.05-0.36-0.13-0.5-0.24c-0.14-0.11-0.26-0.24-0.34-0.39c-0.08-0.16-0.13-0.34-0.13-0.54c0-0.35,0.09-0.62,0.27-0.82
		c0.18-0.2,0.41-0.35,0.68-0.44c0.27-0.1,0.56-0.16,0.87-0.18c0.31-0.02,0.6-0.04,0.86-0.04h0.27v-0.13c0-0.31-0.09-0.54-0.28-0.7
		c-0.18-0.16-0.44-0.24-0.78-0.24c-0.23,0-0.45,0.04-0.68,0.11c-0.22,0.08-0.42,0.19-0.59,0.35L141.65,139.96z M143.7,141.62
		c-0.45,0-0.81,0.06-1.08,0.19c-0.27,0.13-0.4,0.34-0.4,0.63c0,0.27,0.09,0.46,0.27,0.57c0.18,0.11,0.4,0.17,0.67,0.17
		c0.21,0,0.39-0.03,0.54-0.1c0.15-0.07,0.28-0.16,0.39-0.28c0.1-0.11,0.18-0.25,0.24-0.4c0.05-0.15,0.08-0.32,0.09-0.49v-0.27H143.7
		z"/>
	<path class="st2" d="M147.51,141.38l-1.52-1.96h0.92l1.12,1.52l1.06-1.52h0.86l-1.46,1.96l1.75,2.29h-0.93l-1.34-1.83l-1.32,1.83
		h-0.88L147.51,141.38z"/>
	<path class="st2" d="M158.09,138.57c-0.19-0.26-0.43-0.45-0.72-0.58c-0.28-0.13-0.58-0.2-0.89-0.2c-0.36,0-0.68,0.07-0.98,0.22
		c-0.3,0.15-0.56,0.34-0.78,0.59s-0.39,0.53-0.51,0.85c-0.12,0.32-0.18,0.66-0.18,1.01c0,0.37,0.06,0.72,0.18,1.05
		c0.12,0.32,0.29,0.61,0.5,0.84c0.21,0.24,0.47,0.43,0.77,0.57c0.3,0.14,0.63,0.21,0.99,0.21c0.39,0,0.74-0.08,1.05-0.23
		c0.31-0.15,0.58-0.38,0.81-0.67l0.57,0.48c-0.29,0.39-0.64,0.67-1.05,0.85c-0.41,0.18-0.87,0.27-1.38,0.27
		c-0.46,0-0.89-0.08-1.29-0.25c-0.4-0.17-0.75-0.4-1.04-0.7c-0.29-0.3-0.52-0.65-0.69-1.07c-0.17-0.41-0.25-0.86-0.25-1.35
		c0-0.47,0.08-0.91,0.24-1.32c0.16-0.41,0.39-0.77,0.68-1.07c0.29-0.3,0.63-0.54,1.03-0.72c0.4-0.17,0.84-0.26,1.31-0.26
		c0.44,0,0.85,0.08,1.26,0.24c0.4,0.16,0.74,0.41,1.01,0.77L158.09,138.57z"/>
	<path class="st2" d="M159.6,141.54c0-0.33,0.06-0.64,0.17-0.91c0.11-0.27,0.27-0.51,0.47-0.7c0.2-0.2,0.44-0.35,0.72-0.46
		c0.28-0.11,0.58-0.16,0.91-0.16c0.33,0,0.63,0.05,0.91,0.16c0.28,0.11,0.52,0.26,0.72,0.46c0.2,0.2,0.36,0.43,0.47,0.7
		c0.11,0.27,0.17,0.57,0.17,0.91c0,0.33-0.06,0.63-0.17,0.91c-0.11,0.27-0.27,0.51-0.47,0.7c-0.2,0.2-0.44,0.35-0.72,0.46
		c-0.28,0.11-0.58,0.16-0.91,0.16c-0.33,0-0.63-0.05-0.91-0.16c-0.28-0.11-0.52-0.26-0.72-0.46c-0.2-0.2-0.36-0.43-0.47-0.7
		C159.66,142.18,159.6,141.87,159.6,141.54z M160.37,141.54c0,0.22,0.04,0.43,0.1,0.62c0.07,0.19,0.17,0.36,0.3,0.5
		c0.13,0.14,0.29,0.25,0.48,0.34c0.18,0.08,0.39,0.12,0.62,0.12c0.23,0,0.44-0.04,0.62-0.12c0.18-0.08,0.34-0.19,0.48-0.34
		c0.13-0.14,0.23-0.31,0.3-0.5c0.07-0.19,0.1-0.4,0.1-0.62c0-0.22-0.04-0.43-0.1-0.62c-0.07-0.19-0.17-0.36-0.3-0.5
		c-0.13-0.14-0.29-0.25-0.48-0.34c-0.18-0.08-0.39-0.12-0.62-0.12c-0.23,0-0.44,0.04-0.62,0.12c-0.18,0.08-0.34,0.19-0.48,0.34
		c-0.13,0.14-0.23,0.31-0.3,0.5C160.4,141.11,160.37,141.32,160.37,141.54z"/>
	<path class="st2" d="M165.3,136.81h0.71v6.85h-0.71V136.81z"/>
	<path class="st2" d="M167.48,136.81h0.71v6.85h-0.71V136.81z"/>
	<path class="st2" d="M173.39,142.89c-0.25,0.33-0.53,0.55-0.83,0.68c-0.3,0.13-0.65,0.19-1.05,0.19c-0.33,0-0.63-0.06-0.9-0.18
		c-0.27-0.12-0.49-0.28-0.68-0.48c-0.18-0.2-0.33-0.44-0.43-0.71c-0.1-0.27-0.15-0.56-0.15-0.87c0-0.33,0.05-0.63,0.16-0.9
		c0.11-0.28,0.26-0.51,0.45-0.71c0.19-0.2,0.42-0.35,0.69-0.46c0.27-0.11,0.56-0.16,0.87-0.16c0.3,0,0.57,0.05,0.82,0.15
		c0.25,0.1,0.46,0.24,0.64,0.43c0.18,0.19,0.32,0.42,0.41,0.7c0.1,0.27,0.14,0.59,0.14,0.94v0.23h-3.43
		c0.01,0.18,0.06,0.35,0.13,0.52c0.08,0.17,0.17,0.31,0.29,0.44c0.12,0.12,0.26,0.22,0.43,0.29c0.16,0.07,0.34,0.11,0.53,0.11
		c0.31,0,0.57-0.05,0.78-0.16c0.21-0.11,0.4-0.27,0.57-0.48L173.39,142.89z M172.78,141.16c-0.01-0.36-0.13-0.65-0.35-0.87
		c-0.22-0.22-0.53-0.33-0.92-0.33c-0.39,0-0.71,0.11-0.95,0.33c-0.24,0.22-0.39,0.51-0.44,0.87H172.78z"/>
	<path class="st2" d="M177.66,140.48c-0.15-0.18-0.31-0.31-0.49-0.39c-0.18-0.08-0.37-0.12-0.58-0.12c-0.24,0-0.44,0.04-0.63,0.12
		c-0.18,0.08-0.33,0.2-0.45,0.34c-0.12,0.15-0.21,0.31-0.27,0.5c-0.06,0.19-0.09,0.39-0.09,0.61c0,0.22,0.04,0.42,0.1,0.61
		c0.07,0.19,0.17,0.36,0.29,0.5c0.12,0.15,0.27,0.26,0.45,0.34c0.18,0.08,0.37,0.12,0.59,0.12c0.47,0,0.83-0.18,1.08-0.53l0.53,0.5
		c-0.21,0.24-0.45,0.41-0.73,0.52c-0.28,0.11-0.57,0.16-0.88,0.16c-0.33,0-0.63-0.05-0.9-0.16c-0.27-0.11-0.5-0.26-0.69-0.46
		c-0.19-0.2-0.34-0.44-0.44-0.71s-0.16-0.57-0.16-0.9c0-0.32,0.05-0.62,0.16-0.89c0.11-0.27,0.26-0.51,0.45-0.71
		c0.19-0.2,0.42-0.35,0.69-0.47c0.27-0.11,0.57-0.17,0.89-0.17c0.31,0,0.61,0.05,0.89,0.16c0.28,0.11,0.53,0.28,0.74,0.51
		L177.66,140.48z"/>
	<path class="st2" d="M181.33,140.02h-1.25v2.12c0,0.14,0,0.27,0.01,0.39s0.03,0.22,0.07,0.31c0.04,0.09,0.11,0.16,0.19,0.21
		c0.08,0.05,0.21,0.08,0.36,0.08c0.1,0,0.21-0.01,0.32-0.04c0.11-0.02,0.21-0.06,0.31-0.11l0.03,0.64c-0.12,0.05-0.26,0.09-0.4,0.12
		c-0.15,0.02-0.29,0.04-0.42,0.04c-0.25,0-0.46-0.03-0.61-0.1s-0.27-0.16-0.35-0.28c-0.08-0.12-0.14-0.27-0.17-0.45
		c-0.03-0.18-0.04-0.38-0.04-0.59v-2.33h-0.92v-0.6h0.92v-1.21h0.71v1.21h1.25V140.02z"/>
	<path class="st2" d="M185.99,142.89c-0.25,0.33-0.53,0.55-0.83,0.68c-0.3,0.13-0.65,0.19-1.05,0.19c-0.33,0-0.63-0.06-0.9-0.18
		c-0.27-0.12-0.49-0.28-0.68-0.48c-0.18-0.2-0.33-0.44-0.43-0.71c-0.1-0.27-0.15-0.56-0.15-0.87c0-0.33,0.05-0.63,0.16-0.9
		c0.11-0.28,0.26-0.51,0.45-0.71c0.19-0.2,0.42-0.35,0.69-0.46c0.27-0.11,0.56-0.16,0.87-0.16c0.3,0,0.57,0.05,0.82,0.15
		c0.25,0.1,0.46,0.24,0.64,0.43c0.18,0.19,0.32,0.42,0.41,0.7c0.1,0.27,0.14,0.59,0.14,0.94v0.23h-3.43
		c0.01,0.18,0.06,0.35,0.13,0.52c0.08,0.17,0.17,0.31,0.29,0.44s0.26,0.22,0.43,0.29c0.16,0.07,0.34,0.11,0.53,0.11
		c0.31,0,0.57-0.05,0.78-0.16c0.21-0.11,0.4-0.27,0.57-0.48L185.99,142.89z M185.38,141.16c-0.01-0.36-0.13-0.65-0.35-0.87
		s-0.53-0.33-0.92-0.33c-0.39,0-0.71,0.11-0.95,0.33c-0.24,0.22-0.39,0.51-0.44,0.87H185.38z"/>
	<path class="st2" d="M190.77,142.91h-0.02c-0.13,0.24-0.34,0.45-0.63,0.61c-0.29,0.17-0.62,0.25-1,0.25c-0.3,0-0.57-0.06-0.83-0.17
		c-0.26-0.11-0.48-0.27-0.68-0.47c-0.19-0.2-0.34-0.44-0.45-0.71c-0.11-0.27-0.16-0.57-0.16-0.89c0-0.32,0.05-0.62,0.16-0.89
		c0.11-0.27,0.26-0.51,0.45-0.71s0.43-0.35,0.7-0.47c0.28-0.11,0.58-0.17,0.91-0.17c0.31,0,0.59,0.06,0.85,0.19
		c0.26,0.13,0.48,0.31,0.68,0.53h0.02v-3.23h0.71v6.85h-0.71V142.91z M190.77,141.54c0-0.22-0.03-0.43-0.1-0.62
		c-0.07-0.19-0.17-0.36-0.3-0.5c-0.13-0.14-0.29-0.25-0.48-0.34c-0.18-0.08-0.39-0.12-0.62-0.12c-0.23,0-0.44,0.04-0.62,0.12
		c-0.18,0.08-0.34,0.19-0.48,0.34c-0.13,0.14-0.23,0.31-0.3,0.5c-0.07,0.19-0.1,0.4-0.1,0.62c0,0.22,0.04,0.43,0.1,0.62
		c0.07,0.19,0.17,0.36,0.3,0.5c0.13,0.14,0.29,0.25,0.48,0.34c0.18,0.08,0.39,0.12,0.62,0.12c0.23,0,0.44-0.04,0.62-0.12
		c0.18-0.08,0.34-0.19,0.48-0.34c0.13-0.14,0.23-0.31,0.3-0.5C190.73,141.97,190.77,141.77,190.77,141.54z"/>
</g>
<g>
	<path class="st4" d="M241.64,137.24h1.96c0.27,0,0.53,0.03,0.78,0.08c0.25,0.05,0.48,0.14,0.68,0.27c0.2,0.12,0.36,0.29,0.48,0.49
		c0.12,0.2,0.19,0.45,0.19,0.74c0,0.37-0.1,0.68-0.3,0.93c-0.2,0.24-0.48,0.42-0.82,0.52v0.02c0.21,0.02,0.4,0.07,0.58,0.16
		c0.18,0.09,0.33,0.2,0.46,0.34c0.13,0.14,0.23,0.3,0.3,0.48s0.11,0.38,0.11,0.59c0,0.36-0.07,0.65-0.22,0.88
		c-0.15,0.23-0.34,0.41-0.58,0.55c-0.24,0.14-0.51,0.23-0.81,0.29c-0.3,0.05-0.6,0.08-0.89,0.08h-1.91V137.24z M242.4,139.96h1.05
		c0.18,0,0.36-0.01,0.53-0.04c0.17-0.02,0.33-0.07,0.47-0.15c0.14-0.08,0.25-0.18,0.34-0.32c0.08-0.14,0.13-0.32,0.13-0.54
		c0-0.2-0.04-0.36-0.12-0.48c-0.08-0.12-0.18-0.22-0.31-0.29c-0.13-0.07-0.28-0.12-0.44-0.15c-0.17-0.03-0.33-0.04-0.5-0.04h-1.13
		V139.96z M242.4,142.96h1.29c0.19,0,0.37-0.02,0.56-0.06c0.18-0.04,0.35-0.1,0.5-0.19c0.15-0.09,0.27-0.2,0.36-0.34
		c0.09-0.14,0.14-0.32,0.14-0.52c0-0.22-0.04-0.41-0.13-0.56c-0.09-0.15-0.2-0.27-0.34-0.36c-0.14-0.09-0.3-0.15-0.49-0.19
		c-0.18-0.04-0.37-0.05-0.57-0.05h-1.31V142.96z"/>
	<path class="st4" d="M247.13,137.76c0-0.14,0.05-0.26,0.15-0.36c0.1-0.1,0.22-0.15,0.37-0.15c0.14,0,0.27,0.05,0.37,0.15
		c0.1,0.1,0.15,0.22,0.15,0.36c0,0.15-0.05,0.27-0.14,0.37c-0.1,0.1-0.22,0.15-0.37,0.15c-0.15,0-0.28-0.05-0.37-0.15
		C247.18,138.04,247.13,137.91,247.13,137.76z M247.29,139.42H248v4.24h-0.71V139.42z"/>
	<path class="st4" d="M249.01,143.11l2.49-3.09h-2.38v-0.6h3.31v0.54l-2.49,3.1h2.56v0.6h-3.48V143.11z"/>
	<path class="st4" d="M256.08,137.24h1.64c0.31,0,0.62,0.02,0.92,0.05c0.31,0.04,0.58,0.12,0.82,0.24c0.24,0.12,0.44,0.3,0.59,0.53
		c0.15,0.23,0.23,0.55,0.23,0.95c0,0.47-0.14,0.85-0.43,1.14c-0.28,0.29-0.68,0.47-1.18,0.55l1.82,2.96h-0.93l-1.74-2.88h-0.98v2.88
		h-0.76V137.24z M256.84,140.07h0.68c0.21,0,0.43-0.01,0.66-0.02c0.23-0.01,0.44-0.05,0.63-0.12s0.35-0.17,0.47-0.31
		c0.12-0.14,0.19-0.35,0.19-0.61c0-0.23-0.05-0.41-0.14-0.55c-0.09-0.14-0.21-0.25-0.36-0.32c-0.15-0.08-0.31-0.12-0.5-0.15
		c-0.18-0.02-0.37-0.04-0.56-0.04h-1.07V140.07z"/>
	<path class="st4" d="M265.28,142.89c-0.25,0.33-0.53,0.55-0.83,0.68c-0.3,0.13-0.65,0.19-1.05,0.19c-0.33,0-0.63-0.06-0.9-0.18
		c-0.27-0.12-0.49-0.28-0.68-0.48c-0.18-0.2-0.33-0.44-0.43-0.71c-0.1-0.27-0.15-0.56-0.15-0.87c0-0.33,0.05-0.63,0.16-0.9
		c0.11-0.28,0.26-0.51,0.45-0.71c0.19-0.2,0.42-0.35,0.69-0.46c0.27-0.11,0.56-0.16,0.87-0.16c0.3,0,0.57,0.05,0.82,0.15
		c0.25,0.1,0.46,0.24,0.64,0.43c0.18,0.19,0.32,0.42,0.41,0.7c0.1,0.27,0.14,0.59,0.14,0.94v0.23h-3.43
		c0.01,0.18,0.06,0.35,0.13,0.52c0.08,0.17,0.17,0.31,0.29,0.44s0.26,0.22,0.43,0.29c0.16,0.07,0.34,0.11,0.53,0.11
		c0.31,0,0.57-0.05,0.78-0.16c0.21-0.11,0.4-0.27,0.57-0.48L265.28,142.89z M264.67,141.16c-0.01-0.36-0.13-0.65-0.35-0.87
		s-0.53-0.33-0.92-0.33c-0.39,0-0.71,0.11-0.95,0.33c-0.24,0.22-0.39,0.51-0.44,0.87H264.67z"/>
	<path class="st4" d="M268.46,143.66h-0.78l-1.73-4.24h0.82l1.32,3.33h0.02l1.26-3.33h0.76L268.46,143.66z"/>
	<path class="st4" d="M274.69,142.89c-0.25,0.33-0.53,0.55-0.83,0.68c-0.3,0.13-0.65,0.19-1.05,0.19c-0.33,0-0.63-0.06-0.9-0.18
		c-0.27-0.12-0.49-0.28-0.68-0.48c-0.18-0.2-0.33-0.44-0.43-0.71c-0.1-0.27-0.15-0.56-0.15-0.87c0-0.33,0.05-0.63,0.16-0.9
		c0.11-0.28,0.26-0.51,0.45-0.71c0.19-0.2,0.42-0.35,0.69-0.46c0.27-0.11,0.56-0.16,0.87-0.16c0.3,0,0.57,0.05,0.82,0.15
		c0.25,0.1,0.46,0.24,0.64,0.43c0.18,0.19,0.32,0.42,0.41,0.7c0.1,0.27,0.14,0.59,0.14,0.94v0.23h-3.43
		c0.01,0.18,0.06,0.35,0.13,0.52c0.08,0.17,0.17,0.31,0.29,0.44s0.26,0.22,0.43,0.29c0.16,0.07,0.34,0.11,0.53,0.11
		c0.31,0,0.57-0.05,0.78-0.16c0.21-0.11,0.4-0.27,0.57-0.48L274.69,142.89z M274.08,141.16c-0.01-0.36-0.13-0.65-0.35-0.87
		s-0.53-0.33-0.92-0.33c-0.39,0-0.71,0.11-0.95,0.33c-0.24,0.22-0.39,0.51-0.44,0.87H274.08z"/>
	<path class="st4" d="M275.94,140.43c0-0.19-0.01-0.37-0.02-0.54c-0.01-0.17-0.02-0.32-0.02-0.46h0.67c0,0.12,0,0.23,0.01,0.34
		c0.01,0.12,0.01,0.23,0.01,0.35h0.02c0.05-0.1,0.12-0.2,0.2-0.3c0.09-0.1,0.19-0.18,0.31-0.26c0.12-0.08,0.26-0.14,0.41-0.18
		c0.15-0.05,0.31-0.07,0.49-0.07c0.28,0,0.52,0.04,0.72,0.13c0.2,0.08,0.37,0.2,0.5,0.35s0.23,0.33,0.3,0.55
		c0.06,0.21,0.1,0.45,0.1,0.7v2.62h-0.71v-2.55c0-0.36-0.08-0.64-0.24-0.84c-0.16-0.21-0.4-0.31-0.73-0.31
		c-0.23,0-0.43,0.04-0.59,0.12c-0.17,0.08-0.3,0.19-0.41,0.34c-0.11,0.15-0.18,0.32-0.24,0.52c-0.05,0.2-0.08,0.42-0.08,0.66v2.07
		h-0.71V140.43z"/>
	<path class="st4" d="M284.68,142.66c0,0.19,0.01,0.37,0.02,0.54c0.01,0.17,0.02,0.32,0.02,0.46h-0.67c0-0.12,0-0.23-0.01-0.34
		c-0.01-0.11-0.01-0.23-0.01-0.35h-0.02c-0.05,0.1-0.12,0.2-0.2,0.3c-0.09,0.1-0.19,0.18-0.31,0.26c-0.12,0.08-0.26,0.14-0.41,0.18
		c-0.15,0.05-0.31,0.07-0.49,0.07c-0.28,0-0.52-0.04-0.72-0.13c-0.2-0.08-0.37-0.2-0.5-0.35c-0.13-0.15-0.23-0.33-0.29-0.55
		c-0.06-0.21-0.1-0.45-0.1-0.7v-2.62h0.71v2.55c0,0.36,0.08,0.64,0.24,0.84c0.16,0.21,0.4,0.31,0.73,0.31
		c0.23,0,0.43-0.04,0.59-0.12c0.17-0.08,0.3-0.19,0.41-0.34c0.11-0.14,0.18-0.32,0.24-0.52c0.05-0.2,0.08-0.42,0.08-0.66v-2.07h0.71
		V142.66z"/>
	<path class="st4" d="M289.81,142.89c-0.25,0.33-0.53,0.55-0.83,0.68c-0.3,0.13-0.65,0.19-1.05,0.19c-0.33,0-0.63-0.06-0.9-0.18
		c-0.27-0.12-0.49-0.28-0.68-0.48c-0.18-0.2-0.33-0.44-0.43-0.71c-0.1-0.27-0.15-0.56-0.15-0.87c0-0.33,0.05-0.63,0.16-0.9
		c0.11-0.28,0.26-0.51,0.45-0.71c0.19-0.2,0.42-0.35,0.69-0.46c0.27-0.11,0.56-0.16,0.87-0.16c0.3,0,0.57,0.05,0.82,0.15
		c0.25,0.1,0.46,0.24,0.64,0.43c0.18,0.19,0.32,0.42,0.41,0.7c0.1,0.27,0.14,0.59,0.14,0.94v0.23h-3.43
		c0.01,0.18,0.06,0.35,0.13,0.52c0.08,0.17,0.17,0.31,0.29,0.44s0.26,0.22,0.43,0.29c0.16,0.07,0.34,0.11,0.53,0.11
		c0.31,0,0.57-0.05,0.78-0.16c0.21-0.11,0.4-0.27,0.57-0.48L289.81,142.89z M289.21,141.16c-0.01-0.36-0.13-0.65-0.35-0.87
		s-0.53-0.33-0.92-0.33c-0.39,0-0.71,0.11-0.95,0.33c-0.24,0.22-0.39,0.51-0.44,0.87H289.21z"/>
</g>
<path class="st5" d="M10.07,151.52v-45.27V151.52z"/>
<g>
	<rect x="113.67" y="106.26" class="st2" width="3" height="45.27"/>
</g>
<g>
	<rect x="218.97" y="106.26" class="st3" width="3" height="45.27"/>
</g>
<rect x="8.57" y="7.97" class="st6" width="100.38" height="98.29"/>
<rect x="113.67" y="7.97" class="st7" width="99.42" height="98.29"/>
<rect x="218.97" y="7.97" class="st8" width="100.52" height="98.29"/>
<g>
	<path class="st4" d="M87.8,74.1H60.07c-0.55,0-0.99,0.44-0.99,0.99v11.88c0,0.55,0.44,0.99,0.99,0.99H87.8
		c0.55,0,0.99-0.44,0.99-0.99V75.09C88.79,74.55,88.35,74.1,87.8,74.1z M86.81,85.98H61.06v-9.9h25.74V85.98z"/>
	<path class="st4" d="M87.8,61.23H74.93v-3.15c1.54-0.54,2.35-2.22,1.82-3.76c-0.3-0.85-0.97-1.52-1.82-1.82v-4.14h10.89
		c0.55,0,0.99-0.44,0.99-0.99v-7.92c0-0.02-0.02-0.14-0.03-0.19c-0.01-0.05-0.02-0.1-0.04-0.14c0-0.01-0.04-0.1-0.06-0.13
		c-0.02-0.04-0.05-0.09-0.08-0.13c-0.03-0.04-0.06-0.07-0.1-0.11c-0.03-0.04-0.07-0.07-0.11-0.1c-0.04-0.03-0.08-0.05-0.13-0.08
		c-0.03-0.01-0.11-0.05-0.13-0.06c-0.05-0.02-0.09-0.03-0.14-0.04c-0.04-0.01-0.17-0.02-0.19-0.02h-7.79l-35.52-9.87
		c-0.08-0.02-0.17-0.04-0.25-0.04h-0.01c-0.02,0-0.03,0.01-0.05,0.01c-0.07,0-0.14,0.01-0.21,0.03c-0.03,0.01-0.06,0.02-0.09,0.03
		c-0.05,0.02-0.11,0.05-0.16,0.08c-0.03,0.02-0.06,0.03-0.08,0.05c-0.02,0.01-0.03,0.02-0.05,0.03l-11.88,9.9
		c-0.01,0.01-0.12,0.14-0.16,0.2c-0.04,0.05-0.07,0.1-0.1,0.15c-0.04,0.12-0.07,0.25-0.09,0.37c0,0.01-0.01,0.03-0.01,0.04v7.92
		c0,0.02,0.01,0.03,0.01,0.05c0,0.05,0.01,0.1,0.02,0.15c0.01,0.05,0.02,0.1,0.04,0.14c0,0.01,0,0.03,0.01,0.05
		c0.01,0.03,0.03,0.05,0.05,0.08c0.02,0.04,0.05,0.09,0.08,0.13c0.03,0.04,0.06,0.07,0.1,0.11c0.03,0.04,0.07,0.07,0.11,0.1
		c0.04,0.03,0.08,0.05,0.13,0.08c0.03,0.01,0.05,0.04,0.08,0.05c0.01,0,0.02,0,0.04,0.01c0.11,0.04,0.22,0.06,0.34,0.06h6.93v38.62
		c0,0.02,0.01,0.03,0.01,0.05c0,0.05,0.01,0.1,0.02,0.15c0.01,0.05,0.02,0.1,0.04,0.14c0,0.01,0,0.03,0.01,0.05
		c0.01,0.01,0.03,0.05,0.05,0.08c0.02,0.04,0.05,0.09,0.08,0.13c0.03,0.04,0.06,0.07,0.1,0.11c0.03,0.04,0.07,0.07,0.11,0.1
		c0.04,0.03,0.08,0.05,0.13,0.08c0.03,0.01,0.05,0.04,0.08,0.05c0.01,0,0.02,0,0.04,0.01c0.11,0.04,0.22,0.06,0.34,0.06h7.92
		c0.55,0,0.99-0.44,0.99-0.99V64.2h4.95c0.55,0,0.99-0.44,0.99-0.99V48.36h19.8v4.14c-1.54,0.54-2.35,2.22-1.82,3.76
		c0.3,0.85,0.97,1.52,1.82,1.82v3.15H60.07c-0.55,0-0.99,0.44-0.99,0.99v3.96c0,0.55,0.44,0.99,0.99,0.99H87.8
		c0.55,0,0.99-0.44,0.99-0.99v-3.96C88.79,61.67,88.35,61.23,87.8,61.23z M48.6,46.38l4.54-4.54v4.54H48.6z M40.68,46.38l4.54-4.54
		v4.54H40.68z M69.98,38.46H46.88l-2.97-7.42l26.72,7.42H69.98z M39.28,40.44h4.54l-4.54,4.54V40.44z M39.75,38.46l2.5-6.25
		l2.5,6.25H39.75z M47.2,40.44h4.54l-4.54,4.54V40.44z M37.62,38.46H33.1l6.77-5.64L37.62,38.46z M31.36,40.44h4.54l-4.54,4.54
		V40.44z M55.12,40.44h4.54l-4.54,4.54V40.44z M63.04,40.44h4.54l-4.54,4.54V40.44z M70.97,40.44h4.54l-4.54,4.54V40.44z
		 M84.83,46.38h-4.54l4.54-4.54V46.38z M78.89,44.98v-4.54h4.54L78.89,44.98z M37.3,41.84v4.54h-4.54L37.3,41.84z M45.22,78.06
		h-4.54l4.54-4.54V78.06z M39.28,76.66v-4.54h4.54L39.28,76.66z M39.28,80.04h4.54l-4.54,4.54V80.04z M45.22,70.14h-4.54l4.54-4.54
		V70.14z M39.28,68.74V64.2h4.54L39.28,68.74z M45.22,85.98h-4.54l4.54-4.54V85.98z M51.16,60.24v1.98h-4.95h-6.93V48.36h1.98v10.89
		c0,0.13,0.03,0.26,0.08,0.38c0.1,0.24,0.29,0.44,0.54,0.54c0.12,0.05,0.25,0.08,0.38,0.08 M43.24,56.86v-8.5h7.92v9.9H48.6h-5.36
		V56.86z M61.06,41.84v4.54h-4.54L61.06,41.84z M68.99,41.84v4.54h-4.54L68.99,41.84z M76.91,41.84v4.54h-4.54L76.91,41.84z
		 M73.94,54.3c0.55,0,0.99,0.44,0.99,0.99c0,0.55-0.44,0.99-0.99,0.99s-0.99-0.44-0.99-0.99C72.95,54.74,73.39,54.3,73.94,54.3z
		 M86.81,65.19H61.06v-1.98h25.74V65.19z"/>
	<path class="st4" d="M64.03,84h3.96c0.55,0,0.99-0.44,0.99-0.99v-3.96c0-0.55-0.44-0.99-0.99-0.99h-3.96
		c-0.55,0-0.99,0.44-0.99,0.99v3.96C63.04,83.56,63.49,84,64.03,84z M65.02,80.04H67v1.98h-1.98V80.04z"/>
	<path class="st4" d="M71.96,84h3.96c0.55,0,0.99-0.44,0.99-0.99v-3.96c0-0.55-0.44-0.99-0.99-0.99h-3.96
		c-0.55,0-0.99,0.44-0.99,0.99v3.96C70.97,83.56,71.41,84,71.96,84z M72.95,80.04h1.98v1.98h-1.98V80.04z"/>
	<path class="st4" d="M79.88,84h3.96c0.55,0,0.99-0.44,0.99-0.99v-3.96c0-0.55-0.44-0.99-0.99-0.99h-3.96
		c-0.55,0-0.99,0.44-0.99,0.99v3.96C78.89,83.56,79.33,84,79.88,84z M80.87,80.04h1.98v1.98h-1.98V80.04z"/>
</g>
<g transform="translate(0,-952.36218)">
	<path class="st4" d="M269.64,987.63c-6.8,0-12.34,5.54-12.34,12.34c0,6.8,5.54,12.34,12.34,12.34c6.8,0,12.34-5.54,12.34-12.34
		C281.98,993.17,276.44,987.63,269.64,987.63z M269.64,989.98c5.53,0,9.99,4.46,9.99,9.99c0,5.53-4.46,9.99-9.99,9.99
		c-5.53,0-9.99-4.46-9.99-9.99C259.65,994.44,264.11,989.98,269.64,989.98z M269.51,992.31c-0.61,0.07-1.06,0.58-1.05,1.19v0.64
		c-1.71,0.29-2.94,1.81-2.94,3.47c0,2,1.88,3.53,4.11,3.53c1.31,0,1.76,0.57,1.76,1.18c0,0.76-0.3,1.18-1.18,1.18h-3.53
		c-0.65-0.01-1.18,0.51-1.19,1.16c-0.01,0.65,0.51,1.18,1.16,1.19c0.01,0,0.02,0,0.03,0h1.76v0.59c-0.01,0.65,0.51,1.18,1.16,1.19
		c0.65,0.01,1.18-0.51,1.19-1.16c0-0.01,0-0.02,0-0.03v-0.64c1.71-0.29,2.94-1.81,2.94-3.47c0-2-1.88-3.53-4.11-3.53
		c-1.31,0-1.76-0.57-1.76-1.18c0-0.76,0.3-1.18,1.18-1.18h3.53c0.65,0.01,1.18-0.51,1.19-1.16c0.01-0.65-0.51-1.18-1.16-1.19
		c-0.01,0-0.02,0-0.03,0h-1.76v-0.59c0.01-0.65-0.5-1.19-1.15-1.2C269.62,992.31,269.56,992.31,269.51,992.31z M239.56,1013.49
		c-0.61,0.06-1.07,0.57-1.07,1.18v21.16c0,0.65,0.53,1.18,1.18,1.18h8.23c0.65,0,1.18-0.53,1.18-1.18v-3.6
		c1.73,1.28,3.29,2.53,5.16,3.58c2.5,1.41,5.55,2.37,10.12,2.37c4.85,0,10.49-2.62,15.04-5.16c4.51-2.51,7.89-4.99,7.95-5.03
		c0,0,0.04-0.04,0.04-0.04c0.88-0.59,1.58-1.07,2.09-1.8c0.53-0.74,0.73-1.65,0.73-2.66c0-0.88-0.39-1.69-0.92-2.2
		s-1.15-0.81-1.74-0.99c-1.18-0.36-2.33-0.33-2.63-0.33c-1.49,0-2.98,0.67-4.24,1.29c-0.76,0.37-0.95,0.5-1.36,0.73
		c-0.61-1.52-2.08-2.61-3.8-2.61h-10.74c-3.33-2.95-8.97-3.46-15.7-3.51v-1.19c0-0.65-0.53-1.18-1.18-1.18h-8.23
		C239.63,1013.49,239.6,1013.49,239.56,1013.49z M240.85,1015.84h5.88v1.08c0,0.03,0,0.06,0,0.09v12.93c0,0.04,0,0.09,0,0.13v4.57
		h-5.88V1015.84z M249.07,1018.23c6.81,0.08,12.17,0.85,14.45,3.14c0.22,0.22,0.52,0.35,0.83,0.35h11.17c1,0,1.76,0.77,1.76,1.76
		c0,1-0.77,1.76-1.76,1.76h-17.04c-0.65-0.01-1.18,0.51-1.19,1.16s0.51,1.18,1.16,1.19c0.01,0,0.02,0,0.03,0h17.04
		c1.86,0,3.37-1.29,3.88-2.99c0.1-0.03,0.19-0.07,0.28-0.13c0,0,0.89-0.56,2.04-1.12c1.14-0.56,2.6-1.05,3.21-1.05
		c0.29,0,1.2,0.01,1.93,0.24c0.36,0.11,0.66,0.26,0.81,0.4c0.15,0.14,0.2,0.24,0.2,0.53c0,0.75-0.09,1-0.29,1.29
		s-0.69,0.68-1.54,1.25c-0.01,0.01-0.02,0.02-0.04,0.04c0,0-3.32,2.46-7.73,4.92s-9.94,4.85-13.9,4.85c-4.25,0-6.78-0.82-8.98-2.06
		c-2.04-1.15-3.87-2.77-6.3-4.44V1018.23z"/>
</g>
<g>
	<path class="st4" d="M191.88,48.88h-12.46V32.95h-42.59v55.04h42.59V75.54h12.46V48.88z M177.69,86.11h-39.11V34.69h39.11v14.2
		h-19.55V36.43h-17.82v15.93h7.1v23.03h30.27V86.11z M147.56,48.88v1.74h-5.36V38.16h14.2v10.72L147.56,48.88L147.56,48.88z
		 M190.14,73.65H149.3V50.62h40.85V73.65z"/>
	<path class="st4" d="M169.72,64.82c-0.43,0-0.87-0.43-0.87-0.87h-1.74c0,1.16,0.72,2.17,1.74,2.46v1.88h1.74v-1.88
		c1.01-0.43,1.74-1.3,1.74-2.46c0-1.45-1.16-2.61-2.61-2.61c-0.43,0-0.87-0.43-0.87-0.87s0.43-0.87,0.87-0.87
		c0.43,0,0.87,0.43,0.87,0.87h1.74c0-1.16-0.72-2.17-1.74-2.46v-1.88h-1.74v1.88c-1.01,0.43-1.74,1.3-1.74,2.46
		c0,1.45,1.16,2.61,2.61,2.61c0.43,0,0.87,0.43,0.87,0.87C170.59,64.38,170.15,64.82,169.72,64.82z"/>
	<polygon class="st4" points="152.92,54.1 157.26,54.1 157.26,52.36 151.03,52.36 151.03,58.59 152.92,58.59 	"/>
	<polygon class="st4" points="157.26,70.18 152.92,70.18 152.92,65.69 151.03,65.69 151.03,71.91 157.26,71.91 	"/>
	<polygon class="st4" points="186.67,58.59 188.4,58.59 188.4,52.36 182.18,52.36 182.18,54.1 186.67,54.1 	"/>
	<polygon class="st4" points="188.4,65.69 186.67,65.69 186.67,70.18 182.18,70.18 182.18,71.91 188.4,71.91 	"/>
	<path class="st4" d="M169.72,71.91c5.36,0,9.7-4.35,9.7-9.7s-4.35-9.7-9.7-9.7c-5.36,0-9.7,4.35-9.7,9.7S164.36,71.91,169.72,71.91
		z M169.72,54.1c4.35,0,7.97,3.62,7.97,7.97s-3.62,7.97-7.97,7.97c-4.35,0-7.97-3.48-7.97-7.82S165.37,54.1,169.72,54.1z"/>
	<rect x="160.01" y="36.43" class="st4" width="15.93" height="1.74"/>
	<rect x="160.01" y="39.9" class="st4" width="15.93" height="1.74"/>
	<rect x="174.21" y="43.52" class="st4" width="1.74" height="1.74"/>
	<rect x="160.01" y="43.52" class="st4" width="12.46" height="1.74"/>
	<rect x="140.46" y="82.63" class="st4" width="32.01" height="1.74"/>
	<rect x="174.21" y="82.63" class="st4" width="1.74" height="1.74"/>
	<rect x="140.46" y="79.01" class="st4" width="35.49" height="1.74"/>
</g>
</svg>
