<?xml version="1.0" encoding="utf-8"?>
<!-- Generator: Adobe Illustrator 23.0.1, SVG Export Plug-In . SVG Version: 6.00 Build 0)  -->
<svg version="1.1" id="Layer_1" xmlns="http://www.w3.org/2000/svg" xmlns:xlink="http://www.w3.org/1999/xlink" x="0px" y="0px"
	 viewBox="0 0 100 100" style="enable-background:new 0 0 100 100;" xml:space="preserve">
<style type="text/css">
	.st0{fill:#13284B;}
</style>
<g>
	<path class="st0" d="M14.49,77.58h67.65c4.79,0,8.69-3.9,8.69-8.69V26.16c0-1.22-0.99-2.2-2.2-2.2H62.98v-4.4
		c0-1.22-0.99-2.2-2.2-2.2H42.33c-1.22,0-2.2,0.99-2.2,2.2v4.4H14.49c-1.22,0-2.2,0.99-2.2,2.2v49.22
		C12.29,76.59,13.27,77.58,14.49,77.58z M42.33,26.38h18.45h14.11v48.14H28.22V26.38H42.33z M88.41,69.17
		c0,2.46-2.53,5.34-5.55,5.34h-5.55V26.38h11.1V69.17z M42.33,19.27h18.52l0,4.68H42.33L42.33,19.27z M14.66,26.38h11.02v48.14
		H14.66V26.38z"/>
	<path class="st0" d="M31.88,45.14l16.38,7.25c0.29,0.13,0.59,0.19,0.89,0.19c0.84,0,1.65-0.49,2.01-1.31l2.74-6.18
		c0.24-0.53,0.25-1.14,0.04-1.69c-0.21-0.54-0.63-0.98-1.16-1.22L36.4,34.93c-0.53-0.24-1.14-0.25-1.69-0.04
		c-0.55,0.21-0.98,0.63-1.22,1.16l-2.74,6.19C30.26,43.35,30.76,44.65,31.88,45.14z M35.67,37.12l15.91,6.91L49.05,50l-15.98-7.02
		L35.67,37.12z"/>
	<path class="st0" d="M47.83,61.36l2.31,6.35c0.2,0.55,0.61,1,1.14,1.24c0.29,0.14,0.61,0.21,0.93,0.21c0.26,0,0.51-0.04,0.75-0.13
		l16.84-6.12c0.55-0.2,1-0.61,1.24-1.14c0.25-0.53,0.27-1.14,0.07-1.69l-2.31-6.36c-0.42-1.14-1.68-1.73-2.82-1.32l-16.84,6.13
		C48,58.96,47.41,60.22,47.83,61.36z M66.56,54.7l2.23,6.02l-16.4,6.26L50,60.73L66.56,54.7z"/>
</g>
</svg>
