<?xml version="1.0" encoding="UTF-8"?>
<svg width="216px" height="118px" viewBox="0 0 216 118" version="1.1" xmlns="http://www.w3.org/2000/svg" xmlns:xlink="http://www.w3.org/1999/xlink">
    <!-- Generator: Sketch 49 (51002) - http://www.bohemiancoding.com/sketch -->
    <title>Page 1</title>
    <desc>Created with Sketch.</desc>
    <defs>
        <polygon id="path-1" points="0 119 215.994377 119 215.994377 0.166222222 0 0.166222222"></polygon>
    </defs>
    <g id="Homepage-" stroke="none" stroke-width="1" fill="none" fill-rule="evenodd">
        <g id="Intro-Screen" transform="translate(-42.000000, -30.000000)">
            <g id="Page-1" transform="translate(42.000000, 30.000000)">
                <polygon id="Fill-1" fill="#AED4F0" points="41 0 41 39 77 19.5267337"></polygon>
                <polygon id="Fill-2" fill="#2A316C" points="41 79 41 40 77 59.5271986"></polygon>
                <polygon id="Fill-3" fill="#DFDF5F" points="41 118 77 98.5276635 41 79"></polygon>
                <polygon id="Fill-4" fill="#AED4F0" points="0 99 36 79.5276635 0 60"></polygon>
                <polygon id="Fill-5" fill="#00B3ED" points="77 20 77 59 41 39.4728014"></polygon>
                <polygon id="Fill-6" fill="#00A892" points="77 60 77 99 41 79.4728014"></polygon>
                <polygon id="Fill-7" fill="#2A316C" points="0 59.4730335 36 79 36 40"></polygon>
                <polygon id="Fill-8" fill="#00B3ED" points="0 98.4730335 36 118 36 79"></polygon>
                <g id="Group-49">
                    <path d="M92.0347419,63.509025 L93.4010239,63.509025 C94.0082603,63.509025 94.5733275,63.4466917 95.0962256,63.322025 C95.6191236,63.1973583 96.0717397,62.9900528 96.4540738,62.701525 C96.8364078,62.412525 97.1372148,62.0328583 97.3564946,61.562525 C97.5757744,61.0921917 97.6854143,60.517025 97.6854143,59.837025 C97.6854143,59.2481639 97.5757744,58.7348583 97.3564946,58.298525 C97.1372148,57.8621917 96.8420304,57.5023583 96.4709414,57.219025 C96.0998525,56.9356917 95.6641041,56.7231917 95.1636963,56.581525 C94.6632885,56.4398583 94.1375792,56.3685528 93.5865683,56.3685528 L92.0347419,56.3685528 L92.0347419,63.509025 Z M89.4033839,53.921025 L93.3504208,53.921025 C94.306256,53.921025 95.2142993,54.0286917 96.074551,54.2435528 C96.9348026,54.4593583 97.6854143,54.8078583 98.3263861,55.289525 C98.9673579,55.7711917 99.4761996,56.3973583 99.8529111,57.168025 C100.229623,57.9386917 100.417978,58.8741639 100.417978,59.973025 C100.417978,60.9476917 100.234777,61.8066639 99.8697787,62.548525 C99.5043124,63.2908583 99.0123384,63.9141917 98.3938568,64.418525 C97.7753753,64.9228583 97.0613102,65.3053583 96.2516616,65.5655528 C95.442013,65.8266917 94.592538,65.957025 93.7046421,65.957025 L89.4033839,65.957025 L89.4033839,53.921025 Z" id="Fill-9" fill="#FEFEFE"></path>
                    <path d="M105.562433,59.9387889 C105.562433,60.5059278 105.649583,61.0244278 105.823882,61.4942889 C105.998181,61.9650944 106.247917,62.3726222 106.574494,62.7187611 C106.900134,63.0644278 107.29137,63.3331222 107.746797,63.5262611 C108.202225,63.7189278 108.710598,63.8147889 109.273322,63.8147889 C109.835578,63.8147889 110.34442,63.7189278 110.799847,63.5262611 C111.255275,63.3331222 111.646043,63.0644278 111.972151,62.7187611 C112.297791,62.3726222 112.548463,61.9650944 112.722294,61.4942889 C112.897062,61.0244278 112.984212,60.5059278 112.984212,59.9387889 C112.984212,59.3839278 112.897062,58.8677889 112.722294,58.3922611 C112.548463,57.9162611 112.297791,57.5054278 111.972151,57.1592889 C111.646043,56.8136222 111.255275,56.5449278 110.799847,56.3517889 C110.34442,56.1591222 109.835578,56.0627889 109.273322,56.0627889 C108.710598,56.0627889 108.202225,56.1591222 107.746797,56.3517889 C107.29137,56.5449278 106.900134,56.8136222 106.574494,57.1592889 C106.247917,57.5054278 105.998181,57.9162611 105.823882,58.3922611 C105.649583,58.8677889 105.562433,59.3839278 105.562433,59.9387889 M102.829869,59.9387889 C102.829869,58.9759278 102.990112,58.1027889 103.310598,57.3207889 C103.631084,56.5387889 104.078077,55.8734278 104.651578,55.3232889 C105.225079,54.7736222 105.904941,54.3514556 106.692567,54.0567889 C107.479257,53.7621222 108.339509,53.6147889 109.273322,53.6147889 C110.206667,53.6147889 111.066919,53.7621222 111.854077,54.0567889 C112.640767,54.3514556 113.322034,54.7736222 113.894598,55.3232889 C114.468567,55.8734278 114.915092,56.5387889 115.236047,57.3207889 C115.556533,58.1027889 115.716776,58.9759278 115.716776,59.9387889 C115.716776,60.9025944 115.556533,61.7752611 115.236047,62.5567889 C114.915092,63.3387889 114.468567,64.0046222 113.894598,64.5542889 C113.322034,65.1039556 112.640767,65.5265944 111.854077,65.8207889 C111.066919,66.1154556 110.206667,66.2632611 109.273322,66.2632611 C108.339509,66.2632611 107.479257,66.1154556 106.692567,65.8207889 C105.904941,65.5265944 105.225079,65.1039556 104.651578,64.5542889 C104.078077,64.0046222 103.631084,63.3387889 103.310598,62.5567889 C102.990112,61.7752611 102.829869,60.9025944 102.829869,59.9387889" id="Fill-11" fill="#FEFEFE"></path>
                    <polygon id="Fill-13" fill="#FEFEFE" points="117.52157 53.9209306 120.388607 53.9209306 122.294655 61.6389306 122.328859 61.6389306 124.825275 53.9209306 127.271557 53.9209306 129.750638 61.8429306 129.784373 61.8429306 131.791158 53.9209306 134.457189 53.9209306 130.964642 65.9569306 128.620035 65.9569306 125.989145 57.6269306 125.95541 57.6269306 123.323584 65.9569306 121.064252 65.9569306"></polygon>
                    <polygon id="Fill-15" fill="#FEFEFE" points="136.902206 53.9209306 140.478622 53.9209306 145.555793 62.2849306 145.589529 62.2849306 145.589529 53.9209306 148.220418 53.9209306 148.220418 65.9569306 144.779412 65.9569306 139.567767 57.3889306 139.534032 57.3889306 139.534032 65.9569306 136.902206 65.9569306"></polygon>
                    <polygon id="Fill-17" fill="#FEFEFE" points="154.22564 56.2668361 150.8179 56.2668361 150.8179 53.9208361 160.2638 53.9208361 160.2638 56.2668361 156.856529 56.2668361 156.856529 65.9568361 154.22564 65.9568361"></polygon>
                    <path d="M164.615099,59.9387889 C164.615099,60.5059278 164.702249,61.0244278 164.877017,61.4942889 C165.050848,61.9650944 165.30152,62.3726222 165.62716,62.7187611 C165.953737,63.0644278 166.344505,63.3331222 166.799464,63.5262611 C167.25536,63.7189278 167.764201,63.8147889 168.325989,63.8147889 C168.888713,63.8147889 169.397555,63.7189278 169.853451,63.5262611 C170.307941,63.3331222 170.698709,63.0644278 171.025754,62.7187611 C171.351394,62.3726222 171.60113,61.9650944 171.775898,61.4942889 C171.949728,61.0244278 172.037815,60.5059278 172.037815,59.9387889 C172.037815,59.3839278 171.949728,58.8677889 171.775898,58.3922611 C171.60113,57.9162611 171.351394,57.5054278 171.025754,57.1592889 C170.698709,56.8136222 170.307941,56.5449278 169.853451,56.3517889 C169.397555,56.1591222 168.888713,56.0627889 168.325989,56.0627889 C167.764201,56.0627889 167.25536,56.1591222 166.799464,56.3517889 C166.344505,56.5449278 165.953737,56.8136222 165.62716,57.1592889 C165.30152,57.5054278 165.050848,57.9162611 164.877017,58.3922611 C164.702249,58.8677889 164.615099,59.3839278 164.615099,59.9387889 M161.882535,59.9387889 C161.882535,58.9759278 162.043715,58.1027889 162.363733,57.3207889 C162.684219,56.5387889 163.130744,55.8734278 163.704713,55.3232889 C164.278214,54.7736222 164.958075,54.3514556 165.745234,54.0567889 C166.532392,53.7621222 167.392644,53.6147889 168.325989,53.6147889 C169.259334,53.6147889 170.119585,53.7621222 170.907681,54.0567889 C171.69437,54.3514556 172.3747,54.7736222 172.948201,55.3232889 C173.522171,55.8734278 173.968696,56.5387889 174.288713,57.3207889 C174.609199,58.1027889 174.769442,58.9759278 174.769442,59.9387889 C174.769442,60.9025944 174.609199,61.7752611 174.288713,62.5567889 C173.968696,63.3387889 173.522171,64.0046222 172.948201,64.5542889 C172.3747,65.1039556 171.69437,65.5265944 170.907681,65.8207889 C170.119585,66.1154556 169.259334,66.2632611 168.325989,66.2632611 C167.392644,66.2632611 166.532392,66.1154556 165.745234,65.8207889 C164.958075,65.5265944 164.278214,65.1039556 163.704713,64.5542889 C163.130744,64.0046222 162.684219,63.3387889 162.363733,62.5567889 C162.043715,61.7752611 161.882535,60.9025944 161.882535,59.9387889" id="Fill-19" fill="#FEFEFE"></path>
                    <polygon id="Fill-21" fill="#FEFEFE" points="176.574003 53.9209306 179.441977 53.9209306 181.348024 61.6389306 181.382228 61.6389306 183.877708 53.9209306 186.32399 53.9209306 188.804007 61.8429306 188.836805 61.8429306 190.844528 53.9209306 193.509621 53.9209306 190.018011 65.9569306 187.673404 65.9569306 185.041577 57.6269306 185.007842 57.6269306 182.376953 65.9569306 180.116684 65.9569306"></polygon>
                    <polygon id="Fill-23" fill="#FEFEFE" points="195.955575 53.9209306 199.531054 53.9209306 204.608226 62.2849306 204.641961 62.2849306 204.641961 53.9209306 207.273787 53.9209306 207.273787 65.9569306 203.832781 65.9569306 198.6202 57.3889306 198.586464 57.3889306 198.586464 65.9569306 195.955575 65.9569306"></polygon>
                    <path d="M92.0347419,80.1548583 L93.4010239,80.1548583 C94.0082603,80.1548583 94.5733275,80.092525 95.0962256,79.9678583 C95.6191236,79.8431917 96.0717397,79.6358861 96.4540738,79.3473583 C96.8364078,79.0583583 97.1372148,78.6786917 97.3564946,78.2083583 C97.5757744,77.738025 97.6854143,77.1628583 97.6854143,76.4828583 C97.6854143,75.893525 97.5757744,75.3806917 97.3564946,74.9443583 C97.1372148,74.508025 96.8420304,74.1477194 96.4709414,73.8648583 C96.0998525,73.581525 95.6641041,73.369025 95.1636963,73.2273583 C94.6632885,73.0852194 94.1375792,73.0148583 93.5865683,73.0148583 L92.0347419,73.0148583 L92.0347419,80.1548583 Z M89.4033839,70.5663861 L93.3504208,70.5663861 C94.306256,70.5663861 95.2142993,70.674525 96.074551,70.8898583 C96.9348026,71.1051917 97.6854143,71.4536917 98.3263861,71.9353583 C98.9673579,72.417025 99.4761996,73.0427194 99.8529111,73.8133861 C100.229623,74.584525 100.417978,75.519525 100.417978,76.6188583 C100.417978,77.593525 100.234777,78.452025 99.8697787,79.1943583 C99.5043124,79.9366917 99.0123384,80.560025 98.3938568,81.0643583 C97.7753753,81.5686917 97.0613102,81.9511917 96.2516616,82.2113861 C95.442013,82.472525 94.592538,82.6028583 93.7046421,82.6028583 L89.4033839,82.6028583 L89.4033839,70.5663861 Z" id="Fill-25" fill="#FEFEFE"></path>
                    <polygon id="Fill-27" fill="#FEFEFE" points="103.572047 70.5665278 111.6854 70.5665278 111.6854 73.015 106.203405 73.015 106.203405 75.259 111.381782 75.259 111.381782 77.7065278 106.203405 77.7065278 106.203405 80.155 111.989487 80.155 111.989487 82.6025278 103.572047 82.6025278"></polygon>
                    <polygon id="Fill-29" fill="#FEFEFE" points="117.67352 72.9129056 114.26578 72.9129056 114.26578 70.5664333 123.711681 70.5664333 123.711681 72.9129056 120.30441 72.9129056 120.30441 82.6029056 117.67352 82.6029056"></polygon>
                    <path d="M128.940567,75.5474806 L130.492862,75.5474806 C130.728541,75.5474806 130.978745,75.5389806 131.243006,75.5219806 C131.507734,75.5049806 131.746225,75.4544528 131.960351,75.3689806 C132.173539,75.2839806 132.350181,75.1508139 132.491214,74.9694806 C132.632246,74.7886194 132.702528,74.5336194 132.702528,74.2044806 C132.702528,73.8989528 132.640212,73.6548139 132.516984,73.4734806 C132.392351,73.2926194 132.235856,73.1537861 132.044689,73.0574528 C131.853522,72.9606472 131.633774,72.8959528 131.386849,72.8619528 C131.13852,72.8274806 130.897218,72.8104806 130.661071,72.8104806 L128.940567,72.8104806 L128.940567,75.5474806 Z M126.309678,70.5664806 L130.930954,70.5664806 C131.538659,70.5664806 132.114034,70.6259806 132.660359,70.7449806 C133.205279,70.8639806 133.683665,71.0627861 134.093643,71.3404528 C134.504559,71.6181194 134.830199,71.9921194 135.071969,72.4624528 C135.313739,72.9327861 135.435092,73.5192861 135.435092,74.2214806 C135.435092,75.0714806 135.215813,75.7939806 134.777253,76.3889806 C134.338225,76.9839806 133.697253,77.3612861 132.853869,77.5199528 L135.890051,82.6024806 L132.735795,82.6024806 L130.239847,77.7914806 L128.940567,77.7914806 L128.940567,82.6024806 L126.309678,82.6024806 L126.309678,70.5664806 Z" id="Fill-31" fill="#FEFEFE"></path>
                    <path d="M140.595665,76.5846222 C140.595665,77.1512889 140.682815,77.6702611 140.857583,78.1401222 C141.031413,78.6104556 141.282086,79.0184556 141.607726,79.3641222 C141.934303,79.7097889 142.325071,79.9789556 142.78003,80.1716222 C143.235925,80.3647611 143.744767,80.4606222 144.306554,80.4606222 C144.869279,80.4606222 145.378121,80.3647611 145.834016,80.1716222 C146.288507,79.9789556 146.679275,79.7097889 147.00632,79.3641222 C147.33196,79.0184556 147.581695,78.6104556 147.756463,78.1401222 C147.930294,77.6702611 148.018381,77.1512889 148.018381,76.5846222 C148.018381,76.0292889 147.930294,75.5136222 147.756463,75.0380944 C147.581695,74.5616222 147.33196,74.1512611 147.00632,73.8051222 C146.679275,73.4599278 146.288507,73.1907611 145.834016,72.9976222 C145.378121,72.8049556 144.869279,72.7086222 144.306554,72.7086222 C143.744767,72.7086222 143.235925,72.8049556 142.78003,72.9976222 C142.325071,73.1907611 141.934303,73.4599278 141.607726,73.8051222 C141.282086,74.1512611 141.031413,74.5616222 140.857583,75.0380944 C140.682815,75.5136222 140.595665,76.0292889 140.595665,76.5846222 M137.863101,76.5846222 C137.863101,75.6217611 138.024281,74.7486222 138.344298,73.9666222 C138.664784,73.1846222 139.111309,72.5192611 139.685279,71.9695944 C140.25878,71.4194556 140.938641,70.9977611 141.7258,70.7026222 C142.512958,70.4079556 143.37321,70.26015 144.306554,70.26015 C145.239899,70.26015 146.100151,70.4079556 146.888246,70.7026222 C147.674936,70.9977611 148.355266,71.4194556 148.928767,71.9695944 C149.502737,72.5192611 149.949262,73.1846222 150.269279,73.9666222 C150.589765,74.7486222 150.750008,75.6217611 150.750008,76.5846222 C150.750008,77.5479556 150.589765,78.4206222 150.269279,79.2026222 C149.949262,79.9846222 149.502737,80.6504556 148.928767,81.2001222 C148.355266,81.7497889 147.674936,82.1719556 146.888246,82.4666222 C146.100151,82.7612889 145.239899,82.9090944 144.306554,82.9090944 C143.37321,82.9090944 142.512958,82.7612889 141.7258,82.4666222 C140.938641,82.1719556 140.25878,81.7497889 139.685279,81.2001222 C139.111309,80.6504556 138.664784,79.9846222 138.344298,79.2026222 C138.024281,78.4206222 137.863101,77.5479556 137.863101,76.5846222" id="Fill-33" fill="#FEFEFE"></path>
                    <mask id="mask-2" fill="white">
                        <use xlink:href="#path-1"></use>
                    </mask>
                    <g id="Clip-36"></g>
                    <polygon id="Fill-35" fill="#FEFEFE" mask="url(#mask-2)" points="153.769041 82.6025278 156.400868 82.6025278 156.400868 70.5665278 153.769041 70.5665278"></polygon>
                    <polygon id="Fill-37" fill="#FEFEFE" mask="url(#mask-2)" points="162.37212 72.9129056 158.965317 72.9129056 158.965317 70.5664333 168.411217 70.5664333 168.411217 72.9129056 165.003009 72.9129056 165.003009 82.6029056 162.37212 82.6029056"></polygon>
                    <path d="M92.0347419,92.3122667 L93.7889805,92.3122667 C94.025128,92.3122667 94.2528416,92.2900722 94.4721215,92.2442667 C94.6914013,92.1994056 94.8881909,92.1229056 95.0624902,92.0147667 C95.2367896,91.9075722 95.3773536,91.7597667 95.4841822,91.5732389 C95.5910108,91.3857667 95.6444252,91.1510722 95.6444252,90.8672667 C95.6444252,90.5612667 95.5741432,90.3152389 95.4335792,90.1277667 C95.2930152,89.9412389 95.1130933,89.7967389 94.8938134,89.6942667 C94.6745336,89.5922667 94.4299523,89.5275722 94.1600694,89.4987667 C93.8901866,89.4704333 93.6315488,89.4562667 93.3841562,89.4562667 L92.0347419,89.4562667 L92.0347419,92.3122667 Z M89.4033839,87.2122667 L93.8395835,87.2122667 C94.4575965,87.2122667 95.0428113,87.2694056 95.5938221,87.3827389 C96.1443644,87.4960722 96.6255618,87.6915722 97.0360087,87.9692389 C97.4464555,88.2469056 97.772564,88.6209056 98.0143341,89.0912389 C98.2561041,89.5615722 98.3769892,90.1537389 98.3769892,90.8672667 C98.3769892,91.5704056 98.264538,92.1597389 98.0396356,92.6357389 C97.8142646,93.1112667 97.5054924,93.4914056 97.1119132,93.7747389 C96.7183341,94.0576 96.2516616,94.2587667 95.7118959,94.3777667 C95.1721302,94.4972389 94.5873839,94.5567389 93.9576573,94.5567389 L92.0347419,94.5567389 L92.0347419,99.2482667 L89.4033839,99.2482667 L89.4033839,87.2122667 Z" id="Fill-38" fill="#FEFEFE" mask="url(#mask-2)"></path>
                    <path d="M104.989119,90.7143611 L103.538499,94.4543611 L106.456607,94.4543611 L104.989119,90.7143611 Z M103.977059,87.2123611 L106.152989,87.2123611 L111.347766,99.2483611 L108.379523,99.2483611 L107.350594,96.6983611 L102.711983,96.6983611 L101.71679,99.2483611 L98.8155488,99.2483611 L103.977059,87.2123611 Z" id="Fill-39" fill="#FEFEFE" mask="url(#mask-2)"></path>
                    <path d="M116.442648,92.1933139 L117.994006,92.1933139 C118.230622,92.1933139 118.480826,92.1848139 118.745086,92.1678139 C119.008878,92.1508139 119.248305,92.1002861 119.461494,92.0148139 C119.674683,91.9298139 119.852262,91.7966472 119.993295,91.6153139 C120.13339,91.4344528 120.203672,91.1794528 120.203672,90.8503139 C120.203672,90.5447861 120.141824,90.3006472 120.018128,90.1193139 C119.894431,89.9384528 119.737,89.7996194 119.545833,89.7032861 C119.354666,89.6064806 119.135854,89.5417861 118.887993,89.5077861 C118.6406,89.4733139 118.399299,89.4563139 118.163151,89.4563139 L116.442648,89.4563139 L116.442648,92.1933139 Z M113.810822,87.2123139 L118.433034,87.2123139 C119.039802,87.2123139 119.616115,87.2718139 120.161503,87.3908139 C120.70736,87.5098139 121.184809,87.7086194 121.595724,87.9862861 C122.005702,88.2639528 122.331342,88.6379528 122.574049,89.1082861 C122.81582,89.5786194 122.936236,90.1651194 122.936236,90.8673139 C122.936236,91.7173139 122.716956,92.4398139 122.278397,93.0348139 C121.840305,93.6298139 121.199334,94.0071194 120.35595,94.1657861 L123.392132,99.2483139 L120.237876,99.2483139 L117.740991,94.4373139 L116.442648,94.4373139 L116.442648,99.2483139 L113.810822,99.2483139 L113.810822,87.2123139 Z" id="Fill-40" fill="#FEFEFE" mask="url(#mask-2)"></path>
                    <polygon id="Fill-41" fill="#FEFEFE" mask="url(#mask-2)" points="128.013548 89.5587389 124.606745 89.5587389 124.606745 87.2122667 134.052646 87.2122667 134.052646 89.5587389 130.644437 89.5587389 130.644437 99.2487389 128.013548 99.2487389"></polygon>
                    <polygon id="Fill-42" fill="#FEFEFE" mask="url(#mask-2)" points="136.649659 87.2123611 140.225138 87.2123611 145.30231 95.5763611 145.336045 95.5763611 145.336045 87.2123611 147.967872 87.2123611 147.967872 99.2483611 144.526865 99.2483611 139.314284 90.6808333 139.280548 90.6808333 139.280548 99.2483611 136.649659 99.2483611"></polygon>
                    <polygon id="Fill-43" fill="#FEFEFE" mask="url(#mask-2)" points="151.763006 87.2123611 159.876359 87.2123611 159.876359 89.6608333 154.393895 89.6608333 154.393895 91.9048333 159.572741 91.9048333 159.572741 94.3523611 154.393895 94.3523611 154.393895 96.8008333 160.180446 96.8008333 160.180446 99.2483611 151.763006 99.2483611"></polygon>
                    <path d="M166.184543,92.1933139 L167.736838,92.1933139 C167.972517,92.1933139 168.222721,92.1848139 168.486981,92.1678139 C168.75171,92.1508139 168.9902,92.1002861 169.204326,92.0148139 C169.417515,91.9298139 169.594157,91.7966472 169.73519,91.6153139 C169.876222,91.4344528 169.946504,91.1794528 169.946504,90.8503139 C169.946504,90.5447861 169.884187,90.3006472 169.76096,90.1193139 C169.636326,89.9384528 169.479832,89.7996194 169.288665,89.7032861 C169.097498,89.6064806 168.877749,89.5417861 168.630825,89.5077861 C168.382495,89.4733139 168.141194,89.4563139 167.905046,89.4563139 L166.184543,89.4563139 L166.184543,92.1933139 Z M163.553654,87.2123139 L168.174929,87.2123139 C168.782634,87.2123139 169.35801,87.2718139 169.904335,87.3908139 C170.449255,87.5098139 170.927641,87.7086194 171.337619,87.9862861 C171.748534,88.2639528 172.074174,88.6379528 172.315944,89.1082861 C172.557715,89.5786194 172.679068,90.1651194 172.679068,90.8673139 C172.679068,91.7173139 172.459788,92.4398139 172.021229,93.0348139 C171.5822,93.6298139 170.941229,94.0071194 170.097845,94.1657861 L173.134027,99.2483139 L169.979771,99.2483139 L167.483823,94.4373139 L166.184543,94.4373139 L166.184543,99.2483139 L163.553654,99.2483139 L163.553654,87.2123139 Z" id="Fill-44" fill="#FEFEFE" mask="url(#mask-2)"></path>
                    <path d="M181.652064,90.1535972 C181.437938,89.8815972 181.148845,89.6804306 180.783379,89.5500972 C180.417444,89.4197639 180.071656,89.3545972 179.746016,89.3545972 C179.554381,89.3545972 179.35806,89.3772639 179.155648,89.4225972 C178.953236,89.4679306 178.762069,89.5387639 178.581678,89.634625 C178.402225,89.7309583 178.256038,89.8589306 178.143587,90.0175972 C178.030667,90.1762639 177.97491,90.3689306 177.97491,90.5955972 C177.97491,90.9582639 178.109383,91.2359306 178.379734,91.4285972 C178.649617,91.6212639 178.989782,91.7855972 179.399761,91.9215972 C179.810676,92.0575972 180.252047,92.193125 180.724342,92.329125 C181.196168,92.4655972 181.638476,92.6582639 182.048455,92.9075972 C182.45937,93.1569306 182.798598,93.4912639 183.068481,93.9105972 C183.338832,94.3299306 183.474242,94.8909306 183.474242,95.5935972 C183.474242,96.2627361 183.349609,96.8459306 183.102685,97.3445972 C182.855292,97.8432639 182.52075,98.2569306 182.099526,98.585125 C181.677834,98.9142639 181.188203,99.1579306 180.63157,99.316125 C180.075405,99.4747917 179.48691,99.5545972 178.869366,99.5545972 C178.092984,99.5545972 177.372828,99.4355972 176.709366,99.197125 C176.045904,98.959125 175.428359,98.5742639 174.85439,98.0415972 L176.726702,95.9675972 C176.996585,96.3302639 177.336281,96.6107639 177.747197,96.8090972 C178.157175,97.0074306 178.581678,97.1065972 179.021175,97.1065972 C179.234364,97.1065972 179.451301,97.0810972 179.670112,97.0300972 C179.889392,96.9790972 180.086181,96.9025972 180.260012,96.8005972 C180.43478,96.698125 180.574875,96.5682639 180.682173,96.4095972 C180.789001,96.2509306 180.841947,96.0639306 180.841947,95.8485972 C180.841947,95.4859306 180.705131,95.2002361 180.429626,94.9900972 C180.153184,94.7804306 179.807865,94.6019306 179.391795,94.454125 C178.975257,94.3072639 178.525921,94.1599306 178.042849,94.0125972 C177.558841,93.8652639 177.109505,93.6669306 176.692967,93.4175972 C176.276429,93.1682639 175.930641,92.839125 175.655136,92.4315972 C175.37963,92.0235972 175.242346,91.4852639 175.242346,90.816125 C175.242346,90.1705972 175.368854,89.6039306 175.622338,89.1165972 C175.874884,88.6292639 176.212706,88.2212639 176.634398,87.8925972 C177.055153,87.5639306 177.542442,87.3174306 178.092984,87.1530972 C178.643995,86.9887639 179.211405,86.9065972 179.797088,86.9065972 C180.471327,86.9065972 181.123075,87.0029306 181.753739,87.195125 C182.383466,87.3887361 182.950407,87.7112639 183.456906,88.1645972 L181.652064,90.1535972 Z" id="Fill-45" fill="#FEFEFE" mask="url(#mask-2)"></path>
                    <polygon id="Fill-46" fill="#FEFEFE" mask="url(#mask-2)" points="186.69536 87.2123611 189.326249 87.2123611 189.326249 91.7003611 194.437156 91.7003611 194.437156 87.2123611 197.069451 87.2123611 197.069451 99.2483611 194.437156 99.2483611 194.437156 94.0468333 189.326249 94.0468333 189.326249 99.2483611 186.69536 99.2483611"></polygon>
                    <polygon id="Fill-47" fill="#FEFEFE" mask="url(#mask-2)" points="200.728659 99.2483611 203.359549 99.2483611 203.359549 87.2123611 200.728659 87.2123611"></polygon>
                    <path d="M209.652318,92.3122667 L211.406556,92.3122667 C211.642704,92.3122667 211.870417,92.2900722 212.089229,92.2442667 C212.308977,92.1994056 212.505767,92.1229056 212.679597,92.0147667 C212.854365,91.9075722 212.994461,91.7597667 213.101289,91.5732389 C213.208587,91.3857667 213.261532,91.1510722 213.261532,90.8672667 C213.261532,90.5612667 213.19125,90.3152389 213.051155,90.1277667 C212.910122,89.9412389 212.730669,89.7967389 212.511389,89.6942667 C212.291641,89.5922667 212.047059,89.5275722 211.777177,89.4987667 C211.507294,89.4704333 211.248187,89.4562667 211.001263,89.4562667 L209.652318,89.4562667 L209.652318,92.3122667 Z M207.020491,87.2122667 L211.457159,87.2122667 C212.075641,87.2122667 212.660387,87.2694056 213.211398,87.3827389 C213.76194,87.4960722 214.242669,87.6915722 214.653584,87.9692389 C215.063563,88.2469056 215.39014,88.6209056 215.63191,89.0912389 C215.873211,89.5615722 215.994096,90.1537389 215.994096,90.8672667 C215.994096,91.5704056 215.881645,92.1597389 215.657211,92.6357389 C215.432309,93.1112667 215.123068,93.4914056 214.729489,93.7747389 C214.33591,94.0576 213.869237,94.2587667 213.329472,94.3777667 C212.789237,94.4972389 212.204491,94.5567389 211.575233,94.5567389 L209.652318,94.5567389 L209.652318,99.2482667 L207.020491,99.2482667 L207.020491,87.2122667 Z" id="Fill-48" fill="#FEFEFE" mask="url(#mask-2)"></path>
                </g>
            </g>
        </g>
    </g>
</svg>