<?xml version="1.0" encoding="UTF-8"?>
<svg width="83px" height="47px" viewBox="0 0 83 47" version="1.1" xmlns="http://www.w3.org/2000/svg" xmlns:xlink="http://www.w3.org/1999/xlink">
    <!-- Generator: Sketch 48.2 (47327) - http://www.bohemiancoding.com/sketch -->
    <title>Logo</title>
    <desc>Created with Sketch.</desc>
    <defs>
        <polygon id="path-1" points="0.0101878788 44.7901657 81.9448364 44.7901657 81.9448364 0.0387845304 0.0101878788 0.0387845304"></polygon>
    </defs>
    <g id="Downtown-In-Context" stroke="none" stroke-width="1" fill="none" fill-rule="evenodd" transform="translate(-33.000000, -13.000000)">
        <g id="Top-Nav-Copy-2" transform="translate(0.000000, 1.000000)">
            <g id="Logo" transform="translate(34.000000, 13.000000)">
                <polygon id="Stroke-1" stroke="#FFFFFF" points="16 0 16 15 30 7.5105"></polygon>
                <polygon id="Stroke-3" stroke="#FFFFFF" points="16 30 16 15 30 22.5105"></polygon>
                <g id="Group-8" transform="translate(0.000000, 22.000000)" stroke="#FFFFFF">
                    <polygon id="Stroke-4" points="15.8921949 21.7959802 29.8269407 14.5533868 15.8921949 7.29048571"></polygon>
                    <polygon id="Stroke-6" points="0.0105508475 14.529767 13.9452966 7.28717363 0.0105508475 0.0242725275"></polygon>
                </g>
                <polygon id="Stroke-9" stroke="#FFFFFF" points="30 8 30 23 16 15.4895"></polygon>
                <polygon id="Stroke-10" stroke="#FFFFFF" points="30 22 30 37 16 29.4895"></polygon>
                <g id="Group-15" transform="translate(0.000000, 15.000000)" stroke="#FFFFFF">
                    <polygon id="Stroke-11" points="0.0105636364 7.46640496 13.9622 14.9148347 13.9622 0.0388016529"></polygon>
                    <polygon id="Stroke-13" points="0.0105636364 22.342562 13.9622 29.7907438 13.9622 14.9149587"></polygon>
                </g>
                <g id="Group-56">
                    <path d="M34.9224333,23.8929613 L35.4407727,23.8929613 C35.6711182,23.8929613 35.8853121,23.8695912 36.0838515,23.8226022 C36.2821424,23.7756133 36.4538455,23.697547 36.5989606,23.5889006 C36.7438273,23.4800055 36.8578818,23.3370497 36.9411242,23.1600331 C37.0243667,22.982768 37.0658636,22.766221 37.0658636,22.5101436 C37.0658636,22.2883757 37.0243667,22.0949503 36.9411242,21.9308619 C36.8578818,21.7665249 36.7460636,21.6310276 36.6051727,21.5241215 C36.4645303,21.4174641 36.2992879,21.3374088 36.1094455,21.2842044 C35.919603,21.2307514 35.7200697,21.2039006 35.5110939,21.2039006 L34.9224333,21.2039006 L34.9224333,23.8929613 Z M33.9242697,20.2822707 L35.4213909,20.2822707 C35.7841788,20.2822707 36.1285788,20.3227956 36.4548394,20.4035967 C36.7811,20.484895 37.0658636,20.6161657 37.3091303,20.7976575 C37.5521485,20.9789006 37.7452212,21.2148398 37.8881,21.5049779 C38.0309788,21.7953646 38.1025424,22.1474088 38.1025424,22.5613591 C38.1025424,22.9283204 38.0329667,23.2517735 37.8945606,23.531221 C37.7559061,23.8109171 37.5692939,24.0456133 37.3347242,24.235558 C37.1001545,24.4255028 36.8293061,24.569453 36.5221788,24.6674088 C36.2150515,24.7658619 35.8927667,24.8148398 35.5558212,24.8148398 L33.9242697,24.8148398 L33.9242697,20.2822707 Z" id="Fill-16" fill="#FFFFFF"></path>
                    <path d="M40.0539933,22.5485055 C40.0539933,22.7620691 40.0870418,22.9572348 40.1531388,23.1342514 C40.2192358,23.3115166 40.3139085,23.465163 40.4379024,23.5954392 C40.5613994,23.7254669 40.7097448,23.8266547 40.8826903,23.8995 C41.0553873,23.9720967 41.2482115,24.0081464 41.46166,24.0081464 C41.6746115,24.0081464 41.8679327,23.9720967 42.0406297,23.8995 C42.2133267,23.8266547 42.3616721,23.7254669 42.4854176,23.5954392 C42.6089145,23.465163 42.7040842,23.3115166 42.7699327,23.1342514 C42.8362782,22.9572348 42.8693267,22.7620691 42.8693267,22.5485055 C42.8693267,22.3396657 42.8362782,22.1452459 42.7699327,21.9659917 C42.7040842,21.7867376 42.6089145,21.6320967 42.4854176,21.5018204 C42.3616721,21.3715442 42.2133267,21.2703564 42.0406297,21.1977597 C41.8679327,21.125163 41.6746115,21.0888646 41.46166,21.0888646 C41.2482115,21.0888646 41.0553873,21.125163 40.8826903,21.1977597 C40.7097448,21.2703564 40.5613994,21.3715442 40.4379024,21.5018204 C40.3139085,21.6320967 40.2192358,21.7867376 40.1531388,21.9659917 C40.0870418,22.1452459 40.0539933,22.3396657 40.0539933,22.5485055 M39.0173145,22.5485055 C39.0173145,22.1860193 39.0781933,21.8570967 39.1997024,21.5624834 C39.32146,21.2681188 39.4909267,21.017511 39.7083509,20.8104116 C39.9260236,20.6033122 40.1839509,20.4444448 40.4826297,20.3333122 C40.78106,20.2224282 41.1075691,20.1669862 41.46166,20.1669862 C41.8157509,20.1669862 42.1420115,20.2224282 42.4404418,20.3333122 C42.7391206,20.4444448 42.9975448,20.6033122 43.2147206,20.8104116 C43.4323933,21.017511 43.60186,21.2681188 43.7236176,21.5624834 C43.8451267,21.8570967 43.9060055,22.1860193 43.9060055,22.5485055 C43.9060055,22.911489 43.8451267,23.240163 43.7236176,23.5345276 C43.60186,23.8288923 43.4323933,24.0797486 43.2147206,24.2865994 C42.9975448,24.4936989 42.7391206,24.6528149 42.4404418,24.7636989 C42.1420115,24.8745829 41.8157509,24.9302735 41.46166,24.9302735 C41.1075691,24.9302735 40.78106,24.8745829 40.4826297,24.7636989 C40.1839509,24.6528149 39.9260236,24.4936989 39.7083509,24.2865994 C39.4909267,24.0797486 39.32146,23.8288923 39.1997024,23.5345276 C39.0781933,23.240163 39.0173145,22.911489 39.0173145,22.5485055" id="Fill-18" fill="#FFFFFF"></path>
                    <polygon id="Fill-20" fill="#FFFFFF" points="44.5905315 20.2821713 45.6783982 20.2821713 46.4009921 23.1887735 46.4144103 23.1887735 47.3608891 20.2821713 48.28898 20.2821713 49.2297436 23.2655967 49.2421679 23.2655967 50.0035255 20.2821713 51.0148588 20.2821713 49.6899376 24.8147403 48.8006103 24.8147403 47.8026952 21.6779171 47.7897739 21.6779171 46.7913618 24.8147403 45.9340891 24.8147403"></polygon>
                    <polygon id="Fill-22" fill="#FFFFFF" points="51.9424279 20.2821713 53.2989067 20.2821713 55.2249127 23.4319227 55.2375855 23.4319227 55.2375855 20.2821713 56.2357491 20.2821713 56.2357491 24.8147403 54.9304582 24.8147403 52.9532642 21.5881657 52.9405915 21.5881657 52.9405915 24.8147403 51.9424279 24.8147403"></polygon>
                    <polygon id="Fill-24" fill="#FFFFFF" points="58.5136842 21.1656878 57.2210661 21.1656878 57.2210661 20.2820967 60.8044661 20.2820967 60.8044661 21.1656878 59.5115994 21.1656878 59.5115994 24.8149144 58.5136842 24.8149144"></polygon>
                    <path d="M62.4550018,22.5485055 C62.4550018,22.7620691 62.4880503,22.9572348 62.5541473,23.1342514 C62.6202442,23.3115166 62.7151655,23.465163 62.8389109,23.5954392 C62.9626564,23.7254669 63.1107533,23.8266547 63.2836988,23.8995 C63.4566442,23.9720967 63.6494685,24.0081464 63.8626685,24.0081464 C64.07562,24.0081464 64.2689412,23.9720967 64.4418867,23.8995 C64.6143352,23.8266547 64.7626806,23.7254669 64.8866745,23.5954392 C65.0101715,23.465163 65.1050927,23.3115166 65.1711897,23.1342514 C65.2372867,22.9572348 65.2705836,22.7620691 65.2705836,22.5485055 C65.2705836,22.3396657 65.2372867,22.1452459 65.1711897,21.9659917 C65.1050927,21.7867376 65.0101715,21.6320967 64.8866745,21.5018204 C64.7626806,21.3715442 64.6143352,21.2703564 64.4418867,21.1977597 C64.2689412,21.125163 64.07562,21.0888646 63.8626685,21.0888646 C63.6494685,21.0888646 63.4566442,21.125163 63.2836988,21.1977597 C63.1107533,21.2703564 62.9626564,21.3715442 62.8389109,21.5018204 C62.7151655,21.6320967 62.6202442,21.7867376 62.5541473,21.9659917 C62.4880503,22.1452459 62.4550018,22.3396657 62.4550018,22.5485055 M61.418323,22.5485055 C61.418323,22.1860193 61.4794503,21.8570967 61.6007109,21.5624834 C61.7224685,21.2681188 61.8916867,21.017511 62.1093594,20.8104116 C62.3267836,20.6033122 62.5849594,20.4444448 62.8836382,20.3333122 C63.182317,20.2224282 63.5085776,20.1669862 63.8626685,20.1669862 C64.2167594,20.1669862 64.5427715,20.2224282 64.8416988,20.3333122 C65.1403776,20.4444448 65.3985533,20.6033122 65.6159776,20.8104116 C65.8336503,21.017511 66.003117,21.2681188 66.1246261,21.5624834 C66.2461352,21.8570967 66.3070139,22.1860193 66.3070139,22.5485055 C66.3070139,22.911489 66.2461352,23.240163 66.1246261,23.5345276 C66.003117,23.8288923 65.8336503,24.0797486 65.6159776,24.2865994 C65.3985533,24.4936989 65.1403776,24.6528149 64.8416988,24.7636989 C64.5427715,24.8745829 64.2167594,24.9302735 63.8626685,24.9302735 C63.5085776,24.9302735 63.182317,24.8745829 62.8836382,24.7636989 C62.5849594,24.6528149 62.3267836,24.4936989 62.1093594,24.2865994 C61.8916867,24.0797486 61.7224685,23.8288923 61.6007109,23.5345276 C61.4794503,23.240163 61.418323,22.911489 61.418323,22.5485055" id="Fill-26" fill="#FFFFFF"></path>
                    <polygon id="Fill-28" fill="#FFFFFF" points="66.9913164 20.2821713 68.0794315 20.2821713 68.8020255 23.1887735 68.8151952 23.1887735 69.7619224 20.2821713 70.6900133 20.2821713 71.6305285 23.2655967 71.6432012 23.2655967 72.4045588 20.2821713 73.4156436 20.2821713 72.0909709 24.8147403 71.2016436 24.8147403 70.2037285 21.6779171 70.1905588 21.6779171 69.1923952 24.8147403 68.3351224 24.8147403"></polygon>
                    <polygon id="Fill-30" fill="#FFFFFF" points="74.3434364 20.2821713 75.6999152 20.2821713 77.6259212 23.4319227 77.6385939 23.4319227 77.6385939 20.2821713 78.6365091 20.2821713 78.6365091 24.8147403 77.3312182 24.8147403 75.3542727 21.5881657 75.3416 21.5881657 75.3416 24.8147403 74.3434364 24.8147403"></polygon>
                    <path d="M34.9224333,30.1614862 L35.4407727,30.1614862 C35.6711182,30.1614862 35.8853121,30.138116 36.0838515,30.0913757 C36.2821424,30.0441381 36.4538455,29.9660718 36.5989606,29.8574254 C36.7438273,29.7485304 36.8578818,29.6058232 36.9411242,29.4288066 C37.0243667,29.2512928 37.0658636,29.0349945 37.0658636,28.7786685 C37.0658636,28.5566519 37.0243667,28.3637238 36.9411242,28.1993867 C36.8578818,28.0350497 36.7460636,27.8993039 36.6051727,27.792895 C36.4645303,27.685989 36.2992879,27.6061823 36.1094455,27.5529779 C35.919603,27.4990276 35.7200697,27.4729227 35.5110939,27.4729227 L34.9224333,27.4729227 L34.9224333,30.1614862 Z M33.9242697,26.5507956 L35.4213909,26.5507956 C35.7841788,26.5507956 36.1285788,26.5913204 36.4548394,26.6723702 C36.7811,26.7534199 37.0658636,26.8846906 37.3091303,27.0661823 C37.5521485,27.2474254 37.7452212,27.4833646 37.8881,27.7735028 C38.0309788,28.0638895 38.1025424,28.4159337 38.1025424,28.8301326 C38.1025424,29.1968453 38.0329667,29.5202983 37.8945606,29.7997459 C37.7559061,30.079442 37.5692939,30.3141381 37.3347242,30.5040829 C37.1001545,30.6942762 36.8293061,30.8382265 36.5221788,30.9359337 C36.2150515,31.0346354 35.8927667,31.0833646 35.5558212,31.0833646 L33.9242697,31.0833646 L33.9242697,26.5507956 Z" id="Fill-32" fill="#FFFFFF"></path>
                    <polygon id="Fill-34" fill="#FFFFFF" points="39.2989473 26.5506961 42.3766806 26.5506961 42.3766806 27.4728232 40.2971109 27.4728232 40.2971109 28.3178785 42.2613836 28.3178785 42.2613836 29.2395083 40.2971109 29.2395083 40.2971109 30.1616354 42.4919776 30.1616354 42.4919776 31.0832652 39.2989473 31.0832652"></polygon>
                    <polygon id="Fill-36" fill="#FFFFFF" points="44.6480558 27.4342127 43.3554376 27.4342127 43.3554376 26.5506215 46.9388376 26.5506215 46.9388376 27.4342127 45.6459709 27.4342127 45.6459709 31.0836878 44.6480558 31.0836878"></polygon>
                    <path d="M48.9222685,28.4265 L49.5109291,28.4265 C49.6003836,28.4265 49.6953048,28.423268 49.7956927,28.4168039 C49.8958321,28.4105884 49.9865291,28.3914448 50.0675352,28.3591243 C50.1485412,28.3273011 50.2156321,28.2770801 50.2690564,28.2089586 C50.3224806,28.140837 50.3490685,28.0446215 50.3490685,27.9208094 C50.3490685,27.8056989 50.3254624,27.7137099 50.2787473,27.6453398 C50.2317836,27.5774669 50.1721473,27.5250083 50.0995897,27.4887099 C50.0270321,27.4524116 49.9437897,27.428047 49.8501109,27.4151188 C49.7556867,27.4021906 49.6644927,27.3957265 49.5747897,27.3957265 L48.9222685,27.3957265 L48.9222685,28.4265 Z M47.9238564,26.5506713 L49.6774139,26.5506713 C49.9077594,26.5506713 50.1261776,26.573047 50.3331655,26.618047 C50.5401533,26.6627983 50.7212988,26.7376326 50.8770988,26.8423011 C51.0326503,26.946721 51.1561473,27.0876878 51.2480867,27.2647044 C51.3397776,27.441721 51.3857473,27.6627431 51.3857473,27.9272735 C51.3857473,28.2472459 51.3025048,28.5192348 51.1362685,28.743489 C50.9697836,28.9674945 50.7267655,29.1094558 50.406717,29.1693729 L51.5584442,31.0832403 L50.3619897,31.0832403 L49.4147655,29.2715552 L48.9222685,29.2715552 L48.9222685,31.0832403 L47.9238564,31.0832403 L47.9238564,26.5506713 Z" id="Fill-38" fill="#FFFFFF"></path>
                    <path d="M53.3435594,28.8171547 C53.3435594,29.030221 53.3766079,29.225884 53.4427048,29.4026519 C53.5088018,29.5799171 53.603723,29.7338122 53.7274685,29.8638398 C53.8512139,29.9938674 53.9993109,30.0953039 54.1722564,30.1679006 C54.3449533,30.2407459 54.5380261,30.2767956 54.7512261,30.2767956 C54.9641776,30.2767956 55.1574988,30.2407459 55.3304442,30.1679006 C55.5028927,30.0953039 55.6512382,29.9938674 55.7749836,29.8638398 C55.8984806,29.7338122 55.9936503,29.5799171 56.0597473,29.4026519 C56.1255958,29.225884 56.1591412,29.030221 56.1591412,28.8171547 C56.1591412,28.6078177 56.1255958,28.413895 56.0597473,28.2343923 C55.9936503,28.0553867 55.8984806,27.9004972 55.7749836,27.7704696 C55.6512382,27.640442 55.5028927,27.5387569 55.3304442,27.4661602 C55.1574988,27.3935635 54.9641776,27.3575138 54.7512261,27.3575138 C54.5380261,27.3575138 54.3449533,27.3935635 54.1722564,27.4661602 C53.9993109,27.5387569 53.8512139,27.640442 53.7274685,27.7704696 C53.603723,27.9004972 53.5088018,28.0553867 53.4427048,28.2343923 C53.3766079,28.413895 53.3435594,28.6078177 53.3435594,28.8171547 M52.3068806,28.8171547 C52.3068806,28.4546685 52.3677594,28.1257459 52.4892685,27.830884 C52.6110261,27.536768 52.7802442,27.2861602 52.997917,27.0793094 C53.2153412,26.8719613 53.473517,26.7130939 53.7721958,26.6019613 C54.0708745,26.4910773 54.3968867,26.4353867 54.7512261,26.4353867 C55.105317,26.4353867 55.4313291,26.4910773 55.7302564,26.6019613 C56.0286867,26.7130939 56.2871109,26.8719613 56.5045352,27.0793094 C56.7222079,27.2861602 56.8914261,27.536768 57.0131836,27.830884 C57.1346927,28.1257459 57.1955715,28.4546685 57.1955715,28.8171547 C57.1955715,29.1798895 57.1346927,29.5083149 57.0131836,29.8031768 C56.8914261,30.0972928 56.7222079,30.3481492 56.5045352,30.555 C56.2871109,30.7620994 56.0286867,30.9212155 55.7302564,31.0323481 C55.4313291,31.1429834 55.105317,31.1989227 54.7512261,31.1989227 C54.3968867,31.1989227 54.0708745,31.1429834 53.7721958,31.0323481 C53.473517,30.9212155 53.2153412,30.7620994 52.997917,30.555 C52.7802442,30.3481492 52.6110261,30.0972928 52.4892685,29.8031768 C52.3677594,29.5083149 52.3068806,29.1798895 52.3068806,28.8171547" id="Fill-40" fill="#FFFFFF"></path>
                    <mask id="mask-2" fill="white">
                        <use xlink:href="#path-1"></use>
                    </mask>
                    <g id="Clip-43"></g>
                    <polygon id="Fill-42" fill="#FFFFFF" mask="url(#mask-2)" points="58.3407636 31.0833149 59.3389273 31.0833149 59.3389273 26.5507459 58.3407636 26.5507459"></polygon>
                    <polygon id="Fill-44" fill="#FFFFFF" mask="url(#mask-2)" points="61.6042145 27.4342127 60.3115964 27.4342127 60.3115964 26.5506215 63.8949964 26.5506215 63.8949964 27.4342127 62.6021297 27.4342127 62.6021297 31.0836878 61.6042145 31.0836878"></polygon>
                    <path d="M34.9224333,34.7398011 L35.5878758,34.7398011 C35.6775788,34.7398011 35.763803,34.7315967 35.8470455,34.7141934 C35.9302879,34.6972873 36.0048333,34.6686961 36.0709303,34.6279227 C36.1370273,34.5876464 36.1904515,34.5317072 36.2309545,34.4618453 C36.2714576,34.3912376 36.2918333,34.3024807 36.2918333,34.1958232 C36.2918333,34.0807127 36.264997,33.9879779 36.2118212,33.9171215 C36.158397,33.847011 36.0900636,33.7925635 36.0070697,33.753779 C35.9238273,33.7157403 35.8311424,33.6911271 35.7287667,33.6801878 C35.6263909,33.6694972 35.5282394,33.6645249 35.4343121,33.6645249 L34.9224333,33.6645249 L34.9224333,34.7398011 Z M33.9242697,32.819221 L35.6070091,32.819221 C35.8415788,32.819221 36.0634758,32.8406022 36.2724515,32.8833646 C36.4814273,32.9261271 36.6638152,32.9997182 36.8196152,33.1046354 C36.9754152,33.2090552 37.0989121,33.3497735 37.190603,33.5267901 C37.2825424,33.7038066 37.3282636,33.9268177 37.3282636,34.1958232 C37.3282636,34.4603536 37.2855242,34.6826188 37.2002939,34.8616243 C37.1148152,35.0406298 36.9977788,35.1838343 36.8484394,35.2907403 C36.6991,35.3973978 36.5221788,35.4727293 36.3174273,35.5179779 C36.1126758,35.5629779 35.8907788,35.585105 35.6517364,35.585105 L34.9224333,35.585105 L34.9224333,37.3520387 L33.9242697,37.3520387 L33.9242697,32.819221 Z" id="Fill-45" fill="#FFFFFF" mask="url(#mask-2)"></path>
                    <path d="M39.8364448,34.1381685 L39.2860509,35.5465939 L40.3930509,35.5465939 L39.8364448,34.1381685 Z M39.4525358,32.8192459 L40.2780024,32.8192459 L42.2487358,37.3520635 L41.1226024,37.3520635 L40.7322327,36.3916492 L38.9727115,36.3916492 L38.5950145,37.3520635 L37.4944752,37.3520635 L39.4525358,32.8192459 Z" id="Fill-46" fill="#FFFFFF" mask="url(#mask-2)"></path>
                    <path d="M44.1811776,34.6951492 L44.7698382,34.6951492 C44.8592927,34.6951492 44.9542139,34.6919171 45.0546018,34.685453 C45.1547412,34.6792376 45.2454382,34.6600939 45.3264442,34.6277735 C45.4074503,34.5959503 45.4745412,34.5454807 45.5279655,34.4776077 C45.5813897,34.4094862 45.6079776,34.3132707 45.6079776,34.1894586 C45.6079776,34.0743481 45.58462,33.9823591 45.5376564,33.9137403 C45.4904442,33.846116 45.4310564,33.7936575 45.3584988,33.7573591 C45.2859412,33.7210608 45.2026988,33.6966961 45.10902,33.683768 C45.0148442,33.6708398 44.9234018,33.6643757 44.8336988,33.6643757 L44.1811776,33.6643757 L44.1811776,34.6951492 Z M43.1830139,32.8193204 L44.936323,32.8193204 C45.1666685,32.8193204 45.3850867,32.8416961 45.5920745,32.8866961 C45.7988139,32.9314475 45.9802079,33.0062818 46.1360079,33.1109503 C46.2915594,33.2153702 46.4150564,33.356337 46.5069958,33.5333536 C46.5986867,33.7103702 46.6446564,33.9313923 46.6446564,34.195674 C46.6446564,34.515895 46.5614139,34.787884 46.3951776,35.0121381 C46.2286927,35.2361436 45.9856745,35.378105 45.6656261,35.4380221 L46.8173533,37.3518895 L45.6208988,37.3518895 L44.673923,35.5399558 L44.1811776,35.5399558 L44.1811776,37.3518895 L43.1830139,37.3518895 L43.1830139,32.8193204 Z" id="Fill-47" fill="#FFFFFF" mask="url(#mask-2)"></path>
                    <polygon id="Fill-48" fill="#FFFFFF" mask="url(#mask-2)" points="48.5706624 33.702837 47.2780442 33.702837 47.2780442 32.8192459 50.8614442 32.8192459 50.8614442 33.702837 49.5685776 33.702837 49.5685776 37.3523122 48.5706624 37.3523122"></polygon>
                    <polygon id="Fill-49" fill="#FFFFFF" mask="url(#mask-2)" points="51.8463388 32.8193204 53.2028176 32.8193204 55.1288236 35.9690718 55.1417448 35.9690718 55.1417448 32.8193204 56.13966 32.8193204 56.13966 37.3518895 54.8343691 37.3518895 52.8574236 34.1255635 52.8447509 34.1255635 52.8447509 37.3518895 51.8463388 37.3518895"></polygon>
                    <polygon id="Fill-50" fill="#FFFFFF" mask="url(#mask-2)" points="57.5794558 32.8193204 60.6571891 32.8193204 60.6571891 33.7414475 58.5778679 33.7414475 58.5778679 34.5865028 60.5418921 34.5865028 60.5418921 35.5081326 58.5778679 35.5081326 58.5778679 36.4302597 60.7727345 36.4302597 60.7727345 37.3518895 57.5794558 37.3518895"></polygon>
                    <path d="M63.0502473,34.6951492 L63.6389079,34.6951492 C63.7286109,34.6951492 63.8232836,34.6919171 63.9236715,34.685453 C64.0238109,34.6792376 64.1145079,34.6600939 64.1955139,34.6277735 C64.2767685,34.5959503 64.3436109,34.5454807 64.3970352,34.4776077 C64.4504594,34.4094862 64.4770473,34.3132707 64.4770473,34.1894586 C64.4770473,34.0743481 64.4536897,33.9823591 64.4067261,33.9137403 C64.3597624,33.846116 64.3001261,33.7936575 64.2275685,33.7573591 C64.1550109,33.7210608 64.0717685,33.6966961 63.9780897,33.683768 C63.8839139,33.6708398 63.7924715,33.6643757 63.703017,33.6643757 L63.0502473,33.6643757 L63.0502473,34.6951492 Z M62.0520836,32.8193204 L63.8053927,32.8193204 C64.0357382,32.8193204 64.2541564,32.8416961 64.4611442,32.8866961 C64.6678836,32.9314475 64.8492776,33.0062818 65.0050776,33.1109503 C65.1606291,33.2153702 65.2841261,33.356337 65.3760655,33.5333536 C65.4680048,33.7103702 65.5137261,33.9313923 65.5137261,34.195674 C65.5137261,34.515895 65.4304836,34.787884 65.2642473,35.0121381 C65.0977624,35.2361436 64.8547442,35.378105 64.5349442,35.4380221 L65.686423,37.3518895 L64.4899685,37.3518895 L63.5429927,35.5399558 L63.0502473,35.5399558 L63.0502473,37.3518895 L62.0520836,37.3518895 L62.0520836,32.8193204 Z" id="Fill-51" fill="#FFFFFF" mask="url(#mask-2)"></path>
                    <path d="M68.9177945,33.926942 C68.83654,33.824511 68.7264612,33.7486823 68.5883036,33.6997044 C68.4491521,33.6504779 68.3182006,33.6261133 68.1947036,33.6261133 C68.1221461,33.6261133 68.0476006,33.6345663 67.9705703,33.6519696 C67.8937885,33.6686271 67.8212309,33.6954779 67.7531461,33.7315276 C67.6848127,33.767826 67.6291521,33.816058 67.5869097,33.8757265 C67.5441703,33.935395 67.5228006,34.0079917 67.5228006,34.093268 C67.5228006,34.2300083 67.5739885,34.3344282 67.6763642,34.4072735 C67.77874,34.4798702 67.9077036,34.5417762 68.0635036,34.5927431 C68.2188067,34.6439586 68.3865339,34.6949254 68.56594,34.7461409 C68.7448491,34.797605 68.9125764,34.8702017 69.0678794,34.9641796 C69.2236794,35.0579088 69.352643,35.1842072 69.4550188,35.3418315 C69.5573945,35.4997044 69.6085824,35.7110304 69.6085824,35.9755608 C69.6085824,36.2276602 69.5616188,36.4471906 69.4681885,36.6351464 C69.3740127,36.8228536 69.247037,36.978489 69.0872612,37.1020525 C68.9274855,37.2263619 68.7418673,37.3178536 68.5301582,37.3775221 C68.319443,37.4371906 68.0963036,37.4672735 67.8619824,37.4672735 C67.5672794,37.4672735 67.294443,37.4227707 67.0427279,37.3325221 C66.7910127,37.2430193 66.5566915,37.0980746 66.3390188,36.8974392 L67.04894,36.1167762 C67.1515642,36.2530193 67.2805279,36.3586823 67.4365764,36.433268 C67.5921279,36.5081022 67.7531461,36.545395 67.9193824,36.545395 C68.0003885,36.545395 68.0828855,36.5356989 68.1658794,36.5165552 C68.2488733,36.4974116 68.3234188,36.4688204 68.3897642,36.4300359 C68.4558612,36.3915 68.509037,36.3425221 68.5497885,36.2831022 C68.5902915,36.2231851 68.6104188,36.1525773 68.6104188,36.0715276 C68.6104188,35.9350359 68.5584855,35.8276326 68.4538733,35.7483232 C68.3492612,35.6692624 68.2180612,35.6021354 68.0602733,35.5464448 C67.9024855,35.4912514 67.7317764,35.4355608 67.5481461,35.3801188 C67.3650127,35.3246768 67.1943036,35.2500912 67.0365158,35.1561133 C66.8787279,35.0621354 66.7475279,34.9383232 66.6429158,34.7849254 C66.5383036,34.631279 66.4861218,34.4286547 66.4861218,34.1765552 C66.4861218,33.9334061 66.5340794,33.7198425 66.630243,33.5363619 C66.7264067,33.3528812 66.8541279,33.1992348 67.0141521,33.0754227 C67.1736794,32.9516105 67.3588006,32.8588757 67.5672794,32.7969696 C67.7762552,32.7350635 67.9916915,32.7042348 68.213837,32.7042348 C68.4695279,32.7042348 68.7167703,32.7407818 68.9558127,32.8131298 C69.1948552,32.8859751 69.410043,33.0073011 69.6023703,33.1778536 L68.9177945,33.926942 Z" id="Fill-52" fill="#FFFFFF" mask="url(#mask-2)"></path>
                    <polygon id="Fill-53" fill="#FFFFFF" mask="url(#mask-2)" points="70.8306806 32.8193204 71.8288442 32.8193204 71.8288442 34.5094309 73.7672745 34.5094309 73.7672745 32.8193204 74.7659352 32.8193204 74.7659352 37.3518895 73.7672745 37.3518895 73.7672745 35.3932707 71.8288442 35.3932707 71.8288442 37.3518895 70.8306806 37.3518895"></polygon>
                    <polygon id="Fill-54" fill="#FFFFFF" mask="url(#mask-2)" points="76.1541455 37.351989 77.1523091 37.351989 77.1523091 32.8194199 76.1541455 32.8194199"></polygon>
                    <path d="M79.5390558,34.7398011 L80.2044982,34.7398011 C80.2942012,34.7398011 80.3804255,34.7315967 80.4636679,34.7141934 C80.5469103,34.6972873 80.6214558,34.6686961 80.6875527,34.6279227 C80.7536497,34.5876464 80.8070739,34.5317072 80.847577,34.4618453 C80.88808,34.3912376 80.9084558,34.3024807 80.9084558,34.1958232 C80.9084558,34.0807127 80.8816194,33.9879779 80.8284436,33.9171215 C80.7750194,33.847011 80.7066861,33.7925635 80.6236921,33.753779 C80.5404497,33.7157403 80.4477648,33.6911271 80.3453891,33.6801878 C80.2430133,33.6694972 80.1446133,33.6645249 80.0509345,33.6645249 L79.5390558,33.6645249 L79.5390558,34.7398011 Z M78.5408921,32.819221 L80.2236315,32.819221 C80.4582012,32.819221 80.6800982,32.8406022 80.8890739,32.8833646 C81.0980497,32.9261271 81.2804376,32.9997182 81.4362376,33.1046354 C81.5920376,33.2090552 81.7155345,33.3497735 81.8072255,33.5267901 C81.8989164,33.7038066 81.9448861,33.9268177 81.9448861,34.1958232 C81.9448861,34.4603536 81.9021467,34.6826188 81.8169164,34.8616243 C81.7316861,35.0406298 81.6146497,35.1838343 81.4650618,35.2907403 C81.3157224,35.3973978 81.1388012,35.4727293 80.9340497,35.5179779 C80.7292982,35.5629779 80.5074012,35.585105 80.2683588,35.585105 L79.5390558,35.585105 L79.5390558,37.3520387 L78.5408921,37.3520387 L78.5408921,32.819221 Z" id="Fill-55" fill="#FFFFFF" mask="url(#mask-2)"></path>
                </g>
            </g>
        </g>
    </g>
</svg>